M48
;GenerationSoftware,Autodesk,EAGLE,9.4.2*%
;CreationDate,2019-09-02T21:07:51Z*%
FMAT,2
ICI,OFF
METRIC,TZ,000.000
T8C0.610
T7C0.711
T6C0.813
T5C1.016
T4C1.118
T3C1.600
T2C3.302
%
G90
M71
T2
X90170Y36576
X90170Y27686
X90170Y54356
X64770Y27686
X90170Y45466
T3
X115570Y32820
X115570Y17820
X115570Y22820
X115570Y27820
X115570Y37820
T4
X87630Y12700
X92710Y39370
X90170Y39370
X87630Y39370
X67310Y12700
X64770Y12700
X62230Y12700
X90170Y12700
X92710Y12700
X92710Y21590
X90170Y21590
X87630Y21590
X87630Y30480
X90170Y30480
X92710Y30480
T5
X30480Y35560
X25400Y30480
X25400Y35560
X30480Y30480
T6
X102870Y15240
X80010Y31750
X102870Y38100
X102870Y43180
X80010Y26670
X76200Y31750
X76200Y26670
X76200Y41910
X76200Y36830
X67310Y6350
X63500Y41910
X63500Y36830
X102870Y34290
X102870Y29210
X69850Y36830
X69850Y31750
X102870Y25400
X102870Y20320
X56896Y10160
X56896Y15240
X62230Y6350
X102870Y10160
T7
X41910Y27559
X41910Y25781
X41910Y37719
X41910Y35941
T8
X73660Y11430
X73660Y8890
X73660Y6350
M30