G04 EAGLE Gerber RS-274X export*
G75*
%MOMM*%
%FSLAX34Y34*%
%LPD*%
%INTop Copper*%
%IPPOS*%
%AMOC8*
5,1,8,0,0,1.08239X$1,22.5*%
G01*
%ADD10R,5.080000X3.810000*%
%ADD11R,5.080000X2.540000*%
%ADD12R,16.510000X3.810000*%
%ADD13C,0.130000*%
%ADD14C,0.152400*%
%ADD15C,0.130000*%
%ADD16C,1.524000*%
%ADD17P,1.649562X8X112.500000*%
%ADD18P,1.319650X8X292.500000*%
%ADD19C,1.219200*%
%ADD20P,1.732040X8X292.500000*%
%ADD21P,1.732040X8X112.500000*%
%ADD22C,1.676400*%
%ADD23P,1.429621X8X22.500000*%
%ADD24R,9.400000X5.900000*%
%ADD25C,2.400000*%
%ADD26C,1.117600*%
%ADD27C,1.778000*%
%ADD28C,1.905000*%
%ADD29C,1.270000*%
%ADD30C,0.609600*%
%ADD31C,2.540000*%
%ADD32C,0.635000*%


D10*
X1155700Y222250D03*
X1155700Y171450D03*
X1155700Y323850D03*
D11*
X1155700Y381000D03*
D10*
X1155700Y374650D03*
D12*
X1035050Y336550D03*
D13*
X-38100Y0D02*
X-38100Y-32200D01*
X1231900Y-32200D02*
X1231900Y0D01*
X1231250Y-12700D02*
X-37450Y-12700D01*
X-12100Y-9508D01*
X-12100Y-15892D01*
X-37450Y-12700D01*
X-12100Y-11400D01*
X-12100Y-14000D02*
X-37450Y-12700D01*
X-12100Y-10100D01*
X-12100Y-15300D02*
X-37450Y-12700D01*
X1205900Y-9508D02*
X1231250Y-12700D01*
X1205900Y-9508D02*
X1205900Y-15892D01*
X1231250Y-12700D01*
X1205900Y-11400D01*
X1205900Y-14000D02*
X1231250Y-12700D01*
X1205900Y-10100D01*
X1205900Y-15300D02*
X1231250Y-12700D01*
D14*
X563261Y10063D02*
X558745Y6451D01*
X563261Y10063D02*
X563261Y-6193D01*
X567776Y-6193D02*
X558745Y-6193D01*
X579344Y10063D02*
X579469Y10061D01*
X579594Y10055D01*
X579719Y10046D01*
X579843Y10032D01*
X579967Y10015D01*
X580091Y9994D01*
X580213Y9969D01*
X580335Y9940D01*
X580456Y9908D01*
X580576Y9872D01*
X580695Y9832D01*
X580812Y9789D01*
X580928Y9742D01*
X581043Y9691D01*
X581155Y9637D01*
X581267Y9579D01*
X581376Y9519D01*
X581483Y9454D01*
X581589Y9387D01*
X581692Y9316D01*
X581793Y9242D01*
X581892Y9165D01*
X581988Y9085D01*
X582082Y9002D01*
X582173Y8917D01*
X582262Y8828D01*
X582347Y8737D01*
X582430Y8643D01*
X582510Y8547D01*
X582587Y8448D01*
X582661Y8347D01*
X582732Y8244D01*
X582799Y8138D01*
X582864Y8031D01*
X582924Y7922D01*
X582982Y7810D01*
X583036Y7698D01*
X583087Y7583D01*
X583134Y7467D01*
X583177Y7350D01*
X583217Y7231D01*
X583253Y7111D01*
X583285Y6990D01*
X583314Y6868D01*
X583339Y6746D01*
X583360Y6622D01*
X583377Y6498D01*
X583391Y6374D01*
X583400Y6249D01*
X583406Y6124D01*
X583408Y5999D01*
X579344Y10063D02*
X579201Y10061D01*
X579059Y10055D01*
X578916Y10045D01*
X578774Y10032D01*
X578633Y10014D01*
X578491Y9993D01*
X578351Y9968D01*
X578211Y9939D01*
X578072Y9906D01*
X577934Y9869D01*
X577797Y9829D01*
X577662Y9785D01*
X577527Y9737D01*
X577394Y9685D01*
X577262Y9630D01*
X577132Y9571D01*
X577004Y9509D01*
X576877Y9443D01*
X576752Y9374D01*
X576629Y9302D01*
X576509Y9226D01*
X576390Y9147D01*
X576273Y9064D01*
X576159Y8979D01*
X576047Y8890D01*
X575938Y8799D01*
X575831Y8704D01*
X575726Y8607D01*
X575625Y8506D01*
X575526Y8403D01*
X575430Y8298D01*
X575337Y8189D01*
X575247Y8078D01*
X575160Y7965D01*
X575076Y7850D01*
X574996Y7732D01*
X574918Y7612D01*
X574844Y7490D01*
X574774Y7366D01*
X574706Y7240D01*
X574643Y7112D01*
X574582Y6983D01*
X574525Y6852D01*
X574472Y6720D01*
X574423Y6586D01*
X574377Y6451D01*
X582052Y2838D02*
X582146Y2930D01*
X582236Y3024D01*
X582324Y3121D01*
X582409Y3221D01*
X582491Y3323D01*
X582570Y3428D01*
X582645Y3535D01*
X582717Y3644D01*
X582786Y3755D01*
X582852Y3869D01*
X582914Y3984D01*
X582973Y4101D01*
X583028Y4220D01*
X583079Y4340D01*
X583127Y4462D01*
X583172Y4585D01*
X583212Y4709D01*
X583249Y4835D01*
X583282Y4962D01*
X583311Y5089D01*
X583337Y5218D01*
X583358Y5347D01*
X583376Y5477D01*
X583389Y5607D01*
X583399Y5737D01*
X583405Y5868D01*
X583407Y5999D01*
X582053Y2838D02*
X574376Y-6193D01*
X583408Y-6193D01*
X590008Y8257D02*
X590008Y10063D01*
X599039Y10063D01*
X594523Y-6193D01*
X605013Y-6193D02*
X605013Y-5290D01*
X605917Y-5290D01*
X605917Y-6193D01*
X605013Y-6193D01*
X611891Y1935D02*
X611895Y2255D01*
X611906Y2574D01*
X611925Y2894D01*
X611952Y3212D01*
X611986Y3530D01*
X612028Y3847D01*
X612078Y4163D01*
X612135Y4478D01*
X612199Y4791D01*
X612271Y5103D01*
X612350Y5413D01*
X612437Y5720D01*
X612531Y6026D01*
X612632Y6329D01*
X612741Y6630D01*
X612856Y6928D01*
X612979Y7224D01*
X613109Y7516D01*
X613246Y7805D01*
X613246Y7806D02*
X613285Y7914D01*
X613328Y8021D01*
X613374Y8126D01*
X613425Y8230D01*
X613478Y8332D01*
X613535Y8432D01*
X613596Y8530D01*
X613660Y8625D01*
X613727Y8719D01*
X613798Y8810D01*
X613871Y8899D01*
X613948Y8985D01*
X614027Y9068D01*
X614109Y9149D01*
X614194Y9227D01*
X614282Y9301D01*
X614372Y9373D01*
X614464Y9441D01*
X614559Y9507D01*
X614656Y9569D01*
X614755Y9627D01*
X614857Y9683D01*
X614959Y9734D01*
X615064Y9782D01*
X615170Y9827D01*
X615278Y9868D01*
X615387Y9905D01*
X615497Y9938D01*
X615609Y9967D01*
X615721Y9993D01*
X615834Y10015D01*
X615948Y10032D01*
X616062Y10046D01*
X616177Y10056D01*
X616292Y10062D01*
X616407Y10064D01*
X616407Y10063D02*
X616522Y10061D01*
X616637Y10055D01*
X616752Y10045D01*
X616866Y10031D01*
X616980Y10014D01*
X617093Y9992D01*
X617205Y9966D01*
X617317Y9937D01*
X617427Y9904D01*
X617536Y9867D01*
X617644Y9826D01*
X617750Y9781D01*
X617855Y9733D01*
X617957Y9682D01*
X618058Y9626D01*
X618158Y9568D01*
X618255Y9506D01*
X618349Y9441D01*
X618442Y9372D01*
X618532Y9300D01*
X618620Y9226D01*
X618705Y9148D01*
X618787Y9067D01*
X618866Y8984D01*
X618943Y8898D01*
X619016Y8809D01*
X619087Y8718D01*
X619154Y8624D01*
X619218Y8529D01*
X619279Y8431D01*
X619336Y8331D01*
X619389Y8229D01*
X619440Y8125D01*
X619486Y8020D01*
X619529Y7913D01*
X619568Y7805D01*
X619567Y7805D02*
X619704Y7516D01*
X619834Y7224D01*
X619957Y6928D01*
X620072Y6630D01*
X620181Y6329D01*
X620282Y6026D01*
X620376Y5720D01*
X620463Y5413D01*
X620542Y5103D01*
X620614Y4791D01*
X620678Y4478D01*
X620735Y4163D01*
X620785Y3847D01*
X620827Y3530D01*
X620861Y3212D01*
X620888Y2894D01*
X620907Y2574D01*
X620918Y2255D01*
X620922Y1935D01*
X611892Y1935D02*
X611896Y1615D01*
X611907Y1296D01*
X611926Y976D01*
X611953Y658D01*
X611987Y340D01*
X612029Y23D01*
X612079Y-293D01*
X612136Y-608D01*
X612200Y-921D01*
X612272Y-1233D01*
X612351Y-1543D01*
X612438Y-1850D01*
X612532Y-2156D01*
X612633Y-2459D01*
X612742Y-2760D01*
X612857Y-3058D01*
X612980Y-3354D01*
X613110Y-3646D01*
X613247Y-3935D01*
X613246Y-3936D02*
X613285Y-4044D01*
X613328Y-4151D01*
X613374Y-4256D01*
X613425Y-4360D01*
X613478Y-4462D01*
X613535Y-4562D01*
X613596Y-4660D01*
X613660Y-4755D01*
X613727Y-4849D01*
X613798Y-4940D01*
X613871Y-5029D01*
X613948Y-5115D01*
X614027Y-5198D01*
X614109Y-5279D01*
X614194Y-5357D01*
X614282Y-5431D01*
X614372Y-5503D01*
X614465Y-5572D01*
X614559Y-5637D01*
X614656Y-5699D01*
X614756Y-5757D01*
X614857Y-5813D01*
X614959Y-5864D01*
X615064Y-5912D01*
X615170Y-5957D01*
X615278Y-5998D01*
X615387Y-6035D01*
X615497Y-6068D01*
X615609Y-6097D01*
X615721Y-6123D01*
X615834Y-6145D01*
X615948Y-6162D01*
X616062Y-6176D01*
X616177Y-6186D01*
X616292Y-6192D01*
X616407Y-6194D01*
X619567Y-3935D02*
X619704Y-3646D01*
X619834Y-3354D01*
X619957Y-3058D01*
X620072Y-2760D01*
X620181Y-2459D01*
X620282Y-2156D01*
X620376Y-1850D01*
X620463Y-1543D01*
X620542Y-1233D01*
X620614Y-921D01*
X620678Y-608D01*
X620735Y-293D01*
X620785Y23D01*
X620827Y340D01*
X620861Y658D01*
X620888Y976D01*
X620907Y1296D01*
X620918Y1615D01*
X620922Y1935D01*
X619568Y-3935D02*
X619529Y-4043D01*
X619486Y-4150D01*
X619440Y-4255D01*
X619389Y-4359D01*
X619336Y-4461D01*
X619279Y-4561D01*
X619218Y-4659D01*
X619154Y-4754D01*
X619087Y-4848D01*
X619016Y-4939D01*
X618943Y-5028D01*
X618866Y-5114D01*
X618787Y-5197D01*
X618705Y-5278D01*
X618620Y-5356D01*
X618532Y-5430D01*
X618442Y-5502D01*
X618349Y-5571D01*
X618255Y-5636D01*
X618158Y-5698D01*
X618058Y-5756D01*
X617957Y-5812D01*
X617854Y-5863D01*
X617750Y-5911D01*
X617644Y-5956D01*
X617536Y-5997D01*
X617427Y-6034D01*
X617317Y-6067D01*
X617205Y-6096D01*
X617093Y-6122D01*
X616980Y-6144D01*
X616866Y-6161D01*
X616752Y-6175D01*
X616637Y-6185D01*
X616522Y-6191D01*
X616407Y-6193D01*
X612794Y-2581D02*
X620019Y6451D01*
X627523Y1935D02*
X627527Y2255D01*
X627538Y2574D01*
X627557Y2894D01*
X627584Y3212D01*
X627618Y3530D01*
X627660Y3847D01*
X627710Y4163D01*
X627767Y4478D01*
X627831Y4791D01*
X627903Y5103D01*
X627982Y5413D01*
X628069Y5720D01*
X628163Y6026D01*
X628264Y6329D01*
X628373Y6630D01*
X628488Y6928D01*
X628611Y7224D01*
X628741Y7516D01*
X628878Y7805D01*
X628877Y7806D02*
X628916Y7914D01*
X628959Y8021D01*
X629005Y8126D01*
X629056Y8230D01*
X629109Y8332D01*
X629166Y8432D01*
X629227Y8530D01*
X629291Y8625D01*
X629358Y8719D01*
X629429Y8810D01*
X629502Y8899D01*
X629579Y8985D01*
X629658Y9068D01*
X629740Y9149D01*
X629825Y9227D01*
X629913Y9301D01*
X630003Y9373D01*
X630095Y9441D01*
X630190Y9507D01*
X630287Y9569D01*
X630386Y9627D01*
X630488Y9683D01*
X630590Y9734D01*
X630695Y9782D01*
X630801Y9827D01*
X630909Y9868D01*
X631018Y9905D01*
X631128Y9938D01*
X631240Y9967D01*
X631352Y9993D01*
X631465Y10015D01*
X631579Y10032D01*
X631693Y10046D01*
X631808Y10056D01*
X631923Y10062D01*
X632038Y10064D01*
X632038Y10063D02*
X632153Y10061D01*
X632268Y10055D01*
X632383Y10045D01*
X632497Y10031D01*
X632611Y10014D01*
X632724Y9992D01*
X632836Y9966D01*
X632948Y9937D01*
X633058Y9904D01*
X633167Y9867D01*
X633275Y9826D01*
X633381Y9781D01*
X633486Y9733D01*
X633588Y9682D01*
X633689Y9626D01*
X633789Y9568D01*
X633886Y9506D01*
X633980Y9441D01*
X634073Y9372D01*
X634163Y9300D01*
X634251Y9226D01*
X634336Y9148D01*
X634418Y9067D01*
X634497Y8984D01*
X634574Y8898D01*
X634647Y8809D01*
X634718Y8718D01*
X634785Y8624D01*
X634849Y8529D01*
X634910Y8431D01*
X634967Y8331D01*
X635020Y8229D01*
X635071Y8125D01*
X635117Y8020D01*
X635160Y7913D01*
X635199Y7805D01*
X635198Y7805D02*
X635335Y7516D01*
X635465Y7224D01*
X635588Y6928D01*
X635703Y6630D01*
X635812Y6329D01*
X635913Y6026D01*
X636007Y5720D01*
X636094Y5413D01*
X636173Y5103D01*
X636245Y4791D01*
X636309Y4478D01*
X636366Y4163D01*
X636416Y3847D01*
X636458Y3530D01*
X636492Y3212D01*
X636519Y2894D01*
X636538Y2574D01*
X636549Y2255D01*
X636553Y1935D01*
X627523Y1935D02*
X627527Y1615D01*
X627538Y1296D01*
X627557Y976D01*
X627584Y658D01*
X627618Y340D01*
X627660Y23D01*
X627710Y-293D01*
X627767Y-608D01*
X627831Y-921D01*
X627903Y-1233D01*
X627982Y-1543D01*
X628069Y-1850D01*
X628163Y-2156D01*
X628264Y-2459D01*
X628373Y-2760D01*
X628488Y-3058D01*
X628611Y-3354D01*
X628741Y-3646D01*
X628878Y-3935D01*
X628877Y-3936D02*
X628916Y-4044D01*
X628959Y-4151D01*
X629005Y-4256D01*
X629056Y-4360D01*
X629109Y-4462D01*
X629166Y-4562D01*
X629227Y-4660D01*
X629291Y-4755D01*
X629358Y-4849D01*
X629429Y-4940D01*
X629502Y-5029D01*
X629579Y-5115D01*
X629658Y-5198D01*
X629740Y-5279D01*
X629825Y-5357D01*
X629913Y-5431D01*
X630003Y-5503D01*
X630096Y-5572D01*
X630190Y-5637D01*
X630287Y-5699D01*
X630387Y-5757D01*
X630488Y-5813D01*
X630590Y-5864D01*
X630695Y-5912D01*
X630801Y-5957D01*
X630909Y-5998D01*
X631018Y-6035D01*
X631128Y-6068D01*
X631240Y-6097D01*
X631352Y-6123D01*
X631465Y-6145D01*
X631579Y-6162D01*
X631693Y-6176D01*
X631808Y-6186D01*
X631923Y-6192D01*
X632038Y-6194D01*
X635198Y-3935D02*
X635335Y-3646D01*
X635465Y-3354D01*
X635588Y-3058D01*
X635703Y-2760D01*
X635812Y-2459D01*
X635913Y-2156D01*
X636007Y-1850D01*
X636094Y-1543D01*
X636173Y-1233D01*
X636245Y-921D01*
X636309Y-608D01*
X636366Y-293D01*
X636416Y23D01*
X636458Y340D01*
X636492Y658D01*
X636519Y976D01*
X636538Y1296D01*
X636549Y1615D01*
X636553Y1935D01*
X635199Y-3935D02*
X635160Y-4043D01*
X635117Y-4150D01*
X635071Y-4255D01*
X635020Y-4359D01*
X634967Y-4461D01*
X634910Y-4561D01*
X634849Y-4659D01*
X634785Y-4754D01*
X634718Y-4848D01*
X634647Y-4939D01*
X634574Y-5028D01*
X634497Y-5114D01*
X634418Y-5197D01*
X634336Y-5278D01*
X634251Y-5356D01*
X634163Y-5430D01*
X634073Y-5502D01*
X633980Y-5571D01*
X633886Y-5636D01*
X633789Y-5698D01*
X633689Y-5756D01*
X633588Y-5812D01*
X633485Y-5863D01*
X633381Y-5911D01*
X633275Y-5956D01*
X633167Y-5997D01*
X633058Y-6034D01*
X632948Y-6067D01*
X632836Y-6096D01*
X632724Y-6122D01*
X632611Y-6144D01*
X632497Y-6161D01*
X632383Y-6175D01*
X632268Y-6185D01*
X632153Y-6191D01*
X632038Y-6193D01*
X628426Y-2581D02*
X635651Y6451D01*
D15*
X1282700Y25400D03*
X1282700Y508000D03*
D13*
X1282700Y507350D02*
X1282700Y26050D01*
X1279508Y51400D01*
X1285892Y51400D01*
X1282700Y26050D01*
X1281400Y51400D01*
X1284000Y51400D02*
X1282700Y26050D01*
X1280100Y51400D01*
X1285300Y51400D02*
X1282700Y26050D01*
X1279508Y482000D02*
X1282700Y507350D01*
X1279508Y482000D02*
X1285892Y482000D01*
X1282700Y507350D01*
X1281400Y482000D01*
X1284000Y482000D02*
X1282700Y507350D01*
X1280100Y482000D01*
X1285300Y482000D02*
X1282700Y507350D01*
D14*
X1259937Y239254D02*
X1272581Y235641D01*
X1272581Y244672D01*
X1268968Y241963D02*
X1276193Y241963D01*
X1271677Y251272D02*
X1271544Y251274D01*
X1271412Y251280D01*
X1271280Y251290D01*
X1271148Y251303D01*
X1271016Y251321D01*
X1270886Y251342D01*
X1270755Y251367D01*
X1270626Y251396D01*
X1270498Y251429D01*
X1270370Y251465D01*
X1270244Y251505D01*
X1270119Y251549D01*
X1269995Y251597D01*
X1269873Y251648D01*
X1269752Y251703D01*
X1269633Y251761D01*
X1269515Y251823D01*
X1269400Y251888D01*
X1269286Y251957D01*
X1269175Y252028D01*
X1269066Y252104D01*
X1268959Y252182D01*
X1268854Y252263D01*
X1268752Y252348D01*
X1268652Y252435D01*
X1268555Y252525D01*
X1268460Y252618D01*
X1268369Y252714D01*
X1268280Y252812D01*
X1268194Y252913D01*
X1268111Y253017D01*
X1268031Y253123D01*
X1267955Y253231D01*
X1267881Y253341D01*
X1267811Y253454D01*
X1267744Y253568D01*
X1267681Y253685D01*
X1267621Y253803D01*
X1267564Y253923D01*
X1267511Y254045D01*
X1267462Y254168D01*
X1267416Y254292D01*
X1267374Y254418D01*
X1267336Y254545D01*
X1267301Y254673D01*
X1267270Y254802D01*
X1267243Y254931D01*
X1267220Y255062D01*
X1267200Y255193D01*
X1267185Y255325D01*
X1267173Y255457D01*
X1267165Y255589D01*
X1267161Y255722D01*
X1267161Y255854D01*
X1267165Y255987D01*
X1267173Y256119D01*
X1267185Y256251D01*
X1267200Y256383D01*
X1267220Y256514D01*
X1267243Y256645D01*
X1267270Y256774D01*
X1267301Y256903D01*
X1267336Y257031D01*
X1267374Y257158D01*
X1267416Y257284D01*
X1267462Y257408D01*
X1267511Y257531D01*
X1267564Y257653D01*
X1267621Y257773D01*
X1267681Y257891D01*
X1267744Y258008D01*
X1267811Y258122D01*
X1267881Y258235D01*
X1267955Y258345D01*
X1268031Y258453D01*
X1268111Y258559D01*
X1268194Y258663D01*
X1268280Y258764D01*
X1268369Y258862D01*
X1268460Y258958D01*
X1268555Y259051D01*
X1268652Y259141D01*
X1268752Y259228D01*
X1268854Y259313D01*
X1268959Y259394D01*
X1269066Y259472D01*
X1269175Y259548D01*
X1269286Y259619D01*
X1269400Y259688D01*
X1269515Y259753D01*
X1269633Y259815D01*
X1269752Y259873D01*
X1269873Y259928D01*
X1269995Y259979D01*
X1270119Y260027D01*
X1270244Y260071D01*
X1270370Y260111D01*
X1270498Y260147D01*
X1270626Y260180D01*
X1270755Y260209D01*
X1270886Y260234D01*
X1271016Y260255D01*
X1271148Y260273D01*
X1271280Y260286D01*
X1271412Y260296D01*
X1271544Y260302D01*
X1271677Y260304D01*
X1271810Y260302D01*
X1271942Y260296D01*
X1272074Y260286D01*
X1272206Y260273D01*
X1272338Y260255D01*
X1272468Y260234D01*
X1272599Y260209D01*
X1272728Y260180D01*
X1272856Y260147D01*
X1272984Y260111D01*
X1273110Y260071D01*
X1273235Y260027D01*
X1273359Y259979D01*
X1273481Y259928D01*
X1273602Y259873D01*
X1273721Y259815D01*
X1273839Y259753D01*
X1273954Y259688D01*
X1274068Y259619D01*
X1274179Y259548D01*
X1274288Y259472D01*
X1274395Y259394D01*
X1274500Y259313D01*
X1274602Y259228D01*
X1274702Y259141D01*
X1274799Y259051D01*
X1274894Y258958D01*
X1274985Y258862D01*
X1275074Y258764D01*
X1275160Y258663D01*
X1275243Y258559D01*
X1275323Y258453D01*
X1275399Y258345D01*
X1275473Y258235D01*
X1275543Y258122D01*
X1275610Y258008D01*
X1275673Y257891D01*
X1275733Y257773D01*
X1275790Y257653D01*
X1275843Y257531D01*
X1275892Y257408D01*
X1275938Y257284D01*
X1275980Y257158D01*
X1276018Y257031D01*
X1276053Y256903D01*
X1276084Y256774D01*
X1276111Y256645D01*
X1276134Y256514D01*
X1276154Y256383D01*
X1276169Y256251D01*
X1276181Y256119D01*
X1276189Y255987D01*
X1276193Y255854D01*
X1276193Y255722D01*
X1276189Y255589D01*
X1276181Y255457D01*
X1276169Y255325D01*
X1276154Y255193D01*
X1276134Y255062D01*
X1276111Y254931D01*
X1276084Y254802D01*
X1276053Y254673D01*
X1276018Y254545D01*
X1275980Y254418D01*
X1275938Y254292D01*
X1275892Y254168D01*
X1275843Y254045D01*
X1275790Y253923D01*
X1275733Y253803D01*
X1275673Y253685D01*
X1275610Y253568D01*
X1275543Y253454D01*
X1275473Y253341D01*
X1275399Y253231D01*
X1275323Y253123D01*
X1275243Y253017D01*
X1275160Y252913D01*
X1275074Y252812D01*
X1274985Y252714D01*
X1274894Y252618D01*
X1274799Y252525D01*
X1274702Y252435D01*
X1274602Y252348D01*
X1274500Y252263D01*
X1274395Y252182D01*
X1274288Y252104D01*
X1274179Y252028D01*
X1274068Y251957D01*
X1273954Y251888D01*
X1273839Y251823D01*
X1273721Y251761D01*
X1273602Y251703D01*
X1273481Y251648D01*
X1273359Y251597D01*
X1273235Y251549D01*
X1273110Y251505D01*
X1272984Y251465D01*
X1272856Y251429D01*
X1272728Y251396D01*
X1272599Y251367D01*
X1272468Y251342D01*
X1272338Y251321D01*
X1272206Y251303D01*
X1272074Y251290D01*
X1271942Y251280D01*
X1271810Y251274D01*
X1271677Y251272D01*
X1263549Y252176D02*
X1263430Y252178D01*
X1263310Y252184D01*
X1263191Y252194D01*
X1263073Y252208D01*
X1262954Y252225D01*
X1262837Y252247D01*
X1262720Y252272D01*
X1262605Y252302D01*
X1262490Y252335D01*
X1262376Y252372D01*
X1262264Y252412D01*
X1262153Y252457D01*
X1262044Y252505D01*
X1261936Y252556D01*
X1261830Y252611D01*
X1261726Y252670D01*
X1261624Y252732D01*
X1261524Y252797D01*
X1261426Y252866D01*
X1261330Y252938D01*
X1261237Y253013D01*
X1261147Y253090D01*
X1261059Y253171D01*
X1260974Y253255D01*
X1260892Y253342D01*
X1260812Y253431D01*
X1260736Y253523D01*
X1260662Y253617D01*
X1260592Y253714D01*
X1260525Y253812D01*
X1260461Y253913D01*
X1260401Y254017D01*
X1260344Y254122D01*
X1260291Y254229D01*
X1260241Y254337D01*
X1260195Y254447D01*
X1260153Y254559D01*
X1260114Y254672D01*
X1260079Y254786D01*
X1260048Y254901D01*
X1260020Y255018D01*
X1259997Y255135D01*
X1259977Y255252D01*
X1259961Y255371D01*
X1259949Y255490D01*
X1259941Y255609D01*
X1259937Y255728D01*
X1259937Y255848D01*
X1259941Y255967D01*
X1259949Y256086D01*
X1259961Y256205D01*
X1259977Y256324D01*
X1259997Y256441D01*
X1260020Y256558D01*
X1260048Y256675D01*
X1260079Y256790D01*
X1260114Y256904D01*
X1260153Y257017D01*
X1260195Y257129D01*
X1260241Y257239D01*
X1260291Y257347D01*
X1260344Y257454D01*
X1260401Y257559D01*
X1260461Y257663D01*
X1260525Y257764D01*
X1260592Y257862D01*
X1260662Y257959D01*
X1260736Y258053D01*
X1260812Y258145D01*
X1260892Y258234D01*
X1260974Y258321D01*
X1261059Y258405D01*
X1261147Y258486D01*
X1261237Y258563D01*
X1261330Y258638D01*
X1261426Y258710D01*
X1261524Y258779D01*
X1261624Y258844D01*
X1261726Y258906D01*
X1261830Y258965D01*
X1261936Y259020D01*
X1262044Y259071D01*
X1262153Y259119D01*
X1262264Y259164D01*
X1262376Y259204D01*
X1262490Y259241D01*
X1262605Y259274D01*
X1262720Y259304D01*
X1262837Y259329D01*
X1262954Y259351D01*
X1263073Y259368D01*
X1263191Y259382D01*
X1263310Y259392D01*
X1263430Y259398D01*
X1263549Y259400D01*
X1263668Y259398D01*
X1263788Y259392D01*
X1263907Y259382D01*
X1264025Y259368D01*
X1264144Y259351D01*
X1264261Y259329D01*
X1264378Y259304D01*
X1264493Y259274D01*
X1264608Y259241D01*
X1264722Y259204D01*
X1264834Y259164D01*
X1264945Y259119D01*
X1265054Y259071D01*
X1265162Y259020D01*
X1265268Y258965D01*
X1265372Y258906D01*
X1265474Y258844D01*
X1265574Y258779D01*
X1265672Y258710D01*
X1265768Y258638D01*
X1265861Y258563D01*
X1265951Y258486D01*
X1266039Y258405D01*
X1266124Y258321D01*
X1266206Y258234D01*
X1266286Y258145D01*
X1266362Y258053D01*
X1266436Y257959D01*
X1266506Y257862D01*
X1266573Y257764D01*
X1266637Y257663D01*
X1266697Y257559D01*
X1266754Y257454D01*
X1266807Y257347D01*
X1266857Y257239D01*
X1266903Y257129D01*
X1266945Y257017D01*
X1266984Y256904D01*
X1267019Y256790D01*
X1267050Y256675D01*
X1267078Y256558D01*
X1267101Y256441D01*
X1267121Y256324D01*
X1267137Y256205D01*
X1267149Y256086D01*
X1267157Y255967D01*
X1267161Y255848D01*
X1267161Y255728D01*
X1267157Y255609D01*
X1267149Y255490D01*
X1267137Y255371D01*
X1267121Y255252D01*
X1267101Y255135D01*
X1267078Y255018D01*
X1267050Y254901D01*
X1267019Y254786D01*
X1266984Y254672D01*
X1266945Y254559D01*
X1266903Y254447D01*
X1266857Y254337D01*
X1266807Y254229D01*
X1266754Y254122D01*
X1266697Y254017D01*
X1266637Y253913D01*
X1266573Y253812D01*
X1266506Y253714D01*
X1266436Y253617D01*
X1266362Y253523D01*
X1266286Y253431D01*
X1266206Y253342D01*
X1266124Y253255D01*
X1266039Y253171D01*
X1265951Y253090D01*
X1265861Y253013D01*
X1265768Y252938D01*
X1265672Y252866D01*
X1265574Y252797D01*
X1265474Y252732D01*
X1265372Y252670D01*
X1265268Y252611D01*
X1265162Y252556D01*
X1265054Y252505D01*
X1264945Y252457D01*
X1264834Y252412D01*
X1264722Y252372D01*
X1264608Y252335D01*
X1264493Y252302D01*
X1264378Y252272D01*
X1264261Y252247D01*
X1264144Y252225D01*
X1264025Y252208D01*
X1263907Y252194D01*
X1263788Y252184D01*
X1263668Y252178D01*
X1263549Y252176D01*
X1275290Y266278D02*
X1276193Y266278D01*
X1275290Y266278D02*
X1275290Y267181D01*
X1276193Y267181D01*
X1276193Y266278D01*
X1264001Y282187D02*
X1263876Y282185D01*
X1263751Y282179D01*
X1263626Y282170D01*
X1263502Y282156D01*
X1263378Y282139D01*
X1263254Y282118D01*
X1263132Y282093D01*
X1263010Y282064D01*
X1262889Y282032D01*
X1262769Y281996D01*
X1262650Y281956D01*
X1262533Y281913D01*
X1262417Y281866D01*
X1262302Y281815D01*
X1262190Y281761D01*
X1262078Y281703D01*
X1261969Y281643D01*
X1261862Y281578D01*
X1261756Y281511D01*
X1261653Y281440D01*
X1261552Y281366D01*
X1261453Y281289D01*
X1261357Y281209D01*
X1261263Y281126D01*
X1261172Y281041D01*
X1261083Y280952D01*
X1260998Y280861D01*
X1260915Y280767D01*
X1260835Y280671D01*
X1260758Y280572D01*
X1260684Y280471D01*
X1260613Y280368D01*
X1260546Y280262D01*
X1260481Y280155D01*
X1260421Y280046D01*
X1260363Y279934D01*
X1260309Y279822D01*
X1260258Y279707D01*
X1260211Y279591D01*
X1260168Y279474D01*
X1260128Y279355D01*
X1260092Y279235D01*
X1260060Y279114D01*
X1260031Y278992D01*
X1260006Y278870D01*
X1259985Y278746D01*
X1259968Y278622D01*
X1259954Y278498D01*
X1259945Y278373D01*
X1259939Y278248D01*
X1259937Y278123D01*
X1259939Y277980D01*
X1259945Y277838D01*
X1259955Y277695D01*
X1259968Y277553D01*
X1259986Y277412D01*
X1260007Y277270D01*
X1260032Y277130D01*
X1260061Y276990D01*
X1260094Y276851D01*
X1260131Y276713D01*
X1260171Y276576D01*
X1260215Y276441D01*
X1260263Y276306D01*
X1260315Y276173D01*
X1260370Y276041D01*
X1260429Y275911D01*
X1260491Y275783D01*
X1260557Y275656D01*
X1260626Y275531D01*
X1260698Y275408D01*
X1260774Y275287D01*
X1260853Y275169D01*
X1260936Y275052D01*
X1261021Y274938D01*
X1261110Y274826D01*
X1261201Y274717D01*
X1261296Y274610D01*
X1261393Y274505D01*
X1261494Y274404D01*
X1261597Y274305D01*
X1261702Y274209D01*
X1261811Y274116D01*
X1261922Y274026D01*
X1262035Y273939D01*
X1262150Y273855D01*
X1262268Y273775D01*
X1262388Y273697D01*
X1262510Y273623D01*
X1262634Y273553D01*
X1262760Y273485D01*
X1262888Y273422D01*
X1263017Y273361D01*
X1263148Y273304D01*
X1263280Y273251D01*
X1263414Y273202D01*
X1263549Y273156D01*
X1267162Y280832D02*
X1267070Y280926D01*
X1266976Y281016D01*
X1266879Y281104D01*
X1266779Y281189D01*
X1266677Y281271D01*
X1266572Y281349D01*
X1266465Y281425D01*
X1266356Y281497D01*
X1266245Y281566D01*
X1266131Y281632D01*
X1266016Y281694D01*
X1265899Y281753D01*
X1265780Y281808D01*
X1265660Y281859D01*
X1265538Y281907D01*
X1265415Y281952D01*
X1265291Y281992D01*
X1265165Y282029D01*
X1265038Y282062D01*
X1264911Y282091D01*
X1264782Y282117D01*
X1264653Y282138D01*
X1264523Y282156D01*
X1264393Y282169D01*
X1264263Y282179D01*
X1264132Y282185D01*
X1264001Y282187D01*
X1267162Y280833D02*
X1276193Y273156D01*
X1276193Y282187D01*
X1267162Y288787D02*
X1267162Y294206D01*
X1267164Y294324D01*
X1267170Y294442D01*
X1267179Y294560D01*
X1267193Y294677D01*
X1267210Y294794D01*
X1267231Y294911D01*
X1267256Y295026D01*
X1267285Y295141D01*
X1267318Y295255D01*
X1267354Y295367D01*
X1267394Y295478D01*
X1267437Y295588D01*
X1267484Y295697D01*
X1267534Y295804D01*
X1267589Y295909D01*
X1267646Y296012D01*
X1267707Y296113D01*
X1267771Y296213D01*
X1267838Y296310D01*
X1267908Y296405D01*
X1267982Y296497D01*
X1268058Y296588D01*
X1268138Y296675D01*
X1268220Y296760D01*
X1268305Y296842D01*
X1268392Y296922D01*
X1268483Y296998D01*
X1268575Y297072D01*
X1268670Y297142D01*
X1268767Y297209D01*
X1268867Y297273D01*
X1268968Y297334D01*
X1269071Y297391D01*
X1269176Y297446D01*
X1269283Y297496D01*
X1269392Y297543D01*
X1269502Y297586D01*
X1269613Y297626D01*
X1269725Y297662D01*
X1269839Y297695D01*
X1269954Y297724D01*
X1270069Y297749D01*
X1270186Y297770D01*
X1270303Y297787D01*
X1270420Y297801D01*
X1270538Y297810D01*
X1270656Y297816D01*
X1270774Y297818D01*
X1270774Y297819D02*
X1271677Y297819D01*
X1271810Y297817D01*
X1271942Y297811D01*
X1272074Y297801D01*
X1272206Y297788D01*
X1272338Y297770D01*
X1272468Y297749D01*
X1272599Y297724D01*
X1272728Y297695D01*
X1272856Y297662D01*
X1272984Y297626D01*
X1273110Y297586D01*
X1273235Y297542D01*
X1273359Y297494D01*
X1273481Y297443D01*
X1273602Y297388D01*
X1273721Y297330D01*
X1273839Y297268D01*
X1273954Y297203D01*
X1274068Y297134D01*
X1274179Y297063D01*
X1274288Y296987D01*
X1274395Y296909D01*
X1274500Y296828D01*
X1274602Y296743D01*
X1274702Y296656D01*
X1274799Y296566D01*
X1274894Y296473D01*
X1274985Y296377D01*
X1275074Y296279D01*
X1275160Y296178D01*
X1275243Y296074D01*
X1275323Y295968D01*
X1275399Y295860D01*
X1275473Y295750D01*
X1275543Y295637D01*
X1275610Y295523D01*
X1275673Y295406D01*
X1275733Y295288D01*
X1275790Y295168D01*
X1275843Y295046D01*
X1275892Y294923D01*
X1275938Y294799D01*
X1275980Y294673D01*
X1276018Y294546D01*
X1276053Y294418D01*
X1276084Y294289D01*
X1276111Y294160D01*
X1276134Y294029D01*
X1276154Y293898D01*
X1276169Y293766D01*
X1276181Y293634D01*
X1276189Y293502D01*
X1276193Y293369D01*
X1276193Y293237D01*
X1276189Y293104D01*
X1276181Y292972D01*
X1276169Y292840D01*
X1276154Y292708D01*
X1276134Y292577D01*
X1276111Y292446D01*
X1276084Y292317D01*
X1276053Y292188D01*
X1276018Y292060D01*
X1275980Y291933D01*
X1275938Y291807D01*
X1275892Y291683D01*
X1275843Y291560D01*
X1275790Y291438D01*
X1275733Y291318D01*
X1275673Y291200D01*
X1275610Y291083D01*
X1275543Y290969D01*
X1275473Y290856D01*
X1275399Y290746D01*
X1275323Y290638D01*
X1275243Y290532D01*
X1275160Y290428D01*
X1275074Y290327D01*
X1274985Y290229D01*
X1274894Y290133D01*
X1274799Y290040D01*
X1274702Y289950D01*
X1274602Y289863D01*
X1274500Y289778D01*
X1274395Y289697D01*
X1274288Y289619D01*
X1274179Y289543D01*
X1274068Y289472D01*
X1273954Y289403D01*
X1273839Y289338D01*
X1273721Y289276D01*
X1273602Y289218D01*
X1273481Y289163D01*
X1273359Y289112D01*
X1273235Y289064D01*
X1273110Y289020D01*
X1272984Y288980D01*
X1272856Y288944D01*
X1272728Y288911D01*
X1272599Y288882D01*
X1272468Y288857D01*
X1272338Y288836D01*
X1272206Y288818D01*
X1272074Y288805D01*
X1271942Y288795D01*
X1271810Y288789D01*
X1271677Y288787D01*
X1267162Y288787D01*
X1266985Y288789D01*
X1266807Y288796D01*
X1266630Y288807D01*
X1266454Y288822D01*
X1266278Y288841D01*
X1266102Y288865D01*
X1265927Y288893D01*
X1265752Y288926D01*
X1265579Y288963D01*
X1265406Y289004D01*
X1265235Y289049D01*
X1265065Y289098D01*
X1264896Y289152D01*
X1264728Y289209D01*
X1264562Y289271D01*
X1264397Y289337D01*
X1264234Y289407D01*
X1264073Y289481D01*
X1263914Y289558D01*
X1263756Y289640D01*
X1263601Y289726D01*
X1263448Y289815D01*
X1263297Y289908D01*
X1263148Y290005D01*
X1263002Y290105D01*
X1262858Y290209D01*
X1262717Y290316D01*
X1262579Y290427D01*
X1262443Y290541D01*
X1262310Y290659D01*
X1262180Y290779D01*
X1262053Y290903D01*
X1261929Y291030D01*
X1261809Y291160D01*
X1261691Y291293D01*
X1261577Y291428D01*
X1261466Y291567D01*
X1261359Y291708D01*
X1261255Y291852D01*
X1261155Y291998D01*
X1261058Y292147D01*
X1260965Y292298D01*
X1260876Y292451D01*
X1260790Y292606D01*
X1260708Y292764D01*
X1260631Y292923D01*
X1260557Y293084D01*
X1260487Y293247D01*
X1260421Y293412D01*
X1260359Y293578D01*
X1260302Y293746D01*
X1260248Y293915D01*
X1260199Y294085D01*
X1260154Y294256D01*
X1260113Y294429D01*
X1260076Y294602D01*
X1260043Y294777D01*
X1260015Y294952D01*
X1259991Y295128D01*
X1259972Y295304D01*
X1259957Y295480D01*
X1259946Y295657D01*
X1259939Y295835D01*
X1259937Y296012D01*
X9793Y60593D02*
X7084Y60593D01*
X9793Y60593D02*
X9793Y51562D01*
X4374Y51562D01*
X4256Y51564D01*
X4138Y51570D01*
X4020Y51579D01*
X3903Y51593D01*
X3786Y51610D01*
X3669Y51631D01*
X3554Y51656D01*
X3439Y51685D01*
X3325Y51718D01*
X3213Y51754D01*
X3102Y51794D01*
X2992Y51837D01*
X2883Y51884D01*
X2776Y51934D01*
X2671Y51989D01*
X2568Y52046D01*
X2467Y52107D01*
X2367Y52171D01*
X2270Y52238D01*
X2175Y52308D01*
X2083Y52382D01*
X1992Y52458D01*
X1905Y52538D01*
X1820Y52620D01*
X1738Y52705D01*
X1658Y52792D01*
X1582Y52883D01*
X1508Y52975D01*
X1438Y53070D01*
X1371Y53167D01*
X1307Y53267D01*
X1246Y53368D01*
X1189Y53471D01*
X1134Y53576D01*
X1084Y53683D01*
X1037Y53792D01*
X994Y53902D01*
X954Y54013D01*
X918Y54125D01*
X885Y54239D01*
X856Y54354D01*
X831Y54469D01*
X810Y54586D01*
X793Y54703D01*
X779Y54820D01*
X770Y54938D01*
X764Y55056D01*
X762Y55174D01*
X762Y64206D01*
X764Y64324D01*
X770Y64442D01*
X779Y64560D01*
X793Y64677D01*
X810Y64794D01*
X831Y64911D01*
X856Y65026D01*
X885Y65141D01*
X918Y65255D01*
X954Y65367D01*
X994Y65478D01*
X1037Y65588D01*
X1084Y65697D01*
X1134Y65804D01*
X1188Y65909D01*
X1246Y66012D01*
X1307Y66113D01*
X1371Y66213D01*
X1438Y66310D01*
X1508Y66405D01*
X1582Y66497D01*
X1658Y66588D01*
X1738Y66675D01*
X1820Y66760D01*
X1905Y66842D01*
X1992Y66922D01*
X2083Y66998D01*
X2175Y67072D01*
X2270Y67142D01*
X2367Y67209D01*
X2467Y67273D01*
X2568Y67334D01*
X2671Y67391D01*
X2776Y67445D01*
X2883Y67496D01*
X2992Y67543D01*
X3102Y67586D01*
X3213Y67626D01*
X3325Y67662D01*
X3439Y67695D01*
X3554Y67724D01*
X3669Y67749D01*
X3786Y67770D01*
X3903Y67787D01*
X4020Y67801D01*
X4138Y67810D01*
X4256Y67816D01*
X4374Y67818D01*
X9793Y67818D01*
X17465Y67818D02*
X17465Y51562D01*
X24690Y51562D01*
X30461Y56078D02*
X30461Y63302D01*
X30463Y63435D01*
X30469Y63567D01*
X30479Y63699D01*
X30492Y63831D01*
X30510Y63963D01*
X30531Y64093D01*
X30556Y64224D01*
X30585Y64353D01*
X30618Y64481D01*
X30654Y64609D01*
X30694Y64735D01*
X30738Y64860D01*
X30786Y64984D01*
X30837Y65106D01*
X30892Y65227D01*
X30950Y65346D01*
X31012Y65464D01*
X31077Y65579D01*
X31146Y65693D01*
X31217Y65804D01*
X31293Y65913D01*
X31371Y66020D01*
X31452Y66125D01*
X31537Y66227D01*
X31624Y66327D01*
X31714Y66424D01*
X31807Y66519D01*
X31903Y66610D01*
X32001Y66699D01*
X32102Y66785D01*
X32206Y66868D01*
X32312Y66948D01*
X32420Y67024D01*
X32530Y67098D01*
X32643Y67168D01*
X32757Y67235D01*
X32874Y67298D01*
X32992Y67358D01*
X33112Y67415D01*
X33234Y67468D01*
X33357Y67517D01*
X33481Y67563D01*
X33607Y67605D01*
X33734Y67643D01*
X33862Y67678D01*
X33991Y67709D01*
X34120Y67736D01*
X34251Y67759D01*
X34382Y67779D01*
X34514Y67794D01*
X34646Y67806D01*
X34778Y67814D01*
X34911Y67818D01*
X35043Y67818D01*
X35176Y67814D01*
X35308Y67806D01*
X35440Y67794D01*
X35572Y67779D01*
X35703Y67759D01*
X35834Y67736D01*
X35963Y67709D01*
X36092Y67678D01*
X36220Y67643D01*
X36347Y67605D01*
X36473Y67563D01*
X36597Y67517D01*
X36720Y67468D01*
X36842Y67415D01*
X36962Y67358D01*
X37080Y67298D01*
X37197Y67235D01*
X37311Y67168D01*
X37424Y67098D01*
X37534Y67024D01*
X37642Y66948D01*
X37748Y66868D01*
X37852Y66785D01*
X37953Y66699D01*
X38051Y66610D01*
X38147Y66519D01*
X38240Y66424D01*
X38330Y66327D01*
X38417Y66227D01*
X38502Y66125D01*
X38583Y66020D01*
X38661Y65913D01*
X38737Y65804D01*
X38808Y65693D01*
X38877Y65579D01*
X38942Y65464D01*
X39004Y65346D01*
X39062Y65227D01*
X39117Y65106D01*
X39168Y64984D01*
X39216Y64860D01*
X39260Y64735D01*
X39300Y64609D01*
X39336Y64481D01*
X39369Y64353D01*
X39398Y64224D01*
X39423Y64093D01*
X39444Y63963D01*
X39462Y63831D01*
X39475Y63699D01*
X39485Y63567D01*
X39491Y63435D01*
X39493Y63302D01*
X39492Y63302D02*
X39492Y56078D01*
X39493Y56078D02*
X39491Y55945D01*
X39485Y55813D01*
X39475Y55681D01*
X39462Y55549D01*
X39444Y55417D01*
X39423Y55287D01*
X39398Y55156D01*
X39369Y55027D01*
X39336Y54899D01*
X39300Y54771D01*
X39260Y54645D01*
X39216Y54520D01*
X39168Y54396D01*
X39117Y54274D01*
X39062Y54153D01*
X39004Y54034D01*
X38942Y53916D01*
X38877Y53801D01*
X38808Y53687D01*
X38737Y53576D01*
X38661Y53467D01*
X38583Y53360D01*
X38502Y53255D01*
X38417Y53153D01*
X38330Y53053D01*
X38240Y52956D01*
X38147Y52861D01*
X38051Y52770D01*
X37953Y52681D01*
X37852Y52595D01*
X37748Y52512D01*
X37642Y52432D01*
X37534Y52356D01*
X37424Y52282D01*
X37311Y52212D01*
X37197Y52145D01*
X37080Y52082D01*
X36962Y52022D01*
X36842Y51965D01*
X36720Y51912D01*
X36597Y51863D01*
X36473Y51817D01*
X36347Y51775D01*
X36220Y51737D01*
X36092Y51702D01*
X35963Y51671D01*
X35834Y51644D01*
X35703Y51621D01*
X35572Y51601D01*
X35440Y51586D01*
X35308Y51574D01*
X35176Y51566D01*
X35043Y51562D01*
X34911Y51562D01*
X34778Y51566D01*
X34646Y51574D01*
X34514Y51586D01*
X34382Y51601D01*
X34251Y51621D01*
X34120Y51644D01*
X33991Y51671D01*
X33862Y51702D01*
X33734Y51737D01*
X33607Y51775D01*
X33481Y51817D01*
X33357Y51863D01*
X33234Y51912D01*
X33112Y51965D01*
X32992Y52022D01*
X32874Y52082D01*
X32757Y52145D01*
X32643Y52212D01*
X32530Y52282D01*
X32420Y52356D01*
X32312Y52432D01*
X32206Y52512D01*
X32102Y52595D01*
X32001Y52681D01*
X31903Y52770D01*
X31807Y52861D01*
X31714Y52956D01*
X31624Y53053D01*
X31537Y53153D01*
X31452Y53255D01*
X31371Y53360D01*
X31293Y53467D01*
X31217Y53576D01*
X31146Y53687D01*
X31077Y53801D01*
X31012Y53916D01*
X30950Y54034D01*
X30892Y54153D01*
X30837Y54274D01*
X30786Y54396D01*
X30738Y54520D01*
X30694Y54645D01*
X30654Y54771D01*
X30618Y54899D01*
X30585Y55027D01*
X30556Y55156D01*
X30531Y55287D01*
X30510Y55417D01*
X30492Y55549D01*
X30479Y55681D01*
X30469Y55813D01*
X30463Y55945D01*
X30461Y56078D01*
X46753Y51562D02*
X46753Y67818D01*
X52171Y58787D01*
X57590Y67818D01*
X57590Y51562D01*
X63947Y51562D02*
X69366Y67818D01*
X74784Y51562D01*
X73430Y55626D02*
X65302Y55626D01*
X81032Y51562D02*
X88257Y51562D01*
X81032Y51562D02*
X81032Y67818D01*
X88257Y67818D01*
X86451Y60593D02*
X81032Y60593D01*
X93403Y52465D02*
X93403Y51562D01*
X93403Y52465D02*
X94306Y52465D01*
X94306Y51562D01*
X93403Y51562D01*
X101013Y51562D02*
X101013Y67818D01*
X105528Y67818D01*
X105661Y67816D01*
X105793Y67810D01*
X105925Y67800D01*
X106057Y67787D01*
X106189Y67769D01*
X106319Y67748D01*
X106450Y67723D01*
X106579Y67694D01*
X106707Y67661D01*
X106835Y67625D01*
X106961Y67585D01*
X107086Y67541D01*
X107210Y67493D01*
X107332Y67442D01*
X107453Y67387D01*
X107572Y67329D01*
X107690Y67267D01*
X107805Y67202D01*
X107919Y67133D01*
X108030Y67062D01*
X108139Y66986D01*
X108246Y66908D01*
X108351Y66827D01*
X108453Y66742D01*
X108553Y66655D01*
X108650Y66565D01*
X108745Y66472D01*
X108836Y66376D01*
X108925Y66278D01*
X109011Y66177D01*
X109094Y66073D01*
X109174Y65967D01*
X109250Y65859D01*
X109324Y65749D01*
X109394Y65636D01*
X109461Y65522D01*
X109524Y65405D01*
X109584Y65287D01*
X109641Y65167D01*
X109694Y65045D01*
X109743Y64922D01*
X109789Y64798D01*
X109831Y64672D01*
X109869Y64545D01*
X109904Y64417D01*
X109935Y64288D01*
X109962Y64159D01*
X109985Y64028D01*
X110005Y63897D01*
X110020Y63765D01*
X110032Y63633D01*
X110040Y63501D01*
X110044Y63368D01*
X110044Y63236D01*
X110040Y63103D01*
X110032Y62971D01*
X110020Y62839D01*
X110005Y62707D01*
X109985Y62576D01*
X109962Y62445D01*
X109935Y62316D01*
X109904Y62187D01*
X109869Y62059D01*
X109831Y61932D01*
X109789Y61806D01*
X109743Y61682D01*
X109694Y61559D01*
X109641Y61437D01*
X109584Y61317D01*
X109524Y61199D01*
X109461Y61082D01*
X109394Y60968D01*
X109324Y60855D01*
X109250Y60745D01*
X109174Y60637D01*
X109094Y60531D01*
X109011Y60427D01*
X108925Y60326D01*
X108836Y60228D01*
X108745Y60132D01*
X108650Y60039D01*
X108553Y59949D01*
X108453Y59862D01*
X108351Y59777D01*
X108246Y59696D01*
X108139Y59618D01*
X108030Y59542D01*
X107919Y59471D01*
X107805Y59402D01*
X107690Y59337D01*
X107572Y59275D01*
X107453Y59217D01*
X107332Y59162D01*
X107210Y59111D01*
X107086Y59063D01*
X106961Y59019D01*
X106835Y58979D01*
X106707Y58943D01*
X106579Y58910D01*
X106450Y58881D01*
X106319Y58856D01*
X106189Y58835D01*
X106057Y58817D01*
X105925Y58804D01*
X105793Y58794D01*
X105661Y58788D01*
X105528Y58786D01*
X105528Y58787D02*
X101013Y58787D01*
X115773Y58787D02*
X115773Y55174D01*
X115774Y58787D02*
X115776Y58906D01*
X115782Y59026D01*
X115792Y59145D01*
X115806Y59263D01*
X115823Y59382D01*
X115845Y59499D01*
X115870Y59616D01*
X115900Y59731D01*
X115933Y59846D01*
X115970Y59960D01*
X116010Y60072D01*
X116055Y60183D01*
X116103Y60292D01*
X116154Y60400D01*
X116209Y60506D01*
X116268Y60610D01*
X116330Y60712D01*
X116395Y60812D01*
X116464Y60910D01*
X116536Y61006D01*
X116611Y61099D01*
X116688Y61189D01*
X116769Y61277D01*
X116853Y61362D01*
X116940Y61444D01*
X117029Y61524D01*
X117121Y61600D01*
X117215Y61674D01*
X117312Y61744D01*
X117410Y61811D01*
X117511Y61875D01*
X117615Y61935D01*
X117720Y61992D01*
X117827Y62045D01*
X117935Y62095D01*
X118045Y62141D01*
X118157Y62183D01*
X118270Y62222D01*
X118384Y62257D01*
X118499Y62288D01*
X118616Y62316D01*
X118733Y62339D01*
X118850Y62359D01*
X118969Y62375D01*
X119088Y62387D01*
X119207Y62395D01*
X119326Y62399D01*
X119446Y62399D01*
X119565Y62395D01*
X119684Y62387D01*
X119803Y62375D01*
X119922Y62359D01*
X120039Y62339D01*
X120156Y62316D01*
X120273Y62288D01*
X120388Y62257D01*
X120502Y62222D01*
X120615Y62183D01*
X120727Y62141D01*
X120837Y62095D01*
X120945Y62045D01*
X121052Y61992D01*
X121157Y61935D01*
X121261Y61875D01*
X121362Y61811D01*
X121460Y61744D01*
X121557Y61674D01*
X121651Y61600D01*
X121743Y61524D01*
X121832Y61444D01*
X121919Y61362D01*
X122003Y61277D01*
X122084Y61189D01*
X122161Y61099D01*
X122236Y61006D01*
X122308Y60910D01*
X122377Y60812D01*
X122442Y60712D01*
X122504Y60610D01*
X122563Y60506D01*
X122618Y60400D01*
X122669Y60292D01*
X122717Y60183D01*
X122762Y60072D01*
X122802Y59960D01*
X122839Y59846D01*
X122872Y59731D01*
X122902Y59616D01*
X122927Y59499D01*
X122949Y59382D01*
X122966Y59263D01*
X122980Y59145D01*
X122990Y59026D01*
X122996Y58906D01*
X122998Y58787D01*
X122998Y55174D01*
X122996Y55055D01*
X122990Y54935D01*
X122980Y54816D01*
X122966Y54698D01*
X122949Y54579D01*
X122927Y54462D01*
X122902Y54345D01*
X122872Y54230D01*
X122839Y54115D01*
X122802Y54001D01*
X122762Y53889D01*
X122717Y53778D01*
X122669Y53669D01*
X122618Y53561D01*
X122563Y53455D01*
X122504Y53351D01*
X122442Y53249D01*
X122377Y53149D01*
X122308Y53051D01*
X122236Y52955D01*
X122161Y52862D01*
X122084Y52772D01*
X122003Y52684D01*
X121919Y52599D01*
X121832Y52517D01*
X121743Y52437D01*
X121651Y52361D01*
X121557Y52287D01*
X121460Y52217D01*
X121362Y52150D01*
X121261Y52086D01*
X121157Y52026D01*
X121052Y51969D01*
X120945Y51916D01*
X120837Y51866D01*
X120727Y51820D01*
X120615Y51778D01*
X120502Y51739D01*
X120388Y51704D01*
X120273Y51673D01*
X120156Y51645D01*
X120039Y51622D01*
X119922Y51602D01*
X119803Y51586D01*
X119684Y51574D01*
X119565Y51566D01*
X119446Y51562D01*
X119326Y51562D01*
X119207Y51566D01*
X119088Y51574D01*
X118969Y51586D01*
X118850Y51602D01*
X118733Y51622D01*
X118616Y51645D01*
X118499Y51673D01*
X118384Y51704D01*
X118270Y51739D01*
X118157Y51778D01*
X118045Y51820D01*
X117935Y51866D01*
X117827Y51916D01*
X117720Y51969D01*
X117615Y52026D01*
X117511Y52086D01*
X117410Y52150D01*
X117312Y52217D01*
X117215Y52287D01*
X117121Y52361D01*
X117029Y52437D01*
X116940Y52517D01*
X116853Y52599D01*
X116769Y52684D01*
X116688Y52772D01*
X116611Y52862D01*
X116536Y52955D01*
X116464Y53051D01*
X116395Y53149D01*
X116330Y53249D01*
X116268Y53351D01*
X116209Y53455D01*
X116154Y53561D01*
X116103Y53669D01*
X116055Y53778D01*
X116010Y53889D01*
X115970Y54001D01*
X115933Y54115D01*
X115900Y54230D01*
X115870Y54345D01*
X115845Y54462D01*
X115823Y54579D01*
X115806Y54698D01*
X115792Y54816D01*
X115782Y54935D01*
X115776Y55055D01*
X115774Y55174D01*
X129077Y62399D02*
X131786Y51562D01*
X134496Y58787D01*
X137205Y51562D01*
X139914Y62399D01*
X148703Y51562D02*
X153218Y51562D01*
X148703Y51562D02*
X148602Y51564D01*
X148501Y51570D01*
X148400Y51579D01*
X148299Y51592D01*
X148199Y51609D01*
X148100Y51630D01*
X148002Y51654D01*
X147905Y51682D01*
X147808Y51714D01*
X147713Y51749D01*
X147620Y51788D01*
X147528Y51830D01*
X147437Y51876D01*
X147349Y51925D01*
X147262Y51977D01*
X147177Y52033D01*
X147094Y52091D01*
X147014Y52153D01*
X146936Y52218D01*
X146860Y52285D01*
X146787Y52355D01*
X146717Y52428D01*
X146650Y52504D01*
X146585Y52582D01*
X146523Y52662D01*
X146465Y52745D01*
X146409Y52830D01*
X146357Y52916D01*
X146308Y53005D01*
X146262Y53096D01*
X146220Y53188D01*
X146181Y53281D01*
X146146Y53376D01*
X146114Y53473D01*
X146086Y53570D01*
X146062Y53668D01*
X146041Y53767D01*
X146024Y53867D01*
X146011Y53968D01*
X146002Y54069D01*
X145996Y54170D01*
X145994Y54271D01*
X145994Y58787D01*
X145996Y58906D01*
X146002Y59026D01*
X146012Y59145D01*
X146026Y59263D01*
X146043Y59382D01*
X146065Y59499D01*
X146090Y59616D01*
X146120Y59731D01*
X146153Y59846D01*
X146190Y59960D01*
X146230Y60072D01*
X146275Y60183D01*
X146323Y60292D01*
X146374Y60400D01*
X146429Y60506D01*
X146488Y60610D01*
X146550Y60712D01*
X146615Y60812D01*
X146684Y60910D01*
X146756Y61006D01*
X146831Y61099D01*
X146908Y61189D01*
X146989Y61277D01*
X147073Y61362D01*
X147160Y61444D01*
X147249Y61524D01*
X147341Y61600D01*
X147435Y61674D01*
X147532Y61744D01*
X147630Y61811D01*
X147731Y61875D01*
X147835Y61935D01*
X147940Y61992D01*
X148047Y62045D01*
X148155Y62095D01*
X148265Y62141D01*
X148377Y62183D01*
X148490Y62222D01*
X148604Y62257D01*
X148719Y62288D01*
X148836Y62316D01*
X148953Y62339D01*
X149070Y62359D01*
X149189Y62375D01*
X149308Y62387D01*
X149427Y62395D01*
X149546Y62399D01*
X149666Y62399D01*
X149785Y62395D01*
X149904Y62387D01*
X150023Y62375D01*
X150142Y62359D01*
X150259Y62339D01*
X150376Y62316D01*
X150493Y62288D01*
X150608Y62257D01*
X150722Y62222D01*
X150835Y62183D01*
X150947Y62141D01*
X151057Y62095D01*
X151165Y62045D01*
X151272Y61992D01*
X151377Y61935D01*
X151481Y61875D01*
X151582Y61811D01*
X151680Y61744D01*
X151777Y61674D01*
X151871Y61600D01*
X151963Y61524D01*
X152052Y61444D01*
X152139Y61362D01*
X152223Y61277D01*
X152304Y61189D01*
X152381Y61099D01*
X152456Y61006D01*
X152528Y60910D01*
X152597Y60812D01*
X152662Y60712D01*
X152724Y60610D01*
X152783Y60506D01*
X152838Y60400D01*
X152889Y60292D01*
X152937Y60183D01*
X152982Y60072D01*
X153022Y59960D01*
X153059Y59846D01*
X153092Y59731D01*
X153122Y59616D01*
X153147Y59499D01*
X153169Y59382D01*
X153186Y59263D01*
X153200Y59145D01*
X153210Y59026D01*
X153216Y58906D01*
X153218Y58787D01*
X153218Y56981D01*
X145994Y56981D01*
X160146Y62399D02*
X160146Y51562D01*
X160146Y62399D02*
X165565Y62399D01*
X165565Y60593D01*
X175519Y51562D02*
X175637Y51564D01*
X175755Y51570D01*
X175873Y51579D01*
X175990Y51593D01*
X176107Y51610D01*
X176224Y51631D01*
X176339Y51656D01*
X176454Y51685D01*
X176568Y51718D01*
X176680Y51754D01*
X176791Y51794D01*
X176901Y51837D01*
X177010Y51884D01*
X177117Y51934D01*
X177222Y51989D01*
X177325Y52046D01*
X177426Y52107D01*
X177526Y52171D01*
X177623Y52238D01*
X177718Y52308D01*
X177810Y52382D01*
X177901Y52458D01*
X177988Y52538D01*
X178073Y52620D01*
X178155Y52705D01*
X178235Y52792D01*
X178311Y52883D01*
X178385Y52975D01*
X178455Y53070D01*
X178522Y53167D01*
X178586Y53267D01*
X178647Y53368D01*
X178704Y53471D01*
X178759Y53576D01*
X178809Y53683D01*
X178856Y53792D01*
X178899Y53902D01*
X178939Y54013D01*
X178975Y54125D01*
X179008Y54239D01*
X179037Y54354D01*
X179062Y54469D01*
X179083Y54586D01*
X179100Y54703D01*
X179114Y54820D01*
X179123Y54938D01*
X179129Y55056D01*
X179131Y55174D01*
X175519Y51562D02*
X175336Y51564D01*
X175154Y51571D01*
X174972Y51582D01*
X174790Y51597D01*
X174608Y51617D01*
X174427Y51640D01*
X174247Y51669D01*
X174067Y51701D01*
X173888Y51738D01*
X173711Y51779D01*
X173534Y51825D01*
X173358Y51874D01*
X173184Y51928D01*
X173010Y51986D01*
X172839Y52048D01*
X172669Y52114D01*
X172500Y52185D01*
X172333Y52259D01*
X172168Y52337D01*
X172005Y52419D01*
X171844Y52505D01*
X171685Y52595D01*
X171528Y52689D01*
X171374Y52786D01*
X171222Y52887D01*
X171072Y52992D01*
X170925Y53100D01*
X170781Y53211D01*
X170639Y53326D01*
X170500Y53445D01*
X170364Y53567D01*
X170231Y53692D01*
X170101Y53820D01*
X170552Y64206D02*
X170554Y64324D01*
X170560Y64442D01*
X170569Y64560D01*
X170583Y64677D01*
X170600Y64794D01*
X170621Y64911D01*
X170646Y65026D01*
X170675Y65141D01*
X170708Y65255D01*
X170744Y65367D01*
X170784Y65478D01*
X170827Y65588D01*
X170874Y65697D01*
X170924Y65804D01*
X170979Y65909D01*
X171036Y66012D01*
X171097Y66113D01*
X171161Y66213D01*
X171228Y66310D01*
X171298Y66405D01*
X171372Y66497D01*
X171448Y66588D01*
X171528Y66675D01*
X171610Y66760D01*
X171695Y66842D01*
X171782Y66922D01*
X171873Y66998D01*
X171965Y67072D01*
X172060Y67142D01*
X172157Y67209D01*
X172257Y67273D01*
X172358Y67334D01*
X172461Y67392D01*
X172566Y67446D01*
X172673Y67496D01*
X172782Y67543D01*
X172892Y67587D01*
X173003Y67626D01*
X173116Y67662D01*
X173229Y67695D01*
X173344Y67724D01*
X173459Y67749D01*
X173576Y67770D01*
X173693Y67787D01*
X173810Y67801D01*
X173928Y67810D01*
X174046Y67816D01*
X174164Y67818D01*
X174325Y67816D01*
X174487Y67810D01*
X174648Y67801D01*
X174809Y67787D01*
X174969Y67770D01*
X175129Y67749D01*
X175289Y67724D01*
X175448Y67695D01*
X175606Y67663D01*
X175763Y67627D01*
X175919Y67587D01*
X176075Y67543D01*
X176229Y67495D01*
X176382Y67444D01*
X176534Y67390D01*
X176685Y67331D01*
X176834Y67270D01*
X176981Y67204D01*
X177127Y67135D01*
X177272Y67063D01*
X177414Y66987D01*
X177555Y66908D01*
X177694Y66826D01*
X177830Y66740D01*
X177965Y66651D01*
X178098Y66559D01*
X178228Y66463D01*
X172358Y61045D02*
X172257Y61107D01*
X172157Y61172D01*
X172060Y61241D01*
X171965Y61313D01*
X171872Y61387D01*
X171782Y61465D01*
X171694Y61546D01*
X171609Y61629D01*
X171527Y61715D01*
X171448Y61804D01*
X171371Y61895D01*
X171298Y61989D01*
X171227Y62085D01*
X171160Y62183D01*
X171096Y62283D01*
X171035Y62386D01*
X170978Y62490D01*
X170924Y62596D01*
X170874Y62704D01*
X170827Y62813D01*
X170783Y62924D01*
X170743Y63036D01*
X170707Y63150D01*
X170675Y63264D01*
X170646Y63380D01*
X170621Y63496D01*
X170600Y63613D01*
X170583Y63731D01*
X170569Y63849D01*
X170560Y63968D01*
X170554Y64087D01*
X170552Y64206D01*
X177326Y58335D02*
X177427Y58273D01*
X177527Y58208D01*
X177624Y58139D01*
X177719Y58067D01*
X177812Y57993D01*
X177902Y57915D01*
X177990Y57834D01*
X178075Y57751D01*
X178157Y57665D01*
X178236Y57576D01*
X178313Y57485D01*
X178386Y57391D01*
X178457Y57295D01*
X178524Y57197D01*
X178588Y57097D01*
X178649Y56994D01*
X178706Y56890D01*
X178760Y56784D01*
X178810Y56676D01*
X178857Y56567D01*
X178901Y56456D01*
X178941Y56344D01*
X178977Y56230D01*
X179009Y56116D01*
X179038Y56000D01*
X179063Y55884D01*
X179084Y55767D01*
X179101Y55649D01*
X179115Y55531D01*
X179124Y55412D01*
X179130Y55293D01*
X179132Y55174D01*
X177325Y58335D02*
X172358Y61045D01*
X185593Y62399D02*
X185593Y54271D01*
X185595Y54170D01*
X185601Y54069D01*
X185610Y53968D01*
X185623Y53867D01*
X185640Y53767D01*
X185661Y53668D01*
X185685Y53570D01*
X185713Y53473D01*
X185745Y53376D01*
X185780Y53281D01*
X185819Y53188D01*
X185861Y53096D01*
X185907Y53005D01*
X185956Y52916D01*
X186008Y52830D01*
X186064Y52745D01*
X186122Y52662D01*
X186184Y52582D01*
X186249Y52504D01*
X186316Y52428D01*
X186386Y52355D01*
X186459Y52285D01*
X186535Y52218D01*
X186613Y52153D01*
X186693Y52091D01*
X186776Y52033D01*
X186861Y51977D01*
X186948Y51925D01*
X187036Y51876D01*
X187127Y51830D01*
X187219Y51788D01*
X187312Y51749D01*
X187407Y51714D01*
X187504Y51682D01*
X187601Y51654D01*
X187699Y51630D01*
X187798Y51609D01*
X187898Y51592D01*
X187999Y51579D01*
X188100Y51570D01*
X188201Y51564D01*
X188302Y51562D01*
X192817Y51562D01*
X192817Y62399D01*
X200255Y62399D02*
X200255Y46143D01*
X200255Y62399D02*
X204771Y62399D01*
X204875Y62397D01*
X204978Y62391D01*
X205082Y62381D01*
X205185Y62367D01*
X205287Y62349D01*
X205388Y62328D01*
X205489Y62302D01*
X205588Y62273D01*
X205687Y62240D01*
X205784Y62203D01*
X205879Y62162D01*
X205973Y62118D01*
X206065Y62070D01*
X206155Y62019D01*
X206244Y61964D01*
X206330Y61906D01*
X206413Y61844D01*
X206495Y61780D01*
X206573Y61712D01*
X206649Y61642D01*
X206723Y61569D01*
X206793Y61492D01*
X206861Y61414D01*
X206925Y61332D01*
X206987Y61249D01*
X207045Y61163D01*
X207100Y61074D01*
X207151Y60984D01*
X207199Y60892D01*
X207243Y60798D01*
X207284Y60703D01*
X207321Y60606D01*
X207354Y60507D01*
X207383Y60408D01*
X207409Y60307D01*
X207430Y60206D01*
X207448Y60104D01*
X207462Y60001D01*
X207472Y59897D01*
X207478Y59794D01*
X207480Y59690D01*
X207480Y54271D01*
X207478Y54170D01*
X207472Y54069D01*
X207463Y53968D01*
X207450Y53867D01*
X207433Y53767D01*
X207412Y53668D01*
X207388Y53570D01*
X207360Y53473D01*
X207328Y53376D01*
X207293Y53281D01*
X207254Y53188D01*
X207212Y53096D01*
X207166Y53005D01*
X207117Y52916D01*
X207065Y52830D01*
X207009Y52745D01*
X206951Y52662D01*
X206889Y52582D01*
X206824Y52504D01*
X206757Y52428D01*
X206687Y52355D01*
X206614Y52285D01*
X206538Y52218D01*
X206460Y52153D01*
X206380Y52091D01*
X206297Y52033D01*
X206212Y51977D01*
X206126Y51925D01*
X206037Y51876D01*
X205946Y51830D01*
X205854Y51788D01*
X205761Y51749D01*
X205666Y51714D01*
X205569Y51682D01*
X205472Y51654D01*
X205374Y51630D01*
X205275Y51609D01*
X205175Y51592D01*
X205074Y51579D01*
X204973Y51570D01*
X204872Y51564D01*
X204771Y51562D01*
X200255Y51562D01*
X214323Y46143D02*
X214323Y62399D01*
X218839Y62399D01*
X218943Y62397D01*
X219046Y62391D01*
X219150Y62381D01*
X219253Y62367D01*
X219355Y62349D01*
X219456Y62328D01*
X219557Y62302D01*
X219656Y62273D01*
X219755Y62240D01*
X219852Y62203D01*
X219947Y62162D01*
X220041Y62118D01*
X220133Y62070D01*
X220223Y62019D01*
X220312Y61964D01*
X220398Y61906D01*
X220481Y61844D01*
X220563Y61780D01*
X220641Y61712D01*
X220717Y61642D01*
X220791Y61569D01*
X220861Y61492D01*
X220929Y61414D01*
X220993Y61332D01*
X221055Y61249D01*
X221113Y61163D01*
X221168Y61074D01*
X221219Y60984D01*
X221267Y60892D01*
X221311Y60798D01*
X221352Y60703D01*
X221389Y60606D01*
X221422Y60507D01*
X221451Y60408D01*
X221477Y60307D01*
X221498Y60206D01*
X221516Y60104D01*
X221530Y60001D01*
X221540Y59897D01*
X221546Y59794D01*
X221548Y59690D01*
X221548Y54271D01*
X221546Y54170D01*
X221540Y54069D01*
X221531Y53968D01*
X221518Y53867D01*
X221501Y53767D01*
X221480Y53668D01*
X221456Y53570D01*
X221428Y53473D01*
X221396Y53376D01*
X221361Y53281D01*
X221322Y53188D01*
X221280Y53096D01*
X221234Y53005D01*
X221185Y52916D01*
X221133Y52830D01*
X221077Y52745D01*
X221019Y52662D01*
X220957Y52582D01*
X220892Y52504D01*
X220825Y52428D01*
X220755Y52355D01*
X220682Y52285D01*
X220606Y52218D01*
X220528Y52153D01*
X220448Y52091D01*
X220365Y52033D01*
X220280Y51977D01*
X220194Y51925D01*
X220105Y51876D01*
X220014Y51830D01*
X219922Y51788D01*
X219829Y51749D01*
X219734Y51714D01*
X219637Y51682D01*
X219540Y51654D01*
X219442Y51630D01*
X219343Y51609D01*
X219243Y51592D01*
X219142Y51579D01*
X219041Y51570D01*
X218940Y51564D01*
X218839Y51562D01*
X214323Y51562D01*
X228034Y54271D02*
X228034Y67818D01*
X228034Y54271D02*
X228036Y54170D01*
X228042Y54069D01*
X228051Y53968D01*
X228064Y53867D01*
X228081Y53767D01*
X228102Y53668D01*
X228126Y53570D01*
X228154Y53473D01*
X228186Y53376D01*
X228221Y53281D01*
X228260Y53188D01*
X228302Y53096D01*
X228348Y53005D01*
X228397Y52916D01*
X228449Y52830D01*
X228505Y52745D01*
X228563Y52662D01*
X228625Y52582D01*
X228690Y52504D01*
X228757Y52428D01*
X228827Y52355D01*
X228900Y52285D01*
X228976Y52218D01*
X229054Y52153D01*
X229134Y52091D01*
X229217Y52033D01*
X229302Y51977D01*
X229389Y51925D01*
X229477Y51876D01*
X229568Y51830D01*
X229660Y51788D01*
X229753Y51749D01*
X229848Y51714D01*
X229945Y51682D01*
X230042Y51654D01*
X230140Y51630D01*
X230239Y51609D01*
X230339Y51592D01*
X230440Y51579D01*
X230541Y51570D01*
X230642Y51564D01*
X230743Y51562D01*
X235612Y46143D02*
X237419Y46143D01*
X242837Y62399D01*
X235612Y62399D02*
X239225Y51562D01*
X248152Y51562D02*
X248152Y52465D01*
X249055Y52465D01*
X249055Y51562D01*
X248152Y51562D01*
X255643Y51562D02*
X255643Y67818D01*
X260158Y67818D01*
X260291Y67816D01*
X260423Y67810D01*
X260555Y67800D01*
X260687Y67787D01*
X260819Y67769D01*
X260949Y67748D01*
X261080Y67723D01*
X261209Y67694D01*
X261337Y67661D01*
X261465Y67625D01*
X261591Y67585D01*
X261716Y67541D01*
X261840Y67493D01*
X261962Y67442D01*
X262083Y67387D01*
X262202Y67329D01*
X262320Y67267D01*
X262435Y67202D01*
X262549Y67133D01*
X262660Y67062D01*
X262769Y66986D01*
X262876Y66908D01*
X262981Y66827D01*
X263083Y66742D01*
X263183Y66655D01*
X263280Y66565D01*
X263375Y66472D01*
X263466Y66376D01*
X263555Y66278D01*
X263641Y66177D01*
X263724Y66073D01*
X263804Y65967D01*
X263880Y65859D01*
X263954Y65749D01*
X264024Y65636D01*
X264091Y65522D01*
X264154Y65405D01*
X264214Y65287D01*
X264271Y65167D01*
X264324Y65045D01*
X264373Y64922D01*
X264419Y64798D01*
X264461Y64672D01*
X264499Y64545D01*
X264534Y64417D01*
X264565Y64288D01*
X264592Y64159D01*
X264615Y64028D01*
X264635Y63897D01*
X264650Y63765D01*
X264662Y63633D01*
X264670Y63501D01*
X264674Y63368D01*
X264674Y63236D01*
X264670Y63103D01*
X264662Y62971D01*
X264650Y62839D01*
X264635Y62707D01*
X264615Y62576D01*
X264592Y62445D01*
X264565Y62316D01*
X264534Y62187D01*
X264499Y62059D01*
X264461Y61932D01*
X264419Y61806D01*
X264373Y61682D01*
X264324Y61559D01*
X264271Y61437D01*
X264214Y61317D01*
X264154Y61199D01*
X264091Y61082D01*
X264024Y60968D01*
X263954Y60855D01*
X263880Y60745D01*
X263804Y60637D01*
X263724Y60531D01*
X263641Y60427D01*
X263555Y60326D01*
X263466Y60228D01*
X263375Y60132D01*
X263280Y60039D01*
X263183Y59949D01*
X263083Y59862D01*
X262981Y59777D01*
X262876Y59696D01*
X262769Y59618D01*
X262660Y59542D01*
X262549Y59471D01*
X262435Y59402D01*
X262320Y59337D01*
X262202Y59275D01*
X262083Y59217D01*
X261962Y59162D01*
X261840Y59111D01*
X261716Y59063D01*
X261591Y59019D01*
X261465Y58979D01*
X261337Y58943D01*
X261209Y58910D01*
X261080Y58881D01*
X260949Y58856D01*
X260819Y58835D01*
X260687Y58817D01*
X260555Y58804D01*
X260423Y58794D01*
X260291Y58788D01*
X260158Y58786D01*
X260158Y58787D02*
X255643Y58787D01*
X261061Y58787D02*
X264674Y51562D01*
X271703Y51562D02*
X271703Y67818D01*
X276219Y67818D01*
X276350Y67816D01*
X276482Y67810D01*
X276613Y67801D01*
X276743Y67787D01*
X276874Y67770D01*
X277003Y67749D01*
X277132Y67725D01*
X277260Y67696D01*
X277388Y67664D01*
X277514Y67628D01*
X277639Y67589D01*
X277764Y67546D01*
X277886Y67499D01*
X278008Y67449D01*
X278128Y67395D01*
X278246Y67338D01*
X278362Y67277D01*
X278477Y67213D01*
X278590Y67146D01*
X278701Y67075D01*
X278809Y67001D01*
X278916Y66924D01*
X279020Y66844D01*
X279122Y66761D01*
X279221Y66676D01*
X279318Y66587D01*
X279412Y66495D01*
X279504Y66401D01*
X279593Y66304D01*
X279678Y66205D01*
X279761Y66103D01*
X279841Y65999D01*
X279918Y65892D01*
X279992Y65784D01*
X280063Y65673D01*
X280130Y65560D01*
X280194Y65445D01*
X280255Y65329D01*
X280312Y65211D01*
X280366Y65091D01*
X280416Y64969D01*
X280463Y64847D01*
X280506Y64722D01*
X280545Y64597D01*
X280581Y64471D01*
X280613Y64343D01*
X280642Y64215D01*
X280666Y64086D01*
X280687Y63957D01*
X280704Y63826D01*
X280718Y63696D01*
X280727Y63565D01*
X280733Y63433D01*
X280735Y63302D01*
X280734Y63302D02*
X280734Y56078D01*
X280735Y56078D02*
X280733Y55947D01*
X280727Y55815D01*
X280718Y55684D01*
X280704Y55554D01*
X280687Y55423D01*
X280666Y55294D01*
X280642Y55165D01*
X280613Y55037D01*
X280581Y54909D01*
X280545Y54783D01*
X280506Y54658D01*
X280463Y54533D01*
X280416Y54411D01*
X280366Y54289D01*
X280312Y54169D01*
X280255Y54051D01*
X280194Y53935D01*
X280130Y53820D01*
X280063Y53707D01*
X279992Y53596D01*
X279918Y53488D01*
X279841Y53381D01*
X279761Y53277D01*
X279678Y53175D01*
X279593Y53076D01*
X279504Y52979D01*
X279412Y52885D01*
X279318Y52793D01*
X279221Y52704D01*
X279122Y52619D01*
X279020Y52536D01*
X278916Y52456D01*
X278809Y52379D01*
X278701Y52305D01*
X278590Y52234D01*
X278477Y52167D01*
X278362Y52103D01*
X278246Y52042D01*
X278128Y51985D01*
X278008Y51931D01*
X277886Y51881D01*
X277764Y51834D01*
X277639Y51791D01*
X277514Y51752D01*
X277388Y51716D01*
X277260Y51684D01*
X277132Y51655D01*
X277003Y51631D01*
X276873Y51610D01*
X276743Y51593D01*
X276613Y51579D01*
X276482Y51570D01*
X276350Y51564D01*
X276219Y51562D01*
X271703Y51562D01*
X287856Y64206D02*
X292371Y67818D01*
X292371Y51562D01*
X287856Y51562D02*
X296887Y51562D01*
X1296162Y316964D02*
X1306999Y316964D01*
X1301581Y311545D02*
X1301581Y322382D01*
X1313738Y323286D02*
X1318254Y326898D01*
X1318254Y310642D01*
X1313738Y310642D02*
X1322770Y310642D01*
X1338401Y322834D02*
X1338399Y322959D01*
X1338393Y323084D01*
X1338384Y323209D01*
X1338370Y323333D01*
X1338353Y323457D01*
X1338332Y323581D01*
X1338307Y323703D01*
X1338278Y323825D01*
X1338246Y323946D01*
X1338210Y324066D01*
X1338170Y324185D01*
X1338127Y324302D01*
X1338080Y324418D01*
X1338029Y324533D01*
X1337975Y324645D01*
X1337917Y324757D01*
X1337857Y324866D01*
X1337792Y324973D01*
X1337725Y325079D01*
X1337654Y325182D01*
X1337580Y325283D01*
X1337503Y325382D01*
X1337423Y325478D01*
X1337340Y325572D01*
X1337255Y325663D01*
X1337166Y325752D01*
X1337075Y325837D01*
X1336981Y325920D01*
X1336885Y326000D01*
X1336786Y326077D01*
X1336685Y326151D01*
X1336582Y326222D01*
X1336476Y326289D01*
X1336369Y326354D01*
X1336260Y326414D01*
X1336148Y326472D01*
X1336036Y326526D01*
X1335921Y326577D01*
X1335805Y326624D01*
X1335688Y326667D01*
X1335569Y326707D01*
X1335449Y326743D01*
X1335328Y326775D01*
X1335206Y326804D01*
X1335084Y326829D01*
X1334960Y326850D01*
X1334836Y326867D01*
X1334712Y326881D01*
X1334587Y326890D01*
X1334462Y326896D01*
X1334337Y326898D01*
X1334194Y326896D01*
X1334052Y326890D01*
X1333909Y326880D01*
X1333767Y326867D01*
X1333626Y326849D01*
X1333484Y326828D01*
X1333344Y326803D01*
X1333204Y326774D01*
X1333065Y326741D01*
X1332927Y326704D01*
X1332790Y326664D01*
X1332655Y326620D01*
X1332520Y326572D01*
X1332387Y326520D01*
X1332255Y326465D01*
X1332125Y326406D01*
X1331997Y326344D01*
X1331870Y326278D01*
X1331745Y326209D01*
X1331622Y326137D01*
X1331502Y326061D01*
X1331383Y325982D01*
X1331266Y325899D01*
X1331152Y325814D01*
X1331040Y325725D01*
X1330931Y325634D01*
X1330824Y325539D01*
X1330719Y325442D01*
X1330618Y325341D01*
X1330519Y325238D01*
X1330423Y325133D01*
X1330330Y325024D01*
X1330240Y324913D01*
X1330153Y324800D01*
X1330069Y324685D01*
X1329989Y324567D01*
X1329911Y324447D01*
X1329837Y324325D01*
X1329767Y324201D01*
X1329699Y324075D01*
X1329636Y323947D01*
X1329575Y323818D01*
X1329518Y323687D01*
X1329465Y323555D01*
X1329416Y323421D01*
X1329370Y323286D01*
X1337046Y319673D02*
X1337140Y319765D01*
X1337230Y319859D01*
X1337318Y319956D01*
X1337403Y320056D01*
X1337485Y320158D01*
X1337564Y320263D01*
X1337639Y320370D01*
X1337711Y320479D01*
X1337780Y320590D01*
X1337846Y320704D01*
X1337908Y320819D01*
X1337967Y320936D01*
X1338022Y321055D01*
X1338073Y321175D01*
X1338121Y321297D01*
X1338166Y321420D01*
X1338206Y321544D01*
X1338243Y321670D01*
X1338276Y321797D01*
X1338305Y321924D01*
X1338331Y322053D01*
X1338352Y322182D01*
X1338370Y322312D01*
X1338383Y322442D01*
X1338393Y322572D01*
X1338399Y322703D01*
X1338401Y322834D01*
X1337046Y319673D02*
X1329370Y310642D01*
X1338401Y310642D01*
X1357853Y310642D02*
X1352434Y326898D01*
X1363272Y326898D02*
X1357853Y310642D01*
X1369490Y310642D02*
X1369490Y326898D01*
X1374005Y326898D01*
X1374136Y326896D01*
X1374268Y326890D01*
X1374399Y326881D01*
X1374529Y326867D01*
X1374660Y326850D01*
X1374789Y326829D01*
X1374918Y326805D01*
X1375046Y326776D01*
X1375174Y326744D01*
X1375300Y326708D01*
X1375425Y326669D01*
X1375550Y326626D01*
X1375672Y326579D01*
X1375794Y326529D01*
X1375914Y326475D01*
X1376032Y326418D01*
X1376148Y326357D01*
X1376263Y326293D01*
X1376376Y326226D01*
X1376487Y326155D01*
X1376595Y326081D01*
X1376702Y326004D01*
X1376806Y325924D01*
X1376908Y325841D01*
X1377007Y325756D01*
X1377104Y325667D01*
X1377198Y325575D01*
X1377290Y325481D01*
X1377379Y325384D01*
X1377464Y325285D01*
X1377547Y325183D01*
X1377627Y325079D01*
X1377704Y324972D01*
X1377778Y324864D01*
X1377849Y324753D01*
X1377916Y324640D01*
X1377980Y324525D01*
X1378041Y324409D01*
X1378098Y324291D01*
X1378152Y324171D01*
X1378202Y324049D01*
X1378249Y323927D01*
X1378292Y323802D01*
X1378331Y323677D01*
X1378367Y323551D01*
X1378399Y323423D01*
X1378428Y323295D01*
X1378452Y323166D01*
X1378473Y323037D01*
X1378490Y322906D01*
X1378504Y322776D01*
X1378513Y322645D01*
X1378519Y322513D01*
X1378521Y322382D01*
X1378521Y315158D01*
X1378519Y315027D01*
X1378513Y314895D01*
X1378504Y314764D01*
X1378490Y314634D01*
X1378473Y314503D01*
X1378452Y314374D01*
X1378428Y314245D01*
X1378399Y314117D01*
X1378367Y313989D01*
X1378331Y313863D01*
X1378292Y313738D01*
X1378249Y313613D01*
X1378202Y313491D01*
X1378152Y313369D01*
X1378098Y313249D01*
X1378041Y313131D01*
X1377980Y313015D01*
X1377916Y312900D01*
X1377849Y312787D01*
X1377778Y312676D01*
X1377704Y312568D01*
X1377627Y312461D01*
X1377547Y312357D01*
X1377464Y312255D01*
X1377379Y312156D01*
X1377290Y312059D01*
X1377198Y311965D01*
X1377104Y311873D01*
X1377007Y311784D01*
X1376908Y311699D01*
X1376806Y311616D01*
X1376702Y311536D01*
X1376595Y311459D01*
X1376487Y311385D01*
X1376376Y311314D01*
X1376263Y311247D01*
X1376148Y311183D01*
X1376032Y311122D01*
X1375914Y311065D01*
X1375794Y311011D01*
X1375672Y310961D01*
X1375550Y310914D01*
X1375425Y310871D01*
X1375300Y310832D01*
X1375174Y310796D01*
X1375046Y310764D01*
X1374918Y310735D01*
X1374789Y310711D01*
X1374659Y310690D01*
X1374529Y310673D01*
X1374399Y310659D01*
X1374268Y310650D01*
X1374136Y310644D01*
X1374005Y310642D01*
X1369490Y310642D01*
X1389215Y310642D02*
X1392827Y310642D01*
X1389215Y310642D02*
X1389097Y310644D01*
X1388979Y310650D01*
X1388861Y310659D01*
X1388744Y310673D01*
X1388627Y310690D01*
X1388510Y310711D01*
X1388395Y310736D01*
X1388280Y310765D01*
X1388166Y310798D01*
X1388054Y310834D01*
X1387943Y310874D01*
X1387833Y310917D01*
X1387724Y310964D01*
X1387617Y311014D01*
X1387512Y311069D01*
X1387409Y311126D01*
X1387308Y311187D01*
X1387208Y311251D01*
X1387111Y311318D01*
X1387016Y311388D01*
X1386924Y311462D01*
X1386833Y311538D01*
X1386746Y311618D01*
X1386661Y311700D01*
X1386579Y311785D01*
X1386499Y311872D01*
X1386423Y311963D01*
X1386349Y312055D01*
X1386279Y312150D01*
X1386212Y312247D01*
X1386148Y312347D01*
X1386087Y312448D01*
X1386030Y312551D01*
X1385975Y312656D01*
X1385925Y312763D01*
X1385878Y312872D01*
X1385835Y312982D01*
X1385795Y313093D01*
X1385759Y313205D01*
X1385726Y313319D01*
X1385697Y313434D01*
X1385672Y313549D01*
X1385651Y313666D01*
X1385634Y313783D01*
X1385620Y313900D01*
X1385611Y314018D01*
X1385605Y314136D01*
X1385603Y314254D01*
X1385603Y323286D01*
X1385605Y323404D01*
X1385611Y323522D01*
X1385620Y323640D01*
X1385634Y323757D01*
X1385651Y323874D01*
X1385672Y323991D01*
X1385697Y324106D01*
X1385726Y324221D01*
X1385759Y324335D01*
X1385795Y324447D01*
X1385835Y324558D01*
X1385878Y324668D01*
X1385925Y324777D01*
X1385975Y324884D01*
X1386029Y324989D01*
X1386087Y325092D01*
X1386148Y325193D01*
X1386212Y325293D01*
X1386279Y325390D01*
X1386349Y325485D01*
X1386423Y325577D01*
X1386499Y325668D01*
X1386579Y325755D01*
X1386661Y325840D01*
X1386746Y325922D01*
X1386833Y326002D01*
X1386924Y326078D01*
X1387016Y326152D01*
X1387111Y326222D01*
X1387208Y326289D01*
X1387308Y326353D01*
X1387409Y326414D01*
X1387512Y326471D01*
X1387617Y326525D01*
X1387724Y326576D01*
X1387833Y326623D01*
X1387943Y326666D01*
X1388054Y326706D01*
X1388166Y326742D01*
X1388280Y326775D01*
X1388395Y326804D01*
X1388510Y326829D01*
X1388627Y326850D01*
X1388744Y326867D01*
X1388861Y326881D01*
X1388979Y326890D01*
X1389097Y326896D01*
X1389215Y326898D01*
X1392827Y326898D01*
X1306999Y290294D02*
X1296162Y290294D01*
X1301581Y295712D02*
X1301581Y284875D01*
X1313738Y283972D02*
X1319157Y283972D01*
X1319275Y283974D01*
X1319393Y283980D01*
X1319511Y283989D01*
X1319628Y284003D01*
X1319745Y284020D01*
X1319862Y284041D01*
X1319977Y284066D01*
X1320092Y284095D01*
X1320206Y284128D01*
X1320318Y284164D01*
X1320429Y284204D01*
X1320539Y284247D01*
X1320648Y284294D01*
X1320755Y284344D01*
X1320860Y284399D01*
X1320963Y284456D01*
X1321064Y284517D01*
X1321164Y284581D01*
X1321261Y284648D01*
X1321356Y284718D01*
X1321448Y284792D01*
X1321539Y284868D01*
X1321626Y284948D01*
X1321711Y285030D01*
X1321793Y285115D01*
X1321873Y285202D01*
X1321949Y285293D01*
X1322023Y285385D01*
X1322093Y285480D01*
X1322160Y285577D01*
X1322224Y285677D01*
X1322285Y285778D01*
X1322342Y285881D01*
X1322397Y285986D01*
X1322447Y286093D01*
X1322494Y286202D01*
X1322537Y286312D01*
X1322577Y286423D01*
X1322613Y286535D01*
X1322646Y286649D01*
X1322675Y286764D01*
X1322700Y286879D01*
X1322721Y286996D01*
X1322738Y287113D01*
X1322752Y287230D01*
X1322761Y287348D01*
X1322767Y287466D01*
X1322769Y287584D01*
X1322770Y287584D02*
X1322770Y289391D01*
X1322769Y289391D02*
X1322767Y289509D01*
X1322761Y289627D01*
X1322752Y289745D01*
X1322738Y289862D01*
X1322721Y289979D01*
X1322700Y290096D01*
X1322675Y290211D01*
X1322646Y290326D01*
X1322613Y290440D01*
X1322577Y290552D01*
X1322537Y290663D01*
X1322494Y290773D01*
X1322447Y290882D01*
X1322397Y290989D01*
X1322342Y291094D01*
X1322285Y291197D01*
X1322224Y291298D01*
X1322160Y291398D01*
X1322093Y291495D01*
X1322023Y291590D01*
X1321949Y291682D01*
X1321873Y291773D01*
X1321793Y291860D01*
X1321711Y291945D01*
X1321626Y292027D01*
X1321539Y292107D01*
X1321448Y292183D01*
X1321356Y292257D01*
X1321261Y292327D01*
X1321164Y292394D01*
X1321064Y292458D01*
X1320963Y292519D01*
X1320860Y292576D01*
X1320755Y292631D01*
X1320648Y292681D01*
X1320539Y292728D01*
X1320429Y292771D01*
X1320318Y292811D01*
X1320206Y292847D01*
X1320092Y292880D01*
X1319977Y292909D01*
X1319862Y292934D01*
X1319745Y292955D01*
X1319628Y292972D01*
X1319511Y292986D01*
X1319393Y292995D01*
X1319275Y293001D01*
X1319157Y293003D01*
X1313738Y293003D01*
X1313738Y300228D01*
X1322770Y300228D01*
X1336803Y300228D02*
X1342222Y283972D01*
X1347640Y300228D01*
X1353859Y300228D02*
X1353859Y283972D01*
X1353859Y300228D02*
X1358374Y300228D01*
X1358505Y300226D01*
X1358637Y300220D01*
X1358768Y300211D01*
X1358898Y300197D01*
X1359029Y300180D01*
X1359158Y300159D01*
X1359287Y300135D01*
X1359415Y300106D01*
X1359543Y300074D01*
X1359669Y300038D01*
X1359794Y299999D01*
X1359919Y299956D01*
X1360041Y299909D01*
X1360163Y299859D01*
X1360283Y299805D01*
X1360401Y299748D01*
X1360517Y299687D01*
X1360632Y299623D01*
X1360745Y299556D01*
X1360856Y299485D01*
X1360964Y299411D01*
X1361071Y299334D01*
X1361175Y299254D01*
X1361277Y299171D01*
X1361376Y299086D01*
X1361473Y298997D01*
X1361567Y298905D01*
X1361659Y298811D01*
X1361748Y298714D01*
X1361833Y298615D01*
X1361916Y298513D01*
X1361996Y298409D01*
X1362073Y298302D01*
X1362147Y298194D01*
X1362218Y298083D01*
X1362285Y297970D01*
X1362349Y297855D01*
X1362410Y297739D01*
X1362467Y297621D01*
X1362521Y297501D01*
X1362571Y297379D01*
X1362618Y297257D01*
X1362661Y297132D01*
X1362700Y297007D01*
X1362736Y296881D01*
X1362768Y296753D01*
X1362797Y296625D01*
X1362821Y296496D01*
X1362842Y296367D01*
X1362859Y296236D01*
X1362873Y296106D01*
X1362882Y295975D01*
X1362888Y295843D01*
X1362890Y295712D01*
X1362890Y288488D01*
X1362888Y288357D01*
X1362882Y288225D01*
X1362873Y288094D01*
X1362859Y287964D01*
X1362842Y287833D01*
X1362821Y287704D01*
X1362797Y287575D01*
X1362768Y287447D01*
X1362736Y287319D01*
X1362700Y287193D01*
X1362661Y287068D01*
X1362618Y286943D01*
X1362571Y286821D01*
X1362521Y286699D01*
X1362467Y286579D01*
X1362410Y286461D01*
X1362349Y286345D01*
X1362285Y286230D01*
X1362218Y286117D01*
X1362147Y286006D01*
X1362073Y285898D01*
X1361996Y285791D01*
X1361916Y285687D01*
X1361833Y285585D01*
X1361748Y285486D01*
X1361659Y285389D01*
X1361567Y285295D01*
X1361473Y285203D01*
X1361376Y285114D01*
X1361277Y285029D01*
X1361175Y284946D01*
X1361071Y284866D01*
X1360964Y284789D01*
X1360856Y284715D01*
X1360745Y284644D01*
X1360632Y284577D01*
X1360517Y284513D01*
X1360401Y284452D01*
X1360283Y284395D01*
X1360163Y284341D01*
X1360041Y284291D01*
X1359919Y284244D01*
X1359794Y284201D01*
X1359669Y284162D01*
X1359543Y284126D01*
X1359415Y284094D01*
X1359287Y284065D01*
X1359158Y284041D01*
X1359028Y284020D01*
X1358898Y284003D01*
X1358768Y283989D01*
X1358637Y283980D01*
X1358505Y283974D01*
X1358374Y283972D01*
X1353859Y283972D01*
X1373584Y283972D02*
X1377196Y283972D01*
X1373584Y283972D02*
X1373466Y283974D01*
X1373348Y283980D01*
X1373230Y283989D01*
X1373113Y284003D01*
X1372996Y284020D01*
X1372879Y284041D01*
X1372764Y284066D01*
X1372649Y284095D01*
X1372535Y284128D01*
X1372423Y284164D01*
X1372312Y284204D01*
X1372202Y284247D01*
X1372093Y284294D01*
X1371986Y284344D01*
X1371881Y284399D01*
X1371778Y284456D01*
X1371677Y284517D01*
X1371577Y284581D01*
X1371480Y284648D01*
X1371385Y284718D01*
X1371293Y284792D01*
X1371202Y284868D01*
X1371115Y284948D01*
X1371030Y285030D01*
X1370948Y285115D01*
X1370868Y285202D01*
X1370792Y285293D01*
X1370718Y285385D01*
X1370648Y285480D01*
X1370581Y285577D01*
X1370517Y285677D01*
X1370456Y285778D01*
X1370399Y285881D01*
X1370344Y285986D01*
X1370294Y286093D01*
X1370247Y286202D01*
X1370204Y286312D01*
X1370164Y286423D01*
X1370128Y286535D01*
X1370095Y286649D01*
X1370066Y286764D01*
X1370041Y286879D01*
X1370020Y286996D01*
X1370003Y287113D01*
X1369989Y287230D01*
X1369980Y287348D01*
X1369974Y287466D01*
X1369972Y287584D01*
X1369971Y287584D02*
X1369971Y296616D01*
X1369972Y296616D02*
X1369974Y296734D01*
X1369980Y296852D01*
X1369989Y296970D01*
X1370003Y297087D01*
X1370020Y297204D01*
X1370041Y297321D01*
X1370066Y297436D01*
X1370095Y297551D01*
X1370128Y297665D01*
X1370164Y297777D01*
X1370204Y297888D01*
X1370247Y297998D01*
X1370294Y298107D01*
X1370344Y298214D01*
X1370398Y298319D01*
X1370456Y298422D01*
X1370517Y298523D01*
X1370581Y298623D01*
X1370648Y298720D01*
X1370718Y298815D01*
X1370792Y298907D01*
X1370868Y298998D01*
X1370948Y299085D01*
X1371030Y299170D01*
X1371115Y299252D01*
X1371202Y299332D01*
X1371293Y299408D01*
X1371385Y299482D01*
X1371480Y299552D01*
X1371577Y299619D01*
X1371677Y299683D01*
X1371778Y299744D01*
X1371881Y299801D01*
X1371986Y299855D01*
X1372093Y299906D01*
X1372202Y299953D01*
X1372312Y299996D01*
X1372423Y300036D01*
X1372535Y300072D01*
X1372649Y300105D01*
X1372764Y300134D01*
X1372879Y300159D01*
X1372996Y300180D01*
X1373113Y300197D01*
X1373230Y300211D01*
X1373348Y300220D01*
X1373466Y300226D01*
X1373584Y300228D01*
X1377196Y300228D01*
X1305193Y266333D02*
X1302484Y266333D01*
X1305193Y266333D02*
X1305193Y257302D01*
X1299774Y257302D01*
X1299656Y257304D01*
X1299538Y257310D01*
X1299420Y257319D01*
X1299303Y257333D01*
X1299186Y257350D01*
X1299069Y257371D01*
X1298954Y257396D01*
X1298839Y257425D01*
X1298725Y257458D01*
X1298613Y257494D01*
X1298502Y257534D01*
X1298392Y257577D01*
X1298283Y257624D01*
X1298176Y257674D01*
X1298071Y257729D01*
X1297968Y257786D01*
X1297867Y257847D01*
X1297767Y257911D01*
X1297670Y257978D01*
X1297575Y258048D01*
X1297483Y258122D01*
X1297392Y258198D01*
X1297305Y258278D01*
X1297220Y258360D01*
X1297138Y258445D01*
X1297058Y258532D01*
X1296982Y258623D01*
X1296908Y258715D01*
X1296838Y258810D01*
X1296771Y258907D01*
X1296707Y259007D01*
X1296646Y259108D01*
X1296589Y259211D01*
X1296534Y259316D01*
X1296484Y259423D01*
X1296437Y259532D01*
X1296394Y259642D01*
X1296354Y259753D01*
X1296318Y259865D01*
X1296285Y259979D01*
X1296256Y260094D01*
X1296231Y260209D01*
X1296210Y260326D01*
X1296193Y260443D01*
X1296179Y260560D01*
X1296170Y260678D01*
X1296164Y260796D01*
X1296162Y260914D01*
X1296162Y269946D01*
X1296164Y270064D01*
X1296170Y270182D01*
X1296179Y270300D01*
X1296193Y270417D01*
X1296210Y270534D01*
X1296231Y270651D01*
X1296256Y270766D01*
X1296285Y270881D01*
X1296318Y270995D01*
X1296354Y271107D01*
X1296394Y271218D01*
X1296437Y271328D01*
X1296484Y271437D01*
X1296534Y271544D01*
X1296588Y271649D01*
X1296646Y271752D01*
X1296707Y271853D01*
X1296771Y271953D01*
X1296838Y272050D01*
X1296908Y272145D01*
X1296982Y272237D01*
X1297058Y272328D01*
X1297138Y272415D01*
X1297220Y272500D01*
X1297305Y272582D01*
X1297392Y272662D01*
X1297483Y272738D01*
X1297575Y272812D01*
X1297670Y272882D01*
X1297767Y272949D01*
X1297867Y273013D01*
X1297968Y273074D01*
X1298071Y273131D01*
X1298176Y273185D01*
X1298283Y273236D01*
X1298392Y273283D01*
X1298502Y273326D01*
X1298613Y273366D01*
X1298725Y273402D01*
X1298839Y273435D01*
X1298954Y273464D01*
X1299069Y273489D01*
X1299186Y273510D01*
X1299303Y273527D01*
X1299420Y273541D01*
X1299538Y273550D01*
X1299656Y273556D01*
X1299774Y273558D01*
X1305193Y273558D01*
X1312835Y273558D02*
X1312835Y257302D01*
X1321866Y257302D02*
X1312835Y273558D01*
X1321866Y273558D02*
X1321866Y257302D01*
X1329509Y257302D02*
X1329509Y273558D01*
X1334024Y273558D01*
X1334155Y273556D01*
X1334287Y273550D01*
X1334418Y273541D01*
X1334548Y273527D01*
X1334679Y273510D01*
X1334808Y273489D01*
X1334937Y273465D01*
X1335065Y273436D01*
X1335193Y273404D01*
X1335319Y273368D01*
X1335444Y273329D01*
X1335569Y273286D01*
X1335691Y273239D01*
X1335813Y273189D01*
X1335933Y273135D01*
X1336051Y273078D01*
X1336167Y273017D01*
X1336282Y272953D01*
X1336395Y272886D01*
X1336506Y272815D01*
X1336614Y272741D01*
X1336721Y272664D01*
X1336825Y272584D01*
X1336927Y272501D01*
X1337026Y272416D01*
X1337123Y272327D01*
X1337217Y272235D01*
X1337309Y272141D01*
X1337398Y272044D01*
X1337483Y271945D01*
X1337566Y271843D01*
X1337646Y271739D01*
X1337723Y271632D01*
X1337797Y271524D01*
X1337868Y271413D01*
X1337935Y271300D01*
X1337999Y271185D01*
X1338060Y271069D01*
X1338117Y270951D01*
X1338171Y270831D01*
X1338221Y270709D01*
X1338268Y270587D01*
X1338311Y270462D01*
X1338350Y270337D01*
X1338386Y270211D01*
X1338418Y270083D01*
X1338447Y269955D01*
X1338471Y269826D01*
X1338492Y269697D01*
X1338509Y269566D01*
X1338523Y269436D01*
X1338532Y269305D01*
X1338538Y269173D01*
X1338540Y269042D01*
X1338540Y261818D01*
X1338538Y261687D01*
X1338532Y261555D01*
X1338523Y261424D01*
X1338509Y261294D01*
X1338492Y261163D01*
X1338471Y261034D01*
X1338447Y260905D01*
X1338418Y260777D01*
X1338386Y260649D01*
X1338350Y260523D01*
X1338311Y260398D01*
X1338268Y260273D01*
X1338221Y260151D01*
X1338171Y260029D01*
X1338117Y259909D01*
X1338060Y259791D01*
X1337999Y259675D01*
X1337935Y259560D01*
X1337868Y259447D01*
X1337797Y259336D01*
X1337723Y259228D01*
X1337646Y259121D01*
X1337566Y259017D01*
X1337483Y258915D01*
X1337398Y258816D01*
X1337309Y258719D01*
X1337217Y258625D01*
X1337123Y258533D01*
X1337026Y258444D01*
X1336927Y258359D01*
X1336825Y258276D01*
X1336721Y258196D01*
X1336614Y258119D01*
X1336506Y258045D01*
X1336395Y257974D01*
X1336282Y257907D01*
X1336167Y257843D01*
X1336051Y257782D01*
X1335933Y257725D01*
X1335813Y257671D01*
X1335691Y257621D01*
X1335569Y257574D01*
X1335444Y257531D01*
X1335319Y257492D01*
X1335193Y257456D01*
X1335065Y257424D01*
X1334937Y257395D01*
X1334808Y257371D01*
X1334678Y257350D01*
X1334548Y257333D01*
X1334418Y257319D01*
X1334287Y257310D01*
X1334155Y257304D01*
X1334024Y257302D01*
X1329509Y257302D01*
X1306999Y236954D02*
X1296162Y236954D01*
X1313738Y230632D02*
X1319157Y230632D01*
X1319275Y230634D01*
X1319393Y230640D01*
X1319511Y230649D01*
X1319628Y230663D01*
X1319745Y230680D01*
X1319862Y230701D01*
X1319977Y230726D01*
X1320092Y230755D01*
X1320206Y230788D01*
X1320318Y230824D01*
X1320429Y230864D01*
X1320539Y230907D01*
X1320648Y230954D01*
X1320755Y231004D01*
X1320860Y231059D01*
X1320963Y231116D01*
X1321064Y231177D01*
X1321164Y231241D01*
X1321261Y231308D01*
X1321356Y231378D01*
X1321448Y231452D01*
X1321539Y231528D01*
X1321626Y231608D01*
X1321711Y231690D01*
X1321793Y231775D01*
X1321873Y231862D01*
X1321949Y231953D01*
X1322023Y232045D01*
X1322093Y232140D01*
X1322160Y232237D01*
X1322224Y232337D01*
X1322285Y232438D01*
X1322342Y232541D01*
X1322397Y232646D01*
X1322447Y232753D01*
X1322494Y232862D01*
X1322537Y232972D01*
X1322577Y233083D01*
X1322613Y233195D01*
X1322646Y233309D01*
X1322675Y233424D01*
X1322700Y233539D01*
X1322721Y233656D01*
X1322738Y233773D01*
X1322752Y233890D01*
X1322761Y234008D01*
X1322767Y234126D01*
X1322769Y234244D01*
X1322770Y234244D02*
X1322770Y236051D01*
X1322769Y236051D02*
X1322767Y236169D01*
X1322761Y236287D01*
X1322752Y236405D01*
X1322738Y236522D01*
X1322721Y236639D01*
X1322700Y236756D01*
X1322675Y236871D01*
X1322646Y236986D01*
X1322613Y237100D01*
X1322577Y237212D01*
X1322537Y237323D01*
X1322494Y237433D01*
X1322447Y237542D01*
X1322397Y237649D01*
X1322342Y237754D01*
X1322285Y237857D01*
X1322224Y237958D01*
X1322160Y238058D01*
X1322093Y238155D01*
X1322023Y238250D01*
X1321949Y238342D01*
X1321873Y238433D01*
X1321793Y238520D01*
X1321711Y238605D01*
X1321626Y238687D01*
X1321539Y238767D01*
X1321448Y238843D01*
X1321356Y238917D01*
X1321261Y238987D01*
X1321164Y239054D01*
X1321064Y239118D01*
X1320963Y239179D01*
X1320860Y239236D01*
X1320755Y239291D01*
X1320648Y239341D01*
X1320539Y239388D01*
X1320429Y239431D01*
X1320318Y239471D01*
X1320206Y239507D01*
X1320092Y239540D01*
X1319977Y239569D01*
X1319862Y239594D01*
X1319745Y239615D01*
X1319628Y239632D01*
X1319511Y239646D01*
X1319393Y239655D01*
X1319275Y239661D01*
X1319157Y239663D01*
X1313738Y239663D01*
X1313738Y246888D01*
X1322770Y246888D01*
X1336803Y246888D02*
X1342222Y230632D01*
X1347640Y246888D01*
X1353859Y246888D02*
X1353859Y230632D01*
X1353859Y246888D02*
X1358374Y246888D01*
X1358505Y246886D01*
X1358637Y246880D01*
X1358768Y246871D01*
X1358898Y246857D01*
X1359029Y246840D01*
X1359158Y246819D01*
X1359287Y246795D01*
X1359415Y246766D01*
X1359543Y246734D01*
X1359669Y246698D01*
X1359794Y246659D01*
X1359919Y246616D01*
X1360041Y246569D01*
X1360163Y246519D01*
X1360283Y246465D01*
X1360401Y246408D01*
X1360517Y246347D01*
X1360632Y246283D01*
X1360745Y246216D01*
X1360856Y246145D01*
X1360964Y246071D01*
X1361071Y245994D01*
X1361175Y245914D01*
X1361277Y245831D01*
X1361376Y245746D01*
X1361473Y245657D01*
X1361567Y245565D01*
X1361659Y245471D01*
X1361748Y245374D01*
X1361833Y245275D01*
X1361916Y245173D01*
X1361996Y245069D01*
X1362073Y244962D01*
X1362147Y244854D01*
X1362218Y244743D01*
X1362285Y244630D01*
X1362349Y244515D01*
X1362410Y244399D01*
X1362467Y244281D01*
X1362521Y244161D01*
X1362571Y244039D01*
X1362618Y243917D01*
X1362661Y243792D01*
X1362700Y243667D01*
X1362736Y243541D01*
X1362768Y243413D01*
X1362797Y243285D01*
X1362821Y243156D01*
X1362842Y243027D01*
X1362859Y242896D01*
X1362873Y242766D01*
X1362882Y242635D01*
X1362888Y242503D01*
X1362890Y242372D01*
X1362890Y235148D01*
X1362888Y235017D01*
X1362882Y234885D01*
X1362873Y234754D01*
X1362859Y234624D01*
X1362842Y234493D01*
X1362821Y234364D01*
X1362797Y234235D01*
X1362768Y234107D01*
X1362736Y233979D01*
X1362700Y233853D01*
X1362661Y233728D01*
X1362618Y233603D01*
X1362571Y233481D01*
X1362521Y233359D01*
X1362467Y233239D01*
X1362410Y233121D01*
X1362349Y233005D01*
X1362285Y232890D01*
X1362218Y232777D01*
X1362147Y232666D01*
X1362073Y232558D01*
X1361996Y232451D01*
X1361916Y232347D01*
X1361833Y232245D01*
X1361748Y232146D01*
X1361659Y232049D01*
X1361567Y231955D01*
X1361473Y231863D01*
X1361376Y231774D01*
X1361277Y231689D01*
X1361175Y231606D01*
X1361071Y231526D01*
X1360964Y231449D01*
X1360856Y231375D01*
X1360745Y231304D01*
X1360632Y231237D01*
X1360517Y231173D01*
X1360401Y231112D01*
X1360283Y231055D01*
X1360163Y231001D01*
X1360041Y230951D01*
X1359919Y230904D01*
X1359794Y230861D01*
X1359669Y230822D01*
X1359543Y230786D01*
X1359415Y230754D01*
X1359287Y230725D01*
X1359158Y230701D01*
X1359028Y230680D01*
X1358898Y230663D01*
X1358768Y230649D01*
X1358637Y230640D01*
X1358505Y230634D01*
X1358374Y230632D01*
X1353859Y230632D01*
X1373584Y230632D02*
X1377196Y230632D01*
X1373584Y230632D02*
X1373466Y230634D01*
X1373348Y230640D01*
X1373230Y230649D01*
X1373113Y230663D01*
X1372996Y230680D01*
X1372879Y230701D01*
X1372764Y230726D01*
X1372649Y230755D01*
X1372535Y230788D01*
X1372423Y230824D01*
X1372312Y230864D01*
X1372202Y230907D01*
X1372093Y230954D01*
X1371986Y231004D01*
X1371881Y231059D01*
X1371778Y231116D01*
X1371677Y231177D01*
X1371577Y231241D01*
X1371480Y231308D01*
X1371385Y231378D01*
X1371293Y231452D01*
X1371202Y231528D01*
X1371115Y231608D01*
X1371030Y231690D01*
X1370948Y231775D01*
X1370868Y231862D01*
X1370792Y231953D01*
X1370718Y232045D01*
X1370648Y232140D01*
X1370581Y232237D01*
X1370517Y232337D01*
X1370456Y232438D01*
X1370399Y232541D01*
X1370344Y232646D01*
X1370294Y232753D01*
X1370247Y232862D01*
X1370204Y232972D01*
X1370164Y233083D01*
X1370128Y233195D01*
X1370095Y233309D01*
X1370066Y233424D01*
X1370041Y233539D01*
X1370020Y233656D01*
X1370003Y233773D01*
X1369989Y233890D01*
X1369980Y234008D01*
X1369974Y234126D01*
X1369972Y234244D01*
X1369971Y234244D02*
X1369971Y243276D01*
X1369972Y243276D02*
X1369974Y243394D01*
X1369980Y243512D01*
X1369989Y243630D01*
X1370003Y243747D01*
X1370020Y243864D01*
X1370041Y243981D01*
X1370066Y244096D01*
X1370095Y244211D01*
X1370128Y244325D01*
X1370164Y244437D01*
X1370204Y244548D01*
X1370247Y244658D01*
X1370294Y244767D01*
X1370344Y244874D01*
X1370398Y244979D01*
X1370456Y245082D01*
X1370517Y245183D01*
X1370581Y245283D01*
X1370648Y245380D01*
X1370718Y245475D01*
X1370792Y245567D01*
X1370868Y245658D01*
X1370948Y245745D01*
X1371030Y245830D01*
X1371115Y245912D01*
X1371202Y245992D01*
X1371293Y246068D01*
X1371385Y246142D01*
X1371480Y246212D01*
X1371577Y246279D01*
X1371677Y246343D01*
X1371778Y246404D01*
X1371881Y246461D01*
X1371986Y246515D01*
X1372093Y246566D01*
X1372202Y246613D01*
X1372312Y246656D01*
X1372423Y246696D01*
X1372535Y246732D01*
X1372649Y246765D01*
X1372764Y246794D01*
X1372879Y246819D01*
X1372996Y246840D01*
X1373113Y246857D01*
X1373230Y246871D01*
X1373348Y246880D01*
X1373466Y246886D01*
X1373584Y246888D01*
X1377196Y246888D01*
X1306999Y210284D02*
X1296162Y210284D01*
X1313738Y216606D02*
X1318254Y220218D01*
X1318254Y203962D01*
X1313738Y203962D02*
X1322770Y203962D01*
X1338401Y216154D02*
X1338399Y216279D01*
X1338393Y216404D01*
X1338384Y216529D01*
X1338370Y216653D01*
X1338353Y216777D01*
X1338332Y216901D01*
X1338307Y217023D01*
X1338278Y217145D01*
X1338246Y217266D01*
X1338210Y217386D01*
X1338170Y217505D01*
X1338127Y217622D01*
X1338080Y217738D01*
X1338029Y217853D01*
X1337975Y217965D01*
X1337917Y218077D01*
X1337857Y218186D01*
X1337792Y218293D01*
X1337725Y218399D01*
X1337654Y218502D01*
X1337580Y218603D01*
X1337503Y218702D01*
X1337423Y218798D01*
X1337340Y218892D01*
X1337255Y218983D01*
X1337166Y219072D01*
X1337075Y219157D01*
X1336981Y219240D01*
X1336885Y219320D01*
X1336786Y219397D01*
X1336685Y219471D01*
X1336582Y219542D01*
X1336476Y219609D01*
X1336369Y219674D01*
X1336260Y219734D01*
X1336148Y219792D01*
X1336036Y219846D01*
X1335921Y219897D01*
X1335805Y219944D01*
X1335688Y219987D01*
X1335569Y220027D01*
X1335449Y220063D01*
X1335328Y220095D01*
X1335206Y220124D01*
X1335084Y220149D01*
X1334960Y220170D01*
X1334836Y220187D01*
X1334712Y220201D01*
X1334587Y220210D01*
X1334462Y220216D01*
X1334337Y220218D01*
X1334194Y220216D01*
X1334052Y220210D01*
X1333909Y220200D01*
X1333767Y220187D01*
X1333626Y220169D01*
X1333484Y220148D01*
X1333344Y220123D01*
X1333204Y220094D01*
X1333065Y220061D01*
X1332927Y220024D01*
X1332790Y219984D01*
X1332655Y219940D01*
X1332520Y219892D01*
X1332387Y219840D01*
X1332255Y219785D01*
X1332125Y219726D01*
X1331997Y219664D01*
X1331870Y219598D01*
X1331745Y219529D01*
X1331622Y219457D01*
X1331502Y219381D01*
X1331383Y219302D01*
X1331266Y219219D01*
X1331152Y219134D01*
X1331040Y219045D01*
X1330931Y218954D01*
X1330824Y218859D01*
X1330719Y218762D01*
X1330618Y218661D01*
X1330519Y218558D01*
X1330423Y218453D01*
X1330330Y218344D01*
X1330240Y218233D01*
X1330153Y218120D01*
X1330069Y218005D01*
X1329989Y217887D01*
X1329911Y217767D01*
X1329837Y217645D01*
X1329767Y217521D01*
X1329699Y217395D01*
X1329636Y217267D01*
X1329575Y217138D01*
X1329518Y217007D01*
X1329465Y216875D01*
X1329416Y216741D01*
X1329370Y216606D01*
X1337046Y212993D02*
X1337140Y213085D01*
X1337230Y213179D01*
X1337318Y213276D01*
X1337403Y213376D01*
X1337485Y213478D01*
X1337564Y213583D01*
X1337639Y213690D01*
X1337711Y213799D01*
X1337780Y213910D01*
X1337846Y214024D01*
X1337908Y214139D01*
X1337967Y214256D01*
X1338022Y214375D01*
X1338073Y214495D01*
X1338121Y214617D01*
X1338166Y214740D01*
X1338206Y214864D01*
X1338243Y214990D01*
X1338276Y215117D01*
X1338305Y215244D01*
X1338331Y215373D01*
X1338352Y215502D01*
X1338370Y215632D01*
X1338383Y215762D01*
X1338393Y215892D01*
X1338399Y216023D01*
X1338401Y216154D01*
X1337046Y212993D02*
X1329370Y203962D01*
X1338401Y203962D01*
X1349516Y203962D02*
X1344098Y220218D01*
X1354935Y220218D02*
X1349516Y203962D01*
X1361153Y203962D02*
X1361153Y220218D01*
X1365669Y220218D01*
X1365800Y220216D01*
X1365932Y220210D01*
X1366063Y220201D01*
X1366193Y220187D01*
X1366324Y220170D01*
X1366453Y220149D01*
X1366582Y220125D01*
X1366710Y220096D01*
X1366838Y220064D01*
X1366964Y220028D01*
X1367089Y219989D01*
X1367214Y219946D01*
X1367336Y219899D01*
X1367458Y219849D01*
X1367578Y219795D01*
X1367696Y219738D01*
X1367812Y219677D01*
X1367927Y219613D01*
X1368040Y219546D01*
X1368151Y219475D01*
X1368259Y219401D01*
X1368366Y219324D01*
X1368470Y219244D01*
X1368572Y219161D01*
X1368671Y219076D01*
X1368768Y218987D01*
X1368862Y218895D01*
X1368954Y218801D01*
X1369043Y218704D01*
X1369128Y218605D01*
X1369211Y218503D01*
X1369291Y218399D01*
X1369368Y218292D01*
X1369442Y218184D01*
X1369513Y218073D01*
X1369580Y217960D01*
X1369644Y217845D01*
X1369705Y217729D01*
X1369762Y217611D01*
X1369816Y217491D01*
X1369866Y217369D01*
X1369913Y217247D01*
X1369956Y217122D01*
X1369995Y216997D01*
X1370031Y216871D01*
X1370063Y216743D01*
X1370092Y216615D01*
X1370116Y216486D01*
X1370137Y216357D01*
X1370154Y216226D01*
X1370168Y216096D01*
X1370177Y215965D01*
X1370183Y215833D01*
X1370185Y215702D01*
X1370184Y215702D02*
X1370184Y208478D01*
X1370185Y208478D02*
X1370183Y208347D01*
X1370177Y208215D01*
X1370168Y208084D01*
X1370154Y207954D01*
X1370137Y207823D01*
X1370116Y207694D01*
X1370092Y207565D01*
X1370063Y207437D01*
X1370031Y207309D01*
X1369995Y207183D01*
X1369956Y207058D01*
X1369913Y206933D01*
X1369866Y206811D01*
X1369816Y206689D01*
X1369762Y206569D01*
X1369705Y206451D01*
X1369644Y206335D01*
X1369580Y206220D01*
X1369513Y206107D01*
X1369442Y205996D01*
X1369368Y205888D01*
X1369291Y205781D01*
X1369211Y205677D01*
X1369128Y205575D01*
X1369043Y205476D01*
X1368954Y205379D01*
X1368862Y205285D01*
X1368768Y205193D01*
X1368671Y205104D01*
X1368572Y205019D01*
X1368470Y204936D01*
X1368366Y204856D01*
X1368259Y204779D01*
X1368151Y204705D01*
X1368040Y204634D01*
X1367927Y204567D01*
X1367812Y204503D01*
X1367696Y204442D01*
X1367578Y204385D01*
X1367458Y204331D01*
X1367336Y204281D01*
X1367214Y204234D01*
X1367089Y204191D01*
X1366964Y204152D01*
X1366838Y204116D01*
X1366710Y204084D01*
X1366582Y204055D01*
X1366453Y204031D01*
X1366323Y204010D01*
X1366193Y203993D01*
X1366063Y203979D01*
X1365932Y203970D01*
X1365800Y203964D01*
X1365669Y203962D01*
X1361153Y203962D01*
X1380878Y203962D02*
X1384491Y203962D01*
X1380878Y203962D02*
X1380760Y203964D01*
X1380642Y203970D01*
X1380524Y203979D01*
X1380407Y203993D01*
X1380290Y204010D01*
X1380173Y204031D01*
X1380058Y204056D01*
X1379943Y204085D01*
X1379829Y204118D01*
X1379717Y204154D01*
X1379606Y204194D01*
X1379496Y204237D01*
X1379387Y204284D01*
X1379280Y204334D01*
X1379175Y204389D01*
X1379072Y204446D01*
X1378971Y204507D01*
X1378871Y204571D01*
X1378774Y204638D01*
X1378679Y204708D01*
X1378587Y204782D01*
X1378496Y204858D01*
X1378409Y204938D01*
X1378324Y205020D01*
X1378242Y205105D01*
X1378162Y205192D01*
X1378086Y205283D01*
X1378012Y205375D01*
X1377942Y205470D01*
X1377875Y205567D01*
X1377811Y205667D01*
X1377750Y205768D01*
X1377693Y205871D01*
X1377638Y205976D01*
X1377588Y206083D01*
X1377541Y206192D01*
X1377498Y206302D01*
X1377458Y206413D01*
X1377422Y206525D01*
X1377389Y206639D01*
X1377360Y206754D01*
X1377335Y206869D01*
X1377314Y206986D01*
X1377297Y207103D01*
X1377283Y207220D01*
X1377274Y207338D01*
X1377268Y207456D01*
X1377266Y207574D01*
X1377266Y216606D01*
X1377268Y216724D01*
X1377274Y216842D01*
X1377283Y216960D01*
X1377297Y217077D01*
X1377314Y217194D01*
X1377335Y217311D01*
X1377360Y217426D01*
X1377389Y217541D01*
X1377422Y217655D01*
X1377458Y217767D01*
X1377498Y217878D01*
X1377541Y217988D01*
X1377588Y218097D01*
X1377638Y218204D01*
X1377692Y218309D01*
X1377750Y218412D01*
X1377811Y218513D01*
X1377875Y218613D01*
X1377942Y218710D01*
X1378012Y218805D01*
X1378086Y218897D01*
X1378162Y218988D01*
X1378242Y219075D01*
X1378324Y219160D01*
X1378409Y219242D01*
X1378496Y219322D01*
X1378587Y219398D01*
X1378679Y219472D01*
X1378774Y219542D01*
X1378871Y219609D01*
X1378971Y219673D01*
X1379072Y219734D01*
X1379175Y219791D01*
X1379280Y219845D01*
X1379387Y219896D01*
X1379496Y219943D01*
X1379606Y219986D01*
X1379717Y220026D01*
X1379829Y220062D01*
X1379943Y220095D01*
X1380058Y220124D01*
X1380173Y220149D01*
X1380290Y220170D01*
X1380407Y220187D01*
X1380524Y220201D01*
X1380642Y220210D01*
X1380760Y220216D01*
X1380878Y220218D01*
X1384491Y220218D01*
D16*
X254000Y304800D03*
D17*
X254000Y355600D03*
X304800Y355600D03*
X304800Y304800D03*
D18*
X419100Y359410D03*
D19*
X419100Y377190D03*
D18*
X419100Y257810D03*
D19*
X419100Y275590D03*
D20*
X635000Y419100D03*
X635000Y368300D03*
X1028700Y342900D03*
X1028700Y292100D03*
X698500Y368300D03*
X698500Y317500D03*
X1028700Y254000D03*
X1028700Y203200D03*
D21*
X568960Y101600D03*
X568960Y152400D03*
D22*
X876300Y296418D02*
X876300Y313182D01*
X901700Y313182D02*
X901700Y296418D01*
X927100Y296418D02*
X927100Y313182D01*
X876300Y224282D02*
X876300Y207518D01*
X901700Y207518D02*
X901700Y224282D01*
X927100Y224282D02*
X927100Y207518D01*
D23*
X622300Y63500D03*
X673100Y63500D03*
D24*
X63500Y432900D03*
X63500Y342900D03*
X63500Y252900D03*
D22*
X876300Y135382D02*
X876300Y118618D01*
X901700Y118618D02*
X901700Y135382D01*
X927100Y135382D02*
X927100Y118618D01*
X876300Y385318D02*
X876300Y402082D01*
X901700Y402082D02*
X901700Y385318D01*
X927100Y385318D02*
X927100Y402082D01*
D21*
X1028700Y101600D03*
X1028700Y152400D03*
X1028700Y381000D03*
X1028700Y431800D03*
D25*
X1143700Y178200D02*
X1167700Y178200D01*
X1167700Y228200D02*
X1143700Y228200D01*
X1143700Y278200D02*
X1167700Y278200D01*
X1167700Y328200D02*
X1143700Y328200D01*
X1143700Y378200D02*
X1167700Y378200D01*
D22*
X622300Y135382D02*
X622300Y118618D01*
X647700Y118618D02*
X647700Y135382D01*
X673100Y135382D02*
X673100Y118618D01*
D26*
X736600Y114300D03*
X736600Y88900D03*
X736600Y63500D03*
D20*
X762000Y317500D03*
X762000Y266700D03*
X762000Y419100D03*
X762000Y368300D03*
X800100Y317500D03*
X800100Y266700D03*
D27*
X279400Y330200D02*
X260350Y349250D01*
X279400Y330200D02*
X292100Y330200D01*
X330200Y330200D01*
X349250Y349250D01*
X355600Y355600D01*
X368300Y368300D01*
X374650Y374650D01*
X381000Y381000D01*
X381000Y393700D01*
X381000Y419100D01*
X381000Y444500D01*
X393700Y457200D01*
X431800Y457200D01*
X482600Y457200D01*
X495300Y457200D01*
D28*
X742950Y438150D02*
X762000Y419100D01*
X742950Y438150D02*
X736600Y444500D01*
X730250Y450850D01*
X723900Y457200D01*
X482600Y457200D01*
X736600Y393700D02*
X762000Y419100D01*
X736600Y393700D02*
X660400Y393700D01*
X635000Y419100D01*
X609600Y444500D01*
X444500Y444500D01*
X431800Y457200D01*
X825500Y393700D02*
X876300Y393700D01*
X787400Y393700D02*
X762000Y419100D01*
X825500Y355600D02*
X876300Y304800D01*
X825500Y355600D02*
X825500Y381000D01*
X825500Y393700D01*
X838200Y381000D02*
X865753Y381000D01*
X838200Y317500D02*
X850900Y304800D01*
X876300Y304800D01*
X838200Y355600D02*
X838200Y381000D01*
X838200Y355600D02*
X838200Y317500D01*
X825500Y393700D02*
X787400Y393700D01*
X495300Y393700D01*
X457200Y431800D01*
X406400Y381000D02*
X381000Y381000D01*
X349250Y387350D02*
X349250Y349250D01*
X349250Y387350D02*
X381000Y419100D01*
X406400Y381000D02*
X381000Y355600D01*
X355600Y355600D01*
X355600Y330200D02*
X292100Y330200D01*
X355600Y330200D02*
X381000Y355600D01*
X254000Y355600D02*
X247650Y361950D01*
X241300Y368300D01*
X228600Y368300D01*
X228600Y342900D01*
X254000Y342900D01*
X260350Y349250D01*
X247650Y361950D02*
X241300Y355600D01*
X260350Y349250D02*
X260350Y336550D01*
X266700Y330200D01*
X292100Y330200D01*
X279400Y457200D02*
X285750Y463550D01*
X717550Y463550D01*
X723900Y457200D01*
X349250Y387350D02*
X323850Y412750D01*
X317500Y419100D01*
X279400Y457200D01*
X304800Y457200D02*
X482600Y457200D01*
X304800Y457200D02*
X304800Y444500D01*
X311150Y450850D02*
X730250Y450850D01*
X311150Y450850D02*
X304800Y457200D01*
X311150Y450850D02*
X317500Y444500D01*
X736600Y444500D01*
X742950Y438150D02*
X736600Y431800D01*
X317500Y431800D01*
X317500Y419100D01*
X323850Y412750D02*
X755650Y412750D01*
X762000Y419100D01*
X762000Y406400D01*
X749300Y393700D01*
X368300Y368300D02*
X349250Y387350D01*
X342900Y406400D02*
X374650Y374650D01*
X749300Y419100D02*
X755650Y412750D01*
X749300Y419100D02*
X736600Y419100D01*
X863600Y330200D02*
X865753Y332353D01*
X865505Y380753D02*
X865753Y381000D01*
X865753Y350520D02*
X865753Y332353D01*
X863600Y330200D02*
X844550Y349250D01*
X844550Y361950D01*
X850900Y368300D01*
X850900Y355600D02*
X844550Y349250D01*
X865753Y350520D02*
X876300Y339973D01*
X793750Y387350D02*
X787400Y393700D01*
X793750Y387350D02*
X825500Y355600D01*
X838200Y355600D01*
X819150Y387350D02*
X793750Y387350D01*
X819150Y387350D02*
X825500Y381000D01*
X482600Y393700D02*
X381000Y393700D01*
X482600Y393700D02*
X596900Y393700D01*
X609600Y406400D01*
D29*
X422910Y381000D02*
X419100Y377190D01*
X422910Y381000D02*
X469900Y381000D01*
X482600Y393700D01*
D28*
X876300Y393700D02*
X876300Y391548D01*
X865753Y381000D01*
X865505Y380753D02*
X865505Y350768D01*
X865753Y350520D01*
X876300Y339973D02*
X876300Y304800D01*
D14*
X76200Y342900D02*
X63500Y342900D01*
D28*
X50800Y330200D02*
X-5715Y330200D01*
X381000Y317500D02*
X423545Y360045D01*
X490741Y360045D02*
X498996Y368300D01*
X457200Y360045D02*
X423545Y360045D01*
X457200Y360045D02*
X490741Y360045D01*
X381000Y317500D02*
X381000Y292100D01*
X387350Y285750D02*
X393700Y279400D01*
X387350Y285750D02*
X381000Y292100D01*
X406400Y279400D02*
X431800Y279400D01*
X406400Y279400D02*
X393700Y279400D01*
X431800Y279400D02*
X495300Y342900D01*
X711200Y342900D01*
X717550Y336550D02*
X723900Y330200D01*
X717550Y336550D02*
X711200Y342900D01*
X723900Y330200D02*
X723900Y317500D01*
X812800Y304800D02*
X825500Y292100D01*
X825500Y127000D01*
X838200Y114300D01*
X863600Y114300D01*
X876300Y114300D01*
X876300Y251073D01*
X865505Y261868D01*
X865505Y266700D01*
X858203Y274003D01*
X852805Y279400D01*
X850900Y279400D01*
X838200Y279400D01*
X825500Y292100D01*
X812800Y330200D02*
X774700Y368300D01*
X635000Y368300D01*
X812800Y330200D02*
X812800Y304800D01*
X635000Y368300D02*
X498996Y368300D01*
X444500Y355600D02*
X381000Y292100D01*
X387350Y285750D02*
X457200Y355600D01*
X457200Y360045D01*
X482600Y355600D02*
X406400Y279400D01*
X490741Y360045D02*
X495186Y355600D01*
X774700Y355600D01*
X723900Y342900D02*
X717550Y336550D01*
X723900Y342900D02*
X787400Y342900D01*
X762000Y330200D02*
X723900Y330200D01*
X736600Y304800D02*
X749300Y317500D01*
X762000Y330200D01*
X800100Y330200D01*
X736600Y304800D02*
X723900Y317500D01*
X736600Y304800D02*
X812800Y304800D01*
X800100Y317500D02*
X749300Y317500D01*
X838200Y279400D02*
X838200Y139700D01*
X850900Y127000D01*
X850900Y266700D02*
X858203Y274003D01*
X850900Y266700D02*
X850900Y127000D01*
X863600Y259963D02*
X865505Y261868D01*
X863600Y259963D02*
X863600Y114300D01*
X876300Y254000D02*
X901700Y279400D01*
X876300Y254000D02*
X869950Y260350D01*
X901700Y279400D02*
X901700Y393700D01*
X901700Y279400D02*
X901700Y276473D01*
X884114Y258886D01*
X876300Y251073D01*
X951300Y278200D02*
X965200Y278200D01*
X1155700Y278200D01*
X1028700Y292100D02*
X965200Y292100D01*
X951300Y278200D01*
X965200Y254000D02*
X1028700Y254000D01*
X965200Y254000D02*
X951300Y267900D01*
X951300Y278200D01*
X1028700Y254000D02*
X1206500Y254000D01*
X1206500Y279400D01*
X1206500Y292100D01*
X1028700Y292100D01*
X976700Y266700D02*
X965200Y278200D01*
X976700Y266700D02*
X1193800Y266700D01*
X1205300Y278200D02*
X1206500Y279400D01*
X1205300Y278200D02*
X1155700Y278200D01*
X914400Y279400D02*
X901700Y279400D01*
X914400Y279400D02*
X920750Y273050D01*
X927100Y266700D01*
X939800Y266700D01*
X930028Y254000D02*
X965200Y254000D01*
X930028Y254000D02*
X928564Y252536D01*
X920750Y273050D02*
X946150Y273050D01*
X951300Y267900D01*
X920750Y273050D02*
X914400Y266700D01*
X914400Y254000D01*
X901700Y266700D02*
X901700Y276473D01*
X901700Y266700D02*
X901700Y254000D01*
X889000Y254000D02*
X884114Y258886D01*
X889000Y279400D02*
X901700Y279400D01*
X889000Y279400D02*
X876300Y266700D01*
D29*
X889000Y279400D02*
X850900Y279400D01*
D30*
X923170Y247142D02*
X928564Y252536D01*
X923170Y247142D02*
X883158Y247142D01*
X876300Y254000D01*
D28*
X1028700Y431800D02*
X1168400Y431800D01*
X1206500Y393700D02*
X1206500Y152400D01*
X1162050Y107950D01*
X1155700Y101600D01*
X1028700Y101600D01*
X1174750Y425450D02*
X1168400Y431800D01*
X1174750Y425450D02*
X1187450Y412750D01*
X1193800Y406400D02*
X1206500Y393700D01*
X762000Y88900D02*
X736600Y88900D01*
X762000Y88900D02*
X762000Y63500D01*
X787400Y38100D01*
X920750Y57150D02*
X927100Y63500D01*
X920750Y57150D02*
X901700Y38100D01*
X927100Y63500D02*
X927100Y76200D01*
X927100Y88900D01*
X952500Y88900D02*
X965200Y101600D01*
X1028700Y101600D01*
X901700Y38100D02*
X787400Y38100D01*
X927100Y88900D02*
X952500Y88900D01*
X901700Y38100D02*
X1206500Y38100D01*
X1219200Y50800D01*
X1219200Y76200D01*
X1219200Y88900D01*
X1219200Y127000D01*
X1219200Y431800D01*
X1212850Y438150D01*
X1193800Y457200D01*
X950348Y457200D01*
X920750Y57150D02*
X1200150Y57150D01*
X1206500Y50800D01*
X1206500Y63500D02*
X1219200Y76200D01*
X1206500Y63500D02*
X927100Y63500D01*
X952500Y88900D02*
X1219200Y88900D01*
X1219200Y76200D02*
X927100Y76200D01*
X1162050Y107950D02*
X1200150Y107950D01*
X1206500Y101600D01*
X1206500Y114300D02*
X1219200Y127000D01*
X1206500Y114300D02*
X1193800Y114300D01*
X1181100Y114300D01*
X1193800Y114300D02*
X1193800Y127000D01*
X1206500Y139700D01*
X63500Y342900D02*
X50800Y330200D01*
X-5715Y330200D02*
X-12700Y330200D01*
X-25400Y342900D01*
X937895Y469653D02*
X945074Y462474D01*
X950348Y457200D01*
X10537Y472063D02*
X-5715Y455811D01*
X-25400Y436126D01*
X-25400Y342900D01*
X939800Y431800D02*
X1028700Y431800D01*
X937895Y469653D02*
X924948Y482600D01*
X937895Y433705D02*
X939800Y431800D01*
X937895Y433705D02*
X937895Y469653D01*
X757555Y490855D02*
X723900Y490855D01*
X266700Y490855D01*
X723900Y490855D02*
X740728Y474028D01*
X778828Y435928D02*
X795655Y419100D01*
X778828Y435928D02*
X740728Y474028D01*
X795655Y419100D02*
X850900Y419100D01*
X865505Y469653D02*
X886708Y490855D01*
X857250Y425450D02*
X850900Y419100D01*
X863600Y431800D02*
X865505Y433705D01*
X865505Y444500D01*
X865505Y446405D01*
X865505Y457200D02*
X865505Y469653D01*
X266700Y490855D02*
X256223Y480378D01*
X245745Y469900D01*
X127000Y469900D01*
X-5715Y355600D02*
X-5715Y330200D01*
X-5715Y355600D02*
X-5715Y455811D01*
X-5715Y355600D02*
X25400Y355600D01*
X-25400Y436126D02*
X-25400Y495300D01*
X1206500Y495300D02*
X1219200Y482600D01*
X1219200Y469900D02*
X1219200Y431800D01*
X1219200Y469900D02*
X1219200Y482600D01*
X-12700Y495300D02*
X-25400Y495300D01*
X262255Y495300D02*
X1206500Y495300D01*
X1219200Y482600D02*
X924948Y482600D01*
X886708Y490855D02*
X757555Y490855D01*
X740728Y474028D01*
X945074Y462474D02*
X952500Y469900D01*
X1219200Y469900D01*
X1212850Y438150D02*
X942340Y438150D01*
X937895Y433705D01*
X1187450Y412750D02*
X1193800Y419100D01*
X1206500Y419100D01*
X1206500Y406400D01*
X1193800Y406400D01*
X1174750Y425450D02*
X1219200Y469900D01*
X861130Y474028D02*
X740728Y474028D01*
X861130Y474028D02*
X865505Y469653D01*
X865505Y457200D02*
X774700Y457200D01*
X762000Y469900D01*
X787400Y444500D02*
X778828Y435928D01*
X787400Y444500D02*
X863600Y444500D01*
X857250Y425450D02*
X806450Y425450D01*
X800100Y431800D01*
X901700Y431800D02*
X901700Y393700D01*
X901700Y431800D02*
X863600Y431800D01*
X857250Y425450D01*
X901700Y431800D02*
X927100Y431800D01*
X939800Y431800D01*
X927100Y431800D02*
X914400Y444500D01*
X901700Y444500D01*
X865505Y444500D01*
X886708Y490855D02*
X916693Y490855D01*
X924948Y482600D01*
X865505Y446405D02*
X863600Y444500D01*
X865505Y446405D02*
X865505Y457200D01*
X76200Y355600D02*
X63500Y342900D01*
X76200Y355600D02*
X190500Y355600D01*
X190500Y342900D01*
X190500Y330200D01*
X88900Y330200D01*
X88900Y342900D02*
X190500Y342900D01*
X-12700Y330200D02*
X-12700Y317500D01*
X-25400Y304800D01*
X-25400Y342900D01*
X-25400Y304800D02*
X-25400Y50800D01*
X-12700Y38100D01*
X495300Y38100D01*
X520700Y63500D01*
X520700Y114300D01*
X488950Y146050D01*
X476250Y158750D01*
X469900Y165100D01*
X393700Y165100D02*
X381000Y177800D01*
X349250Y209550D01*
X330200Y228600D01*
X266700Y228600D01*
X241300Y203200D01*
X241300Y190500D01*
X228600Y177800D01*
X393700Y165100D02*
X469900Y165100D01*
X228600Y177800D02*
X-12700Y177800D01*
X-12700Y323215D02*
X-5715Y330200D01*
X-12700Y323215D02*
X-12700Y279400D01*
X-12700Y215900D01*
X-12700Y177800D01*
X6985Y342900D02*
X-5715Y355600D01*
X6985Y342900D02*
X38100Y342900D01*
X-5715Y488315D02*
X-12700Y495300D01*
X-5715Y488315D02*
X-5715Y455811D01*
X-12700Y495300D02*
X262255Y495300D01*
X266700Y490855D01*
X256223Y480378D02*
X129223Y480378D01*
X127000Y482600D01*
X6985Y488315D02*
X-5715Y488315D01*
X6985Y488315D02*
X12700Y482600D01*
X25400Y177800D02*
X381000Y177800D01*
X476250Y158750D02*
X-6350Y158750D01*
X-12700Y165100D01*
D31*
X-6350Y146050D02*
X488950Y146050D01*
X-6350Y146050D02*
X-12700Y139700D01*
X-12700Y114300D01*
X-12700Y63500D01*
X0Y50800D01*
X482600Y50800D01*
X508000Y76200D01*
X508000Y101600D01*
X482600Y127000D01*
X0Y127000D01*
X-12700Y114300D01*
X0Y101600D01*
X495300Y101600D01*
X508000Y76200D02*
X0Y76200D01*
X-12700Y63500D01*
X241300Y190500D02*
X355600Y190500D01*
X349250Y209550D02*
X273050Y209550D01*
X266700Y203200D01*
X-6350Y487680D02*
X-5715Y488315D01*
X-6350Y487680D02*
X-6350Y368300D01*
X-6350Y304800D02*
X-6350Y203200D01*
X-6350Y304800D02*
X-6350Y317500D01*
X-6350Y368300D01*
X-6350Y203200D02*
X-6350Y190500D01*
X-6350Y146050D01*
D30*
X10537Y472063D02*
X124837Y472063D01*
X127000Y469900D01*
D29*
X18852Y480378D02*
X10537Y472063D01*
X18852Y480378D02*
X129223Y480378D01*
X241300Y190500D02*
X-6350Y190500D01*
X12700Y203200D02*
X241300Y203200D01*
X12700Y203200D02*
X-6350Y203200D01*
X-6350Y368300D02*
X203200Y368300D01*
X6350Y381000D02*
X-6350Y368300D01*
X6350Y381000D02*
X203200Y381000D01*
X203200Y317500D02*
X-6350Y317500D01*
X-6350Y304800D02*
X12700Y304800D01*
X190500Y304800D01*
X203200Y317500D01*
X203200Y381000D01*
X12700Y304800D02*
X-12700Y279400D01*
X50800Y342900D02*
X63500Y342900D01*
X50800Y342900D02*
X0Y393700D01*
X0Y215900D02*
X-12700Y215900D01*
X0Y215900D02*
X12700Y203200D01*
D31*
X865505Y469653D02*
X914648Y469653D01*
X927100Y457200D01*
X916305Y446405D01*
X865505Y446405D01*
X901700Y444500D02*
X901700Y266700D01*
D28*
X252900Y432900D02*
X63500Y432900D01*
X279400Y381000D02*
X304800Y355600D01*
X279400Y381000D02*
X279400Y406400D01*
X252900Y432900D01*
X77300Y419100D02*
X63500Y432900D01*
X241300Y419100D02*
X266700Y393700D01*
X228600Y419100D02*
X77300Y419100D01*
X228600Y419100D02*
X241300Y419100D01*
X266700Y381000D02*
X279400Y381000D01*
X266700Y381000D02*
X228600Y419100D01*
X304800Y355600D02*
X317500Y355600D01*
X317500Y381000D01*
X304800Y381000D01*
X292100Y381000D01*
X292100Y406400D01*
X265600Y432900D02*
X252900Y432900D01*
X265600Y432900D02*
X292100Y406400D01*
X317500Y381000D01*
X304800Y381000D02*
X304800Y368300D01*
X304800Y355600D01*
X75100Y444500D02*
X63500Y432900D01*
X75100Y444500D02*
X254000Y444500D01*
X265600Y432900D01*
X254000Y304800D02*
X241300Y292100D01*
X228600Y279400D01*
X228600Y266700D01*
X228600Y254000D01*
X227500Y252900D01*
X63500Y252900D01*
X254000Y304800D02*
X266700Y304800D01*
X266700Y292100D01*
X266700Y266700D01*
X254000Y266700D01*
X228600Y266700D01*
X228600Y304800D02*
X254000Y304800D01*
X228600Y304800D02*
X215900Y292100D01*
X203200Y279400D01*
X203200Y266700D01*
X114300Y266700D01*
X90000Y252900D02*
X63500Y252900D01*
X90000Y252900D02*
X101600Y241300D01*
X228600Y241300D02*
X254000Y266700D01*
X228600Y241300D02*
X101600Y241300D01*
X203200Y266700D02*
X215900Y279400D01*
X222250Y273050D01*
X247650Y273050D01*
X254000Y279400D01*
X241300Y292100D01*
X228600Y266700D02*
X215900Y266700D01*
X215900Y292100D01*
X254000Y292100D02*
X266700Y292100D01*
X622300Y127000D02*
X622300Y63500D01*
X568960Y66040D02*
X568960Y101600D01*
X568960Y66040D02*
X596900Y38100D01*
X622300Y63500D02*
X609600Y76200D01*
X609600Y127000D01*
X622300Y139700D01*
X622300Y63500D01*
X736600Y114300D02*
X736600Y127000D01*
X711200Y101600D02*
X711200Y63500D01*
X685800Y38100D01*
X596900Y38100D01*
X711200Y101600D02*
X723900Y114300D01*
X762000Y114300D02*
X762000Y127000D01*
X736600Y127000D01*
X723900Y114300D02*
X762000Y114300D01*
X736600Y127000D02*
X723900Y114300D01*
X673100Y127000D02*
X673100Y101600D01*
X685800Y101600D01*
X685800Y127000D02*
X685800Y139700D01*
X673100Y139700D01*
X673100Y203200D02*
X698500Y228600D01*
X722779Y243168D01*
X762000Y266700D01*
X673100Y203200D02*
X673100Y139700D01*
X736600Y215900D02*
X762000Y266700D01*
X736600Y215900D02*
X736600Y203200D01*
X736600Y190500D01*
X723900Y177800D01*
X698500Y152400D01*
X685800Y152400D01*
X736600Y190500D02*
X755650Y171450D01*
X762000Y165100D01*
X774700Y165100D02*
X787400Y165100D01*
X901700Y127000D02*
X901700Y228600D01*
X673100Y101600D02*
X673100Y63500D01*
X685800Y76200D01*
X685800Y101600D01*
X901700Y88900D02*
X901700Y127000D01*
X901700Y88900D02*
X901700Y76200D01*
X889000Y63500D01*
X800100Y63500D02*
X787400Y76200D01*
X787400Y101600D01*
X787400Y152400D01*
X774700Y165100D01*
X762000Y165100D01*
X800100Y63500D02*
X889000Y63500D01*
X901700Y88900D02*
X825500Y88900D01*
X800100Y88900D01*
X825500Y88900D02*
X800100Y114300D01*
X800100Y215900D01*
X800100Y254000D01*
X787400Y266700D01*
X723900Y266700D02*
X673100Y215900D01*
X673100Y203200D01*
X749300Y266700D02*
X787400Y266700D01*
X749300Y266700D02*
X723900Y266700D01*
X685800Y127000D02*
X685800Y101600D01*
X685800Y127000D02*
X711200Y152400D01*
X723900Y165100D01*
X762000Y165100D01*
X800100Y254000D02*
X800100Y266700D01*
X781050Y247650D01*
X781050Y273050D02*
X787400Y279400D01*
X762000Y279400D02*
X749300Y266700D01*
X762000Y279400D02*
X787400Y279400D01*
X762000Y279400D02*
X736600Y279400D01*
X723900Y266700D01*
X781050Y273050D02*
X781050Y247650D01*
X781050Y171450D01*
X787400Y165100D01*
X755650Y171450D02*
X755650Y247650D01*
X762000Y254000D01*
X800100Y215900D01*
X762000Y177800D02*
X774700Y165100D01*
X762000Y177800D02*
X762000Y228600D01*
X736600Y228600D01*
X736600Y215900D01*
X736600Y190500D02*
X736600Y177800D01*
X723900Y177800D01*
X724647Y241300D02*
X722779Y243168D01*
X724647Y241300D02*
X736600Y241300D01*
X736600Y228600D01*
X723900Y228600D01*
X685800Y190500D01*
X685800Y165100D01*
X723900Y165100D01*
X711200Y177800D02*
X736600Y203200D01*
X711200Y177800D02*
X698500Y177800D01*
X698500Y190500D01*
X723900Y215900D01*
X787400Y101600D02*
X800100Y88900D01*
X800100Y76200D01*
X889000Y76200D01*
X800100Y266700D02*
X800100Y279400D01*
X787400Y279400D01*
X774700Y152400D02*
X711200Y152400D01*
X927100Y215900D02*
X927100Y228600D01*
X927100Y215900D02*
X927100Y203200D01*
X939800Y190500D01*
X1092200Y190500D01*
X1104900Y203200D01*
X1155700Y228200D02*
X952900Y228200D01*
X952500Y228600D01*
X927100Y228600D01*
X1130700Y203200D02*
X1155700Y228200D01*
X1130700Y203200D02*
X1104900Y203200D01*
X1130300Y215900D02*
X927100Y215900D01*
X1079500Y215900D01*
X1092200Y203200D01*
X1117200Y228200D02*
X1155700Y228200D01*
X1117200Y228200D02*
X1092200Y203200D01*
X1092200Y190500D02*
X1079500Y203200D01*
X939800Y203200D01*
X1117600Y328200D02*
X1155700Y328200D01*
X1117600Y328200D02*
X967200Y328200D01*
X965200Y330200D01*
X933450Y298450D01*
X927100Y304800D02*
X927100Y330200D01*
X952500Y355600D01*
X1155700Y330200D02*
X1155700Y328200D01*
X941800Y328200D02*
X939800Y330200D01*
X958850Y349250D01*
X965200Y330200D02*
X1092200Y330200D01*
X1104900Y355600D02*
X952500Y355600D01*
X1104900Y355600D02*
X1130300Y330200D01*
X1117600Y328200D02*
X1128300Y317500D01*
X1143000Y317500D01*
X927100Y139700D02*
X927100Y114300D01*
X1155300Y177800D02*
X1155700Y178200D01*
X1155300Y177800D02*
X1117600Y177800D01*
X1104900Y165100D01*
X952500Y165100D01*
X927100Y139700D01*
X939800Y127000D02*
X927100Y114300D01*
X1066800Y127000D02*
X1104900Y165100D01*
X1066800Y127000D02*
X939800Y127000D01*
X1123750Y146250D02*
X1155700Y178200D01*
X1123750Y146250D02*
X1111050Y133550D01*
X1104500Y127000D01*
X1066800Y127000D01*
X1123750Y146250D02*
X946350Y146250D01*
X939800Y139700D01*
X1129900Y152400D02*
X1155700Y178200D01*
X1129900Y152400D02*
X1117600Y152400D01*
X1117600Y165100D01*
X1130300Y165100D01*
D32*
X1130300Y127000D02*
X1104500Y127000D01*
X1130300Y127000D02*
X1136650Y133350D01*
X1168400Y165100D01*
D29*
X1155700Y165100D02*
X1155700Y178200D01*
X1155700Y165100D02*
X1130300Y139700D01*
D32*
X1136450Y133550D02*
X1111050Y133550D01*
X1136450Y133550D02*
X1136650Y133350D01*
X1168400Y165500D02*
X1155700Y178200D01*
X1168400Y165500D02*
X1168400Y165100D01*
X1168400Y165500D02*
X1156100Y165500D01*
X1155700Y165100D01*
D28*
X939800Y381000D02*
X927100Y393700D01*
X1152900Y381000D02*
X1155700Y378200D01*
X1117600Y381000D02*
X939800Y381000D01*
X1117600Y381000D02*
X1152900Y381000D01*
X1155700Y378200D02*
X1130300Y403600D01*
X1130300Y406400D01*
X927100Y406400D01*
X927100Y393700D01*
X1130300Y393700D01*
D29*
X1155700Y378200D02*
X1145800Y368300D01*
X1130300Y368300D01*
X1117600Y381000D01*
D27*
X330200Y304800D02*
X317500Y304800D01*
X330200Y304800D02*
X342900Y292100D01*
X355600Y279400D01*
D28*
X368300Y266700D01*
X381000Y254000D02*
X342900Y292100D01*
X381000Y254000D02*
X381000Y228600D01*
X662693Y313055D02*
X668102Y307646D01*
X683895Y291853D01*
X668102Y307646D02*
X698500Y317500D01*
X662693Y313055D02*
X567055Y313055D01*
X683895Y291853D02*
X683895Y261868D01*
X647700Y152400D02*
X647700Y127000D01*
X647700Y152400D02*
X647700Y225673D01*
X662693Y240665D01*
X495300Y203200D02*
X495300Y190500D01*
X495300Y203200D02*
X406400Y203200D01*
X533400Y152400D02*
X568960Y152400D01*
X533400Y152400D02*
X508000Y177800D01*
X495300Y190500D01*
X406400Y203200D02*
X381000Y228600D01*
X304800Y304800D02*
X292100Y304800D01*
X304800Y304800D02*
X317500Y304800D01*
X292100Y304800D02*
X292100Y266700D01*
X304800Y266700D01*
X342900Y266700D01*
X381000Y228600D01*
X635000Y165100D02*
X647700Y152400D01*
X576580Y160020D02*
X568960Y152400D01*
X576580Y160020D02*
X581660Y165100D01*
X596900Y165100D01*
X635000Y165100D01*
X596900Y165100D02*
X584200Y152400D01*
X568960Y152400D01*
X683895Y261868D02*
X698500Y276473D01*
X698500Y317500D01*
X508000Y317500D01*
X444500Y254000D02*
X393700Y254000D01*
X381000Y254000D01*
X501650Y311150D02*
X508000Y317500D01*
X501650Y311150D02*
X476250Y285750D01*
X469900Y279400D01*
X444500Y254000D01*
X393700Y254000D02*
X393700Y228600D01*
X406400Y215900D01*
X635000Y215900D01*
X635000Y228600D01*
X419100Y228600D01*
X406400Y241300D01*
X412750Y247650D01*
X662693Y240665D02*
X683895Y261868D01*
X419735Y240665D02*
X412750Y247650D01*
X419735Y240665D02*
X662693Y240665D01*
X635000Y203200D02*
X495300Y203200D01*
X635000Y203200D02*
X635000Y190500D01*
X508000Y190500D01*
X508000Y177800D01*
X635000Y177800D01*
X635000Y165100D01*
X576580Y160020D02*
X538480Y160020D01*
X457200Y241300D02*
X457200Y254000D01*
X619373Y254000D01*
X620836Y252536D01*
X538480Y160020D02*
X457200Y241300D01*
X606673Y266700D02*
X619373Y254000D01*
X606673Y266700D02*
X469900Y266700D01*
X469900Y279400D01*
X476250Y285750D02*
X603250Y285750D01*
X609600Y279400D01*
X611505Y281305D01*
X611505Y291853D01*
X623376Y303724D01*
X622300Y304800D01*
X609600Y304800D01*
X596900Y292100D01*
X495300Y292100D01*
X501650Y311150D02*
X603250Y311150D01*
X609600Y304800D01*
X311150Y273050D02*
X304800Y266700D01*
X342900Y279400D02*
X342900Y292100D01*
X342900Y279400D02*
X317500Y279400D01*
X311150Y285750D01*
X304800Y292100D01*
X298450Y285750D01*
X311150Y273050D01*
X311150Y285750D02*
X317500Y292100D01*
X330200Y292100D01*
X647700Y127000D02*
X647700Y63500D01*
D31*
X647700Y254000D02*
X619373Y254000D01*
X647700Y254000D02*
X666750Y273050D01*
X673100Y279400D01*
X654050Y298450D01*
X622300Y266700D01*
X628650Y260350D01*
X641350Y260350D01*
X660400Y279400D01*
X666750Y273050D01*
X611753Y292100D02*
X611505Y291853D01*
X611753Y292100D02*
X685800Y292100D01*
M02*
