G04 EAGLE Gerber RS-274X export*
G75*
%MOMM*%
%FSLAX34Y34*%
%LPD*%
%INSilkscreen Top*%
%IPPOS*%
%AMOC8*
5,1,8,0,0,1.08239X$1,22.5*%
G01*
%ADD10C,0.152400*%
%ADD11C,0.127000*%
%ADD12C,0.406400*%
%ADD13C,0.050800*%
%ADD14R,0.762000X0.635000*%
%ADD15R,1.270000X2.794000*%
%ADD16C,0.177800*%
%ADD17C,0.101600*%
%ADD18C,0.203200*%
%ADD19C,0.254000*%
%ADD20R,0.400000X2.100000*%


D10*
X304800Y289560D02*
X305806Y290193D01*
X306797Y290851D01*
X307771Y291533D01*
X308729Y292239D01*
X309669Y292967D01*
X310590Y293719D01*
X311493Y294493D01*
X312377Y295288D01*
X313241Y296105D01*
X314085Y296943D01*
X314908Y297802D01*
X315710Y298680D01*
X316490Y299577D01*
X317249Y300494D01*
X317984Y301428D01*
X318696Y302380D01*
X319385Y303350D01*
X320050Y304336D01*
X320691Y305338D01*
X321307Y306355D01*
X321897Y307387D01*
X322463Y308433D01*
X323003Y309493D01*
X323516Y310565D01*
X324004Y311650D01*
X324464Y312747D01*
X324898Y313854D01*
X325304Y314972D01*
X325683Y316099D01*
X326035Y317235D01*
X326358Y318379D01*
X326653Y319531D01*
X326920Y320690D01*
X327159Y321855D01*
X327369Y323026D01*
X327551Y324201D01*
X327703Y325380D01*
X327827Y326563D01*
X327922Y327748D01*
X327988Y328936D01*
X328025Y330125D01*
X328032Y331314D01*
X328011Y332503D01*
X327960Y333691D01*
X327881Y334877D01*
X327772Y336062D01*
X327635Y337243D01*
X327469Y338420D01*
X327274Y339594D01*
X327050Y340762D01*
X326798Y341924D01*
X326517Y343079D01*
X326209Y344228D01*
X325872Y345369D01*
X325508Y346501D01*
X325116Y347623D01*
X324696Y348736D01*
X324250Y349838D01*
X323777Y350929D01*
X323277Y352008D01*
X322751Y353075D01*
X322199Y354128D01*
X321622Y355168D01*
X321019Y356193D01*
X320391Y357203D01*
X319739Y358198D01*
X319063Y359176D01*
X318363Y360137D01*
X317640Y361081D01*
X316893Y362007D01*
X316125Y362915D01*
X315334Y363803D01*
X314522Y364672D01*
X313689Y365521D01*
X312836Y366349D01*
X311962Y367156D01*
X311069Y367941D01*
X310157Y368705D01*
X309227Y369445D01*
X308279Y370163D01*
X307314Y370858D01*
X306331Y371528D01*
X305333Y372175D01*
X304320Y372796D01*
X303291Y373393D01*
X302248Y373965D01*
X301191Y374511D01*
X300122Y375030D01*
X299040Y375524D01*
X297946Y375991D01*
X296841Y376431D01*
X295726Y376844D01*
X294601Y377229D01*
X293467Y377587D01*
X292325Y377917D01*
X291174Y378219D01*
X290017Y378493D01*
X288853Y378738D01*
X287684Y378955D01*
X286510Y379143D01*
X285331Y379303D01*
X284149Y379434D01*
X282965Y379535D01*
X281778Y379608D01*
X280589Y379651D01*
X279400Y379666D01*
X278211Y379651D01*
X277022Y379608D01*
X275835Y379535D01*
X274651Y379434D01*
X273469Y379303D01*
X272290Y379143D01*
X271116Y378955D01*
X269947Y378738D01*
X268783Y378493D01*
X267626Y378219D01*
X266475Y377917D01*
X265333Y377587D01*
X264199Y377229D01*
X263074Y376844D01*
X261959Y376431D01*
X260854Y375991D01*
X259760Y375524D01*
X258678Y375030D01*
X257609Y374511D01*
X256552Y373965D01*
X255509Y373393D01*
X254480Y372796D01*
X253467Y372175D01*
X252469Y371528D01*
X251486Y370858D01*
X250521Y370163D01*
X249573Y369445D01*
X248643Y368705D01*
X247731Y367941D01*
X246838Y367156D01*
X245964Y366349D01*
X245111Y365521D01*
X244278Y364672D01*
X243466Y363803D01*
X242675Y362915D01*
X241907Y362007D01*
X241160Y361081D01*
X240437Y360137D01*
X239737Y359176D01*
X239061Y358198D01*
X238409Y357203D01*
X237781Y356193D01*
X237178Y355168D01*
X236601Y354128D01*
X236049Y353075D01*
X235523Y352008D01*
X235023Y350929D01*
X234550Y349838D01*
X234104Y348736D01*
X233684Y347623D01*
X233292Y346501D01*
X232928Y345369D01*
X232591Y344228D01*
X232283Y343079D01*
X232002Y341924D01*
X231750Y340762D01*
X231526Y339594D01*
X231331Y338420D01*
X231165Y337243D01*
X231028Y336062D01*
X230919Y334877D01*
X230840Y333691D01*
X230789Y332503D01*
X230768Y331314D01*
X230775Y330125D01*
X230812Y328936D01*
X230878Y327748D01*
X230973Y326563D01*
X231097Y325380D01*
X231249Y324201D01*
X231431Y323026D01*
X231641Y321855D01*
X231880Y320690D01*
X232147Y319531D01*
X232442Y318379D01*
X232765Y317235D01*
X233117Y316099D01*
X233496Y314972D01*
X233902Y313854D01*
X234336Y312747D01*
X234796Y311650D01*
X235284Y310565D01*
X235797Y309493D01*
X236337Y308433D01*
X236903Y307387D01*
X237493Y306355D01*
X238109Y305338D01*
X238750Y304336D01*
X239415Y303350D01*
X240104Y302380D01*
X240816Y301428D01*
X241551Y300494D01*
X242310Y299577D01*
X243090Y298680D01*
X243892Y297802D01*
X244715Y296943D01*
X245559Y296105D01*
X246423Y295288D01*
X247307Y294493D01*
X248210Y293719D01*
X249131Y292967D01*
X250071Y292239D01*
X251029Y291533D01*
X252003Y290851D01*
X252994Y290193D01*
X254000Y289560D01*
X304800Y289560D01*
X254000Y317500D02*
X254000Y327660D01*
X259080Y322580D02*
X248920Y322580D01*
X304800Y332740D02*
X304800Y342900D01*
D11*
X289878Y277749D02*
X286703Y277749D01*
X289878Y277749D02*
X289989Y277747D01*
X290099Y277741D01*
X290210Y277732D01*
X290320Y277718D01*
X290429Y277701D01*
X290538Y277680D01*
X290646Y277655D01*
X290753Y277626D01*
X290859Y277594D01*
X290964Y277558D01*
X291067Y277518D01*
X291169Y277475D01*
X291270Y277428D01*
X291369Y277377D01*
X291466Y277324D01*
X291560Y277267D01*
X291653Y277206D01*
X291744Y277143D01*
X291833Y277076D01*
X291919Y277006D01*
X292002Y276933D01*
X292084Y276858D01*
X292162Y276780D01*
X292237Y276698D01*
X292310Y276615D01*
X292380Y276529D01*
X292447Y276440D01*
X292510Y276349D01*
X292571Y276256D01*
X292628Y276161D01*
X292681Y276065D01*
X292732Y275966D01*
X292779Y275865D01*
X292822Y275763D01*
X292862Y275660D01*
X292898Y275555D01*
X292930Y275449D01*
X292959Y275342D01*
X292984Y275234D01*
X293005Y275125D01*
X293022Y275016D01*
X293036Y274906D01*
X293045Y274795D01*
X293051Y274685D01*
X293053Y274574D01*
X293051Y274463D01*
X293045Y274353D01*
X293036Y274242D01*
X293022Y274132D01*
X293005Y274023D01*
X292984Y273914D01*
X292959Y273806D01*
X292930Y273699D01*
X292898Y273593D01*
X292862Y273488D01*
X292822Y273385D01*
X292779Y273283D01*
X292732Y273182D01*
X292681Y273083D01*
X292628Y272986D01*
X292571Y272892D01*
X292510Y272799D01*
X292447Y272708D01*
X292380Y272619D01*
X292310Y272533D01*
X292237Y272450D01*
X292162Y272368D01*
X292084Y272290D01*
X292002Y272215D01*
X291919Y272142D01*
X291833Y272072D01*
X291744Y272005D01*
X291653Y271942D01*
X291560Y271881D01*
X291466Y271824D01*
X291369Y271771D01*
X291270Y271720D01*
X291169Y271673D01*
X291067Y271630D01*
X290964Y271590D01*
X290859Y271554D01*
X290753Y271522D01*
X290646Y271493D01*
X290538Y271468D01*
X290429Y271447D01*
X290320Y271430D01*
X290210Y271416D01*
X290099Y271407D01*
X289989Y271401D01*
X289878Y271399D01*
X286703Y271399D01*
X286703Y282829D01*
X289878Y282829D01*
X289978Y282827D01*
X290077Y282821D01*
X290177Y282811D01*
X290275Y282798D01*
X290374Y282780D01*
X290471Y282759D01*
X290567Y282734D01*
X290663Y282705D01*
X290757Y282672D01*
X290850Y282636D01*
X290941Y282596D01*
X291031Y282552D01*
X291119Y282505D01*
X291205Y282455D01*
X291289Y282401D01*
X291371Y282344D01*
X291450Y282284D01*
X291528Y282220D01*
X291602Y282154D01*
X291674Y282085D01*
X291743Y282013D01*
X291809Y281939D01*
X291873Y281861D01*
X291933Y281782D01*
X291990Y281700D01*
X292044Y281616D01*
X292094Y281530D01*
X292141Y281442D01*
X292185Y281352D01*
X292225Y281261D01*
X292261Y281168D01*
X292294Y281074D01*
X292323Y280978D01*
X292348Y280882D01*
X292369Y280785D01*
X292387Y280686D01*
X292400Y280588D01*
X292410Y280488D01*
X292416Y280389D01*
X292418Y280289D01*
X292416Y280189D01*
X292410Y280090D01*
X292400Y279990D01*
X292387Y279892D01*
X292369Y279793D01*
X292348Y279696D01*
X292323Y279600D01*
X292294Y279504D01*
X292261Y279410D01*
X292225Y279317D01*
X292185Y279226D01*
X292141Y279136D01*
X292094Y279048D01*
X292044Y278962D01*
X291990Y278878D01*
X291933Y278796D01*
X291873Y278717D01*
X291809Y278639D01*
X291743Y278565D01*
X291674Y278493D01*
X291602Y278424D01*
X291528Y278358D01*
X291450Y278294D01*
X291371Y278234D01*
X291289Y278177D01*
X291205Y278123D01*
X291119Y278073D01*
X291031Y278026D01*
X290941Y277982D01*
X290850Y277942D01*
X290757Y277906D01*
X290663Y277873D01*
X290567Y277844D01*
X290471Y277819D01*
X290374Y277798D01*
X290275Y277780D01*
X290177Y277767D01*
X290077Y277757D01*
X289978Y277751D01*
X289878Y277749D01*
X297561Y280289D02*
X300736Y282829D01*
X300736Y271399D01*
X297561Y271399D02*
X303911Y271399D01*
D10*
X433070Y373380D02*
X433070Y378460D01*
X430530Y375920D02*
X435610Y375920D01*
X398780Y368300D02*
X398786Y368799D01*
X398804Y369297D01*
X398835Y369795D01*
X398878Y370292D01*
X398933Y370787D01*
X399000Y371282D01*
X399079Y371774D01*
X399170Y372264D01*
X399274Y372752D01*
X399389Y373237D01*
X399516Y373720D01*
X399655Y374199D01*
X399806Y374674D01*
X399968Y375146D01*
X400142Y375613D01*
X400327Y376076D01*
X400523Y376535D01*
X400731Y376988D01*
X400950Y377436D01*
X401179Y377879D01*
X401420Y378316D01*
X401671Y378747D01*
X401933Y379171D01*
X402205Y379589D01*
X402487Y380000D01*
X402779Y380405D01*
X403081Y380802D01*
X403392Y381191D01*
X403714Y381572D01*
X404044Y381946D01*
X404383Y382311D01*
X404732Y382668D01*
X405089Y383017D01*
X405454Y383356D01*
X405828Y383686D01*
X406209Y384008D01*
X406598Y384319D01*
X406995Y384621D01*
X407400Y384913D01*
X407811Y385195D01*
X408229Y385467D01*
X408653Y385729D01*
X409084Y385980D01*
X409521Y386221D01*
X409964Y386450D01*
X410412Y386669D01*
X410865Y386877D01*
X411324Y387073D01*
X411787Y387258D01*
X412254Y387432D01*
X412726Y387594D01*
X413201Y387745D01*
X413680Y387884D01*
X414163Y388011D01*
X414648Y388126D01*
X415136Y388230D01*
X415626Y388321D01*
X416118Y388400D01*
X416613Y388467D01*
X417108Y388522D01*
X417605Y388565D01*
X418103Y388596D01*
X418601Y388614D01*
X419100Y388620D01*
X419599Y388614D01*
X420097Y388596D01*
X420595Y388565D01*
X421092Y388522D01*
X421587Y388467D01*
X422082Y388400D01*
X422574Y388321D01*
X423064Y388230D01*
X423552Y388126D01*
X424037Y388011D01*
X424520Y387884D01*
X424999Y387745D01*
X425474Y387594D01*
X425946Y387432D01*
X426413Y387258D01*
X426876Y387073D01*
X427335Y386877D01*
X427788Y386669D01*
X428236Y386450D01*
X428679Y386221D01*
X429116Y385980D01*
X429547Y385729D01*
X429971Y385467D01*
X430389Y385195D01*
X430800Y384913D01*
X431205Y384621D01*
X431602Y384319D01*
X431991Y384008D01*
X432372Y383686D01*
X432746Y383356D01*
X433111Y383017D01*
X433468Y382668D01*
X433817Y382311D01*
X434156Y381946D01*
X434486Y381572D01*
X434808Y381191D01*
X435119Y380802D01*
X435421Y380405D01*
X435713Y380000D01*
X435995Y379589D01*
X436267Y379171D01*
X436529Y378747D01*
X436780Y378316D01*
X437021Y377879D01*
X437250Y377436D01*
X437469Y376988D01*
X437677Y376535D01*
X437873Y376076D01*
X438058Y375613D01*
X438232Y375146D01*
X438394Y374674D01*
X438545Y374199D01*
X438684Y373720D01*
X438811Y373237D01*
X438926Y372752D01*
X439030Y372264D01*
X439121Y371774D01*
X439200Y371282D01*
X439267Y370787D01*
X439322Y370292D01*
X439365Y369795D01*
X439396Y369297D01*
X439414Y368799D01*
X439420Y368300D01*
X439414Y367801D01*
X439396Y367303D01*
X439365Y366805D01*
X439322Y366308D01*
X439267Y365813D01*
X439200Y365318D01*
X439121Y364826D01*
X439030Y364336D01*
X438926Y363848D01*
X438811Y363363D01*
X438684Y362880D01*
X438545Y362401D01*
X438394Y361926D01*
X438232Y361454D01*
X438058Y360987D01*
X437873Y360524D01*
X437677Y360065D01*
X437469Y359612D01*
X437250Y359164D01*
X437021Y358721D01*
X436780Y358284D01*
X436529Y357853D01*
X436267Y357429D01*
X435995Y357011D01*
X435713Y356600D01*
X435421Y356195D01*
X435119Y355798D01*
X434808Y355409D01*
X434486Y355028D01*
X434156Y354654D01*
X433817Y354289D01*
X433468Y353932D01*
X433111Y353583D01*
X432746Y353244D01*
X432372Y352914D01*
X431991Y352592D01*
X431602Y352281D01*
X431205Y351979D01*
X430800Y351687D01*
X430389Y351405D01*
X429971Y351133D01*
X429547Y350871D01*
X429116Y350620D01*
X428679Y350379D01*
X428236Y350150D01*
X427788Y349931D01*
X427335Y349723D01*
X426876Y349527D01*
X426413Y349342D01*
X425946Y349168D01*
X425474Y349006D01*
X424999Y348855D01*
X424520Y348716D01*
X424037Y348589D01*
X423552Y348474D01*
X423064Y348370D01*
X422574Y348279D01*
X422082Y348200D01*
X421587Y348133D01*
X421092Y348078D01*
X420595Y348035D01*
X420097Y348004D01*
X419599Y347986D01*
X419100Y347980D01*
X418601Y347986D01*
X418103Y348004D01*
X417605Y348035D01*
X417108Y348078D01*
X416613Y348133D01*
X416118Y348200D01*
X415626Y348279D01*
X415136Y348370D01*
X414648Y348474D01*
X414163Y348589D01*
X413680Y348716D01*
X413201Y348855D01*
X412726Y349006D01*
X412254Y349168D01*
X411787Y349342D01*
X411324Y349527D01*
X410865Y349723D01*
X410412Y349931D01*
X409964Y350150D01*
X409521Y350379D01*
X409084Y350620D01*
X408653Y350871D01*
X408229Y351133D01*
X407811Y351405D01*
X407400Y351687D01*
X406995Y351979D01*
X406598Y352281D01*
X406209Y352592D01*
X405828Y352914D01*
X405454Y353244D01*
X405089Y353583D01*
X404732Y353932D01*
X404383Y354289D01*
X404044Y354654D01*
X403714Y355028D01*
X403392Y355409D01*
X403081Y355798D01*
X402779Y356195D01*
X402487Y356600D01*
X402205Y357011D01*
X401933Y357429D01*
X401671Y357853D01*
X401420Y358284D01*
X401179Y358721D01*
X400950Y359164D01*
X400731Y359612D01*
X400523Y360065D01*
X400327Y360524D01*
X400142Y360987D01*
X399968Y361454D01*
X399806Y361926D01*
X399655Y362401D01*
X399516Y362880D01*
X399389Y363363D01*
X399274Y363848D01*
X399170Y364336D01*
X399079Y364826D01*
X399000Y365318D01*
X398933Y365813D01*
X398878Y366308D01*
X398835Y366805D01*
X398804Y367303D01*
X398786Y367801D01*
X398780Y368300D01*
D11*
X438785Y335243D02*
X438785Y332703D01*
X438783Y332603D01*
X438777Y332504D01*
X438767Y332404D01*
X438754Y332306D01*
X438736Y332207D01*
X438715Y332110D01*
X438690Y332014D01*
X438661Y331918D01*
X438628Y331824D01*
X438592Y331731D01*
X438552Y331640D01*
X438508Y331550D01*
X438461Y331462D01*
X438411Y331376D01*
X438357Y331292D01*
X438300Y331210D01*
X438240Y331131D01*
X438176Y331053D01*
X438110Y330979D01*
X438041Y330907D01*
X437969Y330838D01*
X437895Y330772D01*
X437817Y330708D01*
X437738Y330648D01*
X437656Y330591D01*
X437572Y330537D01*
X437486Y330487D01*
X437398Y330440D01*
X437308Y330396D01*
X437217Y330356D01*
X437124Y330320D01*
X437030Y330287D01*
X436934Y330258D01*
X436838Y330233D01*
X436741Y330212D01*
X436642Y330194D01*
X436544Y330181D01*
X436444Y330171D01*
X436345Y330165D01*
X436245Y330163D01*
X429895Y330163D01*
X429795Y330165D01*
X429696Y330171D01*
X429596Y330181D01*
X429498Y330194D01*
X429399Y330212D01*
X429302Y330233D01*
X429206Y330258D01*
X429110Y330287D01*
X429016Y330320D01*
X428923Y330356D01*
X428832Y330396D01*
X428742Y330440D01*
X428654Y330487D01*
X428568Y330537D01*
X428484Y330591D01*
X428402Y330648D01*
X428323Y330708D01*
X428245Y330772D01*
X428171Y330838D01*
X428099Y330907D01*
X428030Y330979D01*
X427964Y331053D01*
X427900Y331131D01*
X427840Y331210D01*
X427783Y331292D01*
X427729Y331376D01*
X427679Y331462D01*
X427632Y331550D01*
X427588Y331640D01*
X427548Y331731D01*
X427512Y331824D01*
X427479Y331918D01*
X427450Y332014D01*
X427425Y332110D01*
X427404Y332207D01*
X427386Y332306D01*
X427373Y332404D01*
X427363Y332504D01*
X427357Y332603D01*
X427355Y332703D01*
X427355Y335243D01*
X427355Y343218D02*
X427357Y343322D01*
X427363Y343427D01*
X427372Y343531D01*
X427385Y343634D01*
X427403Y343737D01*
X427423Y343839D01*
X427448Y343941D01*
X427476Y344041D01*
X427508Y344141D01*
X427544Y344239D01*
X427583Y344336D01*
X427625Y344431D01*
X427671Y344525D01*
X427721Y344617D01*
X427773Y344707D01*
X427829Y344795D01*
X427889Y344881D01*
X427951Y344965D01*
X428016Y345046D01*
X428084Y345125D01*
X428156Y345202D01*
X428229Y345275D01*
X428306Y345347D01*
X428385Y345415D01*
X428466Y345480D01*
X428550Y345542D01*
X428636Y345602D01*
X428724Y345658D01*
X428814Y345710D01*
X428906Y345760D01*
X429000Y345806D01*
X429095Y345848D01*
X429192Y345887D01*
X429290Y345923D01*
X429390Y345955D01*
X429490Y345983D01*
X429592Y346008D01*
X429694Y346028D01*
X429797Y346046D01*
X429900Y346059D01*
X430004Y346068D01*
X430109Y346074D01*
X430213Y346076D01*
X427355Y343218D02*
X427357Y343100D01*
X427363Y342981D01*
X427372Y342863D01*
X427385Y342746D01*
X427403Y342629D01*
X427423Y342512D01*
X427448Y342396D01*
X427476Y342281D01*
X427509Y342168D01*
X427544Y342055D01*
X427584Y341943D01*
X427626Y341833D01*
X427673Y341724D01*
X427723Y341616D01*
X427776Y341511D01*
X427833Y341407D01*
X427893Y341305D01*
X427956Y341205D01*
X428023Y341107D01*
X428092Y341011D01*
X428165Y340918D01*
X428241Y340827D01*
X428319Y340738D01*
X428401Y340652D01*
X428485Y340569D01*
X428571Y340488D01*
X428661Y340411D01*
X428752Y340336D01*
X428846Y340264D01*
X428943Y340195D01*
X429041Y340130D01*
X429142Y340067D01*
X429245Y340008D01*
X429349Y339952D01*
X429455Y339900D01*
X429563Y339851D01*
X429672Y339806D01*
X429783Y339764D01*
X429895Y339726D01*
X432435Y345123D02*
X432360Y345199D01*
X432281Y345274D01*
X432200Y345345D01*
X432116Y345414D01*
X432030Y345479D01*
X431942Y345541D01*
X431852Y345601D01*
X431760Y345657D01*
X431665Y345710D01*
X431569Y345759D01*
X431471Y345805D01*
X431372Y345848D01*
X431271Y345887D01*
X431169Y345922D01*
X431066Y345954D01*
X430962Y345982D01*
X430857Y346007D01*
X430750Y346028D01*
X430644Y346045D01*
X430537Y346058D01*
X430429Y346067D01*
X430321Y346073D01*
X430213Y346075D01*
X432435Y345123D02*
X438785Y339725D01*
X438785Y346075D01*
D10*
X433070Y276860D02*
X433070Y271780D01*
X430530Y274320D02*
X435610Y274320D01*
X398780Y266700D02*
X398786Y267199D01*
X398804Y267697D01*
X398835Y268195D01*
X398878Y268692D01*
X398933Y269187D01*
X399000Y269682D01*
X399079Y270174D01*
X399170Y270664D01*
X399274Y271152D01*
X399389Y271637D01*
X399516Y272120D01*
X399655Y272599D01*
X399806Y273074D01*
X399968Y273546D01*
X400142Y274013D01*
X400327Y274476D01*
X400523Y274935D01*
X400731Y275388D01*
X400950Y275836D01*
X401179Y276279D01*
X401420Y276716D01*
X401671Y277147D01*
X401933Y277571D01*
X402205Y277989D01*
X402487Y278400D01*
X402779Y278805D01*
X403081Y279202D01*
X403392Y279591D01*
X403714Y279972D01*
X404044Y280346D01*
X404383Y280711D01*
X404732Y281068D01*
X405089Y281417D01*
X405454Y281756D01*
X405828Y282086D01*
X406209Y282408D01*
X406598Y282719D01*
X406995Y283021D01*
X407400Y283313D01*
X407811Y283595D01*
X408229Y283867D01*
X408653Y284129D01*
X409084Y284380D01*
X409521Y284621D01*
X409964Y284850D01*
X410412Y285069D01*
X410865Y285277D01*
X411324Y285473D01*
X411787Y285658D01*
X412254Y285832D01*
X412726Y285994D01*
X413201Y286145D01*
X413680Y286284D01*
X414163Y286411D01*
X414648Y286526D01*
X415136Y286630D01*
X415626Y286721D01*
X416118Y286800D01*
X416613Y286867D01*
X417108Y286922D01*
X417605Y286965D01*
X418103Y286996D01*
X418601Y287014D01*
X419100Y287020D01*
X419599Y287014D01*
X420097Y286996D01*
X420595Y286965D01*
X421092Y286922D01*
X421587Y286867D01*
X422082Y286800D01*
X422574Y286721D01*
X423064Y286630D01*
X423552Y286526D01*
X424037Y286411D01*
X424520Y286284D01*
X424999Y286145D01*
X425474Y285994D01*
X425946Y285832D01*
X426413Y285658D01*
X426876Y285473D01*
X427335Y285277D01*
X427788Y285069D01*
X428236Y284850D01*
X428679Y284621D01*
X429116Y284380D01*
X429547Y284129D01*
X429971Y283867D01*
X430389Y283595D01*
X430800Y283313D01*
X431205Y283021D01*
X431602Y282719D01*
X431991Y282408D01*
X432372Y282086D01*
X432746Y281756D01*
X433111Y281417D01*
X433468Y281068D01*
X433817Y280711D01*
X434156Y280346D01*
X434486Y279972D01*
X434808Y279591D01*
X435119Y279202D01*
X435421Y278805D01*
X435713Y278400D01*
X435995Y277989D01*
X436267Y277571D01*
X436529Y277147D01*
X436780Y276716D01*
X437021Y276279D01*
X437250Y275836D01*
X437469Y275388D01*
X437677Y274935D01*
X437873Y274476D01*
X438058Y274013D01*
X438232Y273546D01*
X438394Y273074D01*
X438545Y272599D01*
X438684Y272120D01*
X438811Y271637D01*
X438926Y271152D01*
X439030Y270664D01*
X439121Y270174D01*
X439200Y269682D01*
X439267Y269187D01*
X439322Y268692D01*
X439365Y268195D01*
X439396Y267697D01*
X439414Y267199D01*
X439420Y266700D01*
X439414Y266201D01*
X439396Y265703D01*
X439365Y265205D01*
X439322Y264708D01*
X439267Y264213D01*
X439200Y263718D01*
X439121Y263226D01*
X439030Y262736D01*
X438926Y262248D01*
X438811Y261763D01*
X438684Y261280D01*
X438545Y260801D01*
X438394Y260326D01*
X438232Y259854D01*
X438058Y259387D01*
X437873Y258924D01*
X437677Y258465D01*
X437469Y258012D01*
X437250Y257564D01*
X437021Y257121D01*
X436780Y256684D01*
X436529Y256253D01*
X436267Y255829D01*
X435995Y255411D01*
X435713Y255000D01*
X435421Y254595D01*
X435119Y254198D01*
X434808Y253809D01*
X434486Y253428D01*
X434156Y253054D01*
X433817Y252689D01*
X433468Y252332D01*
X433111Y251983D01*
X432746Y251644D01*
X432372Y251314D01*
X431991Y250992D01*
X431602Y250681D01*
X431205Y250379D01*
X430800Y250087D01*
X430389Y249805D01*
X429971Y249533D01*
X429547Y249271D01*
X429116Y249020D01*
X428679Y248779D01*
X428236Y248550D01*
X427788Y248331D01*
X427335Y248123D01*
X426876Y247927D01*
X426413Y247742D01*
X425946Y247568D01*
X425474Y247406D01*
X424999Y247255D01*
X424520Y247116D01*
X424037Y246989D01*
X423552Y246874D01*
X423064Y246770D01*
X422574Y246679D01*
X422082Y246600D01*
X421587Y246533D01*
X421092Y246478D01*
X420595Y246435D01*
X420097Y246404D01*
X419599Y246386D01*
X419100Y246380D01*
X418601Y246386D01*
X418103Y246404D01*
X417605Y246435D01*
X417108Y246478D01*
X416613Y246533D01*
X416118Y246600D01*
X415626Y246679D01*
X415136Y246770D01*
X414648Y246874D01*
X414163Y246989D01*
X413680Y247116D01*
X413201Y247255D01*
X412726Y247406D01*
X412254Y247568D01*
X411787Y247742D01*
X411324Y247927D01*
X410865Y248123D01*
X410412Y248331D01*
X409964Y248550D01*
X409521Y248779D01*
X409084Y249020D01*
X408653Y249271D01*
X408229Y249533D01*
X407811Y249805D01*
X407400Y250087D01*
X406995Y250379D01*
X406598Y250681D01*
X406209Y250992D01*
X405828Y251314D01*
X405454Y251644D01*
X405089Y251983D01*
X404732Y252332D01*
X404383Y252689D01*
X404044Y253054D01*
X403714Y253428D01*
X403392Y253809D01*
X403081Y254198D01*
X402779Y254595D01*
X402487Y255000D01*
X402205Y255411D01*
X401933Y255829D01*
X401671Y256253D01*
X401420Y256684D01*
X401179Y257121D01*
X400950Y257564D01*
X400731Y258012D01*
X400523Y258465D01*
X400327Y258924D01*
X400142Y259387D01*
X399968Y259854D01*
X399806Y260326D01*
X399655Y260801D01*
X399516Y261280D01*
X399389Y261763D01*
X399274Y262248D01*
X399170Y262736D01*
X399079Y263226D01*
X399000Y263718D01*
X398933Y264213D01*
X398878Y264708D01*
X398835Y265205D01*
X398804Y265703D01*
X398786Y266201D01*
X398780Y266700D01*
D11*
X438785Y233643D02*
X438785Y231103D01*
X438783Y231003D01*
X438777Y230904D01*
X438767Y230804D01*
X438754Y230706D01*
X438736Y230607D01*
X438715Y230510D01*
X438690Y230414D01*
X438661Y230318D01*
X438628Y230224D01*
X438592Y230131D01*
X438552Y230040D01*
X438508Y229950D01*
X438461Y229862D01*
X438411Y229776D01*
X438357Y229692D01*
X438300Y229610D01*
X438240Y229531D01*
X438176Y229453D01*
X438110Y229379D01*
X438041Y229307D01*
X437969Y229238D01*
X437895Y229172D01*
X437817Y229108D01*
X437738Y229048D01*
X437656Y228991D01*
X437572Y228937D01*
X437486Y228887D01*
X437398Y228840D01*
X437308Y228796D01*
X437217Y228756D01*
X437124Y228720D01*
X437030Y228687D01*
X436934Y228658D01*
X436838Y228633D01*
X436741Y228612D01*
X436642Y228594D01*
X436544Y228581D01*
X436444Y228571D01*
X436345Y228565D01*
X436245Y228563D01*
X429895Y228563D01*
X429795Y228565D01*
X429696Y228571D01*
X429596Y228581D01*
X429498Y228594D01*
X429399Y228612D01*
X429302Y228633D01*
X429206Y228658D01*
X429110Y228687D01*
X429016Y228720D01*
X428923Y228756D01*
X428832Y228796D01*
X428742Y228840D01*
X428654Y228887D01*
X428568Y228937D01*
X428484Y228991D01*
X428402Y229048D01*
X428323Y229108D01*
X428245Y229172D01*
X428171Y229238D01*
X428099Y229307D01*
X428030Y229379D01*
X427964Y229453D01*
X427900Y229531D01*
X427840Y229610D01*
X427783Y229692D01*
X427729Y229776D01*
X427679Y229862D01*
X427632Y229950D01*
X427588Y230040D01*
X427548Y230131D01*
X427512Y230224D01*
X427479Y230318D01*
X427450Y230414D01*
X427425Y230510D01*
X427404Y230607D01*
X427386Y230706D01*
X427373Y230804D01*
X427363Y230904D01*
X427357Y231003D01*
X427355Y231103D01*
X427355Y233643D01*
X427355Y240665D02*
X436245Y238125D01*
X436245Y244475D01*
X433705Y242570D02*
X438785Y242570D01*
D10*
X635000Y398272D02*
X635000Y408940D01*
D12*
X635000Y398272D02*
X642620Y398272D01*
X635000Y398272D02*
X627380Y398272D01*
X635000Y389382D02*
X642620Y389382D01*
D10*
X635000Y389382D02*
X635000Y378460D01*
D12*
X635000Y389382D02*
X627380Y389382D01*
D10*
X600710Y430530D02*
X669290Y430530D01*
X598170Y427990D02*
X598170Y359410D01*
X600710Y356870D02*
X669290Y356870D01*
X671830Y359410D02*
X671830Y427990D01*
X671830Y359410D02*
X671828Y359310D01*
X671822Y359211D01*
X671812Y359111D01*
X671799Y359013D01*
X671781Y358914D01*
X671760Y358817D01*
X671735Y358721D01*
X671706Y358625D01*
X671673Y358531D01*
X671637Y358438D01*
X671597Y358347D01*
X671553Y358257D01*
X671506Y358169D01*
X671456Y358083D01*
X671402Y357999D01*
X671345Y357917D01*
X671285Y357838D01*
X671221Y357760D01*
X671155Y357686D01*
X671086Y357614D01*
X671014Y357545D01*
X670940Y357479D01*
X670862Y357415D01*
X670783Y357355D01*
X670701Y357298D01*
X670617Y357244D01*
X670531Y357194D01*
X670443Y357147D01*
X670353Y357103D01*
X670262Y357063D01*
X670169Y357027D01*
X670075Y356994D01*
X669979Y356965D01*
X669883Y356940D01*
X669786Y356919D01*
X669687Y356901D01*
X669589Y356888D01*
X669489Y356878D01*
X669390Y356872D01*
X669290Y356870D01*
X600710Y356870D02*
X600610Y356872D01*
X600511Y356878D01*
X600411Y356888D01*
X600313Y356901D01*
X600214Y356919D01*
X600117Y356940D01*
X600021Y356965D01*
X599925Y356994D01*
X599831Y357027D01*
X599738Y357063D01*
X599647Y357103D01*
X599557Y357147D01*
X599469Y357194D01*
X599383Y357244D01*
X599299Y357298D01*
X599217Y357355D01*
X599138Y357415D01*
X599060Y357479D01*
X598986Y357545D01*
X598914Y357614D01*
X598845Y357686D01*
X598779Y357760D01*
X598715Y357838D01*
X598655Y357917D01*
X598598Y357999D01*
X598544Y358083D01*
X598494Y358169D01*
X598447Y358257D01*
X598403Y358347D01*
X598363Y358438D01*
X598327Y358531D01*
X598294Y358625D01*
X598265Y358721D01*
X598240Y358817D01*
X598219Y358914D01*
X598201Y359013D01*
X598188Y359111D01*
X598178Y359211D01*
X598172Y359310D01*
X598170Y359410D01*
X598170Y427990D02*
X598172Y428090D01*
X598178Y428189D01*
X598188Y428289D01*
X598201Y428387D01*
X598219Y428486D01*
X598240Y428583D01*
X598265Y428679D01*
X598294Y428775D01*
X598327Y428869D01*
X598363Y428962D01*
X598403Y429053D01*
X598447Y429143D01*
X598494Y429231D01*
X598544Y429317D01*
X598598Y429401D01*
X598655Y429483D01*
X598715Y429562D01*
X598779Y429640D01*
X598845Y429714D01*
X598914Y429786D01*
X598986Y429855D01*
X599060Y429921D01*
X599138Y429985D01*
X599217Y430045D01*
X599299Y430102D01*
X599383Y430156D01*
X599469Y430206D01*
X599557Y430253D01*
X599647Y430297D01*
X599738Y430337D01*
X599831Y430373D01*
X599925Y430406D01*
X600021Y430435D01*
X600117Y430460D01*
X600214Y430481D01*
X600313Y430499D01*
X600411Y430512D01*
X600511Y430522D01*
X600610Y430528D01*
X600710Y430530D01*
X669290Y430530D02*
X669390Y430528D01*
X669489Y430522D01*
X669589Y430512D01*
X669687Y430499D01*
X669786Y430481D01*
X669883Y430460D01*
X669979Y430435D01*
X670075Y430406D01*
X670169Y430373D01*
X670262Y430337D01*
X670353Y430297D01*
X670443Y430253D01*
X670531Y430206D01*
X670617Y430156D01*
X670701Y430102D01*
X670783Y430045D01*
X670862Y429985D01*
X670940Y429921D01*
X671014Y429855D01*
X671086Y429786D01*
X671155Y429714D01*
X671221Y429640D01*
X671285Y429562D01*
X671345Y429483D01*
X671402Y429401D01*
X671456Y429317D01*
X671506Y429231D01*
X671553Y429143D01*
X671597Y429053D01*
X671637Y428962D01*
X671673Y428869D01*
X671706Y428775D01*
X671735Y428679D01*
X671760Y428583D01*
X671781Y428486D01*
X671799Y428387D01*
X671812Y428289D01*
X671822Y428189D01*
X671828Y428090D01*
X671830Y427990D01*
D11*
X687705Y407633D02*
X687705Y405093D01*
X687703Y404993D01*
X687697Y404894D01*
X687687Y404794D01*
X687674Y404696D01*
X687656Y404597D01*
X687635Y404500D01*
X687610Y404404D01*
X687581Y404308D01*
X687548Y404214D01*
X687512Y404121D01*
X687472Y404030D01*
X687428Y403940D01*
X687381Y403852D01*
X687331Y403766D01*
X687277Y403682D01*
X687220Y403600D01*
X687160Y403521D01*
X687096Y403443D01*
X687030Y403369D01*
X686961Y403297D01*
X686889Y403228D01*
X686815Y403162D01*
X686737Y403098D01*
X686658Y403038D01*
X686576Y402981D01*
X686492Y402927D01*
X686406Y402877D01*
X686318Y402830D01*
X686228Y402786D01*
X686137Y402746D01*
X686044Y402710D01*
X685950Y402677D01*
X685854Y402648D01*
X685758Y402623D01*
X685661Y402602D01*
X685562Y402584D01*
X685464Y402571D01*
X685364Y402561D01*
X685265Y402555D01*
X685165Y402553D01*
X678815Y402553D01*
X678715Y402555D01*
X678616Y402561D01*
X678516Y402571D01*
X678418Y402584D01*
X678319Y402602D01*
X678222Y402623D01*
X678126Y402648D01*
X678030Y402677D01*
X677936Y402710D01*
X677843Y402746D01*
X677752Y402786D01*
X677662Y402830D01*
X677574Y402877D01*
X677488Y402927D01*
X677404Y402981D01*
X677322Y403038D01*
X677243Y403098D01*
X677165Y403162D01*
X677091Y403228D01*
X677019Y403297D01*
X676950Y403369D01*
X676884Y403443D01*
X676820Y403521D01*
X676760Y403600D01*
X676703Y403682D01*
X676649Y403766D01*
X676599Y403852D01*
X676552Y403940D01*
X676508Y404030D01*
X676468Y404121D01*
X676432Y404214D01*
X676399Y404308D01*
X676370Y404404D01*
X676345Y404500D01*
X676324Y404597D01*
X676306Y404696D01*
X676293Y404794D01*
X676283Y404894D01*
X676277Y404993D01*
X676275Y405093D01*
X676275Y407633D01*
X687705Y412115D02*
X687705Y415925D01*
X687703Y416025D01*
X687697Y416124D01*
X687687Y416224D01*
X687674Y416322D01*
X687656Y416421D01*
X687635Y416518D01*
X687610Y416614D01*
X687581Y416710D01*
X687548Y416804D01*
X687512Y416897D01*
X687472Y416988D01*
X687428Y417078D01*
X687381Y417166D01*
X687331Y417252D01*
X687277Y417336D01*
X687220Y417418D01*
X687160Y417497D01*
X687096Y417575D01*
X687030Y417649D01*
X686961Y417721D01*
X686889Y417790D01*
X686815Y417856D01*
X686737Y417920D01*
X686658Y417980D01*
X686576Y418037D01*
X686492Y418091D01*
X686406Y418141D01*
X686318Y418188D01*
X686228Y418232D01*
X686137Y418272D01*
X686044Y418308D01*
X685950Y418341D01*
X685854Y418370D01*
X685758Y418395D01*
X685661Y418416D01*
X685562Y418434D01*
X685464Y418447D01*
X685364Y418457D01*
X685265Y418463D01*
X685165Y418465D01*
X683895Y418465D01*
X683795Y418463D01*
X683696Y418457D01*
X683596Y418447D01*
X683498Y418434D01*
X683399Y418416D01*
X683302Y418395D01*
X683206Y418370D01*
X683110Y418341D01*
X683016Y418308D01*
X682923Y418272D01*
X682832Y418232D01*
X682742Y418188D01*
X682654Y418141D01*
X682568Y418091D01*
X682484Y418037D01*
X682402Y417980D01*
X682323Y417920D01*
X682245Y417856D01*
X682171Y417790D01*
X682099Y417721D01*
X682030Y417649D01*
X681964Y417575D01*
X681900Y417497D01*
X681840Y417418D01*
X681783Y417336D01*
X681729Y417252D01*
X681679Y417166D01*
X681632Y417078D01*
X681588Y416988D01*
X681548Y416897D01*
X681512Y416804D01*
X681479Y416710D01*
X681450Y416614D01*
X681425Y416518D01*
X681404Y416421D01*
X681386Y416322D01*
X681373Y416224D01*
X681363Y416124D01*
X681357Y416025D01*
X681355Y415925D01*
X681355Y412115D01*
X676275Y412115D01*
X676275Y418465D01*
D10*
X1028700Y332740D02*
X1028700Y322072D01*
D12*
X1036320Y322072D01*
X1028700Y322072D02*
X1021080Y322072D01*
X1028700Y313182D02*
X1036320Y313182D01*
D10*
X1028700Y313182D02*
X1028700Y302260D01*
D12*
X1028700Y313182D02*
X1021080Y313182D01*
D10*
X994410Y354330D02*
X1062990Y354330D01*
X991870Y351790D02*
X991870Y283210D01*
X994410Y280670D02*
X1062990Y280670D01*
X1065530Y283210D02*
X1065530Y351790D01*
X1065530Y283210D02*
X1065528Y283110D01*
X1065522Y283011D01*
X1065512Y282911D01*
X1065499Y282813D01*
X1065481Y282714D01*
X1065460Y282617D01*
X1065435Y282521D01*
X1065406Y282425D01*
X1065373Y282331D01*
X1065337Y282238D01*
X1065297Y282147D01*
X1065253Y282057D01*
X1065206Y281969D01*
X1065156Y281883D01*
X1065102Y281799D01*
X1065045Y281717D01*
X1064985Y281638D01*
X1064921Y281560D01*
X1064855Y281486D01*
X1064786Y281414D01*
X1064714Y281345D01*
X1064640Y281279D01*
X1064562Y281215D01*
X1064483Y281155D01*
X1064401Y281098D01*
X1064317Y281044D01*
X1064231Y280994D01*
X1064143Y280947D01*
X1064053Y280903D01*
X1063962Y280863D01*
X1063869Y280827D01*
X1063775Y280794D01*
X1063679Y280765D01*
X1063583Y280740D01*
X1063486Y280719D01*
X1063387Y280701D01*
X1063289Y280688D01*
X1063189Y280678D01*
X1063090Y280672D01*
X1062990Y280670D01*
X994410Y280670D02*
X994310Y280672D01*
X994211Y280678D01*
X994111Y280688D01*
X994013Y280701D01*
X993914Y280719D01*
X993817Y280740D01*
X993721Y280765D01*
X993625Y280794D01*
X993531Y280827D01*
X993438Y280863D01*
X993347Y280903D01*
X993257Y280947D01*
X993169Y280994D01*
X993083Y281044D01*
X992999Y281098D01*
X992917Y281155D01*
X992838Y281215D01*
X992760Y281279D01*
X992686Y281345D01*
X992614Y281414D01*
X992545Y281486D01*
X992479Y281560D01*
X992415Y281638D01*
X992355Y281717D01*
X992298Y281799D01*
X992244Y281883D01*
X992194Y281969D01*
X992147Y282057D01*
X992103Y282147D01*
X992063Y282238D01*
X992027Y282331D01*
X991994Y282425D01*
X991965Y282521D01*
X991940Y282617D01*
X991919Y282714D01*
X991901Y282813D01*
X991888Y282911D01*
X991878Y283011D01*
X991872Y283110D01*
X991870Y283210D01*
X991870Y351790D02*
X991872Y351890D01*
X991878Y351989D01*
X991888Y352089D01*
X991901Y352187D01*
X991919Y352286D01*
X991940Y352383D01*
X991965Y352479D01*
X991994Y352575D01*
X992027Y352669D01*
X992063Y352762D01*
X992103Y352853D01*
X992147Y352943D01*
X992194Y353031D01*
X992244Y353117D01*
X992298Y353201D01*
X992355Y353283D01*
X992415Y353362D01*
X992479Y353440D01*
X992545Y353514D01*
X992614Y353586D01*
X992686Y353655D01*
X992760Y353721D01*
X992838Y353785D01*
X992917Y353845D01*
X992999Y353902D01*
X993083Y353956D01*
X993169Y354006D01*
X993257Y354053D01*
X993347Y354097D01*
X993438Y354137D01*
X993531Y354173D01*
X993625Y354206D01*
X993721Y354235D01*
X993817Y354260D01*
X993914Y354281D01*
X994013Y354299D01*
X994111Y354312D01*
X994211Y354322D01*
X994310Y354328D01*
X994410Y354330D01*
X1062990Y354330D02*
X1063090Y354328D01*
X1063189Y354322D01*
X1063289Y354312D01*
X1063387Y354299D01*
X1063486Y354281D01*
X1063583Y354260D01*
X1063679Y354235D01*
X1063775Y354206D01*
X1063869Y354173D01*
X1063962Y354137D01*
X1064053Y354097D01*
X1064143Y354053D01*
X1064231Y354006D01*
X1064317Y353956D01*
X1064401Y353902D01*
X1064483Y353845D01*
X1064562Y353785D01*
X1064640Y353721D01*
X1064714Y353655D01*
X1064786Y353586D01*
X1064855Y353514D01*
X1064921Y353440D01*
X1064985Y353362D01*
X1065045Y353283D01*
X1065102Y353201D01*
X1065156Y353117D01*
X1065206Y353031D01*
X1065253Y352943D01*
X1065297Y352853D01*
X1065337Y352762D01*
X1065373Y352669D01*
X1065406Y352575D01*
X1065435Y352479D01*
X1065460Y352383D01*
X1065481Y352286D01*
X1065499Y352187D01*
X1065512Y352089D01*
X1065522Y351989D01*
X1065528Y351890D01*
X1065530Y351790D01*
D11*
X1081405Y331433D02*
X1081405Y328893D01*
X1081403Y328793D01*
X1081397Y328694D01*
X1081387Y328594D01*
X1081374Y328496D01*
X1081356Y328397D01*
X1081335Y328300D01*
X1081310Y328204D01*
X1081281Y328108D01*
X1081248Y328014D01*
X1081212Y327921D01*
X1081172Y327830D01*
X1081128Y327740D01*
X1081081Y327652D01*
X1081031Y327566D01*
X1080977Y327482D01*
X1080920Y327400D01*
X1080860Y327321D01*
X1080796Y327243D01*
X1080730Y327169D01*
X1080661Y327097D01*
X1080589Y327028D01*
X1080515Y326962D01*
X1080437Y326898D01*
X1080358Y326838D01*
X1080276Y326781D01*
X1080192Y326727D01*
X1080106Y326677D01*
X1080018Y326630D01*
X1079928Y326586D01*
X1079837Y326546D01*
X1079744Y326510D01*
X1079650Y326477D01*
X1079554Y326448D01*
X1079458Y326423D01*
X1079361Y326402D01*
X1079262Y326384D01*
X1079164Y326371D01*
X1079064Y326361D01*
X1078965Y326355D01*
X1078865Y326353D01*
X1072515Y326353D01*
X1072415Y326355D01*
X1072316Y326361D01*
X1072216Y326371D01*
X1072118Y326384D01*
X1072019Y326402D01*
X1071922Y326423D01*
X1071826Y326448D01*
X1071730Y326477D01*
X1071636Y326510D01*
X1071543Y326546D01*
X1071452Y326586D01*
X1071362Y326630D01*
X1071274Y326677D01*
X1071188Y326727D01*
X1071104Y326781D01*
X1071022Y326838D01*
X1070943Y326898D01*
X1070865Y326962D01*
X1070791Y327028D01*
X1070719Y327097D01*
X1070650Y327169D01*
X1070584Y327243D01*
X1070520Y327321D01*
X1070460Y327400D01*
X1070403Y327482D01*
X1070349Y327566D01*
X1070299Y327652D01*
X1070252Y327740D01*
X1070208Y327830D01*
X1070168Y327921D01*
X1070132Y328014D01*
X1070099Y328108D01*
X1070070Y328204D01*
X1070045Y328300D01*
X1070024Y328397D01*
X1070006Y328496D01*
X1069993Y328594D01*
X1069983Y328694D01*
X1069977Y328793D01*
X1069975Y328893D01*
X1069975Y331433D01*
X1075055Y335915D02*
X1075055Y339725D01*
X1075057Y339825D01*
X1075063Y339924D01*
X1075073Y340024D01*
X1075086Y340122D01*
X1075104Y340221D01*
X1075125Y340318D01*
X1075150Y340414D01*
X1075179Y340510D01*
X1075212Y340604D01*
X1075248Y340697D01*
X1075288Y340788D01*
X1075332Y340878D01*
X1075379Y340966D01*
X1075429Y341052D01*
X1075483Y341136D01*
X1075540Y341218D01*
X1075600Y341297D01*
X1075664Y341375D01*
X1075730Y341449D01*
X1075799Y341521D01*
X1075871Y341590D01*
X1075945Y341656D01*
X1076023Y341720D01*
X1076102Y341780D01*
X1076184Y341837D01*
X1076268Y341891D01*
X1076354Y341941D01*
X1076442Y341988D01*
X1076532Y342032D01*
X1076623Y342072D01*
X1076716Y342108D01*
X1076810Y342141D01*
X1076906Y342170D01*
X1077002Y342195D01*
X1077099Y342216D01*
X1077198Y342234D01*
X1077296Y342247D01*
X1077396Y342257D01*
X1077495Y342263D01*
X1077595Y342265D01*
X1078230Y342265D01*
X1078341Y342263D01*
X1078451Y342257D01*
X1078562Y342248D01*
X1078672Y342234D01*
X1078781Y342217D01*
X1078890Y342196D01*
X1078998Y342171D01*
X1079105Y342142D01*
X1079211Y342110D01*
X1079316Y342074D01*
X1079419Y342034D01*
X1079521Y341991D01*
X1079622Y341944D01*
X1079721Y341893D01*
X1079818Y341840D01*
X1079912Y341783D01*
X1080005Y341722D01*
X1080096Y341659D01*
X1080185Y341592D01*
X1080271Y341522D01*
X1080354Y341449D01*
X1080436Y341374D01*
X1080514Y341296D01*
X1080589Y341214D01*
X1080662Y341131D01*
X1080732Y341045D01*
X1080799Y340956D01*
X1080862Y340865D01*
X1080923Y340772D01*
X1080980Y340677D01*
X1081033Y340581D01*
X1081084Y340482D01*
X1081131Y340381D01*
X1081174Y340279D01*
X1081214Y340176D01*
X1081250Y340071D01*
X1081282Y339965D01*
X1081311Y339858D01*
X1081336Y339750D01*
X1081357Y339641D01*
X1081374Y339532D01*
X1081388Y339422D01*
X1081397Y339311D01*
X1081403Y339201D01*
X1081405Y339090D01*
X1081403Y338979D01*
X1081397Y338869D01*
X1081388Y338758D01*
X1081374Y338648D01*
X1081357Y338539D01*
X1081336Y338430D01*
X1081311Y338322D01*
X1081282Y338215D01*
X1081250Y338109D01*
X1081214Y338004D01*
X1081174Y337901D01*
X1081131Y337799D01*
X1081084Y337698D01*
X1081033Y337599D01*
X1080980Y337502D01*
X1080923Y337408D01*
X1080862Y337315D01*
X1080799Y337224D01*
X1080732Y337135D01*
X1080662Y337049D01*
X1080589Y336966D01*
X1080514Y336884D01*
X1080436Y336806D01*
X1080354Y336731D01*
X1080271Y336658D01*
X1080185Y336588D01*
X1080096Y336521D01*
X1080005Y336458D01*
X1079912Y336397D01*
X1079818Y336340D01*
X1079721Y336287D01*
X1079622Y336236D01*
X1079521Y336189D01*
X1079419Y336146D01*
X1079316Y336106D01*
X1079211Y336070D01*
X1079105Y336038D01*
X1078998Y336009D01*
X1078890Y335984D01*
X1078781Y335963D01*
X1078672Y335946D01*
X1078562Y335932D01*
X1078451Y335923D01*
X1078341Y335917D01*
X1078230Y335915D01*
X1075055Y335915D01*
X1074915Y335917D01*
X1074775Y335923D01*
X1074635Y335932D01*
X1074496Y335946D01*
X1074357Y335963D01*
X1074219Y335984D01*
X1074081Y336009D01*
X1073944Y336038D01*
X1073808Y336070D01*
X1073673Y336107D01*
X1073539Y336147D01*
X1073406Y336190D01*
X1073274Y336238D01*
X1073143Y336288D01*
X1073014Y336343D01*
X1072887Y336401D01*
X1072761Y336462D01*
X1072637Y336527D01*
X1072515Y336596D01*
X1072395Y336667D01*
X1072277Y336742D01*
X1072160Y336820D01*
X1072046Y336902D01*
X1071935Y336986D01*
X1071826Y337074D01*
X1071719Y337164D01*
X1071614Y337258D01*
X1071513Y337354D01*
X1071414Y337453D01*
X1071318Y337554D01*
X1071224Y337659D01*
X1071134Y337766D01*
X1071046Y337875D01*
X1070962Y337986D01*
X1070880Y338100D01*
X1070802Y338217D01*
X1070727Y338335D01*
X1070656Y338455D01*
X1070587Y338577D01*
X1070522Y338701D01*
X1070461Y338827D01*
X1070403Y338954D01*
X1070348Y339083D01*
X1070298Y339214D01*
X1070250Y339346D01*
X1070207Y339479D01*
X1070167Y339613D01*
X1070130Y339748D01*
X1070098Y339884D01*
X1070069Y340021D01*
X1070044Y340159D01*
X1070023Y340297D01*
X1070006Y340436D01*
X1069992Y340575D01*
X1069983Y340715D01*
X1069977Y340855D01*
X1069975Y340995D01*
D10*
X698500Y347472D02*
X698500Y358140D01*
D12*
X698500Y347472D02*
X706120Y347472D01*
X698500Y347472D02*
X690880Y347472D01*
X698500Y338582D02*
X706120Y338582D01*
D10*
X698500Y338582D02*
X698500Y327660D01*
D12*
X698500Y338582D02*
X690880Y338582D01*
D10*
X664210Y379730D02*
X732790Y379730D01*
X661670Y377190D02*
X661670Y308610D01*
X664210Y306070D02*
X732790Y306070D01*
X735330Y308610D02*
X735330Y377190D01*
X735330Y308610D02*
X735328Y308510D01*
X735322Y308411D01*
X735312Y308311D01*
X735299Y308213D01*
X735281Y308114D01*
X735260Y308017D01*
X735235Y307921D01*
X735206Y307825D01*
X735173Y307731D01*
X735137Y307638D01*
X735097Y307547D01*
X735053Y307457D01*
X735006Y307369D01*
X734956Y307283D01*
X734902Y307199D01*
X734845Y307117D01*
X734785Y307038D01*
X734721Y306960D01*
X734655Y306886D01*
X734586Y306814D01*
X734514Y306745D01*
X734440Y306679D01*
X734362Y306615D01*
X734283Y306555D01*
X734201Y306498D01*
X734117Y306444D01*
X734031Y306394D01*
X733943Y306347D01*
X733853Y306303D01*
X733762Y306263D01*
X733669Y306227D01*
X733575Y306194D01*
X733479Y306165D01*
X733383Y306140D01*
X733286Y306119D01*
X733187Y306101D01*
X733089Y306088D01*
X732989Y306078D01*
X732890Y306072D01*
X732790Y306070D01*
X664210Y306070D02*
X664110Y306072D01*
X664011Y306078D01*
X663911Y306088D01*
X663813Y306101D01*
X663714Y306119D01*
X663617Y306140D01*
X663521Y306165D01*
X663425Y306194D01*
X663331Y306227D01*
X663238Y306263D01*
X663147Y306303D01*
X663057Y306347D01*
X662969Y306394D01*
X662883Y306444D01*
X662799Y306498D01*
X662717Y306555D01*
X662638Y306615D01*
X662560Y306679D01*
X662486Y306745D01*
X662414Y306814D01*
X662345Y306886D01*
X662279Y306960D01*
X662215Y307038D01*
X662155Y307117D01*
X662098Y307199D01*
X662044Y307283D01*
X661994Y307369D01*
X661947Y307457D01*
X661903Y307547D01*
X661863Y307638D01*
X661827Y307731D01*
X661794Y307825D01*
X661765Y307921D01*
X661740Y308017D01*
X661719Y308114D01*
X661701Y308213D01*
X661688Y308311D01*
X661678Y308411D01*
X661672Y308510D01*
X661670Y308610D01*
X661670Y377190D02*
X661672Y377290D01*
X661678Y377389D01*
X661688Y377489D01*
X661701Y377587D01*
X661719Y377686D01*
X661740Y377783D01*
X661765Y377879D01*
X661794Y377975D01*
X661827Y378069D01*
X661863Y378162D01*
X661903Y378253D01*
X661947Y378343D01*
X661994Y378431D01*
X662044Y378517D01*
X662098Y378601D01*
X662155Y378683D01*
X662215Y378762D01*
X662279Y378840D01*
X662345Y378914D01*
X662414Y378986D01*
X662486Y379055D01*
X662560Y379121D01*
X662638Y379185D01*
X662717Y379245D01*
X662799Y379302D01*
X662883Y379356D01*
X662969Y379406D01*
X663057Y379453D01*
X663147Y379497D01*
X663238Y379537D01*
X663331Y379573D01*
X663425Y379606D01*
X663521Y379635D01*
X663617Y379660D01*
X663714Y379681D01*
X663813Y379699D01*
X663911Y379712D01*
X664011Y379722D01*
X664110Y379728D01*
X664210Y379730D01*
X732790Y379730D02*
X732890Y379728D01*
X732989Y379722D01*
X733089Y379712D01*
X733187Y379699D01*
X733286Y379681D01*
X733383Y379660D01*
X733479Y379635D01*
X733575Y379606D01*
X733669Y379573D01*
X733762Y379537D01*
X733853Y379497D01*
X733943Y379453D01*
X734031Y379406D01*
X734117Y379356D01*
X734201Y379302D01*
X734283Y379245D01*
X734362Y379185D01*
X734440Y379121D01*
X734514Y379055D01*
X734586Y378986D01*
X734655Y378914D01*
X734721Y378840D01*
X734785Y378762D01*
X734845Y378683D01*
X734902Y378601D01*
X734956Y378517D01*
X735006Y378431D01*
X735053Y378343D01*
X735097Y378253D01*
X735137Y378162D01*
X735173Y378069D01*
X735206Y377975D01*
X735235Y377879D01*
X735260Y377783D01*
X735281Y377686D01*
X735299Y377587D01*
X735312Y377489D01*
X735322Y377389D01*
X735328Y377290D01*
X735330Y377190D01*
D11*
X751205Y356833D02*
X751205Y354293D01*
X751203Y354193D01*
X751197Y354094D01*
X751187Y353994D01*
X751174Y353896D01*
X751156Y353797D01*
X751135Y353700D01*
X751110Y353604D01*
X751081Y353508D01*
X751048Y353414D01*
X751012Y353321D01*
X750972Y353230D01*
X750928Y353140D01*
X750881Y353052D01*
X750831Y352966D01*
X750777Y352882D01*
X750720Y352800D01*
X750660Y352721D01*
X750596Y352643D01*
X750530Y352569D01*
X750461Y352497D01*
X750389Y352428D01*
X750315Y352362D01*
X750237Y352298D01*
X750158Y352238D01*
X750076Y352181D01*
X749992Y352127D01*
X749906Y352077D01*
X749818Y352030D01*
X749728Y351986D01*
X749637Y351946D01*
X749544Y351910D01*
X749450Y351877D01*
X749354Y351848D01*
X749258Y351823D01*
X749161Y351802D01*
X749062Y351784D01*
X748964Y351771D01*
X748864Y351761D01*
X748765Y351755D01*
X748665Y351753D01*
X742315Y351753D01*
X742215Y351755D01*
X742116Y351761D01*
X742016Y351771D01*
X741918Y351784D01*
X741819Y351802D01*
X741722Y351823D01*
X741626Y351848D01*
X741530Y351877D01*
X741436Y351910D01*
X741343Y351946D01*
X741252Y351986D01*
X741162Y352030D01*
X741074Y352077D01*
X740988Y352127D01*
X740904Y352181D01*
X740822Y352238D01*
X740743Y352298D01*
X740665Y352362D01*
X740591Y352428D01*
X740519Y352497D01*
X740450Y352569D01*
X740384Y352643D01*
X740320Y352721D01*
X740260Y352800D01*
X740203Y352882D01*
X740149Y352966D01*
X740099Y353052D01*
X740052Y353140D01*
X740008Y353230D01*
X739968Y353321D01*
X739932Y353414D01*
X739899Y353508D01*
X739870Y353604D01*
X739845Y353700D01*
X739824Y353797D01*
X739806Y353896D01*
X739793Y353994D01*
X739783Y354094D01*
X739777Y354193D01*
X739775Y354293D01*
X739775Y356833D01*
X739775Y361315D02*
X741045Y361315D01*
X739775Y361315D02*
X739775Y367665D01*
X751205Y364490D01*
D10*
X1028700Y243840D02*
X1028700Y233172D01*
D12*
X1036320Y233172D01*
X1028700Y233172D02*
X1021080Y233172D01*
X1028700Y224282D02*
X1036320Y224282D01*
D10*
X1028700Y224282D02*
X1028700Y213360D01*
D12*
X1028700Y224282D02*
X1021080Y224282D01*
D10*
X994410Y265430D02*
X1062990Y265430D01*
X991870Y262890D02*
X991870Y194310D01*
X994410Y191770D02*
X1062990Y191770D01*
X1065530Y194310D02*
X1065530Y262890D01*
X1065530Y194310D02*
X1065528Y194210D01*
X1065522Y194111D01*
X1065512Y194011D01*
X1065499Y193913D01*
X1065481Y193814D01*
X1065460Y193717D01*
X1065435Y193621D01*
X1065406Y193525D01*
X1065373Y193431D01*
X1065337Y193338D01*
X1065297Y193247D01*
X1065253Y193157D01*
X1065206Y193069D01*
X1065156Y192983D01*
X1065102Y192899D01*
X1065045Y192817D01*
X1064985Y192738D01*
X1064921Y192660D01*
X1064855Y192586D01*
X1064786Y192514D01*
X1064714Y192445D01*
X1064640Y192379D01*
X1064562Y192315D01*
X1064483Y192255D01*
X1064401Y192198D01*
X1064317Y192144D01*
X1064231Y192094D01*
X1064143Y192047D01*
X1064053Y192003D01*
X1063962Y191963D01*
X1063869Y191927D01*
X1063775Y191894D01*
X1063679Y191865D01*
X1063583Y191840D01*
X1063486Y191819D01*
X1063387Y191801D01*
X1063289Y191788D01*
X1063189Y191778D01*
X1063090Y191772D01*
X1062990Y191770D01*
X994410Y191770D02*
X994310Y191772D01*
X994211Y191778D01*
X994111Y191788D01*
X994013Y191801D01*
X993914Y191819D01*
X993817Y191840D01*
X993721Y191865D01*
X993625Y191894D01*
X993531Y191927D01*
X993438Y191963D01*
X993347Y192003D01*
X993257Y192047D01*
X993169Y192094D01*
X993083Y192144D01*
X992999Y192198D01*
X992917Y192255D01*
X992838Y192315D01*
X992760Y192379D01*
X992686Y192445D01*
X992614Y192514D01*
X992545Y192586D01*
X992479Y192660D01*
X992415Y192738D01*
X992355Y192817D01*
X992298Y192899D01*
X992244Y192983D01*
X992194Y193069D01*
X992147Y193157D01*
X992103Y193247D01*
X992063Y193338D01*
X992027Y193431D01*
X991994Y193525D01*
X991965Y193621D01*
X991940Y193717D01*
X991919Y193814D01*
X991901Y193913D01*
X991888Y194011D01*
X991878Y194111D01*
X991872Y194210D01*
X991870Y194310D01*
X991870Y262890D02*
X991872Y262990D01*
X991878Y263089D01*
X991888Y263189D01*
X991901Y263287D01*
X991919Y263386D01*
X991940Y263483D01*
X991965Y263579D01*
X991994Y263675D01*
X992027Y263769D01*
X992063Y263862D01*
X992103Y263953D01*
X992147Y264043D01*
X992194Y264131D01*
X992244Y264217D01*
X992298Y264301D01*
X992355Y264383D01*
X992415Y264462D01*
X992479Y264540D01*
X992545Y264614D01*
X992614Y264686D01*
X992686Y264755D01*
X992760Y264821D01*
X992838Y264885D01*
X992917Y264945D01*
X992999Y265002D01*
X993083Y265056D01*
X993169Y265106D01*
X993257Y265153D01*
X993347Y265197D01*
X993438Y265237D01*
X993531Y265273D01*
X993625Y265306D01*
X993721Y265335D01*
X993817Y265360D01*
X993914Y265381D01*
X994013Y265399D01*
X994111Y265412D01*
X994211Y265422D01*
X994310Y265428D01*
X994410Y265430D01*
X1062990Y265430D02*
X1063090Y265428D01*
X1063189Y265422D01*
X1063289Y265412D01*
X1063387Y265399D01*
X1063486Y265381D01*
X1063583Y265360D01*
X1063679Y265335D01*
X1063775Y265306D01*
X1063869Y265273D01*
X1063962Y265237D01*
X1064053Y265197D01*
X1064143Y265153D01*
X1064231Y265106D01*
X1064317Y265056D01*
X1064401Y265002D01*
X1064483Y264945D01*
X1064562Y264885D01*
X1064640Y264821D01*
X1064714Y264755D01*
X1064786Y264686D01*
X1064855Y264614D01*
X1064921Y264540D01*
X1064985Y264462D01*
X1065045Y264383D01*
X1065102Y264301D01*
X1065156Y264217D01*
X1065206Y264131D01*
X1065253Y264043D01*
X1065297Y263953D01*
X1065337Y263862D01*
X1065373Y263769D01*
X1065406Y263675D01*
X1065435Y263579D01*
X1065460Y263483D01*
X1065481Y263386D01*
X1065499Y263287D01*
X1065512Y263189D01*
X1065522Y263089D01*
X1065528Y262990D01*
X1065530Y262890D01*
D11*
X1081405Y242533D02*
X1081405Y239993D01*
X1081403Y239893D01*
X1081397Y239794D01*
X1081387Y239694D01*
X1081374Y239596D01*
X1081356Y239497D01*
X1081335Y239400D01*
X1081310Y239304D01*
X1081281Y239208D01*
X1081248Y239114D01*
X1081212Y239021D01*
X1081172Y238930D01*
X1081128Y238840D01*
X1081081Y238752D01*
X1081031Y238666D01*
X1080977Y238582D01*
X1080920Y238500D01*
X1080860Y238421D01*
X1080796Y238343D01*
X1080730Y238269D01*
X1080661Y238197D01*
X1080589Y238128D01*
X1080515Y238062D01*
X1080437Y237998D01*
X1080358Y237938D01*
X1080276Y237881D01*
X1080192Y237827D01*
X1080106Y237777D01*
X1080018Y237730D01*
X1079928Y237686D01*
X1079837Y237646D01*
X1079744Y237610D01*
X1079650Y237577D01*
X1079554Y237548D01*
X1079458Y237523D01*
X1079361Y237502D01*
X1079262Y237484D01*
X1079164Y237471D01*
X1079064Y237461D01*
X1078965Y237455D01*
X1078865Y237453D01*
X1072515Y237453D01*
X1072415Y237455D01*
X1072316Y237461D01*
X1072216Y237471D01*
X1072118Y237484D01*
X1072019Y237502D01*
X1071922Y237523D01*
X1071826Y237548D01*
X1071730Y237577D01*
X1071636Y237610D01*
X1071543Y237646D01*
X1071452Y237686D01*
X1071362Y237730D01*
X1071274Y237777D01*
X1071188Y237827D01*
X1071104Y237881D01*
X1071022Y237938D01*
X1070943Y237998D01*
X1070865Y238062D01*
X1070791Y238128D01*
X1070719Y238197D01*
X1070650Y238269D01*
X1070584Y238343D01*
X1070520Y238421D01*
X1070460Y238500D01*
X1070403Y238582D01*
X1070349Y238666D01*
X1070299Y238752D01*
X1070252Y238840D01*
X1070208Y238930D01*
X1070168Y239021D01*
X1070132Y239114D01*
X1070099Y239208D01*
X1070070Y239304D01*
X1070045Y239400D01*
X1070024Y239497D01*
X1070006Y239596D01*
X1069993Y239694D01*
X1069983Y239794D01*
X1069977Y239893D01*
X1069975Y239993D01*
X1069975Y242533D01*
X1078230Y247015D02*
X1078119Y247017D01*
X1078009Y247023D01*
X1077898Y247032D01*
X1077788Y247046D01*
X1077679Y247063D01*
X1077570Y247084D01*
X1077462Y247109D01*
X1077355Y247138D01*
X1077249Y247170D01*
X1077144Y247206D01*
X1077041Y247246D01*
X1076939Y247289D01*
X1076838Y247336D01*
X1076739Y247387D01*
X1076643Y247440D01*
X1076548Y247497D01*
X1076455Y247558D01*
X1076364Y247621D01*
X1076275Y247688D01*
X1076189Y247758D01*
X1076106Y247831D01*
X1076024Y247906D01*
X1075946Y247984D01*
X1075871Y248066D01*
X1075798Y248149D01*
X1075728Y248235D01*
X1075661Y248324D01*
X1075598Y248415D01*
X1075537Y248508D01*
X1075480Y248603D01*
X1075427Y248699D01*
X1075376Y248798D01*
X1075329Y248899D01*
X1075286Y249001D01*
X1075246Y249104D01*
X1075210Y249209D01*
X1075178Y249315D01*
X1075149Y249422D01*
X1075124Y249530D01*
X1075103Y249639D01*
X1075086Y249748D01*
X1075072Y249858D01*
X1075063Y249969D01*
X1075057Y250079D01*
X1075055Y250190D01*
X1075057Y250301D01*
X1075063Y250411D01*
X1075072Y250522D01*
X1075086Y250632D01*
X1075103Y250741D01*
X1075124Y250850D01*
X1075149Y250958D01*
X1075178Y251065D01*
X1075210Y251171D01*
X1075246Y251276D01*
X1075286Y251379D01*
X1075329Y251481D01*
X1075376Y251582D01*
X1075427Y251681D01*
X1075480Y251778D01*
X1075537Y251872D01*
X1075598Y251965D01*
X1075661Y252056D01*
X1075728Y252145D01*
X1075798Y252231D01*
X1075871Y252314D01*
X1075946Y252396D01*
X1076024Y252474D01*
X1076106Y252549D01*
X1076189Y252622D01*
X1076275Y252692D01*
X1076364Y252759D01*
X1076455Y252822D01*
X1076548Y252883D01*
X1076643Y252940D01*
X1076739Y252993D01*
X1076838Y253044D01*
X1076939Y253091D01*
X1077041Y253134D01*
X1077144Y253174D01*
X1077249Y253210D01*
X1077355Y253242D01*
X1077462Y253271D01*
X1077570Y253296D01*
X1077679Y253317D01*
X1077788Y253334D01*
X1077898Y253348D01*
X1078009Y253357D01*
X1078119Y253363D01*
X1078230Y253365D01*
X1078341Y253363D01*
X1078451Y253357D01*
X1078562Y253348D01*
X1078672Y253334D01*
X1078781Y253317D01*
X1078890Y253296D01*
X1078998Y253271D01*
X1079105Y253242D01*
X1079211Y253210D01*
X1079316Y253174D01*
X1079419Y253134D01*
X1079521Y253091D01*
X1079622Y253044D01*
X1079721Y252993D01*
X1079818Y252940D01*
X1079912Y252883D01*
X1080005Y252822D01*
X1080096Y252759D01*
X1080185Y252692D01*
X1080271Y252622D01*
X1080354Y252549D01*
X1080436Y252474D01*
X1080514Y252396D01*
X1080589Y252314D01*
X1080662Y252231D01*
X1080732Y252145D01*
X1080799Y252056D01*
X1080862Y251965D01*
X1080923Y251872D01*
X1080980Y251777D01*
X1081033Y251681D01*
X1081084Y251582D01*
X1081131Y251481D01*
X1081174Y251379D01*
X1081214Y251276D01*
X1081250Y251171D01*
X1081282Y251065D01*
X1081311Y250958D01*
X1081336Y250850D01*
X1081357Y250741D01*
X1081374Y250632D01*
X1081388Y250522D01*
X1081397Y250411D01*
X1081403Y250301D01*
X1081405Y250190D01*
X1081403Y250079D01*
X1081397Y249969D01*
X1081388Y249858D01*
X1081374Y249748D01*
X1081357Y249639D01*
X1081336Y249530D01*
X1081311Y249422D01*
X1081282Y249315D01*
X1081250Y249209D01*
X1081214Y249104D01*
X1081174Y249001D01*
X1081131Y248899D01*
X1081084Y248798D01*
X1081033Y248699D01*
X1080980Y248602D01*
X1080923Y248508D01*
X1080862Y248415D01*
X1080799Y248324D01*
X1080732Y248235D01*
X1080662Y248149D01*
X1080589Y248066D01*
X1080514Y247984D01*
X1080436Y247906D01*
X1080354Y247831D01*
X1080271Y247758D01*
X1080185Y247688D01*
X1080096Y247621D01*
X1080005Y247558D01*
X1079912Y247497D01*
X1079818Y247440D01*
X1079721Y247387D01*
X1079622Y247336D01*
X1079521Y247289D01*
X1079419Y247246D01*
X1079316Y247206D01*
X1079211Y247170D01*
X1079105Y247138D01*
X1078998Y247109D01*
X1078890Y247084D01*
X1078781Y247063D01*
X1078672Y247046D01*
X1078562Y247032D01*
X1078451Y247023D01*
X1078341Y247017D01*
X1078230Y247015D01*
X1072515Y247650D02*
X1072415Y247652D01*
X1072316Y247658D01*
X1072216Y247668D01*
X1072118Y247681D01*
X1072019Y247699D01*
X1071922Y247720D01*
X1071826Y247745D01*
X1071730Y247774D01*
X1071636Y247807D01*
X1071543Y247843D01*
X1071452Y247883D01*
X1071362Y247927D01*
X1071274Y247974D01*
X1071188Y248024D01*
X1071104Y248078D01*
X1071022Y248135D01*
X1070943Y248195D01*
X1070865Y248259D01*
X1070791Y248325D01*
X1070719Y248394D01*
X1070650Y248466D01*
X1070584Y248540D01*
X1070520Y248618D01*
X1070460Y248697D01*
X1070403Y248779D01*
X1070349Y248863D01*
X1070299Y248949D01*
X1070252Y249037D01*
X1070208Y249127D01*
X1070168Y249218D01*
X1070132Y249311D01*
X1070099Y249405D01*
X1070070Y249501D01*
X1070045Y249597D01*
X1070024Y249694D01*
X1070006Y249793D01*
X1069993Y249891D01*
X1069983Y249991D01*
X1069977Y250090D01*
X1069975Y250190D01*
X1069977Y250290D01*
X1069983Y250389D01*
X1069993Y250489D01*
X1070006Y250587D01*
X1070024Y250686D01*
X1070045Y250783D01*
X1070070Y250879D01*
X1070099Y250975D01*
X1070132Y251069D01*
X1070168Y251162D01*
X1070208Y251253D01*
X1070252Y251343D01*
X1070299Y251431D01*
X1070349Y251517D01*
X1070403Y251601D01*
X1070460Y251683D01*
X1070520Y251762D01*
X1070584Y251840D01*
X1070650Y251914D01*
X1070719Y251986D01*
X1070791Y252055D01*
X1070865Y252121D01*
X1070943Y252185D01*
X1071022Y252245D01*
X1071104Y252302D01*
X1071188Y252356D01*
X1071274Y252406D01*
X1071362Y252453D01*
X1071452Y252497D01*
X1071543Y252537D01*
X1071636Y252573D01*
X1071730Y252606D01*
X1071826Y252635D01*
X1071922Y252660D01*
X1072019Y252681D01*
X1072118Y252699D01*
X1072216Y252712D01*
X1072316Y252722D01*
X1072415Y252728D01*
X1072515Y252730D01*
X1072615Y252728D01*
X1072714Y252722D01*
X1072814Y252712D01*
X1072912Y252699D01*
X1073011Y252681D01*
X1073108Y252660D01*
X1073204Y252635D01*
X1073300Y252606D01*
X1073394Y252573D01*
X1073487Y252537D01*
X1073578Y252497D01*
X1073668Y252453D01*
X1073756Y252406D01*
X1073842Y252356D01*
X1073926Y252302D01*
X1074008Y252245D01*
X1074087Y252185D01*
X1074165Y252121D01*
X1074239Y252055D01*
X1074311Y251986D01*
X1074380Y251914D01*
X1074446Y251840D01*
X1074510Y251762D01*
X1074570Y251683D01*
X1074627Y251601D01*
X1074681Y251517D01*
X1074731Y251431D01*
X1074778Y251343D01*
X1074822Y251253D01*
X1074862Y251162D01*
X1074898Y251069D01*
X1074931Y250975D01*
X1074960Y250879D01*
X1074985Y250783D01*
X1075006Y250686D01*
X1075024Y250587D01*
X1075037Y250489D01*
X1075047Y250389D01*
X1075053Y250290D01*
X1075055Y250190D01*
X1075053Y250090D01*
X1075047Y249991D01*
X1075037Y249891D01*
X1075024Y249793D01*
X1075006Y249694D01*
X1074985Y249597D01*
X1074960Y249501D01*
X1074931Y249405D01*
X1074898Y249311D01*
X1074862Y249218D01*
X1074822Y249127D01*
X1074778Y249037D01*
X1074731Y248949D01*
X1074681Y248863D01*
X1074627Y248779D01*
X1074570Y248697D01*
X1074510Y248618D01*
X1074446Y248540D01*
X1074380Y248466D01*
X1074311Y248394D01*
X1074239Y248325D01*
X1074165Y248259D01*
X1074087Y248195D01*
X1074008Y248135D01*
X1073926Y248078D01*
X1073842Y248024D01*
X1073756Y247974D01*
X1073668Y247927D01*
X1073578Y247883D01*
X1073487Y247843D01*
X1073394Y247807D01*
X1073300Y247774D01*
X1073204Y247745D01*
X1073108Y247720D01*
X1073011Y247699D01*
X1072912Y247681D01*
X1072814Y247668D01*
X1072714Y247658D01*
X1072615Y247652D01*
X1072515Y247650D01*
D10*
X568960Y122428D02*
X568960Y111760D01*
D12*
X568960Y122428D02*
X561340Y122428D01*
X568960Y122428D02*
X576580Y122428D01*
X568960Y131318D02*
X561340Y131318D01*
D10*
X568960Y131318D02*
X568960Y142240D01*
D12*
X568960Y131318D02*
X576580Y131318D01*
D10*
X603250Y90170D02*
X534670Y90170D01*
X605790Y92710D02*
X605790Y161290D01*
X603250Y163830D02*
X534670Y163830D01*
X532130Y161290D02*
X532130Y92710D01*
X532130Y161290D02*
X532132Y161390D01*
X532138Y161489D01*
X532148Y161589D01*
X532161Y161687D01*
X532179Y161786D01*
X532200Y161883D01*
X532225Y161979D01*
X532254Y162075D01*
X532287Y162169D01*
X532323Y162262D01*
X532363Y162353D01*
X532407Y162443D01*
X532454Y162531D01*
X532504Y162617D01*
X532558Y162701D01*
X532615Y162783D01*
X532675Y162862D01*
X532739Y162940D01*
X532805Y163014D01*
X532874Y163086D01*
X532946Y163155D01*
X533020Y163221D01*
X533098Y163285D01*
X533177Y163345D01*
X533259Y163402D01*
X533343Y163456D01*
X533429Y163506D01*
X533517Y163553D01*
X533607Y163597D01*
X533698Y163637D01*
X533791Y163673D01*
X533885Y163706D01*
X533981Y163735D01*
X534077Y163760D01*
X534174Y163781D01*
X534273Y163799D01*
X534371Y163812D01*
X534471Y163822D01*
X534570Y163828D01*
X534670Y163830D01*
X603250Y163830D02*
X603350Y163828D01*
X603449Y163822D01*
X603549Y163812D01*
X603647Y163799D01*
X603746Y163781D01*
X603843Y163760D01*
X603939Y163735D01*
X604035Y163706D01*
X604129Y163673D01*
X604222Y163637D01*
X604313Y163597D01*
X604403Y163553D01*
X604491Y163506D01*
X604577Y163456D01*
X604661Y163402D01*
X604743Y163345D01*
X604822Y163285D01*
X604900Y163221D01*
X604974Y163155D01*
X605046Y163086D01*
X605115Y163014D01*
X605181Y162940D01*
X605245Y162862D01*
X605305Y162783D01*
X605362Y162701D01*
X605416Y162617D01*
X605466Y162531D01*
X605513Y162443D01*
X605557Y162353D01*
X605597Y162262D01*
X605633Y162169D01*
X605666Y162075D01*
X605695Y161979D01*
X605720Y161883D01*
X605741Y161786D01*
X605759Y161687D01*
X605772Y161589D01*
X605782Y161489D01*
X605788Y161390D01*
X605790Y161290D01*
X605790Y92710D02*
X605788Y92610D01*
X605782Y92511D01*
X605772Y92411D01*
X605759Y92313D01*
X605741Y92214D01*
X605720Y92117D01*
X605695Y92021D01*
X605666Y91925D01*
X605633Y91831D01*
X605597Y91738D01*
X605557Y91647D01*
X605513Y91557D01*
X605466Y91469D01*
X605416Y91383D01*
X605362Y91299D01*
X605305Y91217D01*
X605245Y91138D01*
X605181Y91060D01*
X605115Y90986D01*
X605046Y90914D01*
X604974Y90845D01*
X604900Y90779D01*
X604822Y90715D01*
X604743Y90655D01*
X604661Y90598D01*
X604577Y90544D01*
X604491Y90494D01*
X604403Y90447D01*
X604313Y90403D01*
X604222Y90363D01*
X604129Y90327D01*
X604035Y90294D01*
X603939Y90265D01*
X603843Y90240D01*
X603746Y90219D01*
X603647Y90201D01*
X603549Y90188D01*
X603449Y90178D01*
X603350Y90172D01*
X603250Y90170D01*
X534670Y90170D02*
X534570Y90172D01*
X534471Y90178D01*
X534371Y90188D01*
X534273Y90201D01*
X534174Y90219D01*
X534077Y90240D01*
X533981Y90265D01*
X533885Y90294D01*
X533791Y90327D01*
X533698Y90363D01*
X533607Y90403D01*
X533517Y90447D01*
X533429Y90494D01*
X533343Y90544D01*
X533259Y90598D01*
X533177Y90655D01*
X533098Y90715D01*
X533020Y90779D01*
X532946Y90845D01*
X532874Y90914D01*
X532805Y90986D01*
X532739Y91060D01*
X532675Y91138D01*
X532615Y91217D01*
X532558Y91299D01*
X532504Y91383D01*
X532454Y91469D01*
X532407Y91557D01*
X532363Y91647D01*
X532323Y91738D01*
X532287Y91831D01*
X532254Y91925D01*
X532225Y92021D01*
X532200Y92117D01*
X532179Y92214D01*
X532161Y92313D01*
X532148Y92411D01*
X532138Y92511D01*
X532132Y92610D01*
X532130Y92710D01*
D11*
X527685Y104775D02*
X527685Y107315D01*
X527685Y104775D02*
X527683Y104675D01*
X527677Y104576D01*
X527667Y104476D01*
X527654Y104378D01*
X527636Y104279D01*
X527615Y104182D01*
X527590Y104086D01*
X527561Y103990D01*
X527528Y103896D01*
X527492Y103803D01*
X527452Y103712D01*
X527408Y103622D01*
X527361Y103534D01*
X527311Y103448D01*
X527257Y103364D01*
X527200Y103282D01*
X527140Y103203D01*
X527076Y103125D01*
X527010Y103051D01*
X526941Y102979D01*
X526869Y102910D01*
X526795Y102844D01*
X526717Y102780D01*
X526638Y102720D01*
X526556Y102663D01*
X526472Y102609D01*
X526386Y102559D01*
X526298Y102512D01*
X526208Y102468D01*
X526117Y102428D01*
X526024Y102392D01*
X525930Y102359D01*
X525834Y102330D01*
X525738Y102305D01*
X525641Y102284D01*
X525542Y102266D01*
X525444Y102253D01*
X525344Y102243D01*
X525245Y102237D01*
X525145Y102235D01*
X518795Y102235D01*
X518695Y102237D01*
X518596Y102243D01*
X518496Y102253D01*
X518398Y102266D01*
X518299Y102284D01*
X518202Y102305D01*
X518106Y102330D01*
X518010Y102359D01*
X517916Y102392D01*
X517823Y102428D01*
X517732Y102468D01*
X517642Y102512D01*
X517554Y102559D01*
X517468Y102609D01*
X517384Y102663D01*
X517302Y102720D01*
X517223Y102780D01*
X517145Y102844D01*
X517071Y102910D01*
X516999Y102979D01*
X516930Y103051D01*
X516864Y103125D01*
X516800Y103203D01*
X516740Y103282D01*
X516683Y103364D01*
X516629Y103448D01*
X516579Y103534D01*
X516532Y103622D01*
X516488Y103712D01*
X516448Y103803D01*
X516412Y103896D01*
X516379Y103990D01*
X516350Y104086D01*
X516325Y104182D01*
X516304Y104279D01*
X516286Y104378D01*
X516273Y104476D01*
X516263Y104576D01*
X516257Y104675D01*
X516255Y104775D01*
X516255Y107315D01*
X522605Y114337D02*
X522605Y118147D01*
X522605Y114337D02*
X522603Y114237D01*
X522597Y114138D01*
X522587Y114038D01*
X522574Y113940D01*
X522556Y113841D01*
X522535Y113744D01*
X522510Y113648D01*
X522481Y113552D01*
X522448Y113458D01*
X522412Y113365D01*
X522372Y113274D01*
X522328Y113184D01*
X522281Y113096D01*
X522231Y113010D01*
X522177Y112926D01*
X522120Y112844D01*
X522060Y112765D01*
X521996Y112687D01*
X521930Y112613D01*
X521861Y112541D01*
X521789Y112472D01*
X521715Y112406D01*
X521637Y112342D01*
X521558Y112282D01*
X521476Y112225D01*
X521392Y112171D01*
X521306Y112121D01*
X521218Y112074D01*
X521128Y112030D01*
X521037Y111990D01*
X520944Y111954D01*
X520850Y111921D01*
X520754Y111892D01*
X520658Y111867D01*
X520561Y111846D01*
X520462Y111828D01*
X520364Y111815D01*
X520264Y111805D01*
X520165Y111799D01*
X520065Y111797D01*
X519430Y111797D01*
X519319Y111799D01*
X519209Y111805D01*
X519098Y111814D01*
X518988Y111828D01*
X518879Y111845D01*
X518770Y111866D01*
X518662Y111891D01*
X518555Y111920D01*
X518449Y111952D01*
X518344Y111988D01*
X518241Y112028D01*
X518139Y112071D01*
X518038Y112118D01*
X517939Y112169D01*
X517843Y112222D01*
X517748Y112279D01*
X517655Y112340D01*
X517564Y112403D01*
X517475Y112470D01*
X517389Y112540D01*
X517306Y112613D01*
X517224Y112688D01*
X517146Y112766D01*
X517071Y112848D01*
X516998Y112931D01*
X516928Y113017D01*
X516861Y113106D01*
X516798Y113197D01*
X516737Y113290D01*
X516680Y113384D01*
X516627Y113481D01*
X516576Y113580D01*
X516529Y113681D01*
X516486Y113783D01*
X516446Y113886D01*
X516410Y113991D01*
X516378Y114097D01*
X516349Y114204D01*
X516324Y114312D01*
X516303Y114421D01*
X516286Y114530D01*
X516272Y114640D01*
X516263Y114751D01*
X516257Y114861D01*
X516255Y114972D01*
X516257Y115083D01*
X516263Y115193D01*
X516272Y115304D01*
X516286Y115414D01*
X516303Y115523D01*
X516324Y115632D01*
X516349Y115740D01*
X516378Y115847D01*
X516410Y115953D01*
X516446Y116058D01*
X516486Y116161D01*
X516529Y116263D01*
X516576Y116364D01*
X516627Y116463D01*
X516680Y116560D01*
X516737Y116654D01*
X516798Y116747D01*
X516861Y116838D01*
X516928Y116927D01*
X516998Y117013D01*
X517071Y117096D01*
X517146Y117178D01*
X517224Y117256D01*
X517306Y117331D01*
X517389Y117404D01*
X517475Y117474D01*
X517564Y117541D01*
X517655Y117604D01*
X517748Y117665D01*
X517843Y117722D01*
X517939Y117775D01*
X518038Y117826D01*
X518139Y117873D01*
X518241Y117916D01*
X518344Y117956D01*
X518449Y117992D01*
X518555Y118024D01*
X518662Y118053D01*
X518770Y118078D01*
X518879Y118099D01*
X518988Y118116D01*
X519098Y118130D01*
X519209Y118139D01*
X519319Y118145D01*
X519430Y118147D01*
X522605Y118147D01*
X522745Y118145D01*
X522885Y118139D01*
X523025Y118130D01*
X523164Y118116D01*
X523303Y118099D01*
X523441Y118078D01*
X523579Y118053D01*
X523716Y118024D01*
X523852Y117992D01*
X523987Y117955D01*
X524121Y117915D01*
X524254Y117872D01*
X524386Y117824D01*
X524517Y117774D01*
X524646Y117719D01*
X524773Y117661D01*
X524899Y117600D01*
X525023Y117535D01*
X525145Y117466D01*
X525265Y117395D01*
X525383Y117320D01*
X525500Y117242D01*
X525614Y117160D01*
X525725Y117076D01*
X525834Y116988D01*
X525941Y116898D01*
X526046Y116804D01*
X526147Y116708D01*
X526246Y116609D01*
X526342Y116508D01*
X526436Y116403D01*
X526526Y116296D01*
X526614Y116187D01*
X526698Y116076D01*
X526780Y115962D01*
X526858Y115845D01*
X526933Y115727D01*
X527004Y115607D01*
X527073Y115485D01*
X527138Y115361D01*
X527199Y115235D01*
X527257Y115108D01*
X527312Y114979D01*
X527362Y114848D01*
X527410Y114716D01*
X527453Y114583D01*
X527493Y114449D01*
X527530Y114314D01*
X527562Y114178D01*
X527591Y114041D01*
X527616Y113903D01*
X527637Y113765D01*
X527654Y113626D01*
X527668Y113487D01*
X527677Y113347D01*
X527683Y113207D01*
X527685Y113067D01*
D10*
X849630Y330200D02*
X953770Y330200D01*
X953770Y488950D02*
X849630Y488950D01*
X953770Y454660D02*
X953770Y330200D01*
X953770Y454660D02*
X944880Y454660D01*
X944880Y469900D01*
X953770Y469900D01*
X953770Y488950D01*
X849630Y454660D02*
X849630Y330200D01*
X849630Y454660D02*
X858520Y454660D01*
X858520Y469900D01*
X849630Y469900D01*
X849630Y488950D01*
D13*
X855980Y336550D02*
X947420Y336550D01*
X947420Y419100D01*
X855980Y419100D01*
X855980Y336550D01*
D10*
X883666Y454660D02*
X883671Y455103D01*
X883688Y455545D01*
X883715Y455987D01*
X883753Y456428D01*
X883802Y456868D01*
X883861Y457306D01*
X883932Y457743D01*
X884013Y458178D01*
X884104Y458611D01*
X884206Y459042D01*
X884319Y459470D01*
X884443Y459895D01*
X884576Y460317D01*
X884720Y460735D01*
X884874Y461150D01*
X885039Y461561D01*
X885213Y461968D01*
X885397Y462371D01*
X885592Y462768D01*
X885795Y463161D01*
X886009Y463549D01*
X886232Y463931D01*
X886464Y464308D01*
X886705Y464679D01*
X886956Y465044D01*
X887215Y465403D01*
X887483Y465755D01*
X887760Y466101D01*
X888044Y466439D01*
X888338Y466771D01*
X888639Y467095D01*
X888948Y467412D01*
X889265Y467721D01*
X889589Y468022D01*
X889921Y468316D01*
X890259Y468600D01*
X890605Y468877D01*
X890957Y469145D01*
X891316Y469404D01*
X891681Y469655D01*
X892052Y469896D01*
X892429Y470128D01*
X892811Y470351D01*
X893199Y470565D01*
X893592Y470768D01*
X893989Y470963D01*
X894392Y471147D01*
X894799Y471321D01*
X895210Y471486D01*
X895625Y471640D01*
X896043Y471784D01*
X896465Y471917D01*
X896890Y472041D01*
X897318Y472154D01*
X897749Y472256D01*
X898182Y472347D01*
X898617Y472428D01*
X899054Y472499D01*
X899492Y472558D01*
X899932Y472607D01*
X900373Y472645D01*
X900815Y472672D01*
X901257Y472689D01*
X901700Y472694D01*
X902143Y472689D01*
X902585Y472672D01*
X903027Y472645D01*
X903468Y472607D01*
X903908Y472558D01*
X904346Y472499D01*
X904783Y472428D01*
X905218Y472347D01*
X905651Y472256D01*
X906082Y472154D01*
X906510Y472041D01*
X906935Y471917D01*
X907357Y471784D01*
X907775Y471640D01*
X908190Y471486D01*
X908601Y471321D01*
X909008Y471147D01*
X909411Y470963D01*
X909808Y470768D01*
X910201Y470565D01*
X910589Y470351D01*
X910971Y470128D01*
X911348Y469896D01*
X911719Y469655D01*
X912084Y469404D01*
X912443Y469145D01*
X912795Y468877D01*
X913141Y468600D01*
X913479Y468316D01*
X913811Y468022D01*
X914135Y467721D01*
X914452Y467412D01*
X914761Y467095D01*
X915062Y466771D01*
X915356Y466439D01*
X915640Y466101D01*
X915917Y465755D01*
X916185Y465403D01*
X916444Y465044D01*
X916695Y464679D01*
X916936Y464308D01*
X917168Y463931D01*
X917391Y463549D01*
X917605Y463161D01*
X917808Y462768D01*
X918003Y462371D01*
X918187Y461968D01*
X918361Y461561D01*
X918526Y461150D01*
X918680Y460735D01*
X918824Y460317D01*
X918957Y459895D01*
X919081Y459470D01*
X919194Y459042D01*
X919296Y458611D01*
X919387Y458178D01*
X919468Y457743D01*
X919539Y457306D01*
X919598Y456868D01*
X919647Y456428D01*
X919685Y455987D01*
X919712Y455545D01*
X919729Y455103D01*
X919734Y454660D01*
X919729Y454217D01*
X919712Y453775D01*
X919685Y453333D01*
X919647Y452892D01*
X919598Y452452D01*
X919539Y452014D01*
X919468Y451577D01*
X919387Y451142D01*
X919296Y450709D01*
X919194Y450278D01*
X919081Y449850D01*
X918957Y449425D01*
X918824Y449003D01*
X918680Y448585D01*
X918526Y448170D01*
X918361Y447759D01*
X918187Y447352D01*
X918003Y446949D01*
X917808Y446552D01*
X917605Y446159D01*
X917391Y445771D01*
X917168Y445389D01*
X916936Y445012D01*
X916695Y444641D01*
X916444Y444276D01*
X916185Y443917D01*
X915917Y443565D01*
X915640Y443219D01*
X915356Y442881D01*
X915062Y442549D01*
X914761Y442225D01*
X914452Y441908D01*
X914135Y441599D01*
X913811Y441298D01*
X913479Y441004D01*
X913141Y440720D01*
X912795Y440443D01*
X912443Y440175D01*
X912084Y439916D01*
X911719Y439665D01*
X911348Y439424D01*
X910971Y439192D01*
X910589Y438969D01*
X910201Y438755D01*
X909808Y438552D01*
X909411Y438357D01*
X909008Y438173D01*
X908601Y437999D01*
X908190Y437834D01*
X907775Y437680D01*
X907357Y437536D01*
X906935Y437403D01*
X906510Y437279D01*
X906082Y437166D01*
X905651Y437064D01*
X905218Y436973D01*
X904783Y436892D01*
X904346Y436821D01*
X903908Y436762D01*
X903468Y436713D01*
X903027Y436675D01*
X902585Y436648D01*
X902143Y436631D01*
X901700Y436626D01*
X901257Y436631D01*
X900815Y436648D01*
X900373Y436675D01*
X899932Y436713D01*
X899492Y436762D01*
X899054Y436821D01*
X898617Y436892D01*
X898182Y436973D01*
X897749Y437064D01*
X897318Y437166D01*
X896890Y437279D01*
X896465Y437403D01*
X896043Y437536D01*
X895625Y437680D01*
X895210Y437834D01*
X894799Y437999D01*
X894392Y438173D01*
X893989Y438357D01*
X893592Y438552D01*
X893199Y438755D01*
X892811Y438969D01*
X892429Y439192D01*
X892052Y439424D01*
X891681Y439665D01*
X891316Y439916D01*
X890957Y440175D01*
X890605Y440443D01*
X890259Y440720D01*
X889921Y441004D01*
X889589Y441298D01*
X889265Y441599D01*
X888948Y441908D01*
X888639Y442225D01*
X888338Y442549D01*
X888044Y442881D01*
X887760Y443219D01*
X887483Y443565D01*
X887215Y443917D01*
X886956Y444276D01*
X886705Y444641D01*
X886464Y445012D01*
X886232Y445389D01*
X886009Y445771D01*
X885795Y446159D01*
X885592Y446552D01*
X885397Y446949D01*
X885213Y447352D01*
X885039Y447759D01*
X884874Y448170D01*
X884720Y448585D01*
X884576Y449003D01*
X884443Y449425D01*
X884319Y449850D01*
X884206Y450278D01*
X884104Y450709D01*
X884013Y451142D01*
X883932Y451577D01*
X883861Y452014D01*
X883802Y452452D01*
X883753Y452892D01*
X883715Y453333D01*
X883688Y453775D01*
X883671Y454217D01*
X883666Y454660D01*
D14*
X927100Y299085D03*
X901700Y299085D03*
X876300Y299085D03*
D15*
X876300Y316230D03*
X901700Y316230D03*
X927100Y316230D03*
D16*
X846201Y299847D02*
X830199Y299847D01*
X846201Y298069D02*
X846201Y301625D01*
X830199Y301625D02*
X830199Y298069D01*
X846201Y311419D02*
X846201Y314975D01*
X846201Y311419D02*
X846199Y311303D01*
X846193Y311186D01*
X846184Y311070D01*
X846171Y310955D01*
X846154Y310840D01*
X846133Y310725D01*
X846108Y310612D01*
X846080Y310499D01*
X846048Y310387D01*
X846012Y310276D01*
X845973Y310166D01*
X845930Y310058D01*
X845884Y309951D01*
X845834Y309846D01*
X845781Y309743D01*
X845725Y309641D01*
X845665Y309541D01*
X845602Y309443D01*
X845535Y309348D01*
X845466Y309254D01*
X845394Y309163D01*
X845319Y309074D01*
X845240Y308988D01*
X845159Y308905D01*
X845076Y308824D01*
X844990Y308745D01*
X844901Y308670D01*
X844810Y308598D01*
X844716Y308529D01*
X844621Y308462D01*
X844523Y308399D01*
X844423Y308339D01*
X844321Y308283D01*
X844218Y308230D01*
X844113Y308180D01*
X844006Y308134D01*
X843898Y308091D01*
X843788Y308052D01*
X843677Y308016D01*
X843565Y307984D01*
X843452Y307956D01*
X843339Y307931D01*
X843224Y307910D01*
X843109Y307893D01*
X842994Y307880D01*
X842878Y307871D01*
X842761Y307865D01*
X842645Y307863D01*
X833755Y307863D01*
X833639Y307865D01*
X833522Y307871D01*
X833406Y307880D01*
X833291Y307893D01*
X833176Y307910D01*
X833061Y307931D01*
X832948Y307956D01*
X832835Y307984D01*
X832723Y308016D01*
X832612Y308052D01*
X832502Y308091D01*
X832394Y308134D01*
X832287Y308180D01*
X832182Y308230D01*
X832079Y308283D01*
X831977Y308339D01*
X831877Y308399D01*
X831779Y308462D01*
X831684Y308529D01*
X831590Y308598D01*
X831499Y308670D01*
X831410Y308745D01*
X831324Y308824D01*
X831241Y308905D01*
X831160Y308988D01*
X831081Y309074D01*
X831006Y309163D01*
X830934Y309254D01*
X830865Y309348D01*
X830798Y309443D01*
X830735Y309541D01*
X830675Y309641D01*
X830619Y309743D01*
X830566Y309846D01*
X830516Y309951D01*
X830470Y310058D01*
X830427Y310166D01*
X830388Y310276D01*
X830352Y310387D01*
X830320Y310499D01*
X830292Y310612D01*
X830267Y310725D01*
X830246Y310840D01*
X830229Y310955D01*
X830216Y311070D01*
X830207Y311186D01*
X830201Y311303D01*
X830199Y311419D01*
X830199Y314975D01*
X833755Y320933D02*
X830199Y325378D01*
X846201Y325378D01*
X846201Y320933D02*
X846201Y329823D01*
D10*
X849630Y241300D02*
X953770Y241300D01*
X953770Y400050D02*
X849630Y400050D01*
X953770Y365760D02*
X953770Y241300D01*
X953770Y365760D02*
X944880Y365760D01*
X944880Y381000D01*
X953770Y381000D01*
X953770Y400050D01*
X849630Y365760D02*
X849630Y241300D01*
X849630Y365760D02*
X858520Y365760D01*
X858520Y381000D01*
X849630Y381000D01*
X849630Y400050D01*
D13*
X855980Y247650D02*
X947420Y247650D01*
X947420Y330200D01*
X855980Y330200D01*
X855980Y247650D01*
D10*
X883666Y365760D02*
X883671Y366203D01*
X883688Y366645D01*
X883715Y367087D01*
X883753Y367528D01*
X883802Y367968D01*
X883861Y368406D01*
X883932Y368843D01*
X884013Y369278D01*
X884104Y369711D01*
X884206Y370142D01*
X884319Y370570D01*
X884443Y370995D01*
X884576Y371417D01*
X884720Y371835D01*
X884874Y372250D01*
X885039Y372661D01*
X885213Y373068D01*
X885397Y373471D01*
X885592Y373868D01*
X885795Y374261D01*
X886009Y374649D01*
X886232Y375031D01*
X886464Y375408D01*
X886705Y375779D01*
X886956Y376144D01*
X887215Y376503D01*
X887483Y376855D01*
X887760Y377201D01*
X888044Y377539D01*
X888338Y377871D01*
X888639Y378195D01*
X888948Y378512D01*
X889265Y378821D01*
X889589Y379122D01*
X889921Y379416D01*
X890259Y379700D01*
X890605Y379977D01*
X890957Y380245D01*
X891316Y380504D01*
X891681Y380755D01*
X892052Y380996D01*
X892429Y381228D01*
X892811Y381451D01*
X893199Y381665D01*
X893592Y381868D01*
X893989Y382063D01*
X894392Y382247D01*
X894799Y382421D01*
X895210Y382586D01*
X895625Y382740D01*
X896043Y382884D01*
X896465Y383017D01*
X896890Y383141D01*
X897318Y383254D01*
X897749Y383356D01*
X898182Y383447D01*
X898617Y383528D01*
X899054Y383599D01*
X899492Y383658D01*
X899932Y383707D01*
X900373Y383745D01*
X900815Y383772D01*
X901257Y383789D01*
X901700Y383794D01*
X902143Y383789D01*
X902585Y383772D01*
X903027Y383745D01*
X903468Y383707D01*
X903908Y383658D01*
X904346Y383599D01*
X904783Y383528D01*
X905218Y383447D01*
X905651Y383356D01*
X906082Y383254D01*
X906510Y383141D01*
X906935Y383017D01*
X907357Y382884D01*
X907775Y382740D01*
X908190Y382586D01*
X908601Y382421D01*
X909008Y382247D01*
X909411Y382063D01*
X909808Y381868D01*
X910201Y381665D01*
X910589Y381451D01*
X910971Y381228D01*
X911348Y380996D01*
X911719Y380755D01*
X912084Y380504D01*
X912443Y380245D01*
X912795Y379977D01*
X913141Y379700D01*
X913479Y379416D01*
X913811Y379122D01*
X914135Y378821D01*
X914452Y378512D01*
X914761Y378195D01*
X915062Y377871D01*
X915356Y377539D01*
X915640Y377201D01*
X915917Y376855D01*
X916185Y376503D01*
X916444Y376144D01*
X916695Y375779D01*
X916936Y375408D01*
X917168Y375031D01*
X917391Y374649D01*
X917605Y374261D01*
X917808Y373868D01*
X918003Y373471D01*
X918187Y373068D01*
X918361Y372661D01*
X918526Y372250D01*
X918680Y371835D01*
X918824Y371417D01*
X918957Y370995D01*
X919081Y370570D01*
X919194Y370142D01*
X919296Y369711D01*
X919387Y369278D01*
X919468Y368843D01*
X919539Y368406D01*
X919598Y367968D01*
X919647Y367528D01*
X919685Y367087D01*
X919712Y366645D01*
X919729Y366203D01*
X919734Y365760D01*
X919729Y365317D01*
X919712Y364875D01*
X919685Y364433D01*
X919647Y363992D01*
X919598Y363552D01*
X919539Y363114D01*
X919468Y362677D01*
X919387Y362242D01*
X919296Y361809D01*
X919194Y361378D01*
X919081Y360950D01*
X918957Y360525D01*
X918824Y360103D01*
X918680Y359685D01*
X918526Y359270D01*
X918361Y358859D01*
X918187Y358452D01*
X918003Y358049D01*
X917808Y357652D01*
X917605Y357259D01*
X917391Y356871D01*
X917168Y356489D01*
X916936Y356112D01*
X916695Y355741D01*
X916444Y355376D01*
X916185Y355017D01*
X915917Y354665D01*
X915640Y354319D01*
X915356Y353981D01*
X915062Y353649D01*
X914761Y353325D01*
X914452Y353008D01*
X914135Y352699D01*
X913811Y352398D01*
X913479Y352104D01*
X913141Y351820D01*
X912795Y351543D01*
X912443Y351275D01*
X912084Y351016D01*
X911719Y350765D01*
X911348Y350524D01*
X910971Y350292D01*
X910589Y350069D01*
X910201Y349855D01*
X909808Y349652D01*
X909411Y349457D01*
X909008Y349273D01*
X908601Y349099D01*
X908190Y348934D01*
X907775Y348780D01*
X907357Y348636D01*
X906935Y348503D01*
X906510Y348379D01*
X906082Y348266D01*
X905651Y348164D01*
X905218Y348073D01*
X904783Y347992D01*
X904346Y347921D01*
X903908Y347862D01*
X903468Y347813D01*
X903027Y347775D01*
X902585Y347748D01*
X902143Y347731D01*
X901700Y347726D01*
X901257Y347731D01*
X900815Y347748D01*
X900373Y347775D01*
X899932Y347813D01*
X899492Y347862D01*
X899054Y347921D01*
X898617Y347992D01*
X898182Y348073D01*
X897749Y348164D01*
X897318Y348266D01*
X896890Y348379D01*
X896465Y348503D01*
X896043Y348636D01*
X895625Y348780D01*
X895210Y348934D01*
X894799Y349099D01*
X894392Y349273D01*
X893989Y349457D01*
X893592Y349652D01*
X893199Y349855D01*
X892811Y350069D01*
X892429Y350292D01*
X892052Y350524D01*
X891681Y350765D01*
X891316Y351016D01*
X890957Y351275D01*
X890605Y351543D01*
X890259Y351820D01*
X889921Y352104D01*
X889589Y352398D01*
X889265Y352699D01*
X888948Y353008D01*
X888639Y353325D01*
X888338Y353649D01*
X888044Y353981D01*
X887760Y354319D01*
X887483Y354665D01*
X887215Y355017D01*
X886956Y355376D01*
X886705Y355741D01*
X886464Y356112D01*
X886232Y356489D01*
X886009Y356871D01*
X885795Y357259D01*
X885592Y357652D01*
X885397Y358049D01*
X885213Y358452D01*
X885039Y358859D01*
X884874Y359270D01*
X884720Y359685D01*
X884576Y360103D01*
X884443Y360525D01*
X884319Y360950D01*
X884206Y361378D01*
X884104Y361809D01*
X884013Y362242D01*
X883932Y362677D01*
X883861Y363114D01*
X883802Y363552D01*
X883753Y363992D01*
X883715Y364433D01*
X883688Y364875D01*
X883671Y365317D01*
X883666Y365760D01*
D14*
X927100Y210185D03*
X901700Y210185D03*
X876300Y210185D03*
D15*
X876300Y227330D03*
X901700Y227330D03*
X927100Y227330D03*
D16*
X846201Y210947D02*
X830199Y210947D01*
X846201Y209169D02*
X846201Y212725D01*
X830199Y212725D02*
X830199Y209169D01*
X846201Y222519D02*
X846201Y226075D01*
X846201Y222519D02*
X846199Y222403D01*
X846193Y222286D01*
X846184Y222170D01*
X846171Y222055D01*
X846154Y221940D01*
X846133Y221825D01*
X846108Y221712D01*
X846080Y221599D01*
X846048Y221487D01*
X846012Y221376D01*
X845973Y221266D01*
X845930Y221158D01*
X845884Y221051D01*
X845834Y220946D01*
X845781Y220843D01*
X845725Y220741D01*
X845665Y220641D01*
X845602Y220543D01*
X845535Y220448D01*
X845466Y220354D01*
X845394Y220263D01*
X845319Y220174D01*
X845240Y220088D01*
X845159Y220005D01*
X845076Y219924D01*
X844990Y219845D01*
X844901Y219770D01*
X844810Y219698D01*
X844716Y219629D01*
X844621Y219562D01*
X844523Y219499D01*
X844423Y219439D01*
X844321Y219383D01*
X844218Y219330D01*
X844113Y219280D01*
X844006Y219234D01*
X843898Y219191D01*
X843788Y219152D01*
X843677Y219116D01*
X843565Y219084D01*
X843452Y219056D01*
X843339Y219031D01*
X843224Y219010D01*
X843109Y218993D01*
X842994Y218980D01*
X842878Y218971D01*
X842761Y218965D01*
X842645Y218963D01*
X833755Y218963D01*
X833639Y218965D01*
X833522Y218971D01*
X833406Y218980D01*
X833291Y218993D01*
X833176Y219010D01*
X833061Y219031D01*
X832948Y219056D01*
X832835Y219084D01*
X832723Y219116D01*
X832612Y219152D01*
X832502Y219191D01*
X832394Y219234D01*
X832287Y219280D01*
X832182Y219330D01*
X832079Y219383D01*
X831977Y219439D01*
X831877Y219499D01*
X831779Y219562D01*
X831684Y219629D01*
X831590Y219698D01*
X831499Y219770D01*
X831410Y219845D01*
X831324Y219924D01*
X831241Y220005D01*
X831160Y220088D01*
X831081Y220174D01*
X831006Y220263D01*
X830934Y220354D01*
X830865Y220448D01*
X830798Y220543D01*
X830735Y220641D01*
X830675Y220741D01*
X830619Y220843D01*
X830566Y220946D01*
X830516Y221051D01*
X830470Y221158D01*
X830427Y221266D01*
X830388Y221376D01*
X830352Y221487D01*
X830320Y221599D01*
X830292Y221712D01*
X830267Y221825D01*
X830246Y221940D01*
X830229Y222055D01*
X830216Y222170D01*
X830207Y222286D01*
X830201Y222403D01*
X830199Y222519D01*
X830199Y226075D01*
X846201Y232033D02*
X846201Y236478D01*
X846199Y236610D01*
X846193Y236741D01*
X846183Y236873D01*
X846170Y237004D01*
X846152Y237134D01*
X846131Y237264D01*
X846106Y237394D01*
X846077Y237522D01*
X846044Y237650D01*
X846007Y237776D01*
X845967Y237902D01*
X845923Y238026D01*
X845875Y238149D01*
X845824Y238270D01*
X845769Y238390D01*
X845711Y238508D01*
X845649Y238624D01*
X845583Y238738D01*
X845515Y238851D01*
X845443Y238961D01*
X845368Y239069D01*
X845289Y239175D01*
X845208Y239279D01*
X845123Y239380D01*
X845036Y239478D01*
X844945Y239574D01*
X844852Y239667D01*
X844756Y239758D01*
X844658Y239845D01*
X844557Y239930D01*
X844453Y240011D01*
X844347Y240090D01*
X844239Y240165D01*
X844129Y240237D01*
X844016Y240305D01*
X843902Y240371D01*
X843786Y240433D01*
X843668Y240491D01*
X843548Y240546D01*
X843427Y240597D01*
X843304Y240645D01*
X843180Y240689D01*
X843054Y240729D01*
X842928Y240766D01*
X842800Y240799D01*
X842672Y240828D01*
X842542Y240853D01*
X842412Y240874D01*
X842282Y240892D01*
X842151Y240905D01*
X842019Y240915D01*
X841888Y240921D01*
X841756Y240923D01*
X841624Y240921D01*
X841493Y240915D01*
X841361Y240905D01*
X841230Y240892D01*
X841100Y240874D01*
X840970Y240853D01*
X840840Y240828D01*
X840712Y240799D01*
X840584Y240766D01*
X840458Y240729D01*
X840332Y240689D01*
X840208Y240645D01*
X840085Y240597D01*
X839964Y240546D01*
X839844Y240491D01*
X839726Y240433D01*
X839610Y240371D01*
X839496Y240305D01*
X839383Y240237D01*
X839273Y240165D01*
X839165Y240090D01*
X839059Y240011D01*
X838955Y239930D01*
X838854Y239845D01*
X838756Y239758D01*
X838660Y239667D01*
X838567Y239574D01*
X838476Y239478D01*
X838389Y239380D01*
X838304Y239279D01*
X838223Y239175D01*
X838144Y239069D01*
X838069Y238961D01*
X837997Y238851D01*
X837929Y238738D01*
X837863Y238624D01*
X837801Y238508D01*
X837743Y238390D01*
X837688Y238270D01*
X837637Y238149D01*
X837589Y238026D01*
X837545Y237902D01*
X837505Y237776D01*
X837468Y237650D01*
X837435Y237522D01*
X837406Y237394D01*
X837381Y237264D01*
X837360Y237134D01*
X837342Y237004D01*
X837329Y236873D01*
X837319Y236741D01*
X837313Y236610D01*
X837311Y236478D01*
X830199Y237367D02*
X830199Y232033D01*
X830199Y237367D02*
X830201Y237485D01*
X830207Y237602D01*
X830216Y237719D01*
X830230Y237836D01*
X830247Y237952D01*
X830269Y238068D01*
X830294Y238183D01*
X830323Y238297D01*
X830355Y238410D01*
X830392Y238522D01*
X830432Y238632D01*
X830475Y238741D01*
X830523Y238849D01*
X830573Y238955D01*
X830628Y239059D01*
X830685Y239162D01*
X830746Y239262D01*
X830811Y239361D01*
X830878Y239457D01*
X830949Y239551D01*
X831023Y239643D01*
X831099Y239732D01*
X831179Y239818D01*
X831261Y239902D01*
X831347Y239983D01*
X831434Y240061D01*
X831525Y240137D01*
X831618Y240209D01*
X831713Y240278D01*
X831810Y240344D01*
X831910Y240407D01*
X832011Y240466D01*
X832114Y240522D01*
X832220Y240574D01*
X832327Y240623D01*
X832435Y240669D01*
X832545Y240711D01*
X832656Y240749D01*
X832769Y240783D01*
X832882Y240814D01*
X832997Y240841D01*
X833112Y240864D01*
X833228Y240884D01*
X833344Y240899D01*
X833461Y240911D01*
X833579Y240919D01*
X833696Y240923D01*
X833814Y240923D01*
X833931Y240919D01*
X834049Y240911D01*
X834166Y240899D01*
X834282Y240884D01*
X834398Y240864D01*
X834513Y240841D01*
X834628Y240814D01*
X834741Y240783D01*
X834854Y240749D01*
X834965Y240711D01*
X835075Y240669D01*
X835183Y240623D01*
X835290Y240574D01*
X835396Y240522D01*
X835499Y240466D01*
X835600Y240407D01*
X835700Y240344D01*
X835797Y240278D01*
X835892Y240209D01*
X835985Y240137D01*
X836076Y240061D01*
X836163Y239983D01*
X836249Y239902D01*
X836331Y239818D01*
X836411Y239732D01*
X836487Y239643D01*
X836561Y239551D01*
X836632Y239457D01*
X836699Y239361D01*
X836764Y239262D01*
X836825Y239162D01*
X836882Y239059D01*
X836937Y238955D01*
X836987Y238849D01*
X837035Y238741D01*
X837078Y238632D01*
X837118Y238522D01*
X837155Y238410D01*
X837187Y238297D01*
X837216Y238183D01*
X837241Y238068D01*
X837263Y237952D01*
X837280Y237836D01*
X837294Y237719D01*
X837303Y237602D01*
X837309Y237485D01*
X837311Y237367D01*
X837311Y233811D01*
D10*
X632460Y72390D02*
X632360Y72388D01*
X632261Y72382D01*
X632161Y72372D01*
X632063Y72359D01*
X631964Y72341D01*
X631867Y72320D01*
X631771Y72295D01*
X631675Y72266D01*
X631581Y72233D01*
X631488Y72197D01*
X631397Y72157D01*
X631307Y72113D01*
X631219Y72066D01*
X631133Y72016D01*
X631049Y71962D01*
X630967Y71905D01*
X630888Y71845D01*
X630810Y71781D01*
X630736Y71715D01*
X630664Y71646D01*
X630595Y71574D01*
X630529Y71500D01*
X630465Y71422D01*
X630405Y71343D01*
X630348Y71261D01*
X630294Y71177D01*
X630244Y71091D01*
X630197Y71003D01*
X630153Y70913D01*
X630113Y70822D01*
X630077Y70729D01*
X630044Y70635D01*
X630015Y70539D01*
X629990Y70443D01*
X629969Y70346D01*
X629951Y70247D01*
X629938Y70149D01*
X629928Y70049D01*
X629922Y69950D01*
X629920Y69850D01*
X629920Y57150D02*
X629922Y57050D01*
X629928Y56951D01*
X629938Y56851D01*
X629951Y56753D01*
X629969Y56654D01*
X629990Y56557D01*
X630015Y56461D01*
X630044Y56365D01*
X630077Y56271D01*
X630113Y56178D01*
X630153Y56087D01*
X630197Y55997D01*
X630244Y55909D01*
X630294Y55823D01*
X630348Y55739D01*
X630405Y55657D01*
X630465Y55578D01*
X630529Y55500D01*
X630595Y55426D01*
X630664Y55354D01*
X630736Y55285D01*
X630810Y55219D01*
X630888Y55155D01*
X630967Y55095D01*
X631049Y55038D01*
X631133Y54984D01*
X631219Y54934D01*
X631307Y54887D01*
X631397Y54843D01*
X631488Y54803D01*
X631581Y54767D01*
X631675Y54734D01*
X631771Y54705D01*
X631867Y54680D01*
X631964Y54659D01*
X632063Y54641D01*
X632161Y54628D01*
X632261Y54618D01*
X632360Y54612D01*
X632460Y54610D01*
X662940Y54610D02*
X663040Y54612D01*
X663139Y54618D01*
X663239Y54628D01*
X663337Y54641D01*
X663436Y54659D01*
X663533Y54680D01*
X663629Y54705D01*
X663725Y54734D01*
X663819Y54767D01*
X663912Y54803D01*
X664003Y54843D01*
X664093Y54887D01*
X664181Y54934D01*
X664267Y54984D01*
X664351Y55038D01*
X664433Y55095D01*
X664512Y55155D01*
X664590Y55219D01*
X664664Y55285D01*
X664736Y55354D01*
X664805Y55426D01*
X664871Y55500D01*
X664935Y55578D01*
X664995Y55657D01*
X665052Y55739D01*
X665106Y55823D01*
X665156Y55909D01*
X665203Y55997D01*
X665247Y56087D01*
X665287Y56178D01*
X665323Y56271D01*
X665356Y56365D01*
X665385Y56461D01*
X665410Y56557D01*
X665431Y56654D01*
X665449Y56753D01*
X665462Y56851D01*
X665472Y56951D01*
X665478Y57050D01*
X665480Y57150D01*
X665480Y69850D02*
X665478Y69950D01*
X665472Y70049D01*
X665462Y70149D01*
X665449Y70247D01*
X665431Y70346D01*
X665410Y70443D01*
X665385Y70539D01*
X665356Y70635D01*
X665323Y70729D01*
X665287Y70822D01*
X665247Y70913D01*
X665203Y71003D01*
X665156Y71091D01*
X665106Y71177D01*
X665052Y71261D01*
X664995Y71343D01*
X664935Y71422D01*
X664871Y71500D01*
X664805Y71574D01*
X664736Y71646D01*
X664664Y71715D01*
X664590Y71781D01*
X664512Y71845D01*
X664433Y71905D01*
X664351Y71962D01*
X664267Y72016D01*
X664181Y72066D01*
X664093Y72113D01*
X664003Y72157D01*
X663912Y72197D01*
X663819Y72233D01*
X663725Y72266D01*
X663629Y72295D01*
X663533Y72320D01*
X663436Y72341D01*
X663337Y72359D01*
X663239Y72372D01*
X663139Y72382D01*
X663040Y72388D01*
X662940Y72390D01*
X635000Y72390D02*
X632460Y72390D01*
X635000Y72390D02*
X636270Y71120D01*
X635000Y54610D02*
X632460Y54610D01*
X635000Y54610D02*
X636270Y55880D01*
X659130Y71120D02*
X660400Y72390D01*
X659130Y71120D02*
X636270Y71120D01*
X659130Y55880D02*
X660400Y54610D01*
X659130Y55880D02*
X636270Y55880D01*
X660400Y72390D02*
X662940Y72390D01*
X662940Y54610D02*
X660400Y54610D01*
D17*
X628142Y75692D02*
X628142Y84582D01*
X630611Y84582D01*
X630709Y84580D01*
X630807Y84574D01*
X630905Y84564D01*
X631002Y84551D01*
X631099Y84533D01*
X631195Y84512D01*
X631289Y84487D01*
X631383Y84458D01*
X631476Y84426D01*
X631567Y84389D01*
X631657Y84350D01*
X631745Y84306D01*
X631831Y84259D01*
X631916Y84209D01*
X631998Y84156D01*
X632078Y84099D01*
X632156Y84039D01*
X632231Y83976D01*
X632304Y83910D01*
X632374Y83841D01*
X632441Y83770D01*
X632506Y83696D01*
X632567Y83619D01*
X632626Y83540D01*
X632681Y83459D01*
X632733Y83376D01*
X632781Y83290D01*
X632826Y83203D01*
X632868Y83114D01*
X632906Y83024D01*
X632940Y82932D01*
X632971Y82839D01*
X632998Y82744D01*
X633021Y82649D01*
X633041Y82552D01*
X633056Y82456D01*
X633068Y82358D01*
X633076Y82260D01*
X633080Y82162D01*
X633080Y82064D01*
X633076Y81966D01*
X633068Y81868D01*
X633056Y81770D01*
X633041Y81674D01*
X633021Y81577D01*
X632998Y81482D01*
X632971Y81387D01*
X632940Y81294D01*
X632906Y81202D01*
X632868Y81112D01*
X632826Y81023D01*
X632781Y80936D01*
X632733Y80850D01*
X632681Y80767D01*
X632626Y80686D01*
X632567Y80607D01*
X632506Y80530D01*
X632441Y80456D01*
X632374Y80385D01*
X632304Y80316D01*
X632231Y80250D01*
X632156Y80187D01*
X632078Y80127D01*
X631998Y80070D01*
X631916Y80017D01*
X631831Y79967D01*
X631745Y79920D01*
X631657Y79876D01*
X631567Y79837D01*
X631476Y79800D01*
X631383Y79768D01*
X631289Y79739D01*
X631195Y79714D01*
X631099Y79693D01*
X631002Y79675D01*
X630905Y79662D01*
X630807Y79652D01*
X630709Y79646D01*
X630611Y79644D01*
X630611Y79643D02*
X628142Y79643D01*
X631105Y79643D02*
X633081Y75692D01*
X636992Y82606D02*
X639461Y84582D01*
X639461Y75692D01*
X636992Y75692D02*
X641931Y75692D01*
D18*
X107470Y475726D02*
X19530Y475726D01*
X19530Y209616D02*
X107470Y209616D01*
X107470Y374999D02*
X107470Y400343D01*
X19530Y400343D02*
X19530Y375076D01*
X19530Y310495D02*
X19530Y285076D01*
X107470Y284999D02*
X107470Y310343D01*
D17*
X126092Y448822D02*
X114408Y456611D01*
X114408Y448822D02*
X126092Y456611D01*
X117004Y460901D02*
X114408Y464146D01*
X126092Y464146D01*
X126092Y460901D02*
X126092Y467392D01*
D10*
X849630Y152400D02*
X953770Y152400D01*
X953770Y311150D02*
X849630Y311150D01*
X953770Y276860D02*
X953770Y152400D01*
X953770Y276860D02*
X944880Y276860D01*
X944880Y292100D01*
X953770Y292100D01*
X953770Y311150D01*
X849630Y276860D02*
X849630Y152400D01*
X849630Y276860D02*
X858520Y276860D01*
X858520Y292100D01*
X849630Y292100D01*
X849630Y311150D01*
D13*
X855980Y158750D02*
X947420Y158750D01*
X947420Y241300D01*
X855980Y241300D01*
X855980Y158750D01*
D10*
X883666Y276860D02*
X883671Y277303D01*
X883688Y277745D01*
X883715Y278187D01*
X883753Y278628D01*
X883802Y279068D01*
X883861Y279506D01*
X883932Y279943D01*
X884013Y280378D01*
X884104Y280811D01*
X884206Y281242D01*
X884319Y281670D01*
X884443Y282095D01*
X884576Y282517D01*
X884720Y282935D01*
X884874Y283350D01*
X885039Y283761D01*
X885213Y284168D01*
X885397Y284571D01*
X885592Y284968D01*
X885795Y285361D01*
X886009Y285749D01*
X886232Y286131D01*
X886464Y286508D01*
X886705Y286879D01*
X886956Y287244D01*
X887215Y287603D01*
X887483Y287955D01*
X887760Y288301D01*
X888044Y288639D01*
X888338Y288971D01*
X888639Y289295D01*
X888948Y289612D01*
X889265Y289921D01*
X889589Y290222D01*
X889921Y290516D01*
X890259Y290800D01*
X890605Y291077D01*
X890957Y291345D01*
X891316Y291604D01*
X891681Y291855D01*
X892052Y292096D01*
X892429Y292328D01*
X892811Y292551D01*
X893199Y292765D01*
X893592Y292968D01*
X893989Y293163D01*
X894392Y293347D01*
X894799Y293521D01*
X895210Y293686D01*
X895625Y293840D01*
X896043Y293984D01*
X896465Y294117D01*
X896890Y294241D01*
X897318Y294354D01*
X897749Y294456D01*
X898182Y294547D01*
X898617Y294628D01*
X899054Y294699D01*
X899492Y294758D01*
X899932Y294807D01*
X900373Y294845D01*
X900815Y294872D01*
X901257Y294889D01*
X901700Y294894D01*
X902143Y294889D01*
X902585Y294872D01*
X903027Y294845D01*
X903468Y294807D01*
X903908Y294758D01*
X904346Y294699D01*
X904783Y294628D01*
X905218Y294547D01*
X905651Y294456D01*
X906082Y294354D01*
X906510Y294241D01*
X906935Y294117D01*
X907357Y293984D01*
X907775Y293840D01*
X908190Y293686D01*
X908601Y293521D01*
X909008Y293347D01*
X909411Y293163D01*
X909808Y292968D01*
X910201Y292765D01*
X910589Y292551D01*
X910971Y292328D01*
X911348Y292096D01*
X911719Y291855D01*
X912084Y291604D01*
X912443Y291345D01*
X912795Y291077D01*
X913141Y290800D01*
X913479Y290516D01*
X913811Y290222D01*
X914135Y289921D01*
X914452Y289612D01*
X914761Y289295D01*
X915062Y288971D01*
X915356Y288639D01*
X915640Y288301D01*
X915917Y287955D01*
X916185Y287603D01*
X916444Y287244D01*
X916695Y286879D01*
X916936Y286508D01*
X917168Y286131D01*
X917391Y285749D01*
X917605Y285361D01*
X917808Y284968D01*
X918003Y284571D01*
X918187Y284168D01*
X918361Y283761D01*
X918526Y283350D01*
X918680Y282935D01*
X918824Y282517D01*
X918957Y282095D01*
X919081Y281670D01*
X919194Y281242D01*
X919296Y280811D01*
X919387Y280378D01*
X919468Y279943D01*
X919539Y279506D01*
X919598Y279068D01*
X919647Y278628D01*
X919685Y278187D01*
X919712Y277745D01*
X919729Y277303D01*
X919734Y276860D01*
X919729Y276417D01*
X919712Y275975D01*
X919685Y275533D01*
X919647Y275092D01*
X919598Y274652D01*
X919539Y274214D01*
X919468Y273777D01*
X919387Y273342D01*
X919296Y272909D01*
X919194Y272478D01*
X919081Y272050D01*
X918957Y271625D01*
X918824Y271203D01*
X918680Y270785D01*
X918526Y270370D01*
X918361Y269959D01*
X918187Y269552D01*
X918003Y269149D01*
X917808Y268752D01*
X917605Y268359D01*
X917391Y267971D01*
X917168Y267589D01*
X916936Y267212D01*
X916695Y266841D01*
X916444Y266476D01*
X916185Y266117D01*
X915917Y265765D01*
X915640Y265419D01*
X915356Y265081D01*
X915062Y264749D01*
X914761Y264425D01*
X914452Y264108D01*
X914135Y263799D01*
X913811Y263498D01*
X913479Y263204D01*
X913141Y262920D01*
X912795Y262643D01*
X912443Y262375D01*
X912084Y262116D01*
X911719Y261865D01*
X911348Y261624D01*
X910971Y261392D01*
X910589Y261169D01*
X910201Y260955D01*
X909808Y260752D01*
X909411Y260557D01*
X909008Y260373D01*
X908601Y260199D01*
X908190Y260034D01*
X907775Y259880D01*
X907357Y259736D01*
X906935Y259603D01*
X906510Y259479D01*
X906082Y259366D01*
X905651Y259264D01*
X905218Y259173D01*
X904783Y259092D01*
X904346Y259021D01*
X903908Y258962D01*
X903468Y258913D01*
X903027Y258875D01*
X902585Y258848D01*
X902143Y258831D01*
X901700Y258826D01*
X901257Y258831D01*
X900815Y258848D01*
X900373Y258875D01*
X899932Y258913D01*
X899492Y258962D01*
X899054Y259021D01*
X898617Y259092D01*
X898182Y259173D01*
X897749Y259264D01*
X897318Y259366D01*
X896890Y259479D01*
X896465Y259603D01*
X896043Y259736D01*
X895625Y259880D01*
X895210Y260034D01*
X894799Y260199D01*
X894392Y260373D01*
X893989Y260557D01*
X893592Y260752D01*
X893199Y260955D01*
X892811Y261169D01*
X892429Y261392D01*
X892052Y261624D01*
X891681Y261865D01*
X891316Y262116D01*
X890957Y262375D01*
X890605Y262643D01*
X890259Y262920D01*
X889921Y263204D01*
X889589Y263498D01*
X889265Y263799D01*
X888948Y264108D01*
X888639Y264425D01*
X888338Y264749D01*
X888044Y265081D01*
X887760Y265419D01*
X887483Y265765D01*
X887215Y266117D01*
X886956Y266476D01*
X886705Y266841D01*
X886464Y267212D01*
X886232Y267589D01*
X886009Y267971D01*
X885795Y268359D01*
X885592Y268752D01*
X885397Y269149D01*
X885213Y269552D01*
X885039Y269959D01*
X884874Y270370D01*
X884720Y270785D01*
X884576Y271203D01*
X884443Y271625D01*
X884319Y272050D01*
X884206Y272478D01*
X884104Y272909D01*
X884013Y273342D01*
X883932Y273777D01*
X883861Y274214D01*
X883802Y274652D01*
X883753Y275092D01*
X883715Y275533D01*
X883688Y275975D01*
X883671Y276417D01*
X883666Y276860D01*
D14*
X927100Y121285D03*
X901700Y121285D03*
X876300Y121285D03*
D15*
X876300Y138430D03*
X901700Y138430D03*
X927100Y138430D03*
D16*
X846201Y122047D02*
X830199Y122047D01*
X846201Y120269D02*
X846201Y123825D01*
X830199Y123825D02*
X830199Y120269D01*
X846201Y133619D02*
X846201Y137175D01*
X846201Y133619D02*
X846199Y133503D01*
X846193Y133386D01*
X846184Y133270D01*
X846171Y133155D01*
X846154Y133040D01*
X846133Y132925D01*
X846108Y132812D01*
X846080Y132699D01*
X846048Y132587D01*
X846012Y132476D01*
X845973Y132366D01*
X845930Y132258D01*
X845884Y132151D01*
X845834Y132046D01*
X845781Y131943D01*
X845725Y131841D01*
X845665Y131741D01*
X845602Y131643D01*
X845535Y131548D01*
X845466Y131454D01*
X845394Y131363D01*
X845319Y131274D01*
X845240Y131188D01*
X845159Y131105D01*
X845076Y131024D01*
X844990Y130945D01*
X844901Y130870D01*
X844810Y130798D01*
X844716Y130729D01*
X844621Y130662D01*
X844523Y130599D01*
X844423Y130539D01*
X844321Y130483D01*
X844218Y130430D01*
X844113Y130380D01*
X844006Y130334D01*
X843898Y130291D01*
X843788Y130252D01*
X843677Y130216D01*
X843565Y130184D01*
X843452Y130156D01*
X843339Y130131D01*
X843224Y130110D01*
X843109Y130093D01*
X842994Y130080D01*
X842878Y130071D01*
X842761Y130065D01*
X842645Y130063D01*
X833755Y130063D01*
X833639Y130065D01*
X833522Y130071D01*
X833406Y130080D01*
X833291Y130093D01*
X833176Y130110D01*
X833061Y130131D01*
X832948Y130156D01*
X832835Y130184D01*
X832723Y130216D01*
X832612Y130252D01*
X832502Y130291D01*
X832394Y130334D01*
X832287Y130380D01*
X832182Y130430D01*
X832079Y130483D01*
X831977Y130539D01*
X831877Y130599D01*
X831779Y130662D01*
X831684Y130729D01*
X831590Y130798D01*
X831499Y130870D01*
X831410Y130945D01*
X831324Y131024D01*
X831241Y131105D01*
X831160Y131188D01*
X831081Y131274D01*
X831006Y131363D01*
X830934Y131454D01*
X830865Y131548D01*
X830798Y131643D01*
X830735Y131741D01*
X830675Y131841D01*
X830619Y131943D01*
X830566Y132046D01*
X830516Y132151D01*
X830470Y132258D01*
X830427Y132366D01*
X830388Y132476D01*
X830352Y132587D01*
X830320Y132699D01*
X830292Y132812D01*
X830267Y132925D01*
X830246Y133040D01*
X830229Y133155D01*
X830216Y133270D01*
X830207Y133386D01*
X830201Y133503D01*
X830199Y133619D01*
X830199Y137175D01*
X830199Y146689D02*
X842645Y143133D01*
X842645Y152023D01*
X839089Y149356D02*
X846201Y149356D01*
D10*
X849630Y419100D02*
X953770Y419100D01*
X953770Y577850D02*
X849630Y577850D01*
X953770Y543560D02*
X953770Y419100D01*
X953770Y543560D02*
X944880Y543560D01*
X944880Y558800D01*
X953770Y558800D01*
X953770Y577850D01*
X849630Y543560D02*
X849630Y419100D01*
X849630Y543560D02*
X858520Y543560D01*
X858520Y558800D01*
X849630Y558800D01*
X849630Y577850D01*
D13*
X855980Y425450D02*
X947420Y425450D01*
X947420Y508000D01*
X855980Y508000D01*
X855980Y425450D01*
D10*
X883666Y543560D02*
X883671Y544003D01*
X883688Y544445D01*
X883715Y544887D01*
X883753Y545328D01*
X883802Y545768D01*
X883861Y546206D01*
X883932Y546643D01*
X884013Y547078D01*
X884104Y547511D01*
X884206Y547942D01*
X884319Y548370D01*
X884443Y548795D01*
X884576Y549217D01*
X884720Y549635D01*
X884874Y550050D01*
X885039Y550461D01*
X885213Y550868D01*
X885397Y551271D01*
X885592Y551668D01*
X885795Y552061D01*
X886009Y552449D01*
X886232Y552831D01*
X886464Y553208D01*
X886705Y553579D01*
X886956Y553944D01*
X887215Y554303D01*
X887483Y554655D01*
X887760Y555001D01*
X888044Y555339D01*
X888338Y555671D01*
X888639Y555995D01*
X888948Y556312D01*
X889265Y556621D01*
X889589Y556922D01*
X889921Y557216D01*
X890259Y557500D01*
X890605Y557777D01*
X890957Y558045D01*
X891316Y558304D01*
X891681Y558555D01*
X892052Y558796D01*
X892429Y559028D01*
X892811Y559251D01*
X893199Y559465D01*
X893592Y559668D01*
X893989Y559863D01*
X894392Y560047D01*
X894799Y560221D01*
X895210Y560386D01*
X895625Y560540D01*
X896043Y560684D01*
X896465Y560817D01*
X896890Y560941D01*
X897318Y561054D01*
X897749Y561156D01*
X898182Y561247D01*
X898617Y561328D01*
X899054Y561399D01*
X899492Y561458D01*
X899932Y561507D01*
X900373Y561545D01*
X900815Y561572D01*
X901257Y561589D01*
X901700Y561594D01*
X902143Y561589D01*
X902585Y561572D01*
X903027Y561545D01*
X903468Y561507D01*
X903908Y561458D01*
X904346Y561399D01*
X904783Y561328D01*
X905218Y561247D01*
X905651Y561156D01*
X906082Y561054D01*
X906510Y560941D01*
X906935Y560817D01*
X907357Y560684D01*
X907775Y560540D01*
X908190Y560386D01*
X908601Y560221D01*
X909008Y560047D01*
X909411Y559863D01*
X909808Y559668D01*
X910201Y559465D01*
X910589Y559251D01*
X910971Y559028D01*
X911348Y558796D01*
X911719Y558555D01*
X912084Y558304D01*
X912443Y558045D01*
X912795Y557777D01*
X913141Y557500D01*
X913479Y557216D01*
X913811Y556922D01*
X914135Y556621D01*
X914452Y556312D01*
X914761Y555995D01*
X915062Y555671D01*
X915356Y555339D01*
X915640Y555001D01*
X915917Y554655D01*
X916185Y554303D01*
X916444Y553944D01*
X916695Y553579D01*
X916936Y553208D01*
X917168Y552831D01*
X917391Y552449D01*
X917605Y552061D01*
X917808Y551668D01*
X918003Y551271D01*
X918187Y550868D01*
X918361Y550461D01*
X918526Y550050D01*
X918680Y549635D01*
X918824Y549217D01*
X918957Y548795D01*
X919081Y548370D01*
X919194Y547942D01*
X919296Y547511D01*
X919387Y547078D01*
X919468Y546643D01*
X919539Y546206D01*
X919598Y545768D01*
X919647Y545328D01*
X919685Y544887D01*
X919712Y544445D01*
X919729Y544003D01*
X919734Y543560D01*
X919729Y543117D01*
X919712Y542675D01*
X919685Y542233D01*
X919647Y541792D01*
X919598Y541352D01*
X919539Y540914D01*
X919468Y540477D01*
X919387Y540042D01*
X919296Y539609D01*
X919194Y539178D01*
X919081Y538750D01*
X918957Y538325D01*
X918824Y537903D01*
X918680Y537485D01*
X918526Y537070D01*
X918361Y536659D01*
X918187Y536252D01*
X918003Y535849D01*
X917808Y535452D01*
X917605Y535059D01*
X917391Y534671D01*
X917168Y534289D01*
X916936Y533912D01*
X916695Y533541D01*
X916444Y533176D01*
X916185Y532817D01*
X915917Y532465D01*
X915640Y532119D01*
X915356Y531781D01*
X915062Y531449D01*
X914761Y531125D01*
X914452Y530808D01*
X914135Y530499D01*
X913811Y530198D01*
X913479Y529904D01*
X913141Y529620D01*
X912795Y529343D01*
X912443Y529075D01*
X912084Y528816D01*
X911719Y528565D01*
X911348Y528324D01*
X910971Y528092D01*
X910589Y527869D01*
X910201Y527655D01*
X909808Y527452D01*
X909411Y527257D01*
X909008Y527073D01*
X908601Y526899D01*
X908190Y526734D01*
X907775Y526580D01*
X907357Y526436D01*
X906935Y526303D01*
X906510Y526179D01*
X906082Y526066D01*
X905651Y525964D01*
X905218Y525873D01*
X904783Y525792D01*
X904346Y525721D01*
X903908Y525662D01*
X903468Y525613D01*
X903027Y525575D01*
X902585Y525548D01*
X902143Y525531D01*
X901700Y525526D01*
X901257Y525531D01*
X900815Y525548D01*
X900373Y525575D01*
X899932Y525613D01*
X899492Y525662D01*
X899054Y525721D01*
X898617Y525792D01*
X898182Y525873D01*
X897749Y525964D01*
X897318Y526066D01*
X896890Y526179D01*
X896465Y526303D01*
X896043Y526436D01*
X895625Y526580D01*
X895210Y526734D01*
X894799Y526899D01*
X894392Y527073D01*
X893989Y527257D01*
X893592Y527452D01*
X893199Y527655D01*
X892811Y527869D01*
X892429Y528092D01*
X892052Y528324D01*
X891681Y528565D01*
X891316Y528816D01*
X890957Y529075D01*
X890605Y529343D01*
X890259Y529620D01*
X889921Y529904D01*
X889589Y530198D01*
X889265Y530499D01*
X888948Y530808D01*
X888639Y531125D01*
X888338Y531449D01*
X888044Y531781D01*
X887760Y532119D01*
X887483Y532465D01*
X887215Y532817D01*
X886956Y533176D01*
X886705Y533541D01*
X886464Y533912D01*
X886232Y534289D01*
X886009Y534671D01*
X885795Y535059D01*
X885592Y535452D01*
X885397Y535849D01*
X885213Y536252D01*
X885039Y536659D01*
X884874Y537070D01*
X884720Y537485D01*
X884576Y537903D01*
X884443Y538325D01*
X884319Y538750D01*
X884206Y539178D01*
X884104Y539609D01*
X884013Y540042D01*
X883932Y540477D01*
X883861Y540914D01*
X883802Y541352D01*
X883753Y541792D01*
X883715Y542233D01*
X883688Y542675D01*
X883671Y543117D01*
X883666Y543560D01*
D14*
X927100Y387985D03*
X901700Y387985D03*
X876300Y387985D03*
D15*
X876300Y405130D03*
X901700Y405130D03*
X927100Y405130D03*
D16*
X846201Y388747D02*
X830199Y388747D01*
X846201Y386969D02*
X846201Y390525D01*
X830199Y390525D02*
X830199Y386969D01*
X846201Y400319D02*
X846201Y403875D01*
X846201Y400319D02*
X846199Y400203D01*
X846193Y400086D01*
X846184Y399970D01*
X846171Y399855D01*
X846154Y399740D01*
X846133Y399625D01*
X846108Y399512D01*
X846080Y399399D01*
X846048Y399287D01*
X846012Y399176D01*
X845973Y399066D01*
X845930Y398958D01*
X845884Y398851D01*
X845834Y398746D01*
X845781Y398643D01*
X845725Y398541D01*
X845665Y398441D01*
X845602Y398343D01*
X845535Y398248D01*
X845466Y398154D01*
X845394Y398063D01*
X845319Y397974D01*
X845240Y397888D01*
X845159Y397805D01*
X845076Y397724D01*
X844990Y397645D01*
X844901Y397570D01*
X844810Y397498D01*
X844716Y397429D01*
X844621Y397362D01*
X844523Y397299D01*
X844423Y397239D01*
X844321Y397183D01*
X844218Y397130D01*
X844113Y397080D01*
X844006Y397034D01*
X843898Y396991D01*
X843788Y396952D01*
X843677Y396916D01*
X843565Y396884D01*
X843452Y396856D01*
X843339Y396831D01*
X843224Y396810D01*
X843109Y396793D01*
X842994Y396780D01*
X842878Y396771D01*
X842761Y396765D01*
X842645Y396763D01*
X833755Y396763D01*
X833639Y396765D01*
X833522Y396771D01*
X833406Y396780D01*
X833291Y396793D01*
X833176Y396810D01*
X833061Y396831D01*
X832948Y396856D01*
X832835Y396884D01*
X832723Y396916D01*
X832612Y396952D01*
X832502Y396991D01*
X832394Y397034D01*
X832287Y397080D01*
X832182Y397130D01*
X832079Y397183D01*
X831977Y397239D01*
X831877Y397299D01*
X831779Y397362D01*
X831684Y397429D01*
X831590Y397498D01*
X831499Y397570D01*
X831410Y397645D01*
X831324Y397724D01*
X831241Y397805D01*
X831160Y397888D01*
X831081Y397974D01*
X831006Y398063D01*
X830934Y398154D01*
X830865Y398248D01*
X830798Y398343D01*
X830735Y398441D01*
X830675Y398541D01*
X830619Y398643D01*
X830566Y398746D01*
X830516Y398851D01*
X830470Y398958D01*
X830427Y399066D01*
X830388Y399176D01*
X830352Y399287D01*
X830320Y399399D01*
X830292Y399512D01*
X830267Y399625D01*
X830246Y399740D01*
X830229Y399855D01*
X830216Y399970D01*
X830207Y400086D01*
X830201Y400203D01*
X830199Y400319D01*
X830199Y403875D01*
X846201Y409833D02*
X846201Y415167D01*
X846199Y415283D01*
X846193Y415400D01*
X846184Y415516D01*
X846171Y415631D01*
X846154Y415746D01*
X846133Y415861D01*
X846108Y415974D01*
X846080Y416087D01*
X846048Y416199D01*
X846012Y416310D01*
X845973Y416420D01*
X845930Y416528D01*
X845884Y416635D01*
X845834Y416740D01*
X845781Y416843D01*
X845725Y416945D01*
X845665Y417045D01*
X845602Y417143D01*
X845535Y417238D01*
X845466Y417332D01*
X845394Y417423D01*
X845319Y417512D01*
X845240Y417598D01*
X845159Y417681D01*
X845076Y417762D01*
X844990Y417841D01*
X844901Y417916D01*
X844810Y417988D01*
X844716Y418057D01*
X844621Y418124D01*
X844523Y418187D01*
X844423Y418247D01*
X844321Y418303D01*
X844218Y418356D01*
X844113Y418406D01*
X844006Y418452D01*
X843898Y418495D01*
X843788Y418534D01*
X843677Y418570D01*
X843565Y418602D01*
X843452Y418630D01*
X843339Y418655D01*
X843224Y418676D01*
X843109Y418693D01*
X842994Y418706D01*
X842878Y418715D01*
X842761Y418721D01*
X842645Y418723D01*
X840867Y418723D01*
X840751Y418721D01*
X840634Y418715D01*
X840518Y418706D01*
X840403Y418693D01*
X840288Y418676D01*
X840173Y418655D01*
X840060Y418630D01*
X839947Y418602D01*
X839835Y418570D01*
X839724Y418534D01*
X839614Y418495D01*
X839506Y418452D01*
X839399Y418406D01*
X839294Y418356D01*
X839191Y418303D01*
X839089Y418247D01*
X838989Y418187D01*
X838891Y418124D01*
X838796Y418057D01*
X838702Y417988D01*
X838611Y417916D01*
X838522Y417841D01*
X838436Y417762D01*
X838353Y417681D01*
X838272Y417598D01*
X838193Y417512D01*
X838118Y417423D01*
X838046Y417332D01*
X837977Y417238D01*
X837910Y417143D01*
X837847Y417045D01*
X837787Y416945D01*
X837731Y416843D01*
X837678Y416740D01*
X837628Y416635D01*
X837582Y416528D01*
X837539Y416420D01*
X837500Y416310D01*
X837464Y416199D01*
X837432Y416087D01*
X837404Y415974D01*
X837379Y415861D01*
X837358Y415746D01*
X837341Y415631D01*
X837328Y415516D01*
X837319Y415400D01*
X837313Y415283D01*
X837311Y415167D01*
X837311Y409833D01*
X830199Y409833D01*
X830199Y418723D01*
D10*
X1028700Y122428D02*
X1028700Y111760D01*
D12*
X1028700Y122428D02*
X1021080Y122428D01*
X1028700Y122428D02*
X1036320Y122428D01*
X1028700Y131318D02*
X1021080Y131318D01*
D10*
X1028700Y131318D02*
X1028700Y142240D01*
D12*
X1028700Y131318D02*
X1036320Y131318D01*
D10*
X1062990Y90170D02*
X994410Y90170D01*
X1065530Y92710D02*
X1065530Y161290D01*
X1062990Y163830D02*
X994410Y163830D01*
X991870Y161290D02*
X991870Y92710D01*
X991870Y161290D02*
X991872Y161390D01*
X991878Y161489D01*
X991888Y161589D01*
X991901Y161687D01*
X991919Y161786D01*
X991940Y161883D01*
X991965Y161979D01*
X991994Y162075D01*
X992027Y162169D01*
X992063Y162262D01*
X992103Y162353D01*
X992147Y162443D01*
X992194Y162531D01*
X992244Y162617D01*
X992298Y162701D01*
X992355Y162783D01*
X992415Y162862D01*
X992479Y162940D01*
X992545Y163014D01*
X992614Y163086D01*
X992686Y163155D01*
X992760Y163221D01*
X992838Y163285D01*
X992917Y163345D01*
X992999Y163402D01*
X993083Y163456D01*
X993169Y163506D01*
X993257Y163553D01*
X993347Y163597D01*
X993438Y163637D01*
X993531Y163673D01*
X993625Y163706D01*
X993721Y163735D01*
X993817Y163760D01*
X993914Y163781D01*
X994013Y163799D01*
X994111Y163812D01*
X994211Y163822D01*
X994310Y163828D01*
X994410Y163830D01*
X1062990Y163830D02*
X1063090Y163828D01*
X1063189Y163822D01*
X1063289Y163812D01*
X1063387Y163799D01*
X1063486Y163781D01*
X1063583Y163760D01*
X1063679Y163735D01*
X1063775Y163706D01*
X1063869Y163673D01*
X1063962Y163637D01*
X1064053Y163597D01*
X1064143Y163553D01*
X1064231Y163506D01*
X1064317Y163456D01*
X1064401Y163402D01*
X1064483Y163345D01*
X1064562Y163285D01*
X1064640Y163221D01*
X1064714Y163155D01*
X1064786Y163086D01*
X1064855Y163014D01*
X1064921Y162940D01*
X1064985Y162862D01*
X1065045Y162783D01*
X1065102Y162701D01*
X1065156Y162617D01*
X1065206Y162531D01*
X1065253Y162443D01*
X1065297Y162353D01*
X1065337Y162262D01*
X1065373Y162169D01*
X1065406Y162075D01*
X1065435Y161979D01*
X1065460Y161883D01*
X1065481Y161786D01*
X1065499Y161687D01*
X1065512Y161589D01*
X1065522Y161489D01*
X1065528Y161390D01*
X1065530Y161290D01*
X1065530Y92710D02*
X1065528Y92610D01*
X1065522Y92511D01*
X1065512Y92411D01*
X1065499Y92313D01*
X1065481Y92214D01*
X1065460Y92117D01*
X1065435Y92021D01*
X1065406Y91925D01*
X1065373Y91831D01*
X1065337Y91738D01*
X1065297Y91647D01*
X1065253Y91557D01*
X1065206Y91469D01*
X1065156Y91383D01*
X1065102Y91299D01*
X1065045Y91217D01*
X1064985Y91138D01*
X1064921Y91060D01*
X1064855Y90986D01*
X1064786Y90914D01*
X1064714Y90845D01*
X1064640Y90779D01*
X1064562Y90715D01*
X1064483Y90655D01*
X1064401Y90598D01*
X1064317Y90544D01*
X1064231Y90494D01*
X1064143Y90447D01*
X1064053Y90403D01*
X1063962Y90363D01*
X1063869Y90327D01*
X1063775Y90294D01*
X1063679Y90265D01*
X1063583Y90240D01*
X1063486Y90219D01*
X1063387Y90201D01*
X1063289Y90188D01*
X1063189Y90178D01*
X1063090Y90172D01*
X1062990Y90170D01*
X994410Y90170D02*
X994310Y90172D01*
X994211Y90178D01*
X994111Y90188D01*
X994013Y90201D01*
X993914Y90219D01*
X993817Y90240D01*
X993721Y90265D01*
X993625Y90294D01*
X993531Y90327D01*
X993438Y90363D01*
X993347Y90403D01*
X993257Y90447D01*
X993169Y90494D01*
X993083Y90544D01*
X992999Y90598D01*
X992917Y90655D01*
X992838Y90715D01*
X992760Y90779D01*
X992686Y90845D01*
X992614Y90914D01*
X992545Y90986D01*
X992479Y91060D01*
X992415Y91138D01*
X992355Y91217D01*
X992298Y91299D01*
X992244Y91383D01*
X992194Y91469D01*
X992147Y91557D01*
X992103Y91647D01*
X992063Y91738D01*
X992027Y91831D01*
X991994Y91925D01*
X991965Y92021D01*
X991940Y92117D01*
X991919Y92214D01*
X991901Y92313D01*
X991888Y92411D01*
X991878Y92511D01*
X991872Y92610D01*
X991870Y92710D01*
D11*
X987425Y104775D02*
X987425Y107315D01*
X987425Y104775D02*
X987423Y104675D01*
X987417Y104576D01*
X987407Y104476D01*
X987394Y104378D01*
X987376Y104279D01*
X987355Y104182D01*
X987330Y104086D01*
X987301Y103990D01*
X987268Y103896D01*
X987232Y103803D01*
X987192Y103712D01*
X987148Y103622D01*
X987101Y103534D01*
X987051Y103448D01*
X986997Y103364D01*
X986940Y103282D01*
X986880Y103203D01*
X986816Y103125D01*
X986750Y103051D01*
X986681Y102979D01*
X986609Y102910D01*
X986535Y102844D01*
X986457Y102780D01*
X986378Y102720D01*
X986296Y102663D01*
X986212Y102609D01*
X986126Y102559D01*
X986038Y102512D01*
X985948Y102468D01*
X985857Y102428D01*
X985764Y102392D01*
X985670Y102359D01*
X985574Y102330D01*
X985478Y102305D01*
X985381Y102284D01*
X985282Y102266D01*
X985184Y102253D01*
X985084Y102243D01*
X984985Y102237D01*
X984885Y102235D01*
X978535Y102235D01*
X978435Y102237D01*
X978336Y102243D01*
X978236Y102253D01*
X978138Y102266D01*
X978039Y102284D01*
X977942Y102305D01*
X977846Y102330D01*
X977750Y102359D01*
X977656Y102392D01*
X977563Y102428D01*
X977472Y102468D01*
X977382Y102512D01*
X977294Y102559D01*
X977208Y102609D01*
X977124Y102663D01*
X977042Y102720D01*
X976963Y102780D01*
X976885Y102844D01*
X976811Y102910D01*
X976739Y102979D01*
X976670Y103051D01*
X976604Y103125D01*
X976540Y103203D01*
X976480Y103282D01*
X976423Y103364D01*
X976369Y103448D01*
X976319Y103534D01*
X976272Y103622D01*
X976228Y103712D01*
X976188Y103803D01*
X976152Y103896D01*
X976119Y103990D01*
X976090Y104086D01*
X976065Y104182D01*
X976044Y104279D01*
X976026Y104378D01*
X976013Y104476D01*
X976003Y104576D01*
X975997Y104675D01*
X975995Y104775D01*
X975995Y107315D01*
X978535Y111797D02*
X975995Y114972D01*
X987425Y114972D01*
X987425Y111797D02*
X987425Y118147D01*
X981710Y123228D02*
X981485Y123231D01*
X981260Y123239D01*
X981036Y123252D01*
X980812Y123271D01*
X980588Y123295D01*
X980365Y123324D01*
X980143Y123359D01*
X979922Y123399D01*
X979702Y123445D01*
X979483Y123495D01*
X979265Y123551D01*
X979048Y123612D01*
X978833Y123678D01*
X978620Y123749D01*
X978409Y123826D01*
X978199Y123907D01*
X977991Y123993D01*
X977786Y124084D01*
X977583Y124180D01*
X977583Y124179D02*
X977495Y124211D01*
X977408Y124247D01*
X977322Y124286D01*
X977238Y124329D01*
X977156Y124375D01*
X977076Y124424D01*
X976998Y124476D01*
X976922Y124532D01*
X976848Y124590D01*
X976777Y124652D01*
X976708Y124716D01*
X976642Y124783D01*
X976579Y124852D01*
X976518Y124924D01*
X976460Y124998D01*
X976406Y125075D01*
X976354Y125153D01*
X976306Y125234D01*
X976261Y125316D01*
X976219Y125401D01*
X976181Y125487D01*
X976146Y125574D01*
X976114Y125662D01*
X976087Y125752D01*
X976062Y125843D01*
X976042Y125935D01*
X976025Y126027D01*
X976012Y126121D01*
X976003Y126214D01*
X975997Y126308D01*
X975995Y126402D01*
X975997Y126496D01*
X976003Y126590D01*
X976012Y126683D01*
X976025Y126777D01*
X976042Y126869D01*
X976062Y126961D01*
X976087Y127052D01*
X976114Y127142D01*
X976146Y127230D01*
X976181Y127317D01*
X976219Y127403D01*
X976261Y127488D01*
X976306Y127570D01*
X976354Y127651D01*
X976406Y127729D01*
X976460Y127806D01*
X976518Y127880D01*
X976579Y127952D01*
X976642Y128021D01*
X976708Y128088D01*
X976777Y128152D01*
X976848Y128214D01*
X976922Y128272D01*
X976998Y128328D01*
X977076Y128380D01*
X977156Y128429D01*
X977238Y128475D01*
X977322Y128518D01*
X977408Y128557D01*
X977495Y128593D01*
X977583Y128625D01*
X977786Y128721D01*
X977991Y128812D01*
X978199Y128898D01*
X978409Y128979D01*
X978620Y129056D01*
X978833Y129127D01*
X979048Y129193D01*
X979265Y129254D01*
X979483Y129310D01*
X979702Y129360D01*
X979922Y129406D01*
X980143Y129446D01*
X980365Y129481D01*
X980588Y129510D01*
X980812Y129534D01*
X981036Y129553D01*
X981260Y129566D01*
X981485Y129574D01*
X981710Y129577D01*
X981710Y123228D02*
X981935Y123231D01*
X982160Y123239D01*
X982384Y123252D01*
X982608Y123271D01*
X982832Y123295D01*
X983055Y123324D01*
X983277Y123359D01*
X983498Y123399D01*
X983718Y123445D01*
X983937Y123495D01*
X984155Y123551D01*
X984372Y123612D01*
X984587Y123678D01*
X984800Y123749D01*
X985011Y123826D01*
X985221Y123907D01*
X985429Y123993D01*
X985634Y124084D01*
X985837Y124180D01*
X985838Y124179D02*
X985926Y124211D01*
X986013Y124247D01*
X986099Y124286D01*
X986183Y124329D01*
X986265Y124375D01*
X986345Y124424D01*
X986423Y124476D01*
X986499Y124532D01*
X986573Y124590D01*
X986644Y124652D01*
X986713Y124716D01*
X986779Y124783D01*
X986842Y124852D01*
X986903Y124924D01*
X986961Y124998D01*
X987015Y125075D01*
X987067Y125153D01*
X987115Y125234D01*
X987160Y125316D01*
X987202Y125401D01*
X987240Y125487D01*
X987275Y125574D01*
X987307Y125662D01*
X987334Y125752D01*
X987359Y125843D01*
X987379Y125935D01*
X987396Y126027D01*
X987409Y126121D01*
X987418Y126214D01*
X987424Y126308D01*
X987426Y126402D01*
X985837Y128625D02*
X985634Y128721D01*
X985429Y128812D01*
X985221Y128898D01*
X985011Y128979D01*
X984800Y129056D01*
X984587Y129127D01*
X984372Y129193D01*
X984155Y129254D01*
X983937Y129310D01*
X983718Y129360D01*
X983498Y129406D01*
X983277Y129446D01*
X983055Y129481D01*
X982832Y129510D01*
X982608Y129534D01*
X982384Y129553D01*
X982160Y129566D01*
X981935Y129574D01*
X981710Y129577D01*
X985838Y128625D02*
X985926Y128593D01*
X986013Y128557D01*
X986099Y128518D01*
X986183Y128475D01*
X986265Y128429D01*
X986345Y128380D01*
X986423Y128328D01*
X986499Y128272D01*
X986573Y128214D01*
X986644Y128152D01*
X986713Y128088D01*
X986779Y128021D01*
X986842Y127952D01*
X986903Y127880D01*
X986961Y127806D01*
X987015Y127729D01*
X987067Y127651D01*
X987115Y127570D01*
X987160Y127488D01*
X987202Y127403D01*
X987240Y127317D01*
X987275Y127230D01*
X987307Y127142D01*
X987334Y127052D01*
X987359Y126961D01*
X987379Y126869D01*
X987396Y126777D01*
X987409Y126683D01*
X987418Y126590D01*
X987424Y126496D01*
X987426Y126402D01*
X984885Y123862D02*
X978535Y128942D01*
D10*
X1028700Y391160D02*
X1028700Y401828D01*
D12*
X1021080Y401828D01*
X1028700Y401828D02*
X1036320Y401828D01*
X1028700Y410718D02*
X1021080Y410718D01*
D10*
X1028700Y410718D02*
X1028700Y421640D01*
D12*
X1028700Y410718D02*
X1036320Y410718D01*
D10*
X1062990Y369570D02*
X994410Y369570D01*
X1065530Y372110D02*
X1065530Y440690D01*
X1062990Y443230D02*
X994410Y443230D01*
X991870Y440690D02*
X991870Y372110D01*
X991870Y440690D02*
X991872Y440790D01*
X991878Y440889D01*
X991888Y440989D01*
X991901Y441087D01*
X991919Y441186D01*
X991940Y441283D01*
X991965Y441379D01*
X991994Y441475D01*
X992027Y441569D01*
X992063Y441662D01*
X992103Y441753D01*
X992147Y441843D01*
X992194Y441931D01*
X992244Y442017D01*
X992298Y442101D01*
X992355Y442183D01*
X992415Y442262D01*
X992479Y442340D01*
X992545Y442414D01*
X992614Y442486D01*
X992686Y442555D01*
X992760Y442621D01*
X992838Y442685D01*
X992917Y442745D01*
X992999Y442802D01*
X993083Y442856D01*
X993169Y442906D01*
X993257Y442953D01*
X993347Y442997D01*
X993438Y443037D01*
X993531Y443073D01*
X993625Y443106D01*
X993721Y443135D01*
X993817Y443160D01*
X993914Y443181D01*
X994013Y443199D01*
X994111Y443212D01*
X994211Y443222D01*
X994310Y443228D01*
X994410Y443230D01*
X1062990Y443230D02*
X1063090Y443228D01*
X1063189Y443222D01*
X1063289Y443212D01*
X1063387Y443199D01*
X1063486Y443181D01*
X1063583Y443160D01*
X1063679Y443135D01*
X1063775Y443106D01*
X1063869Y443073D01*
X1063962Y443037D01*
X1064053Y442997D01*
X1064143Y442953D01*
X1064231Y442906D01*
X1064317Y442856D01*
X1064401Y442802D01*
X1064483Y442745D01*
X1064562Y442685D01*
X1064640Y442621D01*
X1064714Y442555D01*
X1064786Y442486D01*
X1064855Y442414D01*
X1064921Y442340D01*
X1064985Y442262D01*
X1065045Y442183D01*
X1065102Y442101D01*
X1065156Y442017D01*
X1065206Y441931D01*
X1065253Y441843D01*
X1065297Y441753D01*
X1065337Y441662D01*
X1065373Y441569D01*
X1065406Y441475D01*
X1065435Y441379D01*
X1065460Y441283D01*
X1065481Y441186D01*
X1065499Y441087D01*
X1065512Y440989D01*
X1065522Y440889D01*
X1065528Y440790D01*
X1065530Y440690D01*
X1065530Y372110D02*
X1065528Y372010D01*
X1065522Y371911D01*
X1065512Y371811D01*
X1065499Y371713D01*
X1065481Y371614D01*
X1065460Y371517D01*
X1065435Y371421D01*
X1065406Y371325D01*
X1065373Y371231D01*
X1065337Y371138D01*
X1065297Y371047D01*
X1065253Y370957D01*
X1065206Y370869D01*
X1065156Y370783D01*
X1065102Y370699D01*
X1065045Y370617D01*
X1064985Y370538D01*
X1064921Y370460D01*
X1064855Y370386D01*
X1064786Y370314D01*
X1064714Y370245D01*
X1064640Y370179D01*
X1064562Y370115D01*
X1064483Y370055D01*
X1064401Y369998D01*
X1064317Y369944D01*
X1064231Y369894D01*
X1064143Y369847D01*
X1064053Y369803D01*
X1063962Y369763D01*
X1063869Y369727D01*
X1063775Y369694D01*
X1063679Y369665D01*
X1063583Y369640D01*
X1063486Y369619D01*
X1063387Y369601D01*
X1063289Y369588D01*
X1063189Y369578D01*
X1063090Y369572D01*
X1062990Y369570D01*
X994410Y369570D02*
X994310Y369572D01*
X994211Y369578D01*
X994111Y369588D01*
X994013Y369601D01*
X993914Y369619D01*
X993817Y369640D01*
X993721Y369665D01*
X993625Y369694D01*
X993531Y369727D01*
X993438Y369763D01*
X993347Y369803D01*
X993257Y369847D01*
X993169Y369894D01*
X993083Y369944D01*
X992999Y369998D01*
X992917Y370055D01*
X992838Y370115D01*
X992760Y370179D01*
X992686Y370245D01*
X992614Y370314D01*
X992545Y370386D01*
X992479Y370460D01*
X992415Y370538D01*
X992355Y370617D01*
X992298Y370699D01*
X992244Y370783D01*
X992194Y370869D01*
X992147Y370957D01*
X992103Y371047D01*
X992063Y371138D01*
X992027Y371231D01*
X991994Y371325D01*
X991965Y371421D01*
X991940Y371517D01*
X991919Y371614D01*
X991901Y371713D01*
X991888Y371811D01*
X991878Y371911D01*
X991872Y372010D01*
X991870Y372110D01*
D11*
X987425Y384175D02*
X987425Y386715D01*
X987425Y384175D02*
X987423Y384075D01*
X987417Y383976D01*
X987407Y383876D01*
X987394Y383778D01*
X987376Y383679D01*
X987355Y383582D01*
X987330Y383486D01*
X987301Y383390D01*
X987268Y383296D01*
X987232Y383203D01*
X987192Y383112D01*
X987148Y383022D01*
X987101Y382934D01*
X987051Y382848D01*
X986997Y382764D01*
X986940Y382682D01*
X986880Y382603D01*
X986816Y382525D01*
X986750Y382451D01*
X986681Y382379D01*
X986609Y382310D01*
X986535Y382244D01*
X986457Y382180D01*
X986378Y382120D01*
X986296Y382063D01*
X986212Y382009D01*
X986126Y381959D01*
X986038Y381912D01*
X985948Y381868D01*
X985857Y381828D01*
X985764Y381792D01*
X985670Y381759D01*
X985574Y381730D01*
X985478Y381705D01*
X985381Y381684D01*
X985282Y381666D01*
X985184Y381653D01*
X985084Y381643D01*
X984985Y381637D01*
X984885Y381635D01*
X978535Y381635D01*
X978435Y381637D01*
X978336Y381643D01*
X978236Y381653D01*
X978138Y381666D01*
X978039Y381684D01*
X977942Y381705D01*
X977846Y381730D01*
X977750Y381759D01*
X977656Y381792D01*
X977563Y381828D01*
X977472Y381868D01*
X977382Y381912D01*
X977294Y381959D01*
X977208Y382009D01*
X977124Y382063D01*
X977042Y382120D01*
X976963Y382180D01*
X976885Y382244D01*
X976811Y382310D01*
X976739Y382379D01*
X976670Y382451D01*
X976604Y382525D01*
X976540Y382603D01*
X976480Y382682D01*
X976423Y382764D01*
X976369Y382848D01*
X976319Y382934D01*
X976272Y383022D01*
X976228Y383112D01*
X976188Y383203D01*
X976152Y383296D01*
X976119Y383390D01*
X976090Y383486D01*
X976065Y383582D01*
X976044Y383679D01*
X976026Y383778D01*
X976013Y383876D01*
X976003Y383976D01*
X975997Y384075D01*
X975995Y384175D01*
X975995Y386715D01*
X978535Y391197D02*
X975995Y394372D01*
X987425Y394372D01*
X987425Y391197D02*
X987425Y397547D01*
X978535Y402627D02*
X975995Y405802D01*
X987425Y405802D01*
X987425Y402627D02*
X987425Y408977D01*
D18*
X1174717Y402200D02*
X1174717Y154200D01*
X1179240Y154200D02*
X1179240Y402200D01*
X1133780Y402200D02*
X1133780Y154200D01*
X1128915Y154200D02*
X1128915Y402200D01*
X1095181Y228200D02*
X1095188Y227602D01*
X1095210Y227005D01*
X1095247Y226409D01*
X1095298Y225814D01*
X1095364Y225220D01*
X1095444Y224628D01*
X1095539Y224039D01*
X1095540Y224039D02*
X1095634Y223533D01*
X1095738Y223030D01*
X1095854Y222529D01*
X1095981Y222031D01*
X1096118Y221536D01*
X1096267Y221044D01*
X1096426Y220555D01*
X1096596Y220070D01*
X1096774Y219600D01*
X1096962Y219134D01*
X1097161Y218672D01*
X1097371Y218215D01*
X1097591Y217763D01*
X1097821Y217317D01*
X1098062Y216875D01*
X1098313Y216440D01*
X1098536Y216073D01*
X1098767Y215712D01*
X1099006Y215356D01*
X1099253Y215006D01*
X1099508Y214660D01*
X1099770Y214321D01*
X1100039Y213987D01*
X1100316Y213660D01*
X1100600Y213338D01*
X1100600Y213339D02*
X1100881Y213037D01*
X1101169Y212741D01*
X1101464Y212453D01*
X1101766Y212172D01*
X1102075Y211898D01*
X1102390Y211631D01*
X1102712Y211373D01*
X1103039Y211122D01*
X1103373Y210879D01*
X1103681Y210668D01*
X1103993Y210464D01*
X1104311Y210267D01*
X1104633Y210079D01*
X1104959Y209898D01*
X1105290Y209725D01*
X1105625Y209561D01*
X1105964Y209404D01*
X1105964Y209405D02*
X1106260Y209277D01*
X1106559Y209156D01*
X1106860Y209042D01*
X1107164Y208935D01*
X1107471Y208835D01*
X1107779Y208742D01*
X1108090Y208656D01*
X1108402Y208577D01*
X1108716Y208505D01*
X1109029Y208441D01*
X1109342Y208385D01*
X1109658Y208336D01*
X1109974Y208295D01*
X1110291Y208261D01*
X1110608Y208234D01*
X1110927Y208215D01*
X1111245Y208204D01*
X1111564Y208200D01*
X1108716Y247895D02*
X1109028Y247959D01*
X1109342Y248015D01*
X1109657Y248064D01*
X1109973Y248105D01*
X1110291Y248139D01*
X1110608Y248166D01*
X1110927Y248185D01*
X1111245Y248196D01*
X1111564Y248200D01*
X1108716Y247895D02*
X1108402Y247823D01*
X1108089Y247744D01*
X1107779Y247658D01*
X1107470Y247565D01*
X1107164Y247465D01*
X1106860Y247358D01*
X1106559Y247243D01*
X1106260Y247122D01*
X1105964Y246995D01*
X1105963Y246995D02*
X1105662Y246857D01*
X1105363Y246712D01*
X1105068Y246561D01*
X1104776Y246403D01*
X1104488Y246239D01*
X1104203Y246069D01*
X1103922Y245893D01*
X1103645Y245710D01*
X1103372Y245521D01*
X1103373Y245521D02*
X1103039Y245278D01*
X1102711Y245028D01*
X1102389Y244769D01*
X1102074Y244503D01*
X1101765Y244229D01*
X1101463Y243948D01*
X1101168Y243659D01*
X1100880Y243363D01*
X1100600Y243061D01*
X1100316Y242740D01*
X1100038Y242413D01*
X1099769Y242080D01*
X1099506Y241741D01*
X1099252Y241396D01*
X1099005Y241045D01*
X1098766Y240689D01*
X1098536Y240327D01*
X1098313Y239960D01*
X1098062Y239525D01*
X1097820Y239084D01*
X1097589Y238637D01*
X1097369Y238185D01*
X1097159Y237728D01*
X1096961Y237267D01*
X1096773Y236800D01*
X1096596Y236330D01*
X1096425Y235845D01*
X1096266Y235357D01*
X1096117Y234865D01*
X1095980Y234369D01*
X1095853Y233871D01*
X1095737Y233370D01*
X1095633Y232867D01*
X1095540Y232361D01*
X1095456Y231845D01*
X1095383Y231327D01*
X1095321Y230808D01*
X1095271Y230288D01*
X1095231Y229767D01*
X1095203Y229245D01*
X1095186Y228722D01*
X1095181Y228200D01*
X1108156Y197762D02*
X1108460Y197837D01*
X1108766Y197906D01*
X1109073Y197967D01*
X1109381Y198021D01*
X1109691Y198068D01*
X1110002Y198108D01*
X1110313Y198141D01*
X1110625Y198167D01*
X1110938Y198185D01*
X1111251Y198196D01*
X1111564Y198200D01*
X1108156Y197762D02*
X1107818Y197669D01*
X1107482Y197568D01*
X1107149Y197459D01*
X1106819Y197342D01*
X1106491Y197217D01*
X1106167Y197084D01*
X1105846Y196943D01*
X1105528Y196794D01*
X1105215Y196637D01*
X1104905Y196473D01*
X1104604Y196309D01*
X1104306Y196139D01*
X1104013Y195961D01*
X1103724Y195776D01*
X1103440Y195585D01*
X1103160Y195387D01*
X1102885Y195182D01*
X1102615Y194971D01*
X1102350Y194753D01*
X1102091Y194529D01*
X1101837Y194299D01*
X1101588Y194063D01*
X1101587Y194064D02*
X1101274Y193763D01*
X1100969Y193454D01*
X1100671Y193139D01*
X1100380Y192816D01*
X1100098Y192487D01*
X1099823Y192151D01*
X1099556Y191809D01*
X1099297Y191460D01*
X1099046Y191106D01*
X1098804Y190746D01*
X1098570Y190380D01*
X1098570Y190381D02*
X1098308Y189952D01*
X1098056Y189517D01*
X1097815Y189076D01*
X1097584Y188630D01*
X1097364Y188178D01*
X1097155Y187722D01*
X1096956Y187260D01*
X1096769Y186794D01*
X1096592Y186324D01*
X1096427Y185850D01*
X1096427Y185849D02*
X1096250Y185303D01*
X1096086Y184753D01*
X1095936Y184199D01*
X1095799Y183642D01*
X1095676Y183082D01*
X1095567Y182519D01*
X1095471Y181953D01*
X1095390Y181385D01*
X1095322Y180816D01*
X1095267Y180236D01*
X1095225Y179655D01*
X1095198Y179073D01*
X1095184Y178491D01*
X1095184Y177909D01*
X1095198Y177327D01*
X1095225Y176745D01*
X1095267Y176164D01*
X1095322Y175584D01*
X1095322Y175585D02*
X1095391Y175015D01*
X1095473Y174447D01*
X1095569Y173882D01*
X1095678Y173319D01*
X1095801Y172758D01*
X1095938Y172201D01*
X1096088Y171647D01*
X1096251Y171097D01*
X1096427Y170552D01*
X1096427Y170551D02*
X1096594Y170077D01*
X1096771Y169607D01*
X1096959Y169141D01*
X1097158Y168680D01*
X1097368Y168223D01*
X1097588Y167772D01*
X1097818Y167325D01*
X1098059Y166885D01*
X1098310Y166449D01*
X1098570Y166020D01*
X1098805Y165655D01*
X1099048Y165296D01*
X1099300Y164942D01*
X1099559Y164594D01*
X1099826Y164252D01*
X1100101Y163916D01*
X1100384Y163587D01*
X1100674Y163264D01*
X1100971Y162948D01*
X1101276Y162639D01*
X1101587Y162336D01*
X1101588Y162336D02*
X1101894Y162062D01*
X1102206Y161796D01*
X1102525Y161536D01*
X1102849Y161283D01*
X1103179Y161038D01*
X1103514Y160800D01*
X1103854Y160570D01*
X1104200Y160348D01*
X1104550Y160133D01*
X1104905Y159926D01*
X1104906Y159927D02*
X1105216Y159764D01*
X1105529Y159607D01*
X1105847Y159459D01*
X1106168Y159318D01*
X1106492Y159185D01*
X1106820Y159060D01*
X1107150Y158942D01*
X1107483Y158833D01*
X1107819Y158732D01*
X1108156Y158638D01*
X1108460Y158563D01*
X1108766Y158494D01*
X1109073Y158433D01*
X1109381Y158379D01*
X1109691Y158332D01*
X1110002Y158292D01*
X1110313Y158259D01*
X1110625Y158234D01*
X1110938Y158215D01*
X1111251Y158204D01*
X1111564Y158200D01*
X1111883Y158204D01*
X1112202Y158215D01*
X1112521Y158234D01*
X1112838Y158261D01*
X1113156Y158295D01*
X1113472Y158336D01*
X1113787Y158385D01*
X1114101Y158441D01*
X1114413Y158505D01*
X1114728Y158577D01*
X1115040Y158655D01*
X1115350Y158742D01*
X1115659Y158835D01*
X1115965Y158935D01*
X1116269Y159042D01*
X1116570Y159156D01*
X1116869Y159277D01*
X1117164Y159405D01*
X1117466Y159543D01*
X1117765Y159688D01*
X1118060Y159839D01*
X1118352Y159997D01*
X1118640Y160161D01*
X1118925Y160332D01*
X1119206Y160508D01*
X1119483Y160691D01*
X1119755Y160880D01*
X1119756Y160879D02*
X1120090Y161121D01*
X1120418Y161372D01*
X1120740Y161630D01*
X1121055Y161897D01*
X1121364Y162171D01*
X1121666Y162452D01*
X1121961Y162741D01*
X1122249Y163036D01*
X1122529Y163339D01*
X1122814Y163660D01*
X1123091Y163987D01*
X1123361Y164321D01*
X1123623Y164660D01*
X1123877Y165005D01*
X1124124Y165356D01*
X1124363Y165712D01*
X1124594Y166074D01*
X1124816Y166440D01*
X1125067Y166876D01*
X1125309Y167317D01*
X1125539Y167763D01*
X1125760Y168215D01*
X1125969Y168672D01*
X1126168Y169134D01*
X1126356Y169600D01*
X1126533Y170070D01*
X1126704Y170555D01*
X1126863Y171043D01*
X1127012Y171535D01*
X1127149Y172031D01*
X1127276Y172529D01*
X1127392Y173030D01*
X1127496Y173533D01*
X1127589Y174039D01*
X1127673Y174554D01*
X1127746Y175072D01*
X1127808Y175591D01*
X1127858Y176111D01*
X1127898Y176633D01*
X1127926Y177154D01*
X1127943Y177677D01*
X1127948Y178200D01*
X1114973Y208638D02*
X1114669Y208563D01*
X1114364Y208494D01*
X1114056Y208433D01*
X1113748Y208379D01*
X1113438Y208332D01*
X1113127Y208292D01*
X1112816Y208259D01*
X1112504Y208233D01*
X1112191Y208215D01*
X1111878Y208204D01*
X1111564Y208200D01*
X1114973Y208638D02*
X1115311Y208731D01*
X1115647Y208832D01*
X1115980Y208941D01*
X1116311Y209058D01*
X1116638Y209183D01*
X1116962Y209316D01*
X1117283Y209457D01*
X1117601Y209606D01*
X1117914Y209763D01*
X1118224Y209927D01*
X1118525Y210090D01*
X1118823Y210261D01*
X1119116Y210438D01*
X1119405Y210623D01*
X1119689Y210814D01*
X1119969Y211012D01*
X1120244Y211217D01*
X1120514Y211428D01*
X1120779Y211646D01*
X1121038Y211870D01*
X1121293Y212100D01*
X1121541Y212336D01*
X1121854Y212638D01*
X1122159Y212946D01*
X1122457Y213262D01*
X1122748Y213584D01*
X1123031Y213913D01*
X1123306Y214249D01*
X1123573Y214592D01*
X1123832Y214940D01*
X1124083Y215294D01*
X1124325Y215655D01*
X1124559Y216020D01*
X1124821Y216449D01*
X1125073Y216884D01*
X1125314Y217324D01*
X1125545Y217770D01*
X1125765Y218222D01*
X1125974Y218679D01*
X1126173Y219140D01*
X1126360Y219606D01*
X1126537Y220077D01*
X1126702Y220551D01*
X1126879Y221096D01*
X1127043Y221646D01*
X1127193Y222200D01*
X1127330Y222757D01*
X1127453Y223317D01*
X1127562Y223881D01*
X1127658Y224446D01*
X1127739Y225014D01*
X1127807Y225584D01*
X1127862Y226164D01*
X1127904Y226745D01*
X1127931Y227327D01*
X1127945Y227909D01*
X1127945Y228491D01*
X1127931Y229073D01*
X1127904Y229655D01*
X1127862Y230236D01*
X1127807Y230816D01*
X1127738Y231386D01*
X1127656Y231954D01*
X1127560Y232519D01*
X1127451Y233082D01*
X1127328Y233643D01*
X1127191Y234200D01*
X1127041Y234753D01*
X1126878Y235303D01*
X1126702Y235849D01*
X1126535Y236323D01*
X1126358Y236793D01*
X1126170Y237258D01*
X1125971Y237720D01*
X1125761Y238176D01*
X1125541Y238628D01*
X1125311Y239074D01*
X1125070Y239515D01*
X1124819Y239950D01*
X1124559Y240380D01*
X1124324Y240745D01*
X1124081Y241104D01*
X1123829Y241458D01*
X1123570Y241806D01*
X1123303Y242148D01*
X1123028Y242484D01*
X1122745Y242813D01*
X1122455Y243136D01*
X1122157Y243452D01*
X1121853Y243761D01*
X1121541Y244064D01*
X1121235Y244338D01*
X1120922Y244604D01*
X1120604Y244864D01*
X1120280Y245116D01*
X1119950Y245362D01*
X1119615Y245599D01*
X1119275Y245829D01*
X1118930Y246052D01*
X1118579Y246266D01*
X1118224Y246473D01*
X1118225Y246473D02*
X1117915Y246637D01*
X1117601Y246793D01*
X1117283Y246942D01*
X1116962Y247083D01*
X1116638Y247216D01*
X1116311Y247341D01*
X1115980Y247459D01*
X1115647Y247568D01*
X1115312Y247669D01*
X1114974Y247762D01*
X1114973Y247762D02*
X1114669Y247837D01*
X1114364Y247906D01*
X1114056Y247967D01*
X1113748Y248021D01*
X1113438Y248068D01*
X1113127Y248108D01*
X1112816Y248141D01*
X1112504Y248167D01*
X1112191Y248185D01*
X1111878Y248196D01*
X1111564Y248200D01*
X1127589Y182361D02*
X1127684Y181772D01*
X1127764Y181180D01*
X1127830Y180586D01*
X1127881Y179991D01*
X1127918Y179395D01*
X1127940Y178798D01*
X1127947Y178200D01*
X1127589Y182361D02*
X1127495Y182867D01*
X1127391Y183370D01*
X1127275Y183871D01*
X1127148Y184369D01*
X1127011Y184864D01*
X1126862Y185356D01*
X1126703Y185845D01*
X1126533Y186330D01*
X1126356Y186800D01*
X1126168Y187266D01*
X1125969Y187728D01*
X1125759Y188185D01*
X1125539Y188637D01*
X1125308Y189083D01*
X1125067Y189524D01*
X1124816Y189960D01*
X1124816Y189959D02*
X1124592Y190326D01*
X1124361Y190687D01*
X1124122Y191043D01*
X1123875Y191393D01*
X1123621Y191738D01*
X1123359Y192078D01*
X1123089Y192411D01*
X1122813Y192739D01*
X1122529Y193060D01*
X1122529Y193061D02*
X1122248Y193363D01*
X1121960Y193659D01*
X1121665Y193947D01*
X1121363Y194228D01*
X1121054Y194502D01*
X1120739Y194768D01*
X1120417Y195027D01*
X1120090Y195278D01*
X1119756Y195521D01*
X1119448Y195733D01*
X1119135Y195937D01*
X1118818Y196133D01*
X1118496Y196322D01*
X1118169Y196502D01*
X1117838Y196675D01*
X1117503Y196840D01*
X1117164Y196996D01*
X1117164Y196995D02*
X1116868Y197122D01*
X1116570Y197243D01*
X1116268Y197357D01*
X1115964Y197464D01*
X1115658Y197564D01*
X1115350Y197657D01*
X1115039Y197744D01*
X1114727Y197823D01*
X1114413Y197895D01*
X1114101Y197959D01*
X1113787Y198015D01*
X1113472Y198063D01*
X1113155Y198105D01*
X1112838Y198139D01*
X1112520Y198165D01*
X1112202Y198184D01*
X1111883Y198195D01*
X1111564Y198199D01*
X1224700Y154200D02*
X1224700Y402200D01*
X1179240Y402200D01*
X1174717Y402200D01*
X1133780Y402200D01*
X1128915Y402200D01*
X1092700Y402200D01*
X1092700Y154200D01*
X1128915Y154200D01*
X1133780Y154200D01*
X1174717Y154200D01*
X1179240Y154200D01*
X1224700Y154200D01*
X1209700Y163200D02*
X1209700Y193200D01*
X1193200Y193200D01*
X1193200Y163200D01*
X1209700Y163200D01*
X1217700Y161200D02*
X1217700Y195200D01*
X1185700Y195200D01*
X1185700Y161200D01*
X1217700Y161200D01*
X1218700Y403200D02*
X1218700Y405200D01*
X1220200Y407200D01*
X1220200Y409700D01*
X1174700Y409700D01*
X1174700Y407700D01*
X1176200Y405200D01*
X1176200Y403200D01*
X1144200Y403200D02*
X1144200Y405200D01*
X1146200Y407200D01*
X1146200Y409700D01*
X1118200Y409700D01*
X1118200Y407200D01*
X1119700Y405200D01*
X1119700Y403200D01*
X1207200Y213200D02*
X1209700Y213200D01*
X1209700Y243200D01*
X1193200Y243200D01*
X1193200Y213200D01*
X1207200Y213200D01*
X1217700Y211200D02*
X1217700Y245200D01*
X1185700Y245200D01*
X1185700Y211200D01*
X1217700Y211200D01*
X1095539Y274039D02*
X1095444Y274628D01*
X1095364Y275220D01*
X1095298Y275814D01*
X1095247Y276409D01*
X1095210Y277005D01*
X1095188Y277602D01*
X1095181Y278200D01*
X1095540Y274039D02*
X1095634Y273533D01*
X1095738Y273030D01*
X1095854Y272529D01*
X1095981Y272031D01*
X1096118Y271536D01*
X1096267Y271044D01*
X1096426Y270555D01*
X1096596Y270070D01*
X1096774Y269600D01*
X1096962Y269134D01*
X1097161Y268672D01*
X1097371Y268215D01*
X1097591Y267763D01*
X1097821Y267317D01*
X1098062Y266875D01*
X1098313Y266440D01*
X1098536Y266073D01*
X1098767Y265712D01*
X1099006Y265356D01*
X1099253Y265006D01*
X1099508Y264660D01*
X1099770Y264321D01*
X1100039Y263987D01*
X1100316Y263660D01*
X1100600Y263338D01*
X1100600Y263339D02*
X1100881Y263037D01*
X1101169Y262741D01*
X1101464Y262453D01*
X1101766Y262172D01*
X1102075Y261898D01*
X1102390Y261631D01*
X1102712Y261373D01*
X1103039Y261122D01*
X1103373Y260879D01*
X1103681Y260668D01*
X1103993Y260464D01*
X1104311Y260267D01*
X1104633Y260079D01*
X1104959Y259898D01*
X1105290Y259725D01*
X1105625Y259561D01*
X1105964Y259404D01*
X1105964Y259405D02*
X1106260Y259277D01*
X1106559Y259156D01*
X1106860Y259042D01*
X1107164Y258935D01*
X1107471Y258835D01*
X1107779Y258742D01*
X1108090Y258656D01*
X1108402Y258577D01*
X1108716Y258505D01*
X1109029Y258441D01*
X1109342Y258385D01*
X1109658Y258336D01*
X1109974Y258295D01*
X1110291Y258261D01*
X1110608Y258234D01*
X1110927Y258215D01*
X1111245Y258204D01*
X1111564Y258200D01*
X1108716Y297895D02*
X1109028Y297959D01*
X1109342Y298015D01*
X1109657Y298064D01*
X1109973Y298105D01*
X1110291Y298139D01*
X1110608Y298166D01*
X1110927Y298185D01*
X1111245Y298196D01*
X1111564Y298200D01*
X1108716Y297895D02*
X1108402Y297823D01*
X1108089Y297744D01*
X1107779Y297658D01*
X1107470Y297565D01*
X1107164Y297465D01*
X1106860Y297358D01*
X1106559Y297243D01*
X1106260Y297122D01*
X1105964Y296995D01*
X1105963Y296995D02*
X1105662Y296857D01*
X1105363Y296712D01*
X1105068Y296561D01*
X1104776Y296403D01*
X1104488Y296239D01*
X1104203Y296069D01*
X1103922Y295893D01*
X1103645Y295710D01*
X1103372Y295521D01*
X1103373Y295521D02*
X1103039Y295278D01*
X1102711Y295028D01*
X1102389Y294769D01*
X1102074Y294503D01*
X1101765Y294229D01*
X1101463Y293948D01*
X1101168Y293659D01*
X1100880Y293363D01*
X1100600Y293061D01*
X1100316Y292740D01*
X1100038Y292413D01*
X1099769Y292080D01*
X1099506Y291741D01*
X1099252Y291396D01*
X1099005Y291045D01*
X1098766Y290689D01*
X1098536Y290327D01*
X1098313Y289960D01*
X1098062Y289525D01*
X1097820Y289084D01*
X1097589Y288637D01*
X1097369Y288185D01*
X1097159Y287728D01*
X1096961Y287267D01*
X1096773Y286800D01*
X1096596Y286330D01*
X1096425Y285845D01*
X1096266Y285357D01*
X1096117Y284865D01*
X1095980Y284369D01*
X1095853Y283871D01*
X1095737Y283370D01*
X1095633Y282867D01*
X1095540Y282361D01*
X1095456Y281845D01*
X1095383Y281327D01*
X1095321Y280808D01*
X1095271Y280288D01*
X1095231Y279767D01*
X1095203Y279245D01*
X1095186Y278722D01*
X1095181Y278200D01*
X1111564Y258200D02*
X1111878Y258204D01*
X1112191Y258215D01*
X1112504Y258233D01*
X1112816Y258259D01*
X1113127Y258292D01*
X1113438Y258332D01*
X1113748Y258379D01*
X1114056Y258433D01*
X1114364Y258494D01*
X1114669Y258563D01*
X1114973Y258638D01*
X1115311Y258731D01*
X1115647Y258832D01*
X1115980Y258941D01*
X1116311Y259058D01*
X1116638Y259183D01*
X1116962Y259316D01*
X1117283Y259457D01*
X1117601Y259606D01*
X1117914Y259763D01*
X1118224Y259927D01*
X1118525Y260090D01*
X1118823Y260261D01*
X1119116Y260438D01*
X1119405Y260623D01*
X1119689Y260814D01*
X1119969Y261012D01*
X1120244Y261217D01*
X1120514Y261428D01*
X1120779Y261646D01*
X1121038Y261870D01*
X1121293Y262100D01*
X1121541Y262336D01*
X1121854Y262638D01*
X1122159Y262946D01*
X1122457Y263262D01*
X1122748Y263584D01*
X1123031Y263913D01*
X1123306Y264249D01*
X1123573Y264592D01*
X1123832Y264940D01*
X1124083Y265294D01*
X1124325Y265655D01*
X1124559Y266020D01*
X1124821Y266449D01*
X1125073Y266884D01*
X1125314Y267324D01*
X1125545Y267770D01*
X1125765Y268222D01*
X1125974Y268679D01*
X1126173Y269140D01*
X1126360Y269606D01*
X1126537Y270077D01*
X1126702Y270551D01*
X1126879Y271096D01*
X1127043Y271646D01*
X1127193Y272200D01*
X1127330Y272757D01*
X1127453Y273317D01*
X1127562Y273881D01*
X1127658Y274446D01*
X1127739Y275014D01*
X1127807Y275584D01*
X1127862Y276164D01*
X1127904Y276745D01*
X1127931Y277327D01*
X1127945Y277909D01*
X1127945Y278491D01*
X1127931Y279073D01*
X1127904Y279655D01*
X1127862Y280236D01*
X1127807Y280816D01*
X1127738Y281386D01*
X1127656Y281954D01*
X1127560Y282519D01*
X1127451Y283082D01*
X1127328Y283643D01*
X1127191Y284200D01*
X1127041Y284753D01*
X1126878Y285303D01*
X1126702Y285849D01*
X1126535Y286323D01*
X1126358Y286793D01*
X1126170Y287258D01*
X1125971Y287720D01*
X1125761Y288176D01*
X1125541Y288628D01*
X1125311Y289074D01*
X1125070Y289515D01*
X1124819Y289950D01*
X1124559Y290380D01*
X1124324Y290745D01*
X1124081Y291104D01*
X1123829Y291458D01*
X1123570Y291806D01*
X1123303Y292148D01*
X1123028Y292484D01*
X1122745Y292813D01*
X1122455Y293136D01*
X1122157Y293452D01*
X1121853Y293761D01*
X1121541Y294064D01*
X1121235Y294338D01*
X1120922Y294604D01*
X1120604Y294864D01*
X1120280Y295116D01*
X1119950Y295362D01*
X1119615Y295599D01*
X1119275Y295829D01*
X1118930Y296052D01*
X1118579Y296266D01*
X1118224Y296473D01*
X1118225Y296473D02*
X1117915Y296637D01*
X1117601Y296793D01*
X1117283Y296942D01*
X1116962Y297083D01*
X1116638Y297216D01*
X1116311Y297341D01*
X1115980Y297459D01*
X1115647Y297568D01*
X1115312Y297669D01*
X1114974Y297762D01*
X1114973Y297762D02*
X1114669Y297837D01*
X1114364Y297906D01*
X1114056Y297967D01*
X1113748Y298021D01*
X1113438Y298068D01*
X1113127Y298108D01*
X1112816Y298141D01*
X1112504Y298167D01*
X1112191Y298185D01*
X1111878Y298196D01*
X1111564Y298200D01*
X1207200Y263200D02*
X1209700Y263200D01*
X1209700Y293200D01*
X1193200Y293200D01*
X1193200Y263200D01*
X1207200Y263200D01*
X1217700Y261200D02*
X1217700Y295200D01*
X1185700Y295200D01*
X1185700Y261200D01*
X1217700Y261200D01*
X1095539Y324039D02*
X1095444Y324628D01*
X1095364Y325220D01*
X1095298Y325814D01*
X1095247Y326409D01*
X1095210Y327005D01*
X1095188Y327602D01*
X1095181Y328200D01*
X1095540Y324039D02*
X1095634Y323533D01*
X1095738Y323030D01*
X1095854Y322529D01*
X1095981Y322031D01*
X1096118Y321536D01*
X1096267Y321044D01*
X1096426Y320555D01*
X1096596Y320070D01*
X1096774Y319600D01*
X1096962Y319134D01*
X1097161Y318672D01*
X1097371Y318215D01*
X1097591Y317763D01*
X1097821Y317317D01*
X1098062Y316875D01*
X1098313Y316440D01*
X1098536Y316073D01*
X1098767Y315712D01*
X1099006Y315356D01*
X1099253Y315006D01*
X1099508Y314660D01*
X1099770Y314321D01*
X1100039Y313987D01*
X1100316Y313660D01*
X1100600Y313338D01*
X1100600Y313339D02*
X1100881Y313037D01*
X1101169Y312741D01*
X1101464Y312453D01*
X1101766Y312172D01*
X1102075Y311898D01*
X1102390Y311631D01*
X1102712Y311373D01*
X1103039Y311122D01*
X1103373Y310879D01*
X1103681Y310668D01*
X1103993Y310464D01*
X1104311Y310267D01*
X1104633Y310079D01*
X1104959Y309898D01*
X1105290Y309725D01*
X1105625Y309561D01*
X1105964Y309404D01*
X1105964Y309405D02*
X1106260Y309277D01*
X1106559Y309156D01*
X1106860Y309042D01*
X1107164Y308935D01*
X1107471Y308835D01*
X1107779Y308742D01*
X1108090Y308656D01*
X1108402Y308577D01*
X1108716Y308505D01*
X1109029Y308441D01*
X1109342Y308385D01*
X1109658Y308336D01*
X1109974Y308295D01*
X1110291Y308261D01*
X1110608Y308234D01*
X1110927Y308215D01*
X1111245Y308204D01*
X1111564Y308200D01*
X1108716Y347895D02*
X1109028Y347959D01*
X1109342Y348015D01*
X1109657Y348064D01*
X1109973Y348105D01*
X1110291Y348139D01*
X1110608Y348166D01*
X1110927Y348185D01*
X1111245Y348196D01*
X1111564Y348200D01*
X1108716Y347895D02*
X1108402Y347823D01*
X1108089Y347744D01*
X1107779Y347658D01*
X1107470Y347565D01*
X1107164Y347465D01*
X1106860Y347358D01*
X1106559Y347243D01*
X1106260Y347122D01*
X1105964Y346995D01*
X1105963Y346995D02*
X1105662Y346857D01*
X1105363Y346712D01*
X1105068Y346561D01*
X1104776Y346403D01*
X1104488Y346239D01*
X1104203Y346069D01*
X1103922Y345893D01*
X1103645Y345710D01*
X1103372Y345521D01*
X1103373Y345521D02*
X1103039Y345278D01*
X1102711Y345028D01*
X1102389Y344769D01*
X1102074Y344503D01*
X1101765Y344229D01*
X1101463Y343948D01*
X1101168Y343659D01*
X1100880Y343363D01*
X1100600Y343061D01*
X1100316Y342740D01*
X1100038Y342413D01*
X1099769Y342080D01*
X1099506Y341741D01*
X1099252Y341396D01*
X1099005Y341045D01*
X1098766Y340689D01*
X1098536Y340327D01*
X1098313Y339960D01*
X1098062Y339525D01*
X1097820Y339084D01*
X1097589Y338637D01*
X1097369Y338185D01*
X1097159Y337728D01*
X1096961Y337267D01*
X1096773Y336800D01*
X1096596Y336330D01*
X1096425Y335845D01*
X1096266Y335357D01*
X1096117Y334865D01*
X1095980Y334369D01*
X1095853Y333871D01*
X1095737Y333370D01*
X1095633Y332867D01*
X1095540Y332361D01*
X1095456Y331845D01*
X1095383Y331327D01*
X1095321Y330808D01*
X1095271Y330288D01*
X1095231Y329767D01*
X1095203Y329245D01*
X1095186Y328722D01*
X1095181Y328200D01*
X1111564Y308200D02*
X1111878Y308204D01*
X1112191Y308215D01*
X1112504Y308233D01*
X1112816Y308259D01*
X1113127Y308292D01*
X1113438Y308332D01*
X1113748Y308379D01*
X1114056Y308433D01*
X1114364Y308494D01*
X1114669Y308563D01*
X1114973Y308638D01*
X1115311Y308731D01*
X1115647Y308832D01*
X1115980Y308941D01*
X1116311Y309058D01*
X1116638Y309183D01*
X1116962Y309316D01*
X1117283Y309457D01*
X1117601Y309606D01*
X1117914Y309763D01*
X1118224Y309927D01*
X1118525Y310090D01*
X1118823Y310261D01*
X1119116Y310438D01*
X1119405Y310623D01*
X1119689Y310814D01*
X1119969Y311012D01*
X1120244Y311217D01*
X1120514Y311428D01*
X1120779Y311646D01*
X1121038Y311870D01*
X1121293Y312100D01*
X1121541Y312336D01*
X1121854Y312638D01*
X1122159Y312946D01*
X1122457Y313262D01*
X1122748Y313584D01*
X1123031Y313913D01*
X1123306Y314249D01*
X1123573Y314592D01*
X1123832Y314940D01*
X1124083Y315294D01*
X1124325Y315655D01*
X1124559Y316020D01*
X1124821Y316449D01*
X1125073Y316884D01*
X1125314Y317324D01*
X1125545Y317770D01*
X1125765Y318222D01*
X1125974Y318679D01*
X1126173Y319140D01*
X1126360Y319606D01*
X1126537Y320077D01*
X1126702Y320551D01*
X1126879Y321096D01*
X1127043Y321646D01*
X1127193Y322200D01*
X1127330Y322757D01*
X1127453Y323317D01*
X1127562Y323881D01*
X1127658Y324446D01*
X1127739Y325014D01*
X1127807Y325584D01*
X1127862Y326164D01*
X1127904Y326745D01*
X1127931Y327327D01*
X1127945Y327909D01*
X1127945Y328491D01*
X1127931Y329073D01*
X1127904Y329655D01*
X1127862Y330236D01*
X1127807Y330816D01*
X1127738Y331386D01*
X1127656Y331954D01*
X1127560Y332519D01*
X1127451Y333082D01*
X1127328Y333643D01*
X1127191Y334200D01*
X1127041Y334753D01*
X1126878Y335303D01*
X1126702Y335849D01*
X1126535Y336323D01*
X1126358Y336793D01*
X1126170Y337258D01*
X1125971Y337720D01*
X1125761Y338176D01*
X1125541Y338628D01*
X1125311Y339074D01*
X1125070Y339515D01*
X1124819Y339950D01*
X1124559Y340380D01*
X1124324Y340745D01*
X1124081Y341104D01*
X1123829Y341458D01*
X1123570Y341806D01*
X1123303Y342148D01*
X1123028Y342484D01*
X1122745Y342813D01*
X1122455Y343136D01*
X1122157Y343452D01*
X1121853Y343761D01*
X1121541Y344064D01*
X1121235Y344338D01*
X1120922Y344604D01*
X1120604Y344864D01*
X1120280Y345116D01*
X1119950Y345362D01*
X1119615Y345599D01*
X1119275Y345829D01*
X1118930Y346052D01*
X1118579Y346266D01*
X1118224Y346473D01*
X1118225Y346473D02*
X1117915Y346637D01*
X1117601Y346793D01*
X1117283Y346942D01*
X1116962Y347083D01*
X1116638Y347216D01*
X1116311Y347341D01*
X1115980Y347459D01*
X1115647Y347568D01*
X1115312Y347669D01*
X1114974Y347762D01*
X1114973Y347762D02*
X1114669Y347837D01*
X1114364Y347906D01*
X1114056Y347967D01*
X1113748Y348021D01*
X1113438Y348068D01*
X1113127Y348108D01*
X1112816Y348141D01*
X1112504Y348167D01*
X1112191Y348185D01*
X1111878Y348196D01*
X1111564Y348200D01*
X1207200Y313200D02*
X1209700Y313200D01*
X1209700Y343200D01*
X1193200Y343200D01*
X1193200Y313200D01*
X1207200Y313200D01*
X1217700Y311200D02*
X1217700Y345200D01*
X1185700Y345200D01*
X1185700Y311200D01*
X1217700Y311200D01*
X1095539Y374039D02*
X1095444Y374628D01*
X1095364Y375220D01*
X1095298Y375814D01*
X1095247Y376409D01*
X1095210Y377005D01*
X1095188Y377602D01*
X1095181Y378200D01*
X1095540Y374039D02*
X1095634Y373533D01*
X1095738Y373030D01*
X1095854Y372529D01*
X1095981Y372031D01*
X1096118Y371536D01*
X1096267Y371044D01*
X1096426Y370555D01*
X1096596Y370070D01*
X1096774Y369600D01*
X1096962Y369134D01*
X1097161Y368672D01*
X1097371Y368215D01*
X1097591Y367763D01*
X1097821Y367317D01*
X1098062Y366875D01*
X1098313Y366440D01*
X1098536Y366073D01*
X1098767Y365712D01*
X1099006Y365356D01*
X1099253Y365006D01*
X1099508Y364660D01*
X1099770Y364321D01*
X1100039Y363987D01*
X1100316Y363660D01*
X1100600Y363338D01*
X1100600Y363339D02*
X1100881Y363037D01*
X1101169Y362741D01*
X1101464Y362453D01*
X1101766Y362172D01*
X1102075Y361898D01*
X1102390Y361631D01*
X1102712Y361373D01*
X1103039Y361122D01*
X1103373Y360879D01*
X1103681Y360668D01*
X1103993Y360464D01*
X1104311Y360267D01*
X1104633Y360079D01*
X1104959Y359898D01*
X1105290Y359725D01*
X1105625Y359561D01*
X1105964Y359404D01*
X1105964Y359405D02*
X1106260Y359277D01*
X1106559Y359156D01*
X1106860Y359042D01*
X1107164Y358935D01*
X1107471Y358835D01*
X1107779Y358742D01*
X1108090Y358656D01*
X1108402Y358577D01*
X1108716Y358505D01*
X1109029Y358441D01*
X1109342Y358385D01*
X1109658Y358336D01*
X1109974Y358295D01*
X1110291Y358261D01*
X1110608Y358234D01*
X1110927Y358215D01*
X1111245Y358204D01*
X1111564Y358200D01*
X1108716Y397895D02*
X1109028Y397959D01*
X1109342Y398015D01*
X1109657Y398064D01*
X1109973Y398105D01*
X1110291Y398139D01*
X1110608Y398166D01*
X1110927Y398185D01*
X1111245Y398196D01*
X1111564Y398200D01*
X1108716Y397895D02*
X1108402Y397823D01*
X1108089Y397744D01*
X1107779Y397658D01*
X1107470Y397565D01*
X1107164Y397465D01*
X1106860Y397358D01*
X1106559Y397243D01*
X1106260Y397122D01*
X1105964Y396995D01*
X1105963Y396995D02*
X1105662Y396857D01*
X1105363Y396712D01*
X1105068Y396561D01*
X1104776Y396403D01*
X1104488Y396239D01*
X1104203Y396069D01*
X1103922Y395893D01*
X1103645Y395710D01*
X1103372Y395521D01*
X1103373Y395521D02*
X1103039Y395278D01*
X1102711Y395028D01*
X1102389Y394769D01*
X1102074Y394503D01*
X1101765Y394229D01*
X1101463Y393948D01*
X1101168Y393659D01*
X1100880Y393363D01*
X1100600Y393061D01*
X1100316Y392740D01*
X1100038Y392413D01*
X1099769Y392080D01*
X1099506Y391741D01*
X1099252Y391396D01*
X1099005Y391045D01*
X1098766Y390689D01*
X1098536Y390327D01*
X1098313Y389960D01*
X1098062Y389525D01*
X1097820Y389084D01*
X1097589Y388637D01*
X1097369Y388185D01*
X1097159Y387728D01*
X1096961Y387267D01*
X1096773Y386800D01*
X1096596Y386330D01*
X1096425Y385845D01*
X1096266Y385357D01*
X1096117Y384865D01*
X1095980Y384369D01*
X1095853Y383871D01*
X1095737Y383370D01*
X1095633Y382867D01*
X1095540Y382361D01*
X1095456Y381845D01*
X1095383Y381327D01*
X1095321Y380808D01*
X1095271Y380288D01*
X1095231Y379767D01*
X1095203Y379245D01*
X1095186Y378722D01*
X1095181Y378200D01*
X1111564Y358200D02*
X1111878Y358204D01*
X1112191Y358215D01*
X1112504Y358233D01*
X1112816Y358259D01*
X1113127Y358292D01*
X1113438Y358332D01*
X1113748Y358379D01*
X1114056Y358433D01*
X1114364Y358494D01*
X1114669Y358563D01*
X1114973Y358638D01*
X1115311Y358731D01*
X1115647Y358832D01*
X1115980Y358941D01*
X1116311Y359058D01*
X1116638Y359183D01*
X1116962Y359316D01*
X1117283Y359457D01*
X1117601Y359606D01*
X1117914Y359763D01*
X1118224Y359927D01*
X1118525Y360090D01*
X1118823Y360261D01*
X1119116Y360438D01*
X1119405Y360623D01*
X1119689Y360814D01*
X1119969Y361012D01*
X1120244Y361217D01*
X1120514Y361428D01*
X1120779Y361646D01*
X1121038Y361870D01*
X1121293Y362100D01*
X1121541Y362336D01*
X1121854Y362638D01*
X1122159Y362946D01*
X1122457Y363262D01*
X1122748Y363584D01*
X1123031Y363913D01*
X1123306Y364249D01*
X1123573Y364592D01*
X1123832Y364940D01*
X1124083Y365294D01*
X1124325Y365655D01*
X1124559Y366020D01*
X1124821Y366449D01*
X1125073Y366884D01*
X1125314Y367324D01*
X1125545Y367770D01*
X1125765Y368222D01*
X1125974Y368679D01*
X1126173Y369140D01*
X1126360Y369606D01*
X1126537Y370077D01*
X1126702Y370551D01*
X1126879Y371096D01*
X1127043Y371646D01*
X1127193Y372200D01*
X1127330Y372757D01*
X1127453Y373317D01*
X1127562Y373881D01*
X1127658Y374446D01*
X1127739Y375014D01*
X1127807Y375584D01*
X1127862Y376164D01*
X1127904Y376745D01*
X1127931Y377327D01*
X1127945Y377909D01*
X1127945Y378491D01*
X1127931Y379073D01*
X1127904Y379655D01*
X1127862Y380236D01*
X1127807Y380816D01*
X1127738Y381386D01*
X1127656Y381954D01*
X1127560Y382519D01*
X1127451Y383082D01*
X1127328Y383643D01*
X1127191Y384200D01*
X1127041Y384753D01*
X1126878Y385303D01*
X1126702Y385849D01*
X1126535Y386323D01*
X1126358Y386793D01*
X1126170Y387258D01*
X1125971Y387720D01*
X1125761Y388176D01*
X1125541Y388628D01*
X1125311Y389074D01*
X1125070Y389515D01*
X1124819Y389950D01*
X1124559Y390380D01*
X1124324Y390745D01*
X1124081Y391104D01*
X1123829Y391458D01*
X1123570Y391806D01*
X1123303Y392148D01*
X1123028Y392484D01*
X1122745Y392813D01*
X1122455Y393136D01*
X1122157Y393452D01*
X1121853Y393761D01*
X1121541Y394064D01*
X1121235Y394338D01*
X1120922Y394604D01*
X1120604Y394864D01*
X1120280Y395116D01*
X1119950Y395362D01*
X1119615Y395599D01*
X1119275Y395829D01*
X1118930Y396052D01*
X1118579Y396266D01*
X1118224Y396473D01*
X1118225Y396473D02*
X1117915Y396637D01*
X1117601Y396793D01*
X1117283Y396942D01*
X1116962Y397083D01*
X1116638Y397216D01*
X1116311Y397341D01*
X1115980Y397459D01*
X1115647Y397568D01*
X1115312Y397669D01*
X1114974Y397762D01*
X1114973Y397762D02*
X1114669Y397837D01*
X1114364Y397906D01*
X1114056Y397967D01*
X1113748Y398021D01*
X1113438Y398068D01*
X1113127Y398108D01*
X1112816Y398141D01*
X1112504Y398167D01*
X1112191Y398185D01*
X1111878Y398196D01*
X1111564Y398200D01*
X1207200Y363200D02*
X1209700Y363200D01*
X1209700Y393200D01*
X1193200Y393200D01*
X1193200Y363200D01*
X1207200Y363200D01*
X1217700Y361200D02*
X1217700Y395200D01*
X1185700Y395200D01*
X1185700Y361200D01*
X1217700Y361200D01*
D17*
X1085342Y152908D02*
X1073658Y160697D01*
X1073658Y152908D02*
X1085342Y160697D01*
X1085342Y164987D02*
X1085342Y168233D01*
X1085340Y168346D01*
X1085334Y168459D01*
X1085324Y168572D01*
X1085310Y168685D01*
X1085293Y168797D01*
X1085271Y168908D01*
X1085246Y169018D01*
X1085216Y169128D01*
X1085183Y169236D01*
X1085146Y169343D01*
X1085106Y169449D01*
X1085061Y169553D01*
X1085013Y169656D01*
X1084962Y169757D01*
X1084907Y169856D01*
X1084849Y169953D01*
X1084787Y170048D01*
X1084722Y170141D01*
X1084654Y170231D01*
X1084583Y170319D01*
X1084508Y170405D01*
X1084431Y170488D01*
X1084351Y170568D01*
X1084268Y170645D01*
X1084182Y170720D01*
X1084094Y170791D01*
X1084004Y170859D01*
X1083911Y170924D01*
X1083816Y170986D01*
X1083719Y171044D01*
X1083620Y171099D01*
X1083519Y171150D01*
X1083416Y171198D01*
X1083312Y171243D01*
X1083206Y171283D01*
X1083099Y171320D01*
X1082991Y171353D01*
X1082881Y171383D01*
X1082771Y171408D01*
X1082660Y171430D01*
X1082548Y171447D01*
X1082435Y171461D01*
X1082322Y171471D01*
X1082209Y171477D01*
X1082096Y171479D01*
X1081983Y171477D01*
X1081870Y171471D01*
X1081757Y171461D01*
X1081644Y171447D01*
X1081532Y171430D01*
X1081421Y171408D01*
X1081311Y171383D01*
X1081201Y171353D01*
X1081093Y171320D01*
X1080986Y171283D01*
X1080880Y171243D01*
X1080776Y171198D01*
X1080673Y171150D01*
X1080572Y171099D01*
X1080473Y171044D01*
X1080376Y170986D01*
X1080281Y170924D01*
X1080188Y170859D01*
X1080098Y170791D01*
X1080010Y170720D01*
X1079924Y170645D01*
X1079841Y170568D01*
X1079761Y170488D01*
X1079684Y170405D01*
X1079609Y170319D01*
X1079538Y170231D01*
X1079470Y170141D01*
X1079405Y170048D01*
X1079343Y169953D01*
X1079285Y169856D01*
X1079230Y169757D01*
X1079179Y169656D01*
X1079131Y169553D01*
X1079086Y169449D01*
X1079046Y169343D01*
X1079009Y169236D01*
X1078976Y169128D01*
X1078946Y169018D01*
X1078921Y168908D01*
X1078899Y168797D01*
X1078882Y168685D01*
X1078868Y168572D01*
X1078858Y168459D01*
X1078852Y168346D01*
X1078850Y168233D01*
X1073658Y168882D02*
X1073658Y164987D01*
X1073658Y168882D02*
X1073660Y168983D01*
X1073666Y169083D01*
X1073676Y169183D01*
X1073689Y169283D01*
X1073707Y169382D01*
X1073728Y169481D01*
X1073753Y169578D01*
X1073782Y169675D01*
X1073815Y169770D01*
X1073851Y169864D01*
X1073891Y169956D01*
X1073934Y170047D01*
X1073981Y170136D01*
X1074031Y170223D01*
X1074085Y170309D01*
X1074142Y170392D01*
X1074202Y170472D01*
X1074265Y170551D01*
X1074332Y170627D01*
X1074401Y170700D01*
X1074473Y170770D01*
X1074547Y170838D01*
X1074624Y170903D01*
X1074704Y170964D01*
X1074786Y171023D01*
X1074870Y171078D01*
X1074956Y171130D01*
X1075044Y171179D01*
X1075134Y171224D01*
X1075226Y171266D01*
X1075319Y171304D01*
X1075414Y171338D01*
X1075509Y171369D01*
X1075606Y171396D01*
X1075704Y171419D01*
X1075803Y171439D01*
X1075903Y171454D01*
X1076003Y171466D01*
X1076103Y171474D01*
X1076204Y171478D01*
X1076304Y171478D01*
X1076405Y171474D01*
X1076505Y171466D01*
X1076605Y171454D01*
X1076705Y171439D01*
X1076804Y171419D01*
X1076902Y171396D01*
X1076999Y171369D01*
X1077094Y171338D01*
X1077189Y171304D01*
X1077282Y171266D01*
X1077374Y171224D01*
X1077464Y171179D01*
X1077552Y171130D01*
X1077638Y171078D01*
X1077722Y171023D01*
X1077804Y170964D01*
X1077884Y170903D01*
X1077961Y170838D01*
X1078035Y170770D01*
X1078107Y170700D01*
X1078176Y170627D01*
X1078243Y170551D01*
X1078306Y170472D01*
X1078366Y170392D01*
X1078423Y170309D01*
X1078477Y170223D01*
X1078527Y170136D01*
X1078574Y170047D01*
X1078617Y169956D01*
X1078657Y169864D01*
X1078693Y169770D01*
X1078726Y169675D01*
X1078755Y169578D01*
X1078780Y169481D01*
X1078801Y169382D01*
X1078819Y169283D01*
X1078832Y169183D01*
X1078842Y169083D01*
X1078848Y168983D01*
X1078850Y168882D01*
X1078851Y168882D02*
X1078851Y166285D01*
D10*
X699770Y152400D02*
X595630Y152400D01*
X595630Y311150D02*
X699770Y311150D01*
X699770Y276860D02*
X699770Y152400D01*
X699770Y276860D02*
X690880Y276860D01*
X690880Y292100D01*
X699770Y292100D01*
X699770Y311150D01*
X595630Y276860D02*
X595630Y152400D01*
X595630Y276860D02*
X604520Y276860D01*
X604520Y292100D01*
X595630Y292100D01*
X595630Y311150D01*
D13*
X601980Y158750D02*
X693420Y158750D01*
X693420Y241300D01*
X601980Y241300D01*
X601980Y158750D01*
D10*
X629666Y276860D02*
X629671Y277303D01*
X629688Y277745D01*
X629715Y278187D01*
X629753Y278628D01*
X629802Y279068D01*
X629861Y279506D01*
X629932Y279943D01*
X630013Y280378D01*
X630104Y280811D01*
X630206Y281242D01*
X630319Y281670D01*
X630443Y282095D01*
X630576Y282517D01*
X630720Y282935D01*
X630874Y283350D01*
X631039Y283761D01*
X631213Y284168D01*
X631397Y284571D01*
X631592Y284968D01*
X631795Y285361D01*
X632009Y285749D01*
X632232Y286131D01*
X632464Y286508D01*
X632705Y286879D01*
X632956Y287244D01*
X633215Y287603D01*
X633483Y287955D01*
X633760Y288301D01*
X634044Y288639D01*
X634338Y288971D01*
X634639Y289295D01*
X634948Y289612D01*
X635265Y289921D01*
X635589Y290222D01*
X635921Y290516D01*
X636259Y290800D01*
X636605Y291077D01*
X636957Y291345D01*
X637316Y291604D01*
X637681Y291855D01*
X638052Y292096D01*
X638429Y292328D01*
X638811Y292551D01*
X639199Y292765D01*
X639592Y292968D01*
X639989Y293163D01*
X640392Y293347D01*
X640799Y293521D01*
X641210Y293686D01*
X641625Y293840D01*
X642043Y293984D01*
X642465Y294117D01*
X642890Y294241D01*
X643318Y294354D01*
X643749Y294456D01*
X644182Y294547D01*
X644617Y294628D01*
X645054Y294699D01*
X645492Y294758D01*
X645932Y294807D01*
X646373Y294845D01*
X646815Y294872D01*
X647257Y294889D01*
X647700Y294894D01*
X648143Y294889D01*
X648585Y294872D01*
X649027Y294845D01*
X649468Y294807D01*
X649908Y294758D01*
X650346Y294699D01*
X650783Y294628D01*
X651218Y294547D01*
X651651Y294456D01*
X652082Y294354D01*
X652510Y294241D01*
X652935Y294117D01*
X653357Y293984D01*
X653775Y293840D01*
X654190Y293686D01*
X654601Y293521D01*
X655008Y293347D01*
X655411Y293163D01*
X655808Y292968D01*
X656201Y292765D01*
X656589Y292551D01*
X656971Y292328D01*
X657348Y292096D01*
X657719Y291855D01*
X658084Y291604D01*
X658443Y291345D01*
X658795Y291077D01*
X659141Y290800D01*
X659479Y290516D01*
X659811Y290222D01*
X660135Y289921D01*
X660452Y289612D01*
X660761Y289295D01*
X661062Y288971D01*
X661356Y288639D01*
X661640Y288301D01*
X661917Y287955D01*
X662185Y287603D01*
X662444Y287244D01*
X662695Y286879D01*
X662936Y286508D01*
X663168Y286131D01*
X663391Y285749D01*
X663605Y285361D01*
X663808Y284968D01*
X664003Y284571D01*
X664187Y284168D01*
X664361Y283761D01*
X664526Y283350D01*
X664680Y282935D01*
X664824Y282517D01*
X664957Y282095D01*
X665081Y281670D01*
X665194Y281242D01*
X665296Y280811D01*
X665387Y280378D01*
X665468Y279943D01*
X665539Y279506D01*
X665598Y279068D01*
X665647Y278628D01*
X665685Y278187D01*
X665712Y277745D01*
X665729Y277303D01*
X665734Y276860D01*
X665729Y276417D01*
X665712Y275975D01*
X665685Y275533D01*
X665647Y275092D01*
X665598Y274652D01*
X665539Y274214D01*
X665468Y273777D01*
X665387Y273342D01*
X665296Y272909D01*
X665194Y272478D01*
X665081Y272050D01*
X664957Y271625D01*
X664824Y271203D01*
X664680Y270785D01*
X664526Y270370D01*
X664361Y269959D01*
X664187Y269552D01*
X664003Y269149D01*
X663808Y268752D01*
X663605Y268359D01*
X663391Y267971D01*
X663168Y267589D01*
X662936Y267212D01*
X662695Y266841D01*
X662444Y266476D01*
X662185Y266117D01*
X661917Y265765D01*
X661640Y265419D01*
X661356Y265081D01*
X661062Y264749D01*
X660761Y264425D01*
X660452Y264108D01*
X660135Y263799D01*
X659811Y263498D01*
X659479Y263204D01*
X659141Y262920D01*
X658795Y262643D01*
X658443Y262375D01*
X658084Y262116D01*
X657719Y261865D01*
X657348Y261624D01*
X656971Y261392D01*
X656589Y261169D01*
X656201Y260955D01*
X655808Y260752D01*
X655411Y260557D01*
X655008Y260373D01*
X654601Y260199D01*
X654190Y260034D01*
X653775Y259880D01*
X653357Y259736D01*
X652935Y259603D01*
X652510Y259479D01*
X652082Y259366D01*
X651651Y259264D01*
X651218Y259173D01*
X650783Y259092D01*
X650346Y259021D01*
X649908Y258962D01*
X649468Y258913D01*
X649027Y258875D01*
X648585Y258848D01*
X648143Y258831D01*
X647700Y258826D01*
X647257Y258831D01*
X646815Y258848D01*
X646373Y258875D01*
X645932Y258913D01*
X645492Y258962D01*
X645054Y259021D01*
X644617Y259092D01*
X644182Y259173D01*
X643749Y259264D01*
X643318Y259366D01*
X642890Y259479D01*
X642465Y259603D01*
X642043Y259736D01*
X641625Y259880D01*
X641210Y260034D01*
X640799Y260199D01*
X640392Y260373D01*
X639989Y260557D01*
X639592Y260752D01*
X639199Y260955D01*
X638811Y261169D01*
X638429Y261392D01*
X638052Y261624D01*
X637681Y261865D01*
X637316Y262116D01*
X636957Y262375D01*
X636605Y262643D01*
X636259Y262920D01*
X635921Y263204D01*
X635589Y263498D01*
X635265Y263799D01*
X634948Y264108D01*
X634639Y264425D01*
X634338Y264749D01*
X634044Y265081D01*
X633760Y265419D01*
X633483Y265765D01*
X633215Y266117D01*
X632956Y266476D01*
X632705Y266841D01*
X632464Y267212D01*
X632232Y267589D01*
X632009Y267971D01*
X631795Y268359D01*
X631592Y268752D01*
X631397Y269149D01*
X631213Y269552D01*
X631039Y269959D01*
X630874Y270370D01*
X630720Y270785D01*
X630576Y271203D01*
X630443Y271625D01*
X630319Y272050D01*
X630206Y272478D01*
X630104Y272909D01*
X630013Y273342D01*
X629932Y273777D01*
X629861Y274214D01*
X629802Y274652D01*
X629753Y275092D01*
X629715Y275533D01*
X629688Y275975D01*
X629671Y276417D01*
X629666Y276860D01*
D14*
X673100Y121285D03*
X647700Y121285D03*
X622300Y121285D03*
D15*
X622300Y138430D03*
X647700Y138430D03*
X673100Y138430D03*
D16*
X592201Y287147D02*
X576199Y287147D01*
X592201Y285369D02*
X592201Y288925D01*
X576199Y288925D02*
X576199Y285369D01*
X592201Y298719D02*
X592201Y302275D01*
X592201Y298719D02*
X592199Y298603D01*
X592193Y298486D01*
X592184Y298370D01*
X592171Y298255D01*
X592154Y298140D01*
X592133Y298025D01*
X592108Y297912D01*
X592080Y297799D01*
X592048Y297687D01*
X592012Y297576D01*
X591973Y297466D01*
X591930Y297358D01*
X591884Y297251D01*
X591834Y297146D01*
X591781Y297043D01*
X591725Y296941D01*
X591665Y296841D01*
X591602Y296743D01*
X591535Y296648D01*
X591466Y296554D01*
X591394Y296463D01*
X591319Y296374D01*
X591240Y296288D01*
X591159Y296205D01*
X591076Y296124D01*
X590990Y296045D01*
X590901Y295970D01*
X590810Y295898D01*
X590716Y295829D01*
X590621Y295762D01*
X590523Y295699D01*
X590423Y295639D01*
X590321Y295583D01*
X590218Y295530D01*
X590113Y295480D01*
X590006Y295434D01*
X589898Y295391D01*
X589788Y295352D01*
X589677Y295316D01*
X589565Y295284D01*
X589452Y295256D01*
X589339Y295231D01*
X589224Y295210D01*
X589109Y295193D01*
X588994Y295180D01*
X588878Y295171D01*
X588761Y295165D01*
X588645Y295163D01*
X579755Y295163D01*
X579639Y295165D01*
X579522Y295171D01*
X579406Y295180D01*
X579291Y295193D01*
X579176Y295210D01*
X579061Y295231D01*
X578948Y295256D01*
X578835Y295284D01*
X578723Y295316D01*
X578612Y295352D01*
X578502Y295391D01*
X578394Y295434D01*
X578287Y295480D01*
X578182Y295530D01*
X578079Y295583D01*
X577977Y295639D01*
X577877Y295699D01*
X577779Y295762D01*
X577684Y295829D01*
X577590Y295898D01*
X577499Y295970D01*
X577410Y296045D01*
X577324Y296124D01*
X577241Y296205D01*
X577160Y296288D01*
X577081Y296374D01*
X577006Y296463D01*
X576934Y296554D01*
X576865Y296648D01*
X576798Y296743D01*
X576735Y296841D01*
X576675Y296941D01*
X576619Y297043D01*
X576566Y297146D01*
X576516Y297251D01*
X576470Y297358D01*
X576427Y297466D01*
X576388Y297576D01*
X576352Y297687D01*
X576320Y297799D01*
X576292Y297912D01*
X576267Y298025D01*
X576246Y298140D01*
X576229Y298255D01*
X576216Y298370D01*
X576207Y298486D01*
X576201Y298603D01*
X576199Y298719D01*
X576199Y302275D01*
X576199Y313123D02*
X576201Y313249D01*
X576207Y313374D01*
X576217Y313500D01*
X576231Y313624D01*
X576248Y313749D01*
X576270Y313873D01*
X576295Y313996D01*
X576325Y314118D01*
X576358Y314239D01*
X576395Y314359D01*
X576436Y314478D01*
X576480Y314596D01*
X576528Y314712D01*
X576580Y314827D01*
X576635Y314939D01*
X576694Y315050D01*
X576756Y315160D01*
X576822Y315267D01*
X576891Y315372D01*
X576963Y315475D01*
X577039Y315575D01*
X577117Y315673D01*
X577199Y315769D01*
X577283Y315862D01*
X577371Y315952D01*
X577461Y316040D01*
X577554Y316124D01*
X577650Y316206D01*
X577748Y316284D01*
X577848Y316360D01*
X577951Y316432D01*
X578056Y316501D01*
X578163Y316567D01*
X578273Y316629D01*
X578384Y316688D01*
X578496Y316743D01*
X578611Y316795D01*
X578727Y316843D01*
X578845Y316887D01*
X578964Y316928D01*
X579084Y316965D01*
X579205Y316998D01*
X579327Y317028D01*
X579450Y317053D01*
X579574Y317075D01*
X579699Y317092D01*
X579823Y317106D01*
X579949Y317116D01*
X580074Y317122D01*
X580200Y317124D01*
X576199Y313123D02*
X576201Y312982D01*
X576207Y312842D01*
X576216Y312702D01*
X576230Y312562D01*
X576247Y312423D01*
X576268Y312284D01*
X576293Y312145D01*
X576321Y312008D01*
X576354Y311871D01*
X576390Y311735D01*
X576430Y311600D01*
X576473Y311467D01*
X576520Y311334D01*
X576571Y311203D01*
X576625Y311074D01*
X576683Y310946D01*
X576744Y310819D01*
X576809Y310694D01*
X576877Y310572D01*
X576948Y310451D01*
X577023Y310331D01*
X577101Y310215D01*
X577182Y310100D01*
X577266Y309987D01*
X577354Y309877D01*
X577444Y309769D01*
X577537Y309664D01*
X577633Y309562D01*
X577732Y309462D01*
X577833Y309364D01*
X577937Y309270D01*
X578044Y309178D01*
X578153Y309090D01*
X578264Y309004D01*
X578378Y308922D01*
X578494Y308842D01*
X578612Y308766D01*
X578732Y308693D01*
X578854Y308624D01*
X578978Y308557D01*
X579104Y308494D01*
X579231Y308435D01*
X579360Y308379D01*
X579490Y308327D01*
X579622Y308278D01*
X579755Y308233D01*
X583312Y315789D02*
X583221Y315881D01*
X583128Y315971D01*
X583033Y316057D01*
X582935Y316141D01*
X582834Y316221D01*
X582731Y316299D01*
X582626Y316373D01*
X582518Y316444D01*
X582409Y316512D01*
X582297Y316576D01*
X582184Y316638D01*
X582069Y316695D01*
X581952Y316750D01*
X581833Y316801D01*
X581713Y316848D01*
X581592Y316891D01*
X581470Y316931D01*
X581346Y316967D01*
X581221Y317000D01*
X581096Y317029D01*
X580969Y317054D01*
X580842Y317075D01*
X580714Y317092D01*
X580586Y317106D01*
X580458Y317115D01*
X580329Y317121D01*
X580200Y317123D01*
X583311Y315790D02*
X592201Y308233D01*
X592201Y317123D01*
D19*
X724100Y136900D02*
X769600Y136900D01*
X769600Y40900D01*
X724100Y40900D01*
X724100Y56900D01*
X726600Y56900D01*
X726600Y120900D01*
X724100Y120900D01*
X724100Y136900D01*
D10*
X744100Y55900D02*
X744103Y56170D01*
X744113Y56440D01*
X744130Y56709D01*
X744153Y56978D01*
X744183Y57247D01*
X744219Y57514D01*
X744262Y57781D01*
X744311Y58046D01*
X744367Y58310D01*
X744430Y58573D01*
X744498Y58834D01*
X744574Y59093D01*
X744655Y59350D01*
X744743Y59606D01*
X744837Y59859D01*
X744937Y60110D01*
X745044Y60358D01*
X745156Y60603D01*
X745275Y60846D01*
X745399Y61085D01*
X745529Y61322D01*
X745665Y61555D01*
X745807Y61785D01*
X745954Y62011D01*
X746107Y62234D01*
X746265Y62453D01*
X746428Y62668D01*
X746597Y62878D01*
X746771Y63085D01*
X746950Y63287D01*
X747133Y63485D01*
X747322Y63678D01*
X747515Y63867D01*
X747713Y64050D01*
X747915Y64229D01*
X748122Y64403D01*
X748332Y64572D01*
X748547Y64735D01*
X748766Y64893D01*
X748989Y65046D01*
X749215Y65193D01*
X749445Y65335D01*
X749678Y65471D01*
X749915Y65601D01*
X750154Y65725D01*
X750397Y65844D01*
X750642Y65956D01*
X750890Y66063D01*
X751141Y66163D01*
X751394Y66257D01*
X751650Y66345D01*
X751907Y66426D01*
X752166Y66502D01*
X752427Y66570D01*
X752690Y66633D01*
X752954Y66689D01*
X753219Y66738D01*
X753486Y66781D01*
X753753Y66817D01*
X754022Y66847D01*
X754291Y66870D01*
X754560Y66887D01*
X754830Y66897D01*
X755100Y66900D01*
X755370Y66897D01*
X755640Y66887D01*
X755909Y66870D01*
X756178Y66847D01*
X756447Y66817D01*
X756714Y66781D01*
X756981Y66738D01*
X757246Y66689D01*
X757510Y66633D01*
X757773Y66570D01*
X758034Y66502D01*
X758293Y66426D01*
X758550Y66345D01*
X758806Y66257D01*
X759059Y66163D01*
X759310Y66063D01*
X759558Y65956D01*
X759803Y65844D01*
X760046Y65725D01*
X760285Y65601D01*
X760522Y65471D01*
X760755Y65335D01*
X760985Y65193D01*
X761211Y65046D01*
X761434Y64893D01*
X761653Y64735D01*
X761868Y64572D01*
X762078Y64403D01*
X762285Y64229D01*
X762487Y64050D01*
X762685Y63867D01*
X762878Y63678D01*
X763067Y63485D01*
X763250Y63287D01*
X763429Y63085D01*
X763603Y62878D01*
X763772Y62668D01*
X763935Y62453D01*
X764093Y62234D01*
X764246Y62011D01*
X764393Y61785D01*
X764535Y61555D01*
X764671Y61322D01*
X764801Y61085D01*
X764925Y60846D01*
X765044Y60603D01*
X765156Y60358D01*
X765263Y60110D01*
X765363Y59859D01*
X765457Y59606D01*
X765545Y59350D01*
X765626Y59093D01*
X765702Y58834D01*
X765770Y58573D01*
X765833Y58310D01*
X765889Y58046D01*
X765938Y57781D01*
X765981Y57514D01*
X766017Y57247D01*
X766047Y56978D01*
X766070Y56709D01*
X766087Y56440D01*
X766097Y56170D01*
X766100Y55900D01*
X766097Y55630D01*
X766087Y55360D01*
X766070Y55091D01*
X766047Y54822D01*
X766017Y54553D01*
X765981Y54286D01*
X765938Y54019D01*
X765889Y53754D01*
X765833Y53490D01*
X765770Y53227D01*
X765702Y52966D01*
X765626Y52707D01*
X765545Y52450D01*
X765457Y52194D01*
X765363Y51941D01*
X765263Y51690D01*
X765156Y51442D01*
X765044Y51197D01*
X764925Y50954D01*
X764801Y50715D01*
X764671Y50478D01*
X764535Y50245D01*
X764393Y50015D01*
X764246Y49789D01*
X764093Y49566D01*
X763935Y49347D01*
X763772Y49132D01*
X763603Y48922D01*
X763429Y48715D01*
X763250Y48513D01*
X763067Y48315D01*
X762878Y48122D01*
X762685Y47933D01*
X762487Y47750D01*
X762285Y47571D01*
X762078Y47397D01*
X761868Y47228D01*
X761653Y47065D01*
X761434Y46907D01*
X761211Y46754D01*
X760985Y46607D01*
X760755Y46465D01*
X760522Y46329D01*
X760285Y46199D01*
X760046Y46075D01*
X759803Y45956D01*
X759558Y45844D01*
X759310Y45737D01*
X759059Y45637D01*
X758806Y45543D01*
X758550Y45455D01*
X758293Y45374D01*
X758034Y45298D01*
X757773Y45230D01*
X757510Y45167D01*
X757246Y45111D01*
X756981Y45062D01*
X756714Y45019D01*
X756447Y44983D01*
X756178Y44953D01*
X755909Y44930D01*
X755640Y44913D01*
X755370Y44903D01*
X755100Y44900D01*
X754830Y44903D01*
X754560Y44913D01*
X754291Y44930D01*
X754022Y44953D01*
X753753Y44983D01*
X753486Y45019D01*
X753219Y45062D01*
X752954Y45111D01*
X752690Y45167D01*
X752427Y45230D01*
X752166Y45298D01*
X751907Y45374D01*
X751650Y45455D01*
X751394Y45543D01*
X751141Y45637D01*
X750890Y45737D01*
X750642Y45844D01*
X750397Y45956D01*
X750154Y46075D01*
X749915Y46199D01*
X749678Y46329D01*
X749445Y46465D01*
X749215Y46607D01*
X748989Y46754D01*
X748766Y46907D01*
X748547Y47065D01*
X748332Y47228D01*
X748122Y47397D01*
X747915Y47571D01*
X747713Y47750D01*
X747515Y47933D01*
X747322Y48122D01*
X747133Y48315D01*
X746950Y48513D01*
X746771Y48715D01*
X746597Y48922D01*
X746428Y49132D01*
X746265Y49347D01*
X746107Y49566D01*
X745954Y49789D01*
X745807Y50015D01*
X745665Y50245D01*
X745529Y50478D01*
X745399Y50715D01*
X745275Y50954D01*
X745156Y51197D01*
X745044Y51442D01*
X744937Y51690D01*
X744837Y51941D01*
X744743Y52194D01*
X744655Y52450D01*
X744574Y52707D01*
X744498Y52966D01*
X744430Y53227D01*
X744367Y53490D01*
X744311Y53754D01*
X744262Y54019D01*
X744219Y54286D01*
X744183Y54553D01*
X744153Y54822D01*
X744130Y55091D01*
X744113Y55360D01*
X744103Y55630D01*
X744100Y55900D01*
D20*
X755100Y55900D03*
D17*
X776008Y120045D02*
X787692Y120045D01*
X776008Y120045D02*
X776008Y123290D01*
X776010Y123403D01*
X776016Y123516D01*
X776026Y123629D01*
X776040Y123742D01*
X776057Y123854D01*
X776079Y123965D01*
X776104Y124075D01*
X776134Y124185D01*
X776167Y124293D01*
X776204Y124400D01*
X776244Y124506D01*
X776289Y124610D01*
X776337Y124713D01*
X776388Y124814D01*
X776443Y124913D01*
X776501Y125010D01*
X776563Y125105D01*
X776628Y125198D01*
X776696Y125288D01*
X776767Y125376D01*
X776842Y125462D01*
X776919Y125545D01*
X776999Y125625D01*
X777082Y125702D01*
X777168Y125777D01*
X777256Y125848D01*
X777346Y125916D01*
X777439Y125981D01*
X777534Y126043D01*
X777631Y126101D01*
X777730Y126156D01*
X777831Y126207D01*
X777934Y126255D01*
X778038Y126300D01*
X778144Y126340D01*
X778251Y126377D01*
X778359Y126410D01*
X778469Y126440D01*
X778579Y126465D01*
X778690Y126487D01*
X778802Y126504D01*
X778915Y126518D01*
X779028Y126528D01*
X779141Y126534D01*
X779254Y126536D01*
X779367Y126534D01*
X779480Y126528D01*
X779593Y126518D01*
X779706Y126504D01*
X779818Y126487D01*
X779929Y126465D01*
X780039Y126440D01*
X780149Y126410D01*
X780257Y126377D01*
X780364Y126340D01*
X780470Y126300D01*
X780574Y126255D01*
X780677Y126207D01*
X780778Y126156D01*
X780877Y126101D01*
X780974Y126043D01*
X781069Y125981D01*
X781162Y125916D01*
X781252Y125848D01*
X781340Y125777D01*
X781426Y125702D01*
X781509Y125625D01*
X781589Y125545D01*
X781666Y125462D01*
X781741Y125376D01*
X781812Y125288D01*
X781880Y125198D01*
X781945Y125105D01*
X782007Y125010D01*
X782065Y124913D01*
X782120Y124814D01*
X782171Y124713D01*
X782219Y124610D01*
X782264Y124506D01*
X782304Y124400D01*
X782341Y124293D01*
X782374Y124185D01*
X782404Y124075D01*
X782429Y123965D01*
X782451Y123854D01*
X782468Y123742D01*
X782482Y123629D01*
X782492Y123516D01*
X782498Y123403D01*
X782500Y123290D01*
X782499Y123290D02*
X782499Y120045D01*
X782499Y123939D02*
X787692Y126536D01*
X778929Y137892D02*
X778822Y137890D01*
X778716Y137884D01*
X778610Y137874D01*
X778504Y137861D01*
X778398Y137843D01*
X778294Y137822D01*
X778190Y137797D01*
X778087Y137768D01*
X777986Y137736D01*
X777886Y137699D01*
X777787Y137659D01*
X777689Y137616D01*
X777593Y137569D01*
X777499Y137518D01*
X777407Y137464D01*
X777317Y137407D01*
X777229Y137347D01*
X777144Y137283D01*
X777061Y137216D01*
X776980Y137146D01*
X776902Y137074D01*
X776826Y136998D01*
X776754Y136920D01*
X776684Y136839D01*
X776617Y136756D01*
X776553Y136671D01*
X776493Y136583D01*
X776436Y136493D01*
X776382Y136401D01*
X776331Y136307D01*
X776284Y136211D01*
X776241Y136113D01*
X776201Y136014D01*
X776164Y135914D01*
X776132Y135813D01*
X776103Y135710D01*
X776078Y135606D01*
X776057Y135502D01*
X776039Y135396D01*
X776026Y135290D01*
X776016Y135184D01*
X776010Y135078D01*
X776008Y134971D01*
X776010Y134850D01*
X776016Y134729D01*
X776026Y134609D01*
X776039Y134488D01*
X776057Y134369D01*
X776078Y134249D01*
X776103Y134131D01*
X776132Y134014D01*
X776165Y133897D01*
X776201Y133782D01*
X776242Y133668D01*
X776285Y133555D01*
X776333Y133443D01*
X776384Y133334D01*
X776439Y133226D01*
X776497Y133119D01*
X776558Y133015D01*
X776623Y132913D01*
X776691Y132813D01*
X776762Y132715D01*
X776836Y132619D01*
X776913Y132526D01*
X776994Y132436D01*
X777077Y132348D01*
X777163Y132263D01*
X777252Y132180D01*
X777343Y132101D01*
X777437Y132024D01*
X777533Y131951D01*
X777631Y131881D01*
X777732Y131814D01*
X777835Y131750D01*
X777940Y131690D01*
X778047Y131632D01*
X778155Y131579D01*
X778265Y131529D01*
X778377Y131483D01*
X778490Y131440D01*
X778605Y131401D01*
X781201Y136918D02*
X781123Y136997D01*
X781043Y137073D01*
X780960Y137146D01*
X780874Y137216D01*
X780787Y137283D01*
X780696Y137347D01*
X780604Y137407D01*
X780510Y137465D01*
X780413Y137519D01*
X780315Y137569D01*
X780215Y137616D01*
X780114Y137660D01*
X780011Y137700D01*
X779906Y137736D01*
X779801Y137768D01*
X779694Y137797D01*
X779587Y137822D01*
X779478Y137844D01*
X779369Y137861D01*
X779260Y137875D01*
X779150Y137884D01*
X779039Y137890D01*
X778929Y137892D01*
X781201Y136918D02*
X787692Y131401D01*
X787692Y137892D01*
D10*
X762000Y296672D02*
X762000Y307340D01*
D12*
X762000Y296672D02*
X769620Y296672D01*
X762000Y296672D02*
X754380Y296672D01*
X762000Y287782D02*
X769620Y287782D01*
D10*
X762000Y287782D02*
X762000Y276860D01*
D12*
X762000Y287782D02*
X754380Y287782D01*
D10*
X727710Y328930D02*
X796290Y328930D01*
X725170Y326390D02*
X725170Y257810D01*
X727710Y255270D02*
X796290Y255270D01*
X798830Y257810D02*
X798830Y326390D01*
X798830Y257810D02*
X798828Y257710D01*
X798822Y257611D01*
X798812Y257511D01*
X798799Y257413D01*
X798781Y257314D01*
X798760Y257217D01*
X798735Y257121D01*
X798706Y257025D01*
X798673Y256931D01*
X798637Y256838D01*
X798597Y256747D01*
X798553Y256657D01*
X798506Y256569D01*
X798456Y256483D01*
X798402Y256399D01*
X798345Y256317D01*
X798285Y256238D01*
X798221Y256160D01*
X798155Y256086D01*
X798086Y256014D01*
X798014Y255945D01*
X797940Y255879D01*
X797862Y255815D01*
X797783Y255755D01*
X797701Y255698D01*
X797617Y255644D01*
X797531Y255594D01*
X797443Y255547D01*
X797353Y255503D01*
X797262Y255463D01*
X797169Y255427D01*
X797075Y255394D01*
X796979Y255365D01*
X796883Y255340D01*
X796786Y255319D01*
X796687Y255301D01*
X796589Y255288D01*
X796489Y255278D01*
X796390Y255272D01*
X796290Y255270D01*
X727710Y255270D02*
X727610Y255272D01*
X727511Y255278D01*
X727411Y255288D01*
X727313Y255301D01*
X727214Y255319D01*
X727117Y255340D01*
X727021Y255365D01*
X726925Y255394D01*
X726831Y255427D01*
X726738Y255463D01*
X726647Y255503D01*
X726557Y255547D01*
X726469Y255594D01*
X726383Y255644D01*
X726299Y255698D01*
X726217Y255755D01*
X726138Y255815D01*
X726060Y255879D01*
X725986Y255945D01*
X725914Y256014D01*
X725845Y256086D01*
X725779Y256160D01*
X725715Y256238D01*
X725655Y256317D01*
X725598Y256399D01*
X725544Y256483D01*
X725494Y256569D01*
X725447Y256657D01*
X725403Y256747D01*
X725363Y256838D01*
X725327Y256931D01*
X725294Y257025D01*
X725265Y257121D01*
X725240Y257217D01*
X725219Y257314D01*
X725201Y257413D01*
X725188Y257511D01*
X725178Y257611D01*
X725172Y257710D01*
X725170Y257810D01*
X725170Y326390D02*
X725172Y326490D01*
X725178Y326589D01*
X725188Y326689D01*
X725201Y326787D01*
X725219Y326886D01*
X725240Y326983D01*
X725265Y327079D01*
X725294Y327175D01*
X725327Y327269D01*
X725363Y327362D01*
X725403Y327453D01*
X725447Y327543D01*
X725494Y327631D01*
X725544Y327717D01*
X725598Y327801D01*
X725655Y327883D01*
X725715Y327962D01*
X725779Y328040D01*
X725845Y328114D01*
X725914Y328186D01*
X725986Y328255D01*
X726060Y328321D01*
X726138Y328385D01*
X726217Y328445D01*
X726299Y328502D01*
X726383Y328556D01*
X726469Y328606D01*
X726557Y328653D01*
X726647Y328697D01*
X726738Y328737D01*
X726831Y328773D01*
X726925Y328806D01*
X727021Y328835D01*
X727117Y328860D01*
X727214Y328881D01*
X727313Y328899D01*
X727411Y328912D01*
X727511Y328922D01*
X727610Y328928D01*
X727710Y328930D01*
X796290Y328930D02*
X796390Y328928D01*
X796489Y328922D01*
X796589Y328912D01*
X796687Y328899D01*
X796786Y328881D01*
X796883Y328860D01*
X796979Y328835D01*
X797075Y328806D01*
X797169Y328773D01*
X797262Y328737D01*
X797353Y328697D01*
X797443Y328653D01*
X797531Y328606D01*
X797617Y328556D01*
X797701Y328502D01*
X797783Y328445D01*
X797862Y328385D01*
X797940Y328321D01*
X798014Y328255D01*
X798086Y328186D01*
X798155Y328114D01*
X798221Y328040D01*
X798285Y327962D01*
X798345Y327883D01*
X798402Y327801D01*
X798456Y327717D01*
X798506Y327631D01*
X798553Y327543D01*
X798597Y327453D01*
X798637Y327362D01*
X798673Y327269D01*
X798706Y327175D01*
X798735Y327079D01*
X798760Y326983D01*
X798781Y326886D01*
X798799Y326787D01*
X798812Y326689D01*
X798822Y326589D01*
X798828Y326490D01*
X798830Y326390D01*
D11*
X814705Y294603D02*
X814705Y292063D01*
X814703Y291963D01*
X814697Y291864D01*
X814687Y291764D01*
X814674Y291666D01*
X814656Y291567D01*
X814635Y291470D01*
X814610Y291374D01*
X814581Y291278D01*
X814548Y291184D01*
X814512Y291091D01*
X814472Y291000D01*
X814428Y290910D01*
X814381Y290822D01*
X814331Y290736D01*
X814277Y290652D01*
X814220Y290570D01*
X814160Y290491D01*
X814096Y290413D01*
X814030Y290339D01*
X813961Y290267D01*
X813889Y290198D01*
X813815Y290132D01*
X813737Y290068D01*
X813658Y290008D01*
X813576Y289951D01*
X813492Y289897D01*
X813406Y289847D01*
X813318Y289800D01*
X813228Y289756D01*
X813137Y289716D01*
X813044Y289680D01*
X812950Y289647D01*
X812854Y289618D01*
X812758Y289593D01*
X812661Y289572D01*
X812562Y289554D01*
X812464Y289541D01*
X812364Y289531D01*
X812265Y289525D01*
X812165Y289523D01*
X805815Y289523D01*
X805715Y289525D01*
X805616Y289531D01*
X805516Y289541D01*
X805418Y289554D01*
X805319Y289572D01*
X805222Y289593D01*
X805126Y289618D01*
X805030Y289647D01*
X804936Y289680D01*
X804843Y289716D01*
X804752Y289756D01*
X804662Y289800D01*
X804574Y289847D01*
X804488Y289897D01*
X804404Y289951D01*
X804322Y290008D01*
X804243Y290068D01*
X804165Y290132D01*
X804091Y290198D01*
X804019Y290267D01*
X803950Y290339D01*
X803884Y290413D01*
X803820Y290491D01*
X803760Y290570D01*
X803703Y290652D01*
X803649Y290736D01*
X803599Y290822D01*
X803552Y290910D01*
X803508Y291000D01*
X803468Y291091D01*
X803432Y291184D01*
X803399Y291278D01*
X803370Y291374D01*
X803345Y291470D01*
X803324Y291567D01*
X803306Y291666D01*
X803293Y291764D01*
X803283Y291864D01*
X803277Y291963D01*
X803275Y292063D01*
X803275Y294603D01*
X805815Y299085D02*
X803275Y302260D01*
X814705Y302260D01*
X814705Y299085D02*
X814705Y305435D01*
X803275Y314008D02*
X803277Y314112D01*
X803283Y314217D01*
X803292Y314321D01*
X803305Y314424D01*
X803323Y314527D01*
X803343Y314629D01*
X803368Y314731D01*
X803396Y314831D01*
X803428Y314931D01*
X803464Y315029D01*
X803503Y315126D01*
X803545Y315221D01*
X803591Y315315D01*
X803641Y315407D01*
X803693Y315497D01*
X803749Y315585D01*
X803809Y315671D01*
X803871Y315755D01*
X803936Y315836D01*
X804004Y315915D01*
X804076Y315992D01*
X804149Y316065D01*
X804226Y316137D01*
X804305Y316205D01*
X804386Y316270D01*
X804470Y316332D01*
X804556Y316392D01*
X804644Y316448D01*
X804734Y316500D01*
X804826Y316550D01*
X804920Y316596D01*
X805015Y316638D01*
X805112Y316677D01*
X805210Y316713D01*
X805310Y316745D01*
X805410Y316773D01*
X805512Y316798D01*
X805614Y316818D01*
X805717Y316836D01*
X805820Y316849D01*
X805924Y316858D01*
X806029Y316864D01*
X806133Y316866D01*
X803275Y314008D02*
X803277Y313890D01*
X803283Y313771D01*
X803292Y313653D01*
X803305Y313536D01*
X803323Y313419D01*
X803343Y313302D01*
X803368Y313186D01*
X803396Y313071D01*
X803429Y312958D01*
X803464Y312845D01*
X803504Y312733D01*
X803546Y312623D01*
X803593Y312514D01*
X803643Y312406D01*
X803696Y312301D01*
X803753Y312197D01*
X803813Y312095D01*
X803876Y311995D01*
X803943Y311897D01*
X804012Y311801D01*
X804085Y311708D01*
X804161Y311617D01*
X804239Y311528D01*
X804321Y311442D01*
X804405Y311359D01*
X804491Y311278D01*
X804581Y311201D01*
X804672Y311126D01*
X804766Y311054D01*
X804863Y310985D01*
X804961Y310920D01*
X805062Y310857D01*
X805165Y310798D01*
X805269Y310742D01*
X805375Y310690D01*
X805483Y310641D01*
X805592Y310596D01*
X805703Y310554D01*
X805815Y310516D01*
X808355Y315913D02*
X808280Y315989D01*
X808201Y316064D01*
X808120Y316135D01*
X808036Y316204D01*
X807950Y316269D01*
X807862Y316331D01*
X807772Y316391D01*
X807680Y316447D01*
X807585Y316500D01*
X807489Y316549D01*
X807391Y316595D01*
X807292Y316638D01*
X807191Y316677D01*
X807089Y316712D01*
X806986Y316744D01*
X806882Y316772D01*
X806777Y316797D01*
X806670Y316818D01*
X806564Y316835D01*
X806457Y316848D01*
X806349Y316857D01*
X806241Y316863D01*
X806133Y316865D01*
X808355Y315913D02*
X814705Y310515D01*
X814705Y316865D01*
D10*
X762000Y398272D02*
X762000Y408940D01*
D12*
X762000Y398272D02*
X769620Y398272D01*
X762000Y398272D02*
X754380Y398272D01*
X762000Y389382D02*
X769620Y389382D01*
D10*
X762000Y389382D02*
X762000Y378460D01*
D12*
X762000Y389382D02*
X754380Y389382D01*
D10*
X727710Y430530D02*
X796290Y430530D01*
X725170Y427990D02*
X725170Y359410D01*
X727710Y356870D02*
X796290Y356870D01*
X798830Y359410D02*
X798830Y427990D01*
X798830Y359410D02*
X798828Y359310D01*
X798822Y359211D01*
X798812Y359111D01*
X798799Y359013D01*
X798781Y358914D01*
X798760Y358817D01*
X798735Y358721D01*
X798706Y358625D01*
X798673Y358531D01*
X798637Y358438D01*
X798597Y358347D01*
X798553Y358257D01*
X798506Y358169D01*
X798456Y358083D01*
X798402Y357999D01*
X798345Y357917D01*
X798285Y357838D01*
X798221Y357760D01*
X798155Y357686D01*
X798086Y357614D01*
X798014Y357545D01*
X797940Y357479D01*
X797862Y357415D01*
X797783Y357355D01*
X797701Y357298D01*
X797617Y357244D01*
X797531Y357194D01*
X797443Y357147D01*
X797353Y357103D01*
X797262Y357063D01*
X797169Y357027D01*
X797075Y356994D01*
X796979Y356965D01*
X796883Y356940D01*
X796786Y356919D01*
X796687Y356901D01*
X796589Y356888D01*
X796489Y356878D01*
X796390Y356872D01*
X796290Y356870D01*
X727710Y356870D02*
X727610Y356872D01*
X727511Y356878D01*
X727411Y356888D01*
X727313Y356901D01*
X727214Y356919D01*
X727117Y356940D01*
X727021Y356965D01*
X726925Y356994D01*
X726831Y357027D01*
X726738Y357063D01*
X726647Y357103D01*
X726557Y357147D01*
X726469Y357194D01*
X726383Y357244D01*
X726299Y357298D01*
X726217Y357355D01*
X726138Y357415D01*
X726060Y357479D01*
X725986Y357545D01*
X725914Y357614D01*
X725845Y357686D01*
X725779Y357760D01*
X725715Y357838D01*
X725655Y357917D01*
X725598Y357999D01*
X725544Y358083D01*
X725494Y358169D01*
X725447Y358257D01*
X725403Y358347D01*
X725363Y358438D01*
X725327Y358531D01*
X725294Y358625D01*
X725265Y358721D01*
X725240Y358817D01*
X725219Y358914D01*
X725201Y359013D01*
X725188Y359111D01*
X725178Y359211D01*
X725172Y359310D01*
X725170Y359410D01*
X725170Y427990D02*
X725172Y428090D01*
X725178Y428189D01*
X725188Y428289D01*
X725201Y428387D01*
X725219Y428486D01*
X725240Y428583D01*
X725265Y428679D01*
X725294Y428775D01*
X725327Y428869D01*
X725363Y428962D01*
X725403Y429053D01*
X725447Y429143D01*
X725494Y429231D01*
X725544Y429317D01*
X725598Y429401D01*
X725655Y429483D01*
X725715Y429562D01*
X725779Y429640D01*
X725845Y429714D01*
X725914Y429786D01*
X725986Y429855D01*
X726060Y429921D01*
X726138Y429985D01*
X726217Y430045D01*
X726299Y430102D01*
X726383Y430156D01*
X726469Y430206D01*
X726557Y430253D01*
X726647Y430297D01*
X726738Y430337D01*
X726831Y430373D01*
X726925Y430406D01*
X727021Y430435D01*
X727117Y430460D01*
X727214Y430481D01*
X727313Y430499D01*
X727411Y430512D01*
X727511Y430522D01*
X727610Y430528D01*
X727710Y430530D01*
X796290Y430530D02*
X796390Y430528D01*
X796489Y430522D01*
X796589Y430512D01*
X796687Y430499D01*
X796786Y430481D01*
X796883Y430460D01*
X796979Y430435D01*
X797075Y430406D01*
X797169Y430373D01*
X797262Y430337D01*
X797353Y430297D01*
X797443Y430253D01*
X797531Y430206D01*
X797617Y430156D01*
X797701Y430102D01*
X797783Y430045D01*
X797862Y429985D01*
X797940Y429921D01*
X798014Y429855D01*
X798086Y429786D01*
X798155Y429714D01*
X798221Y429640D01*
X798285Y429562D01*
X798345Y429483D01*
X798402Y429401D01*
X798456Y429317D01*
X798506Y429231D01*
X798553Y429143D01*
X798597Y429053D01*
X798637Y428962D01*
X798673Y428869D01*
X798706Y428775D01*
X798735Y428679D01*
X798760Y428583D01*
X798781Y428486D01*
X798799Y428387D01*
X798812Y428289D01*
X798822Y428189D01*
X798828Y428090D01*
X798830Y427990D01*
D11*
X814705Y396203D02*
X814705Y393663D01*
X814703Y393563D01*
X814697Y393464D01*
X814687Y393364D01*
X814674Y393266D01*
X814656Y393167D01*
X814635Y393070D01*
X814610Y392974D01*
X814581Y392878D01*
X814548Y392784D01*
X814512Y392691D01*
X814472Y392600D01*
X814428Y392510D01*
X814381Y392422D01*
X814331Y392336D01*
X814277Y392252D01*
X814220Y392170D01*
X814160Y392091D01*
X814096Y392013D01*
X814030Y391939D01*
X813961Y391867D01*
X813889Y391798D01*
X813815Y391732D01*
X813737Y391668D01*
X813658Y391608D01*
X813576Y391551D01*
X813492Y391497D01*
X813406Y391447D01*
X813318Y391400D01*
X813228Y391356D01*
X813137Y391316D01*
X813044Y391280D01*
X812950Y391247D01*
X812854Y391218D01*
X812758Y391193D01*
X812661Y391172D01*
X812562Y391154D01*
X812464Y391141D01*
X812364Y391131D01*
X812265Y391125D01*
X812165Y391123D01*
X805815Y391123D01*
X805715Y391125D01*
X805616Y391131D01*
X805516Y391141D01*
X805418Y391154D01*
X805319Y391172D01*
X805222Y391193D01*
X805126Y391218D01*
X805030Y391247D01*
X804936Y391280D01*
X804843Y391316D01*
X804752Y391356D01*
X804662Y391400D01*
X804574Y391447D01*
X804488Y391497D01*
X804404Y391551D01*
X804322Y391608D01*
X804243Y391668D01*
X804165Y391732D01*
X804091Y391798D01*
X804019Y391867D01*
X803950Y391939D01*
X803884Y392013D01*
X803820Y392091D01*
X803760Y392170D01*
X803703Y392252D01*
X803649Y392336D01*
X803599Y392422D01*
X803552Y392510D01*
X803508Y392600D01*
X803468Y392691D01*
X803432Y392784D01*
X803399Y392878D01*
X803370Y392974D01*
X803345Y393070D01*
X803324Y393167D01*
X803306Y393266D01*
X803293Y393364D01*
X803283Y393464D01*
X803277Y393563D01*
X803275Y393663D01*
X803275Y396203D01*
X805815Y400685D02*
X803275Y403860D01*
X814705Y403860D01*
X814705Y400685D02*
X814705Y407035D01*
X814705Y412115D02*
X814705Y415290D01*
X814703Y415401D01*
X814697Y415511D01*
X814688Y415622D01*
X814674Y415732D01*
X814657Y415841D01*
X814636Y415950D01*
X814611Y416058D01*
X814582Y416165D01*
X814550Y416271D01*
X814514Y416376D01*
X814474Y416479D01*
X814431Y416581D01*
X814384Y416682D01*
X814333Y416781D01*
X814280Y416878D01*
X814223Y416972D01*
X814162Y417065D01*
X814099Y417156D01*
X814032Y417245D01*
X813962Y417331D01*
X813889Y417414D01*
X813814Y417496D01*
X813736Y417574D01*
X813654Y417649D01*
X813571Y417722D01*
X813485Y417792D01*
X813396Y417859D01*
X813305Y417922D01*
X813212Y417983D01*
X813118Y418040D01*
X813021Y418093D01*
X812922Y418144D01*
X812821Y418191D01*
X812719Y418234D01*
X812616Y418274D01*
X812511Y418310D01*
X812405Y418342D01*
X812298Y418371D01*
X812190Y418396D01*
X812081Y418417D01*
X811972Y418434D01*
X811862Y418448D01*
X811751Y418457D01*
X811641Y418463D01*
X811530Y418465D01*
X811419Y418463D01*
X811309Y418457D01*
X811198Y418448D01*
X811088Y418434D01*
X810979Y418417D01*
X810870Y418396D01*
X810762Y418371D01*
X810655Y418342D01*
X810549Y418310D01*
X810444Y418274D01*
X810341Y418234D01*
X810239Y418191D01*
X810138Y418144D01*
X810039Y418093D01*
X809943Y418040D01*
X809848Y417983D01*
X809755Y417922D01*
X809664Y417859D01*
X809575Y417792D01*
X809489Y417722D01*
X809406Y417649D01*
X809324Y417574D01*
X809246Y417496D01*
X809171Y417414D01*
X809098Y417331D01*
X809028Y417245D01*
X808961Y417156D01*
X808898Y417065D01*
X808837Y416972D01*
X808780Y416878D01*
X808727Y416781D01*
X808676Y416682D01*
X808629Y416581D01*
X808586Y416479D01*
X808546Y416376D01*
X808510Y416271D01*
X808478Y416165D01*
X808449Y416058D01*
X808424Y415950D01*
X808403Y415841D01*
X808386Y415732D01*
X808372Y415622D01*
X808363Y415511D01*
X808357Y415401D01*
X808355Y415290D01*
X803275Y415925D02*
X803275Y412115D01*
X803275Y415925D02*
X803277Y416025D01*
X803283Y416124D01*
X803293Y416224D01*
X803306Y416322D01*
X803324Y416421D01*
X803345Y416518D01*
X803370Y416614D01*
X803399Y416710D01*
X803432Y416804D01*
X803468Y416897D01*
X803508Y416988D01*
X803552Y417078D01*
X803599Y417166D01*
X803649Y417252D01*
X803703Y417336D01*
X803760Y417418D01*
X803820Y417497D01*
X803884Y417575D01*
X803950Y417649D01*
X804019Y417721D01*
X804091Y417790D01*
X804165Y417856D01*
X804243Y417920D01*
X804322Y417980D01*
X804404Y418037D01*
X804488Y418091D01*
X804574Y418141D01*
X804662Y418188D01*
X804752Y418232D01*
X804843Y418272D01*
X804936Y418308D01*
X805030Y418341D01*
X805126Y418370D01*
X805222Y418395D01*
X805319Y418416D01*
X805418Y418434D01*
X805516Y418447D01*
X805616Y418457D01*
X805715Y418463D01*
X805815Y418465D01*
X805915Y418463D01*
X806014Y418457D01*
X806114Y418447D01*
X806212Y418434D01*
X806311Y418416D01*
X806408Y418395D01*
X806504Y418370D01*
X806600Y418341D01*
X806694Y418308D01*
X806787Y418272D01*
X806878Y418232D01*
X806968Y418188D01*
X807056Y418141D01*
X807142Y418091D01*
X807226Y418037D01*
X807308Y417980D01*
X807387Y417920D01*
X807465Y417856D01*
X807539Y417790D01*
X807611Y417721D01*
X807680Y417649D01*
X807746Y417575D01*
X807810Y417497D01*
X807870Y417418D01*
X807927Y417336D01*
X807981Y417252D01*
X808031Y417166D01*
X808078Y417078D01*
X808122Y416988D01*
X808162Y416897D01*
X808198Y416804D01*
X808231Y416710D01*
X808260Y416614D01*
X808285Y416518D01*
X808306Y416421D01*
X808324Y416322D01*
X808337Y416224D01*
X808347Y416124D01*
X808353Y416025D01*
X808355Y415925D01*
X808355Y413385D01*
D10*
X800100Y307340D02*
X800100Y296672D01*
D12*
X807720Y296672D01*
X800100Y296672D02*
X792480Y296672D01*
X800100Y287782D02*
X807720Y287782D01*
D10*
X800100Y287782D02*
X800100Y276860D01*
D12*
X800100Y287782D02*
X792480Y287782D01*
D10*
X765810Y328930D02*
X834390Y328930D01*
X763270Y326390D02*
X763270Y257810D01*
X765810Y255270D02*
X834390Y255270D01*
X836930Y257810D02*
X836930Y326390D01*
X836930Y257810D02*
X836928Y257710D01*
X836922Y257611D01*
X836912Y257511D01*
X836899Y257413D01*
X836881Y257314D01*
X836860Y257217D01*
X836835Y257121D01*
X836806Y257025D01*
X836773Y256931D01*
X836737Y256838D01*
X836697Y256747D01*
X836653Y256657D01*
X836606Y256569D01*
X836556Y256483D01*
X836502Y256399D01*
X836445Y256317D01*
X836385Y256238D01*
X836321Y256160D01*
X836255Y256086D01*
X836186Y256014D01*
X836114Y255945D01*
X836040Y255879D01*
X835962Y255815D01*
X835883Y255755D01*
X835801Y255698D01*
X835717Y255644D01*
X835631Y255594D01*
X835543Y255547D01*
X835453Y255503D01*
X835362Y255463D01*
X835269Y255427D01*
X835175Y255394D01*
X835079Y255365D01*
X834983Y255340D01*
X834886Y255319D01*
X834787Y255301D01*
X834689Y255288D01*
X834589Y255278D01*
X834490Y255272D01*
X834390Y255270D01*
X765810Y255270D02*
X765710Y255272D01*
X765611Y255278D01*
X765511Y255288D01*
X765413Y255301D01*
X765314Y255319D01*
X765217Y255340D01*
X765121Y255365D01*
X765025Y255394D01*
X764931Y255427D01*
X764838Y255463D01*
X764747Y255503D01*
X764657Y255547D01*
X764569Y255594D01*
X764483Y255644D01*
X764399Y255698D01*
X764317Y255755D01*
X764238Y255815D01*
X764160Y255879D01*
X764086Y255945D01*
X764014Y256014D01*
X763945Y256086D01*
X763879Y256160D01*
X763815Y256238D01*
X763755Y256317D01*
X763698Y256399D01*
X763644Y256483D01*
X763594Y256569D01*
X763547Y256657D01*
X763503Y256747D01*
X763463Y256838D01*
X763427Y256931D01*
X763394Y257025D01*
X763365Y257121D01*
X763340Y257217D01*
X763319Y257314D01*
X763301Y257413D01*
X763288Y257511D01*
X763278Y257611D01*
X763272Y257710D01*
X763270Y257810D01*
X763270Y326390D02*
X763272Y326490D01*
X763278Y326589D01*
X763288Y326689D01*
X763301Y326787D01*
X763319Y326886D01*
X763340Y326983D01*
X763365Y327079D01*
X763394Y327175D01*
X763427Y327269D01*
X763463Y327362D01*
X763503Y327453D01*
X763547Y327543D01*
X763594Y327631D01*
X763644Y327717D01*
X763698Y327801D01*
X763755Y327883D01*
X763815Y327962D01*
X763879Y328040D01*
X763945Y328114D01*
X764014Y328186D01*
X764086Y328255D01*
X764160Y328321D01*
X764238Y328385D01*
X764317Y328445D01*
X764399Y328502D01*
X764483Y328556D01*
X764569Y328606D01*
X764657Y328653D01*
X764747Y328697D01*
X764838Y328737D01*
X764931Y328773D01*
X765025Y328806D01*
X765121Y328835D01*
X765217Y328860D01*
X765314Y328881D01*
X765413Y328899D01*
X765511Y328912D01*
X765611Y328922D01*
X765710Y328928D01*
X765810Y328930D01*
X834390Y328930D02*
X834490Y328928D01*
X834589Y328922D01*
X834689Y328912D01*
X834787Y328899D01*
X834886Y328881D01*
X834983Y328860D01*
X835079Y328835D01*
X835175Y328806D01*
X835269Y328773D01*
X835362Y328737D01*
X835453Y328697D01*
X835543Y328653D01*
X835631Y328606D01*
X835717Y328556D01*
X835801Y328502D01*
X835883Y328445D01*
X835962Y328385D01*
X836040Y328321D01*
X836114Y328255D01*
X836186Y328186D01*
X836255Y328114D01*
X836321Y328040D01*
X836385Y327962D01*
X836445Y327883D01*
X836502Y327801D01*
X836556Y327717D01*
X836606Y327631D01*
X836653Y327543D01*
X836697Y327453D01*
X836737Y327362D01*
X836773Y327269D01*
X836806Y327175D01*
X836835Y327079D01*
X836860Y326983D01*
X836881Y326886D01*
X836899Y326787D01*
X836912Y326689D01*
X836922Y326589D01*
X836928Y326490D01*
X836930Y326390D01*
D11*
X852805Y294603D02*
X852805Y292063D01*
X852803Y291963D01*
X852797Y291864D01*
X852787Y291764D01*
X852774Y291666D01*
X852756Y291567D01*
X852735Y291470D01*
X852710Y291374D01*
X852681Y291278D01*
X852648Y291184D01*
X852612Y291091D01*
X852572Y291000D01*
X852528Y290910D01*
X852481Y290822D01*
X852431Y290736D01*
X852377Y290652D01*
X852320Y290570D01*
X852260Y290491D01*
X852196Y290413D01*
X852130Y290339D01*
X852061Y290267D01*
X851989Y290198D01*
X851915Y290132D01*
X851837Y290068D01*
X851758Y290008D01*
X851676Y289951D01*
X851592Y289897D01*
X851506Y289847D01*
X851418Y289800D01*
X851328Y289756D01*
X851237Y289716D01*
X851144Y289680D01*
X851050Y289647D01*
X850954Y289618D01*
X850858Y289593D01*
X850761Y289572D01*
X850662Y289554D01*
X850564Y289541D01*
X850464Y289531D01*
X850365Y289525D01*
X850265Y289523D01*
X843915Y289523D01*
X843815Y289525D01*
X843716Y289531D01*
X843616Y289541D01*
X843518Y289554D01*
X843419Y289572D01*
X843322Y289593D01*
X843226Y289618D01*
X843130Y289647D01*
X843036Y289680D01*
X842943Y289716D01*
X842852Y289756D01*
X842762Y289800D01*
X842674Y289847D01*
X842588Y289897D01*
X842504Y289951D01*
X842422Y290008D01*
X842343Y290068D01*
X842265Y290132D01*
X842191Y290198D01*
X842119Y290267D01*
X842050Y290339D01*
X841984Y290413D01*
X841920Y290491D01*
X841860Y290570D01*
X841803Y290652D01*
X841749Y290736D01*
X841699Y290822D01*
X841652Y290910D01*
X841608Y291000D01*
X841568Y291091D01*
X841532Y291184D01*
X841499Y291278D01*
X841470Y291374D01*
X841445Y291470D01*
X841424Y291567D01*
X841406Y291666D01*
X841393Y291764D01*
X841383Y291864D01*
X841377Y291963D01*
X841375Y292063D01*
X841375Y294603D01*
X843915Y299085D02*
X841375Y302260D01*
X852805Y302260D01*
X852805Y299085D02*
X852805Y305435D01*
X850265Y310515D02*
X841375Y313055D01*
X850265Y310515D02*
X850265Y316865D01*
X847725Y314960D02*
X852805Y314960D01*
M02*
